<svg width="58" height="41" viewBox="0 0 58 41" fill="none" xmlns="http://www.w3.org/2000/svg">
<g clip-path="url(#clip0_829_7656)">
<path d="M57.6517 0.462891H0.223145V7.39618H57.6517V0.462891Z" fill="#009966"/>
<path d="M57.6517 33.5293H0.223145V40.4627H57.6517V33.5293Z" fill="#009966"/>
<path d="M57.6517 9.396H0.223145V31.5293H57.6517V9.396Z" fill="#000099"/>
<path d="M57.6517 7.396H0.223145V9.39602H57.6517V7.396Z" fill="black"/>
<path d="M0.223145 33.5298H57.6517V31.5298H0.223145V33.5298Z" fill="black"/>
<path d="M28.937 23.0637L26.5737 24.8615L27.4709 21.9452L25.1133 20.1394L28.0308 20.1352L28.937 17.2217L29.8427 20.1352L32.7601 20.1394L30.4024 21.9452L31.2999 24.8615L28.937 23.0637Z" fill="white"/>
<path d="M36.1814 27.3699C36.2071 27.3041 36.2291 27.2415 36.2563 27.1809C36.5888 26.4405 36.8968 25.6903 37.1643 24.9226C37.5751 23.7415 37.894 22.5369 38.0774 21.2979C38.16 20.7391 38.2045 20.1756 38.2097 19.6116C38.2211 18.351 38.04 17.1229 37.5711 15.9455C37.0568 14.6553 36.3514 13.668 35.3143 12.7597C34.4968 12.0438 33.5837 11.4779 32.6094 11.0085C31.8237 10.6299 30.8191 10.1943 29.9223 9.9624L28.9377 14.2151L27.9533 9.9624C27.0565 10.1943 26.052 10.6299 25.2662 11.0085C24.292 11.4779 23.3789 12.0438 22.5615 12.7597C21.5242 13.668 20.8183 14.6549 20.3046 15.9455C19.8357 17.1229 19.6542 18.3515 19.6658 19.6116C19.6709 20.1756 19.7157 20.7391 19.7983 21.2979C19.9812 22.5373 20.2999 23.742 20.7114 24.9226C20.9788 25.6898 21.2867 26.44 21.6194 27.1809C21.6465 27.2411 21.6684 27.3041 21.6941 27.3699C21.6413 27.425 17.9077 30.9733 17.9077 30.9733L24.7651 28.4382L24.7675 19.2875C24.7675 19.2875 24.7983 19.2109 24.8664 19.1149C25.255 18.5651 25.7081 18.0787 26.2577 17.6897C26.9609 17.192 27.7186 16.8905 28.5417 16.8233C28.6723 16.8125 28.8048 16.8077 28.9388 16.8091C29.0725 16.8077 29.2051 16.8129 29.3357 16.8233C30.1588 16.8905 30.9165 17.192 31.6197 17.6897C32.1688 18.0787 32.622 18.5651 33.0111 19.1149C33.0791 19.2109 33.11 19.2875 33.11 19.2875L33.1123 28.4382L39.9697 30.9733C39.9697 30.9733 36.2343 27.4255 36.1814 27.3699Z" fill="white"/>
</g>
<defs>
<clipPath id="clip0_829_7656">
<rect width="57.1429" height="40" fill="white" transform="translate(0.222656 0.462891)"/>
</clipPath>
</defs>
</svg>
