<svg width="800" height="421" viewBox="0 0 800 421" fill="none" xmlns="http://www.w3.org/2000/svg">
<mask id="mask0_818_25131" style="mask-type:luminance" maskUnits="userSpaceOnUse" x="0" y="0" width="800" height="421">
<path d="M800 0.165405H0V420.165H800V0.165405Z" fill="white"/>
</mask>
<g mask="url(#mask0_818_25131)">
<path d="M402 384C485.103 384 648.019 424.37 697.738 400.5C747.458 376.63 732.868 303.111 758.515 283.786C784.161 264.46 800 232.334 800 203.5C800 174.666 802.745 106.25 784.5 84.9999C766.255 63.7497 723.495 67.7181 688 52.4999C652.505 37.2817 606.726 47.3536 554.6 38.7384C502.475 30.1232 449.12 22.9999 402 22.9999C354.88 22.9999 317.537 25.7074 277.361 32.7248C237.185 39.7422 172.577 17.5296 129 32.7248C85.4231 47.9199 57.1513 75.3994 31.5351 99.4999C5.91893 123.6 4 175.555 4 203.5C4 231.445 11.432 266.302 31.5351 287.792C51.6381 309.281 88.2436 371.613 122.5 386.5C156.756 401.387 208.664 392.179 259.5 400.5C310.336 408.82 318.897 384 402 384Z" fill="#C5E7FF"/>
<g opacity="0.4">
<path d="M360.393 186.505C370.333 186.505 378.393 194.485 378.393 204.335C378.393 214.185 370.333 222.165 360.393 222.165C354.973 222.165 336.843 222.165 330.623 222.165C317.243 222.165 306.393 211.415 306.393 198.165C306.393 184.915 317.243 174.165 330.623 174.165C340.423 174.165 348.863 179.925 352.683 188.225C355.023 187.125 357.633 186.505 360.393 186.505Z" fill="#FDF7F5"/>
</g>
<g opacity="0.373333">
<path d="M311.45 101.165C306.07 101.165 301.71 96.8154 301.71 91.4554C301.71 86.0854 306.07 81.7354 311.45 81.7354C312.51 81.7354 313.53 81.9054 314.49 82.2154C315.46 73.7454 322.67 67.1654 331.43 67.1654C340.85 67.1654 348.48 74.7754 348.48 84.1654C348.48 84.2254 348.48 84.2754 348.48 84.3354C349.03 84.2254 349.6 84.1654 350.18 84.1654C354.89 84.1654 358.71 87.9754 358.71 92.6654C358.71 97.3554 354.89 101.165 350.18 101.165C347.01 101.165 314.96 101.165 311.45 101.165Z" fill="#FDF7F5"/>
</g>
<g filter="url(#filter0_d_818_25131)">
<path d="M214 226.405V157.925L161.84 226.405H214ZM118 268.645V217.445L204.4 104.165H264.56V226.405H297.84V268.645H264.56V311.845H214V268.645H118Z" fill="black"/>
</g>
<g filter="url(#filter1_d_818_25131)">
<path d="M604.14 226.405V157.925L551.98 226.405H604.14ZM508.14 268.645V217.445L594.54 104.165H654.7V226.405H687.98V268.645H654.7V311.845H604.14V268.645H508.14Z" fill="black"/>
</g>
<g filter="url(#filter2_d_818_25131)">
<path d="M376.362 320.859C375.922 320.841 375.509 320.572 375.329 320.141L329.296 207.056C329.05 206.46 329.339 205.779 329.926 205.542C330.521 205.296 331.203 205.585 331.44 206.18L377.482 319.266C377.719 319.852 377.439 320.534 376.843 320.78C376.687 320.837 376.515 320.866 376.362 320.859Z" fill="black"/>
<path d="M402.281 350.203L383.883 349.446C380.034 349.287 376.924 346.268 376.659 342.42L375.189 321.227C375.143 320.595 375.626 320.038 376.267 319.993C376.899 319.946 377.456 320.429 377.502 321.07L378.972 342.254C379.159 344.928 381.307 347.016 383.978 347.126L402.377 347.883C404.832 347.984 406.93 346.233 407.273 343.806L410.464 320.985C410.479 320.86 410.519 320.744 410.578 320.63L462.496 217.583C462.781 217.009 463.484 216.777 464.058 217.071C464.622 217.355 464.855 218.049 464.57 218.623L412.731 321.502L409.575 344.126C409.066 347.744 405.932 350.353 402.281 350.203Z" fill="black"/>
<path d="M393.583 330.868C383.062 330.436 374.978 326.149 375.186 321.104C375.393 316.059 383.802 312.451 394.323 312.883C394.961 312.91 395.462 313.453 395.435 314.091C395.409 314.73 394.866 315.23 394.228 315.204C386.449 314.883 377.667 317.269 377.506 321.199C377.344 325.129 385.9 328.228 393.678 328.548C401.457 328.868 410.229 326.482 410.391 322.552C410.47 320.628 408.116 318.531 404.239 317.084C403.635 316.861 403.33 316.191 403.553 315.587C403.776 314.984 404.445 314.687 405.049 314.91C410.044 316.773 412.837 319.599 412.711 322.648C412.504 327.693 404.104 331.301 393.583 330.868Z" fill="black"/>
<path d="M389.321 314.999C388.772 314.976 388.303 314.561 388.218 313.999L380.023 252.643C379.941 252.009 380.389 251.424 381.023 251.342C381.648 251.26 382.242 251.699 382.324 252.342L390.519 313.688C390.61 314.322 390.162 314.907 389.528 314.989C389.456 315.004 389.393 315.002 389.321 314.999Z" fill="black"/>
<path d="M396.646 330.875C396.601 330.873 396.556 330.862 396.511 330.86C395.876 330.762 395.45 330.168 395.548 329.532L407.471 253.44C407.569 252.804 408.163 252.378 408.798 252.476C409.434 252.574 409.86 253.169 409.762 253.804L397.839 329.888C397.743 330.478 397.23 330.899 396.646 330.875Z" fill="black"/>
<path d="M383.556 108.399C406.496 102.343 431.627 106.463 450.194 124.226L451.073 125.082C466.294 140.159 474.201 161.424 474.075 182.429L474.063 183.429C473.617 208.493 459.207 229.841 439.107 242.51C419.319 254.983 394.113 258.982 371.473 249.88L370.398 249.436L370.397 249.436C359.486 244.836 349.729 237.657 342.265 228.471L341.55 227.576C325.761 207.455 320.355 179.765 329.483 155.703L329.928 154.56C339.289 131.199 360.241 114.554 383.556 108.399Z" fill="#007DAB" stroke="black" stroke-width="2"/>
<path d="M377.837 124.373C376.911 124.335 376.061 123.75 375.739 122.818C375.32 121.612 375.951 120.287 377.167 119.859C380.704 118.618 384.391 117.68 388.118 117.067C389.388 116.867 390.578 117.718 390.787 118.988C390.996 120.257 390.136 121.447 388.866 121.656C385.402 122.225 381.979 123.093 378.698 124.246C378.415 124.343 378.125 124.385 377.837 124.373Z" fill="white"/>
<path d="M341.963 208.503C341.118 208.468 340.319 207.967 339.939 207.141C337.619 202.001 335.969 196.556 335.056 190.942C330.983 166.021 341.935 140.899 362.966 126.929C364.031 126.216 365.47 126.509 366.182 127.584C366.886 128.649 366.601 130.087 365.527 130.799C346.015 143.76 335.859 167.069 339.636 190.185C340.485 195.399 342.015 200.461 344.17 205.225C344.698 206.391 344.183 207.766 343.017 208.294C342.668 208.451 342.314 208.518 341.963 208.503Z" fill="white"/>
</g>
</g>
<defs>
<filter id="filter0_d_818_25131" x="118" y="104.165" width="187.84" height="214.68" filterUnits="userSpaceOnUse" color-interpolation-filters="sRGB">
<feFlood flood-opacity="0" result="BackgroundImageFix"/>
<feColorMatrix in="SourceAlpha" type="matrix" values="0 0 0 0 0 0 0 0 0 0 0 0 0 0 0 0 0 0 127 0" result="hardAlpha"/>
<feOffset dx="7" dy="6"/>
<feGaussianBlur stdDeviation="0.5"/>
<feColorMatrix type="matrix" values="0 0 0 0 0.788235 0 0 0 0 0.780392 0 0 0 0 0.741176 0 0 0 1 0"/>
<feBlend mode="multiply" in2="BackgroundImageFix" result="effect1_dropShadow_818_25131"/>
<feBlend mode="normal" in="SourceGraphic" in2="effect1_dropShadow_818_25131" result="shape"/>
</filter>
<filter id="filter1_d_818_25131" x="508.14" y="104.165" width="187.84" height="214.68" filterUnits="userSpaceOnUse" color-interpolation-filters="sRGB">
<feFlood flood-opacity="0" result="BackgroundImageFix"/>
<feColorMatrix in="SourceAlpha" type="matrix" values="0 0 0 0 0 0 0 0 0 0 0 0 0 0 0 0 0 0 127 0" result="hardAlpha"/>
<feOffset dx="7" dy="6"/>
<feGaussianBlur stdDeviation="0.5"/>
<feColorMatrix type="matrix" values="0 0 0 0 0.788235 0 0 0 0 0.780392 0 0 0 0 0.741176 0 0 0 1 0"/>
<feBlend mode="multiply" in2="BackgroundImageFix" result="effect1_dropShadow_818_25131"/>
<feBlend mode="normal" in="SourceGraphic" in2="effect1_dropShadow_818_25131" result="shape"/>
</filter>
<filter id="filter2_d_818_25131" x="324.045" y="104.781" width="159.031" height="252.428" filterUnits="userSpaceOnUse" color-interpolation-filters="sRGB">
<feFlood flood-opacity="0" result="BackgroundImageFix"/>
<feColorMatrix in="SourceAlpha" type="matrix" values="0 0 0 0 0 0 0 0 0 0 0 0 0 0 0 0 0 0 127 0" result="hardAlpha"/>
<feOffset dx="7" dy="6"/>
<feGaussianBlur stdDeviation="0.5"/>
<feColorMatrix type="matrix" values="0 0 0 0 0.788235 0 0 0 0 0.780392 0 0 0 0 0.741176 0 0 0 1 0"/>
<feBlend mode="multiply" in2="BackgroundImageFix" result="effect1_dropShadow_818_25131"/>
<feBlend mode="normal" in="SourceGraphic" in2="effect1_dropShadow_818_25131" result="shape"/>
</filter>
</defs>
</svg>
