<svg width="236" height="137" viewBox="0 0 236 137" fill="none" xmlns="http://www.w3.org/2000/svg">
<g clip-path="url(#clip0_632_6213)">
<g clip-path="url(#clip1_632_6213)">
<path d="M94.2988 96.8633C99.852 96.5689 105.34 97.9482 109.91 100.782V100.781C120.258 107.202 126.434 116.27 127.259 125.879L127.294 126.337L128.267 140.753H49.0625L55.6543 119.794L55.6533 119.793C57.6444 113.48 61.8872 107.627 67.9258 102.818C71.9272 99.6388 77.1382 97.9111 82.5195 97.9111H82.5635L82.6084 97.9072L94.2988 96.8633Z" fill="white" stroke="black" stroke-width="2"/>
<path d="M91.9758 33.7495C91.9758 33.7495 70.1973 46.9182 63.0414 57.0946C55.8854 67.271 56.323 77.1369 72.0463 77.9979C72.0463 77.9979 75.2079 76.0643 74.4599 81.9499C73.6977 88.0614 72.8085 94.0036 72.8085 94.0036C72.8085 94.0036 72.5262 100.835 77.9885 102.148C88.8706 104.759 98.9482 96.8405 96.1395 96.6006C96.1395 96.6006 95.4197 89.1059 97.2686 84.18C99.1317 79.24 101.884 74.2859 101.884 74.2859L106.965 73.7072C106.965 73.7072 113.415 72.5639 114.276 63.3473C115.137 54.1165 113.204 34.1306 91.9758 33.7495Z" fill="white"/>
<path d="M76.098 48.104C75.5758 48.7533 74.7854 48.965 74.3337 48.598C73.868 48.2311 73.9244 47.4124 74.4325 46.7632C74.9548 46.1139 75.7452 45.9022 76.1968 46.2692C76.6485 46.6502 76.6062 47.4689 76.098 48.104Z" fill="black"/>
<path d="M85.8793 54.6812C85.3571 55.3304 84.5667 55.5421 84.115 55.1752C83.6492 54.8082 83.7057 53.9896 84.2138 53.3403C84.736 52.6911 85.5264 52.4793 85.9781 52.8463C86.4297 53.2274 86.3874 54.046 85.8793 54.6812Z" fill="black"/>
<path d="M85.9492 48.5416C85.9492 48.5416 90.8751 47.7371 91.849 52.0843" stroke="black" stroke-width="2" stroke-miterlimit="10" stroke-linecap="round" stroke-linejoin="round"/>
<path d="M73.6699 42.67C73.6699 42.67 78.5958 41.8655 79.5697 46.2127" stroke="black" stroke-width="2" stroke-miterlimit="10" stroke-linecap="round" stroke-linejoin="round"/>
<path d="M84.2835 37.2783C84.2835 37.2783 64.1706 53.7639 60.642 61.0045C57.1135 68.2452 54.6152 84.2367 90.4092 75.3305" stroke="black" stroke-width="2" stroke-miterlimit="10" stroke-linecap="round" stroke-linejoin="round"/>
<path d="M79.0747 49.1626C77.141 51.1668 75.1933 53.1711 73.2596 55.1753C73.2596 55.1753 71.6647 57.1513 74.2758 58.4498" stroke="black" stroke-width="2" stroke-miterlimit="10" stroke-linecap="round" stroke-linejoin="round"/>
<path d="M68.8008 62.5146C68.8008 62.5146 71.8495 66.6078 78.7373 64.5612" stroke="black" stroke-width="2" stroke-miterlimit="10" stroke-linecap="round" stroke-linejoin="round"/>
<path d="M95.5332 60.5104C95.5332 60.5104 105.851 51.2091 103.578 46.622C101.306 42.0348 88.3491 39.9459 86.5283 40.5104C84.7076 41.0891 86.4295 38.1251 86.4295 38.1251L79.457 39.1414C79.457 39.1414 81.7577 30.9409 87.6998 30.0094C93.6419 29.0778 91.3554 30.207 91.3554 30.207C91.3554 30.207 91.6942 24.5613 100.05 26.2409C108.406 27.9064 118.878 36.1491 119.782 39.3954C120.685 42.6417 124.284 54.2719 121.574 61.3714C118.864 68.4568 112.428 67.2571 112.428 67.2571C112.428 67.2571 113.656 62.1618 106.895 60.8774C100.135 59.593 98.9913 64.3637 98.9913 64.3637L95.5332 60.5104Z" fill="black"/>
<path d="M101.049 67.9345C101.049 67.9345 101.938 64.55 104.549 64.1266C107.343 63.6749 109.388 65.7293 109.049 67.1266" stroke="black" stroke-width="2" stroke-miterlimit="10" stroke-linecap="round" stroke-linejoin="round"/>
<path d="M113.614 66.5371C113.614 66.5371 111.356 73.2555 106.966 73.6931C101.673 74.2153 101.885 74.2718 101.885 74.2718C101.885 74.2718 94.4607 83.7142 96.4226 96.0784L96.4508 98.3367C96.4508 98.3367 72.6964 111.181 72.7952 92.6627C72.8376 86.0572 74.0796 77.9415 74.0796 77.9415" stroke="black" stroke-width="2" stroke-miterlimit="10" stroke-linecap="round" stroke-linejoin="round"/>
<path d="M107.289 141.752H186.061L185.059 121.032C184.396 107.426 178.171 94.6809 167.84 85.7888L160.768 79.7056L133.824 81.7521C123.817 89.1198 116.802 99.8467 114.05 111.971L107.289 141.752Z" fill="white" stroke="black" stroke-width="2" stroke-miterlimit="10" stroke-linecap="round" stroke-linejoin="round"/>
<path d="M139.132 91.5596L134.598 103.486L134.513 103.71L134.538 103.947L135.766 115.451C136.342 120.859 136.452 126.304 136.095 131.728L136.018 132.812L135.341 141.573L121.704 141.414C122.154 130.059 124.64 118.881 129.046 108.414L129.491 107.374V107.372L131.087 103.688L131.209 103.406L131.151 103.104L129.587 94.9141L131.195 89.46L135.028 89.2588L139.132 91.5596Z" fill="#007DAB" stroke="black" stroke-width="2"/>
<path d="M162.448 87.5395L132.765 89.5296L131.721 61.428L157.818 60.4541L162.448 87.5395Z" fill="white" stroke="black" stroke-width="2" stroke-miterlimit="10" stroke-linecap="round" stroke-linejoin="round"/>
<path d="M147.147 25.7186C147.147 25.7186 134.797 36.262 131.523 35.0199C128.248 33.7779 120.288 29.0354 122.292 23.0369C124.296 17.0383 126.202 19.099 128.883 19.72C131.565 20.3551 132.384 13.8484 134.134 13.9896C135.884 14.1307 137.62 15.3163 140.767 18.0122C143.901 20.7362 147.147 25.7186 147.147 25.7186Z" fill="black"/>
<path d="M151.551 70.8281C157.521 68.838 162.814 64.5614 166.046 58.4499C172.567 46.1139 168.022 31.2798 156.237 24.6884C136.886 13.8909 124.635 29.8401 123.322 33.7357C123.012 34.6531 122.715 35.5282 122.419 36.3892C121.755 37.7583 121.219 39.1697 120.81 40.5811C119.525 43.5169 118.086 45.6341 116.067 46.3539C112.976 47.4689 115.009 71.548 133.005 69.5155" fill="white"/>
<path d="M151.551 70.8281C157.521 68.838 162.814 64.5614 166.046 58.4499C172.567 46.1139 168.022 31.2798 156.237 24.6884C136.886 13.8909 124.635 29.8401 123.322 33.7357C123.012 34.6531 122.715 35.5282 122.419 36.3892C121.755 37.7583 121.219 39.1697 120.81 40.5811C119.525 43.5169 118.086 45.6341 116.067 46.3539C112.976 47.4689 115.009 71.548 133.005 69.5155" stroke="black" stroke-width="2" stroke-miterlimit="10" stroke-linecap="round" stroke-linejoin="round"/>
<path d="M160.542 20.4115C152.567 16.1913 143.35 16.5865 135.785 20.6374C138.156 21.1737 140.499 21.9923 142.729 23.1779C157.874 31.1949 162.856 51.5054 153.837 68.5555C153.343 69.5011 152.793 70.4186 152.228 71.3078C160.005 69.7411 167.119 64.7305 171.184 57.0241C178.255 43.6578 173.499 27.257 160.542 20.4115Z" fill="black"/>
<path d="M139.92 34.5116C140.739 30.8136 145.467 31.2512 142.277 29.4586C136.251 26.0712 134.049 18.9576 134.049 18.9576C148.714 14.7797 164.253 36.544 164.253 36.544L160.894 65.9442L158.664 72.7896L151.226 72.2533C148.756 72.0698 146.695 70.3196 146.131 67.9061L143.195 55.3161C143.308 55.3867 143.421 55.4572 143.534 55.5278C146.385 57.038 149.927 55.9512 151.438 53.1001C152.948 50.2491 151.861 46.7064 149.01 45.1961C146.159 43.6859 142.616 44.7727 141.106 47.6238C141.092 47.6379 141.092 47.652 141.078 47.6661C140.273 47.3838 138.452 46.5652 139.059 45.0973C139.85 43.2483 139.102 38.2095 139.92 34.5116Z" fill="black"/>
<path d="M123.364 55.3584C123.364 55.3584 122.249 57.4614 120.047 57.7296" stroke="black" stroke-width="2" stroke-miterlimit="10" stroke-linecap="round" stroke-linejoin="round"/>
<path d="M143.646 50.249C143.646 50.249 144.423 48.0049 146.568 47.3979" stroke="black" stroke-width="2" stroke-miterlimit="10" stroke-linecap="round" stroke-linejoin="round"/>
<path d="M124.832 34.1586C128.205 33.1706 130.802 36.6286 130.591 38.3788" stroke="black" stroke-width="2" stroke-miterlimit="10" stroke-linecap="round" stroke-linejoin="round"/>
<path d="M125.284 42.4581C124.861 43.0792 124.141 43.3332 123.703 43.0227C123.252 42.7122 123.237 41.9641 123.661 41.3431C124.084 40.7221 124.804 40.468 125.242 40.7785C125.679 41.089 125.707 41.8371 125.284 42.4581Z" fill="black"/>
<path d="M132.016 68.9363L132.354 77.9272C136.123 76.2476 139.397 73.3259 141.472 69.388C142.305 67.8072 142.898 66.1699 143.251 64.5186C140.075 67.1862 136.109 68.7105 132.016 68.9363Z" fill="black"/>
<path d="M132.06 79.0845L122.914 105.45L134.77 94.3562L139.047 108.682L168.913 86.6498L160.825 76.3887L135.659 87.5108L132.06 79.0845Z" fill="white" stroke="black" stroke-width="2" stroke-miterlimit="10" stroke-linecap="round" stroke-linejoin="round"/>
<path d="M96.5234 90.5332C97.0966 89.7874 98.2531 90.0982 98.418 90.9365V90.9355L99.1377 94.6455C99.7568 97.8424 98.5344 101.112 95.9395 103.187L93.7314 104.947C89.5312 108.104 84.6059 109.677 79.6426 109.462H79.6436L76.5947 109.321C74.6759 109.232 72.8684 108.158 71.7041 106.327L71.4795 105.951L71.2783 105.592L71.8027 93.752V93.751C71.8043 93.7158 71.8139 93.6973 71.8242 93.6836C71.8378 93.6657 71.8634 93.6436 71.9004 93.6289C71.9371 93.6144 71.9727 93.6118 72 93.6162C72.0113 93.6181 72.0238 93.6214 72.0371 93.6279L72.0801 93.6592L72.084 93.6621C72.3185 93.881 72.93 94.5703 73.8408 95.1836C74.7846 95.819 76.0829 96.4144 77.8848 96.6602C81.4643 97.1484 86.9207 96.2459 95.4443 91.7988L95.6436 91.6953L95.7793 91.5166L96.5234 90.5332Z" fill="white" stroke="black" stroke-width="2"/>
<path d="M173.655 43.7488C174.783 41.7585 175.485 39.6415 175.773 37.5079C176.684 31.076 174.038 24.5365 168.55 21.1266C164.942 18.8874 160.774 18.4361 156.947 19.5034" fill="#A6F6DE"/>
<path d="M173.655 43.7488C174.783 41.7585 175.485 39.6415 175.773 37.5079C176.684 31.076 174.038 24.5365 168.55 21.1266C164.942 18.8874 160.774 18.4361 156.947 19.5034C160.878 29.6636 164.447 34.9973 173.655 43.7488Z" fill="#A6F6DE"/>
<path d="M173.655 43.7488C174.783 41.7585 175.485 39.6415 175.773 37.5079C176.684 31.076 174.038 24.5365 168.55 21.1266C164.942 18.8874 160.774 18.4361 156.947 19.5034C160.878 29.6636 164.447 34.9973 173.655 43.7488Z" stroke="black" stroke-width="2" stroke-miterlimit="10"/>
</g>
</g>
<defs>
<clipPath id="clip0_632_6213">
<rect width="193" height="136" fill="white" transform="translate(22.5 0.165039)"/>
</clipPath>
<clipPath id="clip1_632_6213">
<rect width="180" height="147.989" fill="white" transform="translate(47.6992 -5.41748)"/>
</clipPath>
</defs>
</svg>
