<svg width="190" height="127" viewBox="0 0 190 127" fill="none" xmlns="http://www.w3.org/2000/svg">
<g clip-path="url(#clip0_1526_4994)">
<path d="M24.7254 95.6493L29.5264 94.2523L36.2491 117.356L31.4481 118.753L24.7254 95.6493Z" fill="white" stroke="black" stroke-width="2" stroke-miterlimit="10" stroke-linecap="round" stroke-linejoin="round"/>
<path d="M41.2585 118.485C38.7522 115.76 37.3508 112.207 37.3028 108.505L37.2746 106.369L31.6687 106.463C29.5136 106.504 27.4723 105.533 26.1422 103.84C25.6624 103.222 25.9283 102.312 26.6653 102.065L35.8338 98.8465C39.4176 97.589 43.3892 99.0306 45.3166 102.291L49.004 108.528L65.7413 140.757C65.7413 140.757 66.1791 156.791 50.9088 156.89L38.1887 129.111L34.7917 129.841C31.5704 131.207 27.9577 131.344 24.6591 130.222L22.9098 129.696L17.2707 114.475L30.4626 107.664" fill="white"/>
<path d="M41.2585 118.485C38.7522 115.76 37.3508 112.207 37.3028 108.505L37.2746 106.369L31.6687 106.463C29.5136 106.504 27.4723 105.533 26.1422 103.84C25.6624 103.222 25.9283 102.312 26.6653 102.065L35.8338 98.8465C39.4176 97.589 43.3892 99.0306 45.3166 102.291L49.004 108.528L65.7413 140.757C65.7413 140.757 66.1791 156.791 50.9088 156.89L38.1887 129.111L34.7917 129.841C31.5704 131.207 27.9577 131.344 24.6591 130.222L22.9098 129.696L17.2707 114.475L30.4626 107.664" stroke="black" stroke-width="2" stroke-miterlimit="10" stroke-linecap="round" stroke-linejoin="round"/>
<path d="M29.2347 121.246L29.2353 121.247C29.9134 123.565 32.3425 124.899 34.6564 124.222L36.4625 123.694L36.4654 123.694C38.7853 123.024 40.1251 120.582 39.4478 118.267L39.4475 118.265L33.8108 98.8534L23.5835 101.833L29.2347 121.246Z" fill="#7FD0FF" stroke="black" stroke-width="2"/>
<path d="M25.259 95.9539C17.7172 97.7239 8.97323 87.9518 5.72871 74.1273C2.48419 60.3028 5.96778 47.661 13.5095 45.891C21.0513 44.121 29.7952 53.8931 33.0398 67.7176C36.2843 81.5421 32.8007 94.1839 25.259 95.9539Z" fill="white" stroke="black" stroke-width="2" stroke-miterlimit="10" stroke-linecap="round" stroke-linejoin="round"/>
<path d="M24.5092 92.6307C18.4028 94.0638 11.2135 85.6852 8.45148 73.9164C5.68943 62.1476 8.40053 51.4454 14.5069 50.0123C20.6133 48.5791 27.8026 56.9578 30.5646 68.7266C33.3267 80.4953 30.6156 91.1976 24.5092 92.6307Z" fill="white" stroke="black" stroke-width="2" stroke-miterlimit="10" stroke-linecap="round" stroke-linejoin="round"/>
<path d="M49.0515 108.577L45.3448 102.312C43.411 99.0428 39.433 97.5918 35.8428 98.84L26.6679 102.05C25.928 102.312 25.6621 103.222 26.1512 103.833C27.4814 105.527 29.529 106.507 31.6905 106.476L37.2842 106.403L37.3124 108.539C37.3668 112.251 38.781 115.823 41.2937 118.557" fill="white"/>
<path d="M49.0515 108.577L45.3448 102.312C43.411 99.0428 39.433 97.5918 35.8428 98.84L26.6679 102.05C25.928 102.312 25.6621 103.222 26.1512 103.833C27.4814 105.527 29.529 106.507 31.6905 106.476L37.2842 106.403L37.3124 108.539C37.3668 112.251 38.781 115.823 41.2937 118.557" stroke="black" stroke-width="2" stroke-miterlimit="10" stroke-linecap="round" stroke-linejoin="round"/>
<path d="M19.7509 119.058C20.5058 118.538 21.0426 117.702 21.1506 116.721C21.3318 115.169 23.1738 113.036 23.9851 112.3C25.3415 111.078 25.4427 108.99 24.2181 107.649C22.9964 106.293 20.9083 106.191 19.5676 107.416C19.1092 107.827 15.1099 111.554 14.6035 115.967C14.3915 117.775 15.6832 119.412 17.4906 119.624C18.3296 119.706 19.1172 119.494 19.7509 119.058Z" fill="white" stroke="black" stroke-width="2" stroke-miterlimit="10" stroke-linecap="round" stroke-linejoin="round"/>
<path d="M23.0449 124.385C23.7997 123.865 24.3366 123.029 24.4446 122.048C24.6228 120.511 26.4369 118.398 27.2884 117.62C28.6291 116.395 28.7302 114.307 27.5056 112.966C26.2811 111.626 24.2023 111.518 22.8615 112.743C22.4032 113.154 18.4038 116.881 17.8975 121.294C17.6855 123.101 18.9772 124.739 20.7845 124.951C21.6206 125.049 22.4018 124.827 23.0449 124.385Z" fill="white" stroke="black" stroke-width="2" stroke-miterlimit="10" stroke-linecap="round" stroke-linejoin="round"/>
<path d="M27.5637 127.139C27.7449 125.586 29.5869 123.454 30.3982 122.717C31.7546 121.495 31.8558 119.407 30.6312 118.067C29.4095 116.71 27.3214 116.609 25.9807 117.834C25.5223 118.245 21.5229 121.972 21.0166 126.385C20.8046 128.192 22.0963 129.83 23.9037 130.042" fill="white"/>
<path d="M27.5637 127.139C27.7449 125.586 29.5869 123.454 30.3982 122.717C31.7546 121.495 31.8558 119.407 30.6312 118.067C29.4095 116.71 27.3214 116.609 25.9807 117.834C25.5223 118.245 21.5229 121.972 21.0166 126.385C20.8046 128.192 22.0963 129.83 23.9037 130.042" stroke="black" stroke-width="2" stroke-miterlimit="10" stroke-linecap="round" stroke-linejoin="round"/>
<path d="M100.719 29.2724C91.6073 27.7824 82.782 31.1635 76.7646 37.5247C79.2289 37.2381 81.7504 37.2955 84.3293 37.7539C101.636 40.562 113.098 58.6139 109.946 78.0412C109.774 79.1301 109.545 80.1616 109.315 81.1932C116.364 77.1816 121.579 70.0182 123.012 61.2501C125.476 46.0062 115.505 31.7366 100.719 29.2724Z" fill="black"/>
<path d="M98.4805 34.2244C101.744 33.4154 105.536 33.1452 109.248 33.991V33.9919C115.657 35.4628 120.764 39.8848 124.378 47.3699L124.724 48.1042C127.087 53.2999 132.208 55.3958 137.672 56.1218C143.143 56.8488 149.25 56.2458 153.981 55.7898L153.987 55.7888C156.231 55.5587 158.128 55.3923 159.387 55.3923C162.043 55.4482 164.495 57.181 166.041 60.5935V60.5945C168.953 67.0009 168.198 78.2005 159.451 88.7156L159.031 89.2126C156.348 92.3195 151.229 97.4127 146.326 101.568C143.874 103.647 141.504 105.466 139.541 106.681C138.557 107.291 137.709 107.727 137.024 107.974C136.297 108.237 135.936 108.218 135.814 108.177H135.813C135.376 108.02 134.861 107.94 134.285 107.895C133.693 107.849 132.973 107.836 132.108 107.836C131.316 107.836 130.314 107.835 129.134 107.95C125.11 108.007 119.841 108.087 115.188 107.381C112.857 107.026 110.733 106.483 109.024 105.67C107.319 104.858 106.096 103.813 105.44 102.49C104.61 100.806 104.625 98.5003 105.78 95.4343C106.932 92.3755 109.17 88.6995 112.55 84.4109L112.552 84.408C113.707 82.9316 114.296 81.2828 114.012 79.5076C113.668 77.1478 112.012 75.0312 109.797 72.9978C107.557 70.9411 104.562 68.8105 101.284 66.4734L101.279 66.4695L98.708 64.6492C92.8871 60.4865 86.9369 55.8424 83.1104 50.1404L82.6943 49.5017C82.5707 49.2941 82.4719 48.9007 82.5967 48.2234C82.7226 47.5401 83.0631 46.6548 83.6982 45.5837C84.9675 43.4435 87.328 40.7042 91.0869 37.5671L91.0859 37.5662C92.5476 36.3679 95.2066 35.0359 98.4805 34.2244Z" stroke="black" stroke-width="2"/>
<path d="M85.132 30.1893C92.3528 26.3496 117.511 22.9685 123.471 48.5277C126.451 61.25 151.322 59.5881 158.944 60.8489C170.75 62.7973 171.495 84.9181 151.15 100.391C145.305 104.804 122.898 119.245 118.027 116.781C113.155 114.26 59.7447 114.947 97.4532 84.0012C107.195 76.0354 79.3439 62.8546 71.7793 43.9431C70.4612 40.7912 75.2751 35.4616 85.132 30.1893Z" fill="black"/>
<path d="M185.782 98.5685C185.806 84.864 174.715 73.7353 161.01 73.7119C147.306 73.6886 136.177 84.7793 136.154 98.4839C136.13 112.188 147.221 123.317 160.926 123.34C174.63 123.364 185.759 112.273 185.782 98.5685Z" fill="black"/>
<path d="M140.494 94.833C140.516 81.6809 151.196 71.0367 164.349 71.0592C177.501 71.0817 188.145 81.7622 188.122 94.9143C188.1 108.066 177.419 118.71 164.267 118.688C151.115 118.666 140.471 107.985 140.494 94.833Z" stroke="black" stroke-width="2"/>
<path d="M136.293 126.007C147.028 122.094 152.557 110.22 148.644 99.4852C144.731 88.7508 132.856 83.2211 122.122 87.1344C111.388 91.0477 105.858 102.922 109.771 113.657C113.685 124.391 125.559 129.921 136.293 126.007Z" fill="black"/>
<path d="M91.75 84.0333C94.2989 83.3219 96.9003 82.7737 98.6982 82.8907C99.5567 82.9466 100.564 83.1724 101.134 83.964C101.754 84.8253 101.55 85.8873 101.094 86.84C99.464 90.2424 97.1085 95.6296 96.2178 100.292C95.7698 102.637 95.721 104.66 96.209 106.126C96.447 106.841 96.8053 107.401 97.291 107.816C97.7756 108.229 98.4409 108.545 99.3682 108.687C101.607 109.028 103.302 109.582 104.597 110.419C105.915 111.271 106.753 112.373 107.349 113.68C107.929 114.953 108.285 116.441 108.641 118.059C109.002 119.702 109.373 121.527 109.978 123.608L110.138 124.2C110.516 125.698 110.924 127.976 111.325 130.734L111.491 131.874L110.34 131.879L50.625 132.108L49.1797 132.113L49.6836 130.759C51.4633 125.976 53.4566 121.842 55.7559 119.356L55.9795 119.12C60.8941 114.058 67.008 111.441 72.0811 109.258C74.6477 108.153 76.9097 107.177 78.709 106.059C80.5011 104.945 81.7142 103.761 82.3027 102.308C83.5878 99.1343 83.1817 95.895 82.4092 93.3859C82.025 92.138 81.5571 91.0937 81.1855 90.3634C81.0001 89.9989 80.8397 89.7141 80.7275 89.5236C80.6716 89.4285 80.6275 89.3569 80.5986 89.3107C80.5843 89.2878 80.5739 89.2711 80.5674 89.2609C80.5641 89.2558 80.5617 89.2519 80.5605 89.2501L79.8936 88.2384L81.0137 87.7755H81.0146C81.0154 87.7752 81.0171 87.7742 81.0186 87.7736C81.0215 87.7724 81.0258 87.7709 81.0312 87.7687C81.0424 87.7641 81.0588 87.7569 81.0801 87.7482C81.1228 87.7307 81.1862 87.7059 81.2676 87.673C81.4307 87.607 81.6686 87.5107 81.9697 87.3917C82.572 87.1538 83.428 86.8221 84.4443 86.4454C86.4738 85.6933 89.1586 84.7566 91.75 84.0333Z" fill="white" stroke="black" stroke-width="2"/>
<path d="M88.6543 107.049C94.2116 106.806 99.6967 107.926 104.25 110.218C114.556 115.411 120.582 122.684 121.384 130.265L121.418 130.627L122.365 142.017H43.9111L50.3291 125.446C52.2768 120.432 56.4474 115.737 62.4453 111.859C66.4191 109.295 71.616 107.892 76.999 107.892H77.0352L77.0713 107.889L88.6543 107.049Z" fill="white" stroke="black" stroke-width="2"/>
<path d="M87.7744 35.3042C84.2583 40.1424 83.757 43.6304 85.2295 46.1616C86.7776 48.8226 90.7442 50.9343 97.4795 52.3042C100.847 52.9892 103.044 53.5479 104.377 54.1372C105.043 54.4316 105.611 54.7819 105.986 55.2583C106.405 55.7896 106.512 56.3833 106.42 56.9644C106.338 57.4822 106.099 57.9854 105.865 58.4253C105.743 58.6546 105.606 58.8952 105.469 59.1362C105.33 59.3813 105.187 59.6329 105.043 59.8999C104.472 60.9579 103.892 62.2401 103.657 63.9106L103.656 63.9175C103.403 65.6354 103.297 67.0418 103.344 68.1421C103.357 68.4641 103.385 68.7497 103.422 69.0024C105.234 67.3837 107.605 66.3813 110.232 66.3813C111.455 66.3814 112.613 66.6175 113.702 67.022C114.299 67.0664 114.785 67.3041 115.176 67.6538C118.292 69.3882 120.349 72.6722 120.286 76.5103C120.277 82.0979 115.765 86.6059 110.175 86.606C107.389 86.606 104.873 85.4767 103.048 83.6421C101.824 85.6782 100.227 87.998 97.3623 89.7349C93.9106 91.8275 88.7688 93.0026 80.5088 92.2173C75.1365 91.7063 71.1032 90.4149 68.21 88.4722C65.2931 86.5135 63.584 83.9241 62.834 80.9448C61.3585 75.083 63.6284 67.8564 67.0742 61.0151C70.5479 54.1186 75.3427 47.3724 79.252 42.3657C81.2094 39.8589 82.9507 37.7797 84.2041 36.3267C84.8308 35.6001 85.3365 35.0298 85.6855 34.6401C85.8601 34.4453 85.9956 34.2952 86.0879 34.1938C86.1339 34.1433 86.1693 34.1048 86.1934 34.0786C86.2054 34.0655 86.2144 34.0552 86.2207 34.0483C86.2237 34.0451 86.2259 34.0423 86.2275 34.0405L86.2295 34.0386C86.23 34.038 86.2307 34.0375 86.9648 34.7163L86.2305 34.0376L87.7744 35.3042Z" fill="white" stroke="black" stroke-width="2"/>
<path d="M75.4324 58.7304C74.9953 59.7969 74.1198 60.2838 73.4841 59.8485C72.8318 59.4163 72.6713 58.2066 73.0917 57.1433C73.5288 56.0767 74.4043 55.5898 75.04 56.0252C75.6795 56.4811 75.8567 57.6877 75.4324 58.7304Z" fill="black"/>
<path d="M89.2676 64.2939C88.6856 65.3433 87.6005 65.8554 86.8512 65.4669C86.0816 65.0823 85.9462 63.9241 86.5078 62.8786C87.0898 61.8292 88.1749 61.3172 88.9242 61.7057C89.6772 62.1138 89.8329 63.2681 89.2676 64.2939Z" fill="black"/>
<path d="M87.7242 56.4829C87.7242 56.4829 93.2579 54.2959 95.5185 60.01" stroke="black" stroke-width="2" stroke-miterlimit="10" stroke-linecap="round" stroke-linejoin="round"/>
<path d="M70.6967 52.5729C70.6967 52.5729 77.0924 50.4496 79.2901 54.9471" stroke="black" stroke-width="2" stroke-miterlimit="10" stroke-linecap="round" stroke-linejoin="round"/>
<path d="M79.0531 59.0633C77.1225 62.0656 75.1743 65.0712 73.2438 68.0735C73.2438 68.0735 71.7292 70.9597 75.301 71.9896" stroke="black" stroke-width="2" stroke-miterlimit="10" stroke-linecap="round" stroke-linejoin="round"/>
<path d="M69.4512 78.1891C69.4512 78.1891 74.2438 82.0507 82.6602 78.0679" stroke="black" stroke-width="2" stroke-miterlimit="10" stroke-linecap="round" stroke-linejoin="round"/>
<path d="M153.674 22.2503C154.496 22.4541 154.675 23.4579 154.114 23.9741C148.77 28.8911 145.438 31.9885 139.814 37.6853L137.251 40.2989C136.749 40.8136 135.803 40.669 135.562 39.8936L128.658 17.6302C128.425 16.8792 129.102 16.1618 129.865 16.3508L153.674 22.2503Z" stroke="black" stroke-width="2"/>
<path d="M125.513 31.7842C124.792 31.6054 124.517 30.7476 124.955 30.1861L125.052 30.0784L141.939 13.71C142.48 13.1856 143.384 13.4177 143.607 14.1373L150.494 36.3953C150.726 37.1465 150.049 37.8636 149.286 37.6747L125.513 31.7842Z" stroke="black" stroke-width="2"/>
</g>
<defs>
<clipPath id="clip0_1526_4994">
<rect width="189" height="142" fill="white" transform="translate(0.451172 0.417358)"/>
</clipPath>
</defs>
</svg>
