<svg width="236" height="137" viewBox="0 0 236 137" fill="none" xmlns="http://www.w3.org/2000/svg">
<g clip-path="url(#clip0_632_6889)">
<path d="M202.181 138.175H119.829C117.549 138.175 115.693 136.316 115.693 134.032V90.7349C115.693 88.4505 117.549 86.5911 119.829 86.5911H127.147V63.9067L140.351 86.5911H202.181C204.461 86.5911 206.317 88.4505 206.317 90.7349V134.032C206.317 136.316 204.461 138.175 202.181 138.175Z" fill="white" stroke="black" stroke-width="2" stroke-miterlimit="10" stroke-linecap="round" stroke-linejoin="round"/>
<mask id="path-3-inside-1_632_6889" fill="white">
<path d="M64.4976 23.778C76.1977 12.0564 95.1676 12.0565 106.868 23.778C108.575 25.4882 110.031 27.3548 111.24 29.3298L115.692 27.9411L131.017 23.1598L119.881 34.7409L115.169 39.6862C116.839 49.0271 114.073 59.0075 106.868 66.2262C95.1676 77.9478 76.1977 77.9479 64.4976 66.2262C52.7977 54.5046 52.7977 35.4997 64.4976 23.778Z"/>
</mask>
<path d="M64.4976 23.778C76.1977 12.0564 95.1676 12.0565 106.868 23.778C108.575 25.4882 110.031 27.3548 111.24 29.3298L115.692 27.9411L131.017 23.1598L119.881 34.7409L115.169 39.6862C116.839 49.0271 114.073 59.0075 106.868 66.2262C95.1676 77.9478 76.1977 77.9479 64.4976 66.2262C52.7977 54.5046 52.7977 35.4997 64.4976 23.778Z" fill="white"/>
<path d="M64.4976 23.778L63.0821 22.3651L63.0821 22.3651L64.4976 23.778ZM106.868 23.778L108.283 22.3651L108.283 22.3651L106.868 23.778ZM111.24 29.3298L109.534 30.3739L110.348 31.7031L111.835 31.239L111.24 29.3298ZM115.692 27.9411L116.287 29.8504L116.288 29.8503L115.692 27.9411ZM131.017 23.1598L132.459 24.5461L130.422 21.2506L131.017 23.1598ZM119.881 34.7409L118.44 33.3547L118.433 33.3613L119.881 34.7409ZM115.169 39.6862L113.722 38.3066L113.022 39.0404L113.201 40.0381L115.169 39.6862ZM106.868 66.2262L108.283 67.6392L108.283 67.6392L106.868 66.2262ZM64.4976 66.2262L63.0821 67.6392L63.0821 67.6392L64.4976 66.2262ZM64.4976 23.778L65.9131 25.1909C76.8319 14.2521 94.5334 14.2522 105.452 25.1909L106.868 23.778L108.283 22.3651C95.8017 9.86081 75.5636 9.86065 63.0821 22.3651L64.4976 23.778ZM106.868 23.778L105.452 25.1909C107.047 26.7882 108.406 28.5306 109.534 30.3739L111.24 29.3298L112.946 28.2856C111.656 26.1789 110.103 24.1882 108.283 22.3651L106.868 23.778ZM111.24 29.3298L111.835 31.239L116.287 29.8504L115.692 27.9411L115.096 26.0318L110.644 27.4205L111.24 29.3298ZM115.692 27.9411L116.288 29.8503L131.613 25.0691L131.017 23.1598L130.422 21.2506L115.096 26.0319L115.692 27.9411ZM131.017 23.1598L129.575 21.7736L118.44 33.3547L119.881 34.7409L121.323 36.1271L132.459 24.5461L131.017 23.1598ZM119.881 34.7409L118.433 33.3613L113.722 38.3066L115.169 39.6862L116.617 41.0658L121.329 36.1205L119.881 34.7409ZM115.169 39.6862L113.201 40.0381C114.76 48.7642 112.176 58.0773 105.452 64.8133L106.868 66.2262L108.283 67.6392C115.971 59.9378 118.918 49.29 117.138 39.3344L115.169 39.6862ZM106.868 66.2262L105.452 64.8133C94.5334 75.7521 76.8319 75.7522 65.9131 64.8133L64.4976 66.2262L63.0821 67.6392C75.5636 80.1436 95.8017 80.1434 108.283 67.6392L106.868 66.2262ZM64.4976 66.2262L65.9131 64.8133C54.9925 53.8724 54.9925 36.1318 65.9131 25.1909L64.4976 23.778L63.0821 22.3651C50.6029 34.8675 50.6028 55.1367 63.0821 67.6392L64.4976 66.2262Z" fill="black" mask="url(#path-3-inside-1_632_6889)"/>
<path d="M57.3633 57.5845C60.651 56.2033 64.4689 55.9377 68.0748 57.0533L97.7701 66.1908C100.103 66.8814 101.959 68.5814 102.914 70.8127" stroke="black" stroke-width="2" stroke-miterlimit="10" stroke-linecap="round" stroke-linejoin="round"/>
<path d="M136.32 137.963C139.714 138.494 160.872 137.804 199.105 137.591C196.347 134.032 190.408 129.516 186.961 126.86C181.606 122.716 182.083 118.891 186.961 109.754C191.84 100.616 197.514 96.6318 191.098 86.7505C185.954 78.7818 169.091 75.3286 162.993 76.1255C143.108 78.6755 137.487 100.457 138.6 106.779C139.661 113.101 147.827 114.269 145.441 120.751C143.903 124.841 139.237 131.163 136.32 137.963Z" fill="black"/>
<path d="M194.545 137.803C191.628 132.013 186.007 127.922 175.879 125.744C155.092 121.228 143.214 129.357 138.336 137.485C137.646 138.441 174.076 137.113 194.545 137.803Z" fill="white"/>
<path d="M87.1631 56.6816L81.3831 54.5566C74.7547 52.1129 71.3079 44.6222 73.8002 37.9816L74.6487 35.6973C77.7242 27.3566 87.0571 23.0535 95.3293 26.1348L95.1172 28.6848C100.314 30.5972 103.018 36.441 101.109 41.7004L97.2383 52.0066C95.7535 56.0972 91.1932 58.1691 87.1631 56.6816Z" fill="black"/>
<path d="M100.632 51.0918C105.075 45.0416 103.475 36.3031 97.0587 31.5739C90.6422 26.8446 81.839 27.9154 77.3961 33.9656C72.9532 40.0158 74.5532 48.7542 80.9696 53.4835C87.3861 58.2127 96.1894 57.1419 100.632 51.0918Z" fill="black"/>
<path d="M84.9375 41.9661C86.8995 37.7692 91.3008 35.0067 95.702 35.4848C98.4595 35.8036 100.687 37.3442 102.012 39.5223C100.899 38.8848 97.7701 37.2379 95.8081 38.6723C93.4219 40.4786 90.1342 44.8348 84.9375 41.9661Z" fill="black"/>
<path d="M108.374 42.816C107.155 46.1628 103.443 47.8628 100.049 46.641C96.6554 45.4191 95.0115 41.7003 96.2312 38.3003C97.4508 34.9535 101.163 33.2535 104.556 34.4753C107.897 35.6972 109.594 39.4691 108.374 42.816Z" fill="black"/>
<path d="M92.2017 27.1441C85.3611 25.5504 78.2024 29.1629 75.498 35.8035C76.6116 37.3441 78.2024 38.566 80.1114 39.3098C85.149 41.1691 90.6639 38.7785 92.4668 33.9973C93.3152 31.6598 93.1562 29.216 92.2017 27.1441Z" fill="black"/>
<path d="M99.466 34.5818C98.2464 37.9287 94.5345 39.6287 91.1407 38.4068C87.8 37.1849 86.1031 33.4662 87.3228 30.0662C88.5424 26.6662 92.2543 25.0193 95.6481 26.2412C98.9888 27.5162 100.686 31.2349 99.466 34.5818Z" fill="black"/>
<path d="M101.639 41.6424C105.207 40.8194 107.433 37.2549 106.611 33.6809C105.79 30.1069 102.232 27.8768 98.6645 28.6998C95.097 29.5228 92.871 33.0872 93.6925 36.6612C94.514 40.2352 98.0719 42.4654 101.639 41.6424Z" fill="black"/>
<path d="M80.916 25.5874C80.916 25.5874 83.9268 26.9214 83.7677 29.0464" stroke="black" stroke-width="2" stroke-miterlimit="10" stroke-linecap="round" stroke-linejoin="round"/>
<path d="M83.8733 25.1152C83.8733 25.1152 82.8127 27.2934 84.0854 28.9934" stroke="black" stroke-width="2" stroke-miterlimit="10" stroke-linecap="round" stroke-linejoin="round"/>
<path d="M104.291 49.0848L104.662 46.7473C105.564 41.2223 101.746 36.6005 96.1778 36.4411C91.5645 35.6973 87.1632 38.1942 85.3603 42.338C83.5573 41.7005 81.5423 42.3911 80.5348 44.0911C79.6333 45.5786 79.8454 47.3848 80.7999 48.6598L70.3535 58.1161L76.7698 69.538C78.4137 72.4598 82.3907 72.938 84.7239 70.5473L88.9661 64.8098C89.7615 65.1817 90.61 65.4473 91.5114 65.6067C96.9732 66.5098 102.117 62.7911 103.018 57.3192L103.655 53.4942C104.768 53.5473 105.723 52.8036 105.935 51.688C106.094 50.413 105.352 49.3505 104.291 49.0848Z" fill="white" stroke="black" stroke-width="2" stroke-miterlimit="10" stroke-linecap="round" stroke-linejoin="round"/>
<path d="M81.808 49.6162C79.899 48.4475 79.2627 46.0037 80.4293 44.0381" stroke="black" stroke-width="1.125" stroke-miterlimit="10" stroke-linecap="round" stroke-linejoin="round"/>
<path d="M83.7441 45.4204C83.7441 45.4204 84.6721 45.8439 83.9828 47.3846" stroke="black" stroke-width="2" stroke-miterlimit="10" stroke-linecap="round" stroke-linejoin="round"/>
<path d="M100.952 53.9721C100.952 53.9721 99.0426 54.3439 98.4062 51.7939" stroke="black" stroke-width="2" stroke-miterlimit="10" stroke-linecap="round" stroke-linejoin="round"/>
<path d="M102.595 44.5895C102.666 45.0919 101.668 45.5943 100.384 45.8097C99.1006 46.025 97.9597 45.8096 97.8884 45.3072C97.8171 44.8048 98.8154 44.3024 100.099 44.087C101.454 43.8717 102.523 44.087 102.595 44.5895Z" fill="black"/>
<path d="M92.8376 35.963C88.8075 34.6349 84.3002 36.388 82.2852 40.213C82.8685 41.1692 83.7699 42.0192 84.8835 42.5505C87.8 43.9317 91.2468 42.8161 92.5725 40.0536C93.2618 38.7255 93.3148 37.2911 92.8376 35.963Z" fill="black"/>
<path d="M89.0728 64.81C85.1487 62.9506 82.8155 58.6475 83.5049 54.1318" stroke="black" stroke-width="2" stroke-miterlimit="10" stroke-linecap="round" stroke-linejoin="round"/>
<path d="M83.8751 57.5846C83.7691 57.1596 83.716 56.7346 83.663 56.3096C82.2843 60.7721 83.3979 65.4471 86.2613 68.7939L88.8067 65.2877C86.3674 63.4283 84.5645 60.7721 83.8751 57.5846Z" fill="black"/>
<path d="M101.959 49.0849C101.959 49.0849 99.8906 50.1474 97.7695 47.7036" stroke="black" stroke-width="2" stroke-miterlimit="10" stroke-linecap="round" stroke-linejoin="round"/>
<path d="M200.168 53.3772L172.503 57.5314C170.541 57.8501 168.579 58.4876 166.829 59.3908C165.079 60.2939 150.497 67.8908 150.497 67.8908" fill="white"/>
<path fill-rule="evenodd" clip-rule="evenodd" d="M197.727 17.1035H142.154C139.821 17.1035 137.965 18.9629 138.071 21.2473V64.5441C138.071 66.8285 139.927 68.6879 142.207 68.6879H163.402L150.497 67.8908C150.497 67.8908 165.079 60.2939 166.829 59.3908C168.579 58.4876 170.541 57.8501 172.503 57.5314L200.168 53.3772H201.863V21.2473C201.863 18.9629 200.007 17.1035 197.727 17.1035Z" fill="white"/>
<path d="M197.727 68.6879C200.007 68.6879 201.863 66.8285 201.863 64.5441V53.3772H200.168L172.503 57.5314C170.541 57.8501 168.579 58.4876 166.829 59.3908C165.079 60.2939 150.497 67.8908 150.497 67.8908L163.402 68.6879H177.205L190.409 79.3129V68.6879H197.727Z" fill="#7FD0FF"/>
<path d="M177.205 68.6879L190.409 79.3129V68.6879H197.727C200.007 68.6879 201.863 66.8285 201.863 64.5441V53.3772M177.205 68.6879H142.207M177.205 68.6879H163.402M142.207 68.6879C139.927 68.6879 138.071 66.8285 138.071 64.5441V21.2473C137.965 18.9629 139.821 17.1035 142.154 17.1035H197.727C200.007 17.1035 201.863 18.9629 201.863 21.2473V53.3772M142.207 68.6879H163.402M198.754 68.7482H191.683H190.741M163.402 68.6879L150.497 67.8908C150.497 67.8908 165.079 60.2939 166.829 59.3908C168.579 58.4876 170.541 57.8501 172.503 57.5314L200.168 53.3772H201.863" stroke="black" stroke-width="2" stroke-miterlimit="10" stroke-linecap="round" stroke-linejoin="round"/>
<path d="M175.613 105.132L177.575 127.497C174.976 130.207 171.848 131.801 168.454 131.96C165.06 132.066 161.826 130.685 159.068 128.135L158.379 107.257" fill="white"/>
<path d="M175.613 105.132L177.575 127.497C174.976 130.207 171.848 131.801 168.454 131.96C165.06 132.066 161.826 130.685 159.068 128.135L158.379 107.257" stroke="black" stroke-width="2" stroke-miterlimit="10" stroke-linecap="round" stroke-linejoin="round"/>
<path d="M169.039 106.672C167.183 110.019 168.456 114.269 171.797 116.075C175.137 117.935 179.38 116.66 181.183 113.313C183.039 109.966 181.766 105.716 178.425 103.91C175.084 102.05 170.842 103.272 169.039 106.672Z" fill="white"/>
<path d="M162.303 111.347C162.303 111.347 149.046 112.676 147.35 106.141C146.554 103.166 148.622 98.2787 152.069 92.86C152.175 92.6475 149.046 91.9568 150.637 90.31C155.728 85.1568 164.159 79.8443 171.212 78.5693C171.212 78.5693 164.53 99.2881 172.962 104.919" fill="white"/>
<path d="M162.303 111.347C162.303 111.347 149.046 112.676 147.35 106.141C146.554 103.166 148.622 98.2787 152.069 92.86C152.175 92.6475 149.046 91.9568 150.637 90.31C155.728 85.1568 164.159 79.8443 171.212 78.5693C171.212 78.5693 164.53 99.2881 172.962 104.919" stroke="black" stroke-width="2" stroke-miterlimit="10" stroke-linecap="round" stroke-linejoin="round"/>
<path d="M170.204 79.3662C165.697 86.9631 165.06 96.685 168.507 104.813" stroke="black" stroke-width="2" stroke-miterlimit="10" stroke-linecap="round" stroke-linejoin="round"/>
<path d="M178.69 108.691C176.728 108.16 174.607 109.647 173.6 111.188" stroke="black" stroke-width="2" stroke-miterlimit="10" stroke-linecap="round" stroke-linejoin="round"/>
<path d="M161.35 99.9787L154.191 99.0225C154.191 99.0225 157.373 109.594 161.35 99.9787Z" stroke="black" stroke-width="2" stroke-miterlimit="10" stroke-linecap="round" stroke-linejoin="round"/>
<path d="M159.705 88.769C158.857 89.3002 158.485 90.2033 158.857 90.7877C159.228 91.3721 160.235 91.4252 161.031 90.9471C161.826 90.469 162.25 89.5127 161.879 88.9283C161.508 88.2908 160.553 88.2377 159.705 88.769Z" fill="black"/>
<path d="M164.583 89.3006C164.583 88.3443 164.371 87.3881 164 86.5381" stroke="black" stroke-width="2" stroke-miterlimit="10" stroke-linecap="round" stroke-linejoin="round"/>
<mask id="path-38-inside-2_632_6889" fill="white">
<path d="M80.458 83.6689C82.7381 83.6689 84.5946 85.5283 84.5947 87.8125V95.5791L108.881 109.807L84.5947 109.219V135.679C84.5946 137.963 82.7381 139.822 80.458 139.822H38.0361C35.7562 139.822 33.9005 137.963 33.9004 135.679V87.8125C33.9006 85.5284 35.7562 83.6691 38.0361 83.6689H80.458Z"/>
</mask>
<path d="M80.458 83.6689C82.7381 83.6689 84.5946 85.5283 84.5947 87.8125V95.5791L108.881 109.807L84.5947 109.219V135.679C84.5946 137.963 82.7381 139.822 80.458 139.822H38.0361C35.7562 139.822 33.9005 137.963 33.9004 135.679V87.8125C33.9006 85.5284 35.7562 83.6691 38.0361 83.6689H80.458Z" fill="white"/>
<path d="M84.5947 87.8125H86.5947V87.8124L84.5947 87.8125ZM84.5947 95.5791H82.5947V96.7254L83.5838 97.3048L84.5947 95.5791ZM108.881 109.807L108.832 111.806L116.57 111.993L109.892 108.081L108.881 109.807ZM84.5947 109.219L84.6431 107.219L82.5947 107.17V109.219H84.5947ZM84.5947 135.679L86.5947 135.679V135.679H84.5947ZM38.0361 139.822L38.036 141.822H38.0361V139.822ZM33.9004 135.679H31.9004V135.679L33.9004 135.679ZM33.9004 87.8125L31.9004 87.8124V87.8125H33.9004ZM38.0361 83.6689V81.6689H38.036L38.0361 83.6689ZM80.458 83.6689V85.6689C81.6304 85.6689 82.5946 86.6297 82.5947 87.8126L84.5947 87.8125L86.5947 87.8124C86.5945 84.4268 83.8458 81.6689 80.458 81.6689V83.6689ZM84.5947 87.8125H82.5947V95.5791H84.5947H86.5947V87.8125H84.5947ZM84.5947 95.5791L83.5838 97.3048L107.87 111.532L108.881 109.807L109.892 108.081L85.6057 93.8534L84.5947 95.5791ZM108.881 109.807L108.929 107.807L84.6431 107.219L84.5947 109.219L84.5463 111.218L108.832 111.806L108.881 109.807ZM84.5947 109.219H82.5947V135.679H84.5947H86.5947V109.219H84.5947ZM84.5947 135.679L82.5947 135.679C82.5946 136.861 81.6304 137.822 80.458 137.822V139.822V141.822C83.8458 141.822 86.5945 139.064 86.5947 135.679L84.5947 135.679ZM80.458 139.822V137.822H38.0361V139.822V141.822H80.458V139.822ZM38.0361 139.822L38.0363 137.822C36.8644 137.822 35.9005 136.862 35.9004 135.679L33.9004 135.679L31.9004 135.679C31.9006 139.064 34.648 141.822 38.036 141.822L38.0361 139.822ZM33.9004 135.679H35.9004V87.8125H33.9004H31.9004V135.679H33.9004ZM33.9004 87.8125L35.9004 87.8126C35.9005 86.6294 36.8644 85.669 38.0363 85.6689L38.0361 83.6689L38.036 81.6689C34.648 81.6692 31.9006 84.4274 31.9004 87.8124L33.9004 87.8125ZM38.0361 83.6689V85.6689H80.458V83.6689V81.6689H38.0361V83.6689Z" fill="black" mask="url(#path-38-inside-2_632_6889)"/>
<path d="M34.6426 138.228C35.0668 137.219 35.544 136.21 36.0213 135.147C39.6802 127.125 46.4677 120.963 54.793 118.094L63.7016 115.013C63.7016 115.013 79.6356 114.749 85.6277 121.07" fill="white"/>
<path d="M34.6426 138.228C35.0668 137.219 35.544 136.21 36.0213 135.147C39.6802 127.125 46.4677 120.963 54.793 118.094L63.7016 115.013C63.7016 115.013 79.6356 114.749 85.6277 121.07" stroke="black" stroke-width="2" stroke-miterlimit="10" stroke-linecap="round" stroke-linejoin="round"/>
<path d="M75.71 139.875L69.877 139.928C69.877 139.928 70.0891 134.244 75.3918 132.491C80.6945 130.738 89.2319 129.622 91.3 133.978C93.3681 138.281 98.4587 144.391 94.9589 144.391C92.3605 144.444 87.2699 137.166 87.2699 137.166L88.2774 148.428C88.2774 148.428 86.3154 149.172 84.5655 148.747C83.8231 148.588 82.5505 148.216 81.1187 147.631C79.1037 146.835 77.1417 145.506 75.71 139.875Z" fill="white"/>
<path d="M69.7188 139.981C70.5142 137.112 72.105 133.447 75.3927 132.491C81.0136 130.844 88.8616 129.675 91.3009 133.978L96.1264 142.903C96.3915 143.434 96.1794 144.072 95.5961 144.284C94.3765 144.709 92.9978 144.337 92.1493 143.328L86.8996 136.847" stroke="black" stroke-width="1.125" stroke-miterlimit="10" stroke-linecap="round" stroke-linejoin="round"/>
<path d="M86.528 133.979L88.331 148.482C88.331 148.482 86.1568 149.916 84.9902 148.322" stroke="black" stroke-width="1.125" stroke-miterlimit="10" stroke-linecap="round" stroke-linejoin="round"/>
<path d="M82.3914 134.35L84.9367 149.013C84.9367 149.013 82.1793 149.278 81.543 147.684C80.9066 146.144 78.3613 135.625 78.3613 135.625" stroke="black" stroke-width="1.125" stroke-miterlimit="10" stroke-linecap="round" stroke-linejoin="round"/>
<path d="M47.9385 79.4189C48.3876 79.6166 49.0375 79.9068 49.8359 80.2744C51.4334 81.0099 53.6232 82.0552 55.9941 83.2939C60.6299 85.7159 65.8167 88.8067 68.6943 91.7217L68.9658 92.0039C70.3956 93.5266 71.4892 95.008 72.1787 96.3857C72.8702 97.7674 73.1237 98.9802 72.9775 100.005C72.704 101.922 70.869 103.842 65.6367 104.885L65.6074 104.89L65.5791 104.897L65.8232 105.832C65.5968 104.966 65.5791 104.903 65.5771 104.898H65.5752C65.5742 104.899 65.5733 104.899 65.5723 104.899C65.5699 104.9 65.5671 104.901 65.5645 104.901C65.5591 104.903 65.5531 104.904 65.5469 104.906C65.5344 104.91 65.52 104.915 65.5039 104.92C65.4716 104.93 65.432 104.944 65.3867 104.962C65.2965 104.998 65.1812 105.051 65.0527 105.127C64.7946 105.28 64.4781 105.53 64.209 105.923C63.684 106.689 63.4593 107.809 63.8232 109.378L63.9043 109.697C64.4528 111.712 64.8851 113.707 65.1807 115.2C65.3283 115.946 65.4416 116.565 65.5176 116.997C65.5556 117.213 65.5844 117.382 65.6035 117.496C65.613 117.553 65.6203 117.596 65.625 117.625C65.6273 117.639 65.6287 117.65 65.6299 117.657C65.6304 117.66 65.6306 117.663 65.6309 117.665L65.6318 117.667L65.6348 117.688L65.6387 117.708V117.71C65.6397 117.715 65.6421 117.725 65.6445 117.739C65.6494 117.767 65.6565 117.812 65.665 117.87C65.6823 117.989 65.7049 118.164 65.7207 118.38C65.7527 118.815 65.7578 119.392 65.6641 119.983C65.4877 121.096 65.0061 122.09 63.834 122.524L63.5898 122.604L63.5811 122.606C60.7712 123.429 57.8659 123.348 55.5469 122.996C54.3923 122.821 53.3978 122.58 52.6533 122.36C52.3262 122.264 52.051 122.171 51.834 122.092C51.8259 121.959 51.8187 121.809 51.8066 121.643C51.7583 120.975 51.6755 120.051 51.5361 119.022C51.2802 117.134 50.8181 114.76 49.9609 113.013L49.7842 112.672C48.8864 111.037 47.8317 109.425 47.0068 108.229C46.5932 107.63 46.2349 107.131 45.9795 106.781C45.8517 106.606 45.7493 106.469 45.6787 106.374C45.6436 106.327 45.6165 106.291 45.5977 106.266C45.5882 106.253 45.5802 106.243 45.5752 106.236C45.5729 106.233 45.5706 106.231 45.5693 106.229C45.5686 106.229 45.5688 106.227 45.5684 106.227H45.5674V106.226L45.2559 105.816L44.7412 105.832L41.2412 105.938L41.2119 105.939L41.1836 105.941H41.1768C41.1583 105.942 41.1245 105.944 41.0771 105.943C40.982 105.942 40.8339 105.935 40.6484 105.908C40.276 105.855 39.7622 105.726 39.2168 105.425C38.235 104.882 36.9949 103.693 36.3789 100.955L36.2637 100.387C35.715 97.3242 35.2342 92.5129 36.585 88.2266C37.2549 86.1008 38.3677 84.127 40.1299 82.5488C41.841 81.0164 44.2159 79.812 47.5137 79.2334C47.6239 79.2812 47.7665 79.3433 47.9385 79.4189Z" fill="white" stroke="black" stroke-width="2"/>
<path d="M56.7554 84.2534C57.1796 84.6253 57.7099 84.7315 58.028 84.4128C58.2932 84.094 58.1871 83.5628 57.7629 83.1909C57.3387 82.819 56.8084 82.7128 56.4903 83.0315C56.2251 83.2971 56.3312 83.8284 56.7554 84.2534Z" fill="black"/>
<path d="M50.7105 89.7256C51.1347 90.0974 51.665 90.2037 51.9831 89.8849C52.2483 89.5662 52.1422 89.0349 51.718 88.6631C51.2938 88.2912 50.7635 88.1849 50.4453 88.5037C50.1802 88.7693 50.2862 89.3006 50.7105 89.7256Z" fill="black"/>
<path d="M50.073 85.5284C50.073 85.5284 46.6262 85.4753 46.4141 88.5565" stroke="black" stroke-width="2" stroke-miterlimit="10" stroke-linecap="round" stroke-linejoin="round"/>
<path d="M57.8698 80.2691C57.8698 80.2691 54.423 80.216 54.2109 83.2972" stroke="black" stroke-width="2" stroke-miterlimit="10" stroke-linecap="round" stroke-linejoin="round"/>
<path d="M57.498 86.8037C59.0358 87.9725 60.5206 89.1412 62.0584 90.3631C62.0584 90.3631 63.3311 91.5318 61.6872 92.7006" stroke="black" stroke-width="2" stroke-miterlimit="10" stroke-linecap="round" stroke-linejoin="round"/>
<path d="M65.6105 94.666C65.6105 94.666 63.9137 97.7473 59.0352 97.0566" stroke="black" stroke-width="2" stroke-miterlimit="10" stroke-linecap="round" stroke-linejoin="round"/>
<path d="M47.8466 96.8973C47.8466 96.8973 39.8925 91.5317 41.0061 88.1848C42.1197 84.8379 50.7631 82.1285 52.0358 82.341C53.3614 82.5535 51.8767 80.6942 51.8767 80.6942H56.7552C56.7552 80.6942 54.369 75.3285 50.2328 75.2754C46.0967 75.2223 47.7405 75.7535 47.7405 75.7535C47.7405 75.7535 46.9451 71.9285 41.4303 73.8942C35.8624 75.8598 29.5522 82.5004 29.234 84.8379C28.9158 87.1223 27.5902 95.4629 30.1885 100.032C32.7338 104.6 37.5503 102.56 37.5503 102.56C37.5503 102.56 35.3998 99.3779 39.9071 97.8373C44.4144 96.2967 45.9376 99.8723 45.9376 99.8723L47.8466 96.8973Z" fill="black"/>
<path d="M44.6215 102.56C44.6215 102.56 44.0826 100.35 42.2796 100.297C40.3176 100.244 39.5367 101.656 39.9079 102.56" stroke="black" stroke-width="2" stroke-miterlimit="10" stroke-linecap="round" stroke-linejoin="round"/>
<path d="M138.07 113.419H121.473" stroke="black" stroke-width="2" stroke-linecap="round"/>
<path d="M138.07 116.925H121.473" stroke="black" stroke-width="2" stroke-linecap="round"/>
<path d="M138.07 120.272H121.473" stroke="black" stroke-width="2" stroke-linecap="round"/>
<path d="M133.51 123.778H121.473" stroke="black" stroke-width="2" stroke-linecap="round"/>
<path d="M157.477 67.9971L154.137 68.1034L156.205 65.819C157 64.9159 158.114 64.3846 159.28 64.2252C160.341 64.119 160.871 64.4909 161.667 65.7127L165.591 72.3534L164 72.6721C162.886 72.9377 161.72 72.5659 160.924 71.7159L157.477 67.9971Z" fill="white" stroke="black" stroke-width="2" stroke-miterlimit="10" stroke-linecap="round" stroke-linejoin="round"/>
<path d="M153.13 68.1563L149.789 68.2626L151.857 65.9782C152.653 65.0751 153.766 64.5438 154.933 64.3845C155.993 64.2782 157.001 64.8626 157.319 65.872L160.501 74.372L158.326 74.5313C157.213 74.6376 156.099 74.0532 155.569 73.0438L153.13 68.1563Z" fill="white" stroke="black" stroke-width="2" stroke-miterlimit="10" stroke-linecap="round" stroke-linejoin="round"/>
<path d="M148.729 68.2628L145.389 68.369L147.457 66.0846C148.252 65.1815 149.366 64.6503 150.532 64.4909C151.593 64.3846 152.6 64.969 152.919 65.9784L155.835 73.7347L153.661 73.894C152.547 74.0003 151.434 73.4159 150.904 72.4065L148.729 68.2628Z" fill="white" stroke="black" stroke-width="2" stroke-miterlimit="10" stroke-linecap="round" stroke-linejoin="round"/>
<path d="M144.593 68.3692L141.252 68.4755L143.32 66.1911C144.115 65.288 145.229 64.7567 146.396 64.5973C147.456 64.4911 148.464 65.0755 148.782 66.0848L151.221 72.8317L149.047 72.9911C147.933 73.0973 146.82 72.513 146.29 71.5036L144.593 68.3692Z" fill="white" stroke="black" stroke-width="2" stroke-miterlimit="10" stroke-linecap="round" stroke-linejoin="round"/>
<path d="M166.971 137.644L170.311 137.75L168.243 135.466C167.448 134.563 166.334 134.032 165.168 133.872C164.107 133.766 163.577 134.138 162.781 135.36L158.857 142L160.448 142.319C161.562 142.585 162.728 142.213 163.524 141.363L166.971 137.644Z" fill="white" stroke="black" stroke-width="1.125" stroke-miterlimit="10" stroke-linecap="round" stroke-linejoin="round"/>
<path d="M171.373 137.751L174.713 137.857L172.645 135.572C171.85 134.669 170.736 134.138 169.57 133.979C168.509 133.872 167.502 134.457 167.184 135.466L164.002 143.966L166.176 144.126C167.29 144.232 168.403 143.647 168.933 142.638L171.373 137.751Z" fill="white" stroke="black" stroke-width="1.125" stroke-miterlimit="10" stroke-linecap="round" stroke-linejoin="round"/>
<path d="M175.721 137.91L179.062 138.016L176.994 135.732C176.198 134.828 175.085 134.297 173.918 134.138C172.857 134.032 171.85 134.616 171.532 135.625L168.615 143.382L170.789 143.541C171.903 143.647 173.016 143.063 173.547 142.054L175.721 137.91Z" fill="white" stroke="black" stroke-width="1.125" stroke-miterlimit="10" stroke-linecap="round" stroke-linejoin="round"/>
<path d="M179.857 138.016L183.198 138.122L181.13 135.838C180.334 134.935 179.221 134.404 178.054 134.244C176.993 134.138 175.986 134.722 175.668 135.732L173.229 142.479L175.403 142.638C176.516 142.744 177.63 142.16 178.16 141.151L179.857 138.016Z" fill="white" stroke="black" stroke-width="1.125" stroke-miterlimit="10" stroke-linecap="round" stroke-linejoin="round"/>
<path d="M180.958 51.5734C190.031 48.2379 194.687 38.1653 191.357 29.0756C188.028 19.9859 177.974 15.3212 168.901 18.6568C159.828 21.9923 155.172 32.0649 158.501 41.1546C161.83 50.2443 171.885 54.909 180.958 51.5734Z" fill="black"/>
<path d="M173.494 55.0348C174.183 54.9817 174.872 54.8223 175.509 54.6098L179.91 64.5973C184.099 65.8192 188.553 63.8004 190.462 59.9223L193.326 54.1317L188.925 44.1442C189.508 44.2504 190.144 44.1973 190.727 44.0379C193.485 43.1879 194.758 39.3098 193.485 35.5379C192.265 32.0317 189.19 29.8004 186.591 30.5973C184.735 31.1817 183.516 33.0942 183.357 35.4317C181.554 28.5254 176.145 23.7442 170.365 24.3285C163.737 25.0192 159.123 32.4035 159.972 40.9035C160.82 49.3504 166.865 55.6723 173.494 55.0348Z" fill="white" stroke="black" stroke-width="2" stroke-miterlimit="10" stroke-linecap="round" stroke-linejoin="round"/>
<path d="M183.568 32.6159C183.462 32.7222 183.355 32.8284 183.249 32.9347C177.416 38.8316 166.705 37.7159 159.228 30.4378C159.122 30.3316 159.069 30.2784 158.963 30.1722C160.501 27.6222 162.728 25.7097 165.485 24.7003C171.955 22.4159 179.272 25.8691 183.568 32.6159Z" fill="black"/>
<path d="M175.826 54.4507C179.114 52.9632 181.659 49.6163 182.72 45.4194" stroke="black" stroke-width="2" stroke-miterlimit="10" stroke-linecap="round" stroke-linejoin="round"/>
<path d="M163.63 41.541C163.948 41.8066 163.63 42.7629 162.888 43.7191C162.145 44.6223 161.244 45.1535 160.926 44.8879C160.607 44.6223 160.926 43.666 161.668 42.7097C162.463 41.7535 163.312 41.2754 163.63 41.541Z" fill="black"/>
<path d="M174.076 39.4164C174.129 39.9476 173.015 40.532 171.583 40.7445C170.152 40.957 168.879 40.6914 168.826 40.2133C168.773 39.682 169.887 39.0976 171.318 38.8851C172.75 38.6726 174.023 38.8851 174.076 39.4164Z" fill="black"/>
<path d="M166.492 42.6567L167.022 46.1099C167.129 46.7474 167.553 47.2255 168.083 47.438" stroke="black" stroke-width="2" stroke-miterlimit="10" stroke-linecap="round" stroke-linejoin="round"/>
<path d="M171.811 48.7261C171.811 48.7261 171.493 50.1073 169.531 49.7355" stroke="black" stroke-width="2" stroke-miterlimit="10" stroke-linecap="round" stroke-linejoin="round"/>
<path d="M188.857 35.0319C188.857 35.0319 185.262 34.9434 186.959 38.9809" stroke="black" stroke-width="2" stroke-miterlimit="10" stroke-linecap="round" stroke-linejoin="round"/>
<path d="M164.319 46.3227C164.478 46.9071 164.266 47.4914 163.895 47.5977C163.523 47.7039 163.046 47.2789 162.94 46.6414C162.781 46.0571 162.993 45.4727 163.364 45.3664C163.736 45.2602 164.213 45.7383 164.319 46.3227Z" fill="black"/>
<path d="M172.327 43.1878C172.486 43.7722 172.274 44.3566 171.902 44.4628C171.531 44.5691 171.054 44.1441 170.948 43.5066C170.789 42.9222 171.001 42.3378 171.372 42.2316C171.743 42.1785 172.168 42.5503 172.327 43.1878Z" fill="black"/>
<path d="M182.349 26.4004C188.499 26.4004 193.484 21.4056 193.484 15.2441C193.484 9.08271 188.499 4.08789 182.349 4.08789C176.199 4.08789 171.213 9.08271 171.213 15.2441C171.213 21.4056 176.199 26.4004 182.349 26.4004Z" fill="black"/>
</g>
<defs>
<clipPath id="clip0_632_6889">
<rect width="181" height="136" fill="white" transform="translate(28.5 0.165039)"/>
</clipPath>
</defs>
</svg>
