<svg width="299" height="191" viewBox="0 0 299 191" fill="none" xmlns="http://www.w3.org/2000/svg">
<path d="M36.8403 73.4673C31.5486 63.7005 34.998 51.3919 44.5624 45.9881C54.1267 40.5843 66.1801 44.1068 71.4719 53.8736C75.0193 60.4182 74.6273 68.0836 71.1191 74.0678L74.8037 80.8725L57.4977 90.6794L53.8131 83.8746C46.9534 83.7345 40.3878 80.0119 36.8403 73.4673Z" fill="#78776F" stroke="#005677" stroke-width="2"/>
<path d="M69.2568 83.915C69.2568 83.915 57.1054 63.2205 56.0078 57.6566C55.6158 55.6752 59.2221 50.7117 62.7891 54.9347C65.0626 57.6165 62.2403 64.7616 58.1441 67.7637C52.8916 71.6464 46.4239 70.2854 45.3067 66.1825C44.7971 64.2612 48.521 60.6787 52.3036 66.5028C56.0862 72.3269 63.5926 87.4375 63.5926 87.4375" stroke="white" stroke-width="1.97464" stroke-miterlimit="10" stroke-linecap="round" stroke-linejoin="round"/>
<path d="M67.8657 101.548L78.41 95.5834C80.2523 94.5426 80.9187 92.161 79.8995 90.2796L74.8037 80.873L57.5762 90.6199L62.6719 100.026C63.6911 101.908 66.0234 102.588 67.8657 101.548Z" fill="#005677"/>
<path d="M77.1955 84.1044L58.4922 94.688L59.4137 96.3861L78.117 85.8025L77.1955 84.1044Z" fill="#005677"/>
<path d="M75.3362 80.3627L56.6328 90.9463L57.5543 92.6444L76.2576 82.0608L75.3362 80.3627Z" fill="#005677"/>
<path d="M15.1067 127.226C21.7312 118.34 34.157 116.639 42.8394 123.403C51.5414 130.168 53.2073 142.857 46.5828 151.723C42.1534 157.667 35.1174 160.389 28.3361 159.509L23.7107 165.693L7.97266 153.444L12.598 147.26C9.97176 140.816 10.6577 133.17 15.1067 127.226Z" fill="#78776F" stroke="#005677" stroke-width="2"/>
<path d="M18.7513 161.75C18.7513 161.75 32.4314 142.056 36.9588 138.794C38.5855 137.633 44.4652 138.994 42.133 144.037C40.6434 147.24 33.1174 147.48 28.7468 144.858C23.1611 141.496 21.7695 134.911 25.0034 132.229C26.5125 130.968 31.2359 133.03 27.5317 138.894C23.8274 144.778 13.3027 157.867 13.3027 157.867" stroke="white" stroke-width="1.97464" stroke-miterlimit="10" stroke-linecap="round" stroke-linejoin="round"/>
<path d="M2.40485 167.514L12.0084 174.979C13.6939 176.28 16.085 175.96 17.3589 174.238L23.7482 165.692L8.08858 153.504L1.67969 162.05C0.405749 163.771 0.719334 166.213 2.40485 167.514Z" fill="#005677"/>
<path d="M4.77121 156.021L3.61914 157.565L20.629 170.798L21.781 169.253L4.77121 156.021Z" fill="#005677"/>
<path d="M7.37863 152.753L6.22656 154.297L23.2364 167.53L24.3885 165.985L7.37863 152.753Z" fill="#005677"/>
<path d="M176.662 52.0127C181.111 41.8055 192.792 37.2223 202.788 41.7455C212.783 46.2887 217.272 58.217 212.842 68.4242C209.863 75.249 203.631 79.552 196.849 80.2925L193.753 87.4175L175.663 79.2118L178.759 72.1068C174.742 66.4428 173.683 58.8375 176.662 52.0127Z" fill="#78776F" stroke="#005677" stroke-width="2"/>
<path d="M188.029 84.7358C188.029 84.7358 196.888 62.3601 200.553 58.1171C201.866 56.596 207.903 56.556 206.766 61.9998C206.041 65.4623 198.77 67.4637 193.929 65.9626C187.735 64.0213 184.893 57.937 187.441 54.5546C188.637 52.9735 193.693 53.8541 191.4 60.4588C189.107 67.0434 181.836 82.2741 181.836 82.2741" stroke="white" stroke-width="1.97464" stroke-miterlimit="10" stroke-linecap="round" stroke-linejoin="round"/>
<path d="M173.408 94.2224L184.422 99.226C186.343 100.107 188.597 99.2059 189.459 97.2446L193.732 87.4177L175.74 79.252L171.467 89.0788C170.625 91.0402 171.487 93.3418 173.408 94.2224Z" fill="#005677"/>
<path d="M173.106 82.4604L172.334 84.2344L191.873 93.1017L192.645 91.3277L173.106 82.4604Z" fill="#005677"/>
<path d="M174.922 78.6962L174.15 80.4702L193.69 89.3375L194.462 87.5635L174.922 78.6962Z" fill="#005677"/>
<path d="M169.704 49.5306L158.709 45.2676" stroke="#005677" stroke-width="3" stroke-miterlimit="10" stroke-linecap="round" stroke-linejoin="round"/>
<path d="M165.684 61.12L159.236 60.7588" stroke="#005677" stroke-width="3" stroke-miterlimit="10" stroke-linecap="round" stroke-linejoin="round"/>
<path d="M174.583 38.263L169.645 34" stroke="#005677" stroke-width="3" stroke-miterlimit="10" stroke-linecap="round" stroke-linejoin="round"/>
<path d="M89.2271 39.7036L82.3086 46.7686" stroke="#005677" stroke-width="3"/>
<path d="M89.2271 46.7686L82.3086 39.7036" stroke="#005677" stroke-width="3"/>
<path d="M126.173 71.4059L123.076 66.5625" stroke="#005677" stroke-width="3" stroke-miterlimit="10"/>
<path d="M116.688 56.5358L113.592 51.6924" stroke="#005677" stroke-width="3" stroke-miterlimit="10"/>
<path d="M131.387 60.9185L125.742 61.2395" stroke="#005677" stroke-width="3" stroke-miterlimit="10"/>
<path d="M114.023 61.8794L108.379 62.1804" stroke="#005677" stroke-width="3" stroke-miterlimit="10"/>
<path d="M114.67 72.0459L117.237 66.9023" stroke="#005677" stroke-width="3" stroke-miterlimit="10"/>
<path d="M122.547 56.2149L125.095 51.0713" stroke="#005677" stroke-width="3" stroke-miterlimit="10"/>
<path d="M25.5918 100.806L28.1789 99.7856" stroke="#005677" stroke-width="3" stroke-miterlimit="10"/>
<path d="M33.5273 97.6242L36.1144 96.5835" stroke="#005677" stroke-width="3" stroke-miterlimit="10"/>
<path d="M30 104.409L30.4104 101.607" stroke="#005677" stroke-width="3" stroke-miterlimit="10"/>
<path d="M31.2734 95.8024L31.6838 92.9805" stroke="#005677" stroke-width="3" stroke-miterlimit="10"/>
<path d="M26.4336 95.1021L28.5895 96.8633" stroke="#005677" stroke-width="3" stroke-miterlimit="10"/>
<path d="M33.0957 100.526L35.2712 102.307" stroke="#005677" stroke-width="3" stroke-miterlimit="10"/>
<path d="M115.45 98.9901C103.017 99.5076 93.8288 107.771 89.9475 119.931C92.9456 118.731 96.1791 117.976 99.6471 117.831C123.249 116.849 148.381 142.205 155.759 174.487C156.162 176.279 156.507 178.058 156.787 179.804C163.332 171.062 165.794 157.863 162.454 143.292C156.701 117.989 135.635 98.1438 115.45 98.9901Z" fill="#005677"/>
<path d="M104.523 111.805C108.925 102.642 132.319 85.0778 159.066 118.316C172.371 134.842 196.877 119.867 205.797 117.776C219.649 114.553 238.219 145.548 229.512 177.863C227.005 187.147 215.382 219.058 208.314 217.983C201.245 216.907 146.346 245.088 160.579 181.952C164.252 165.672 124.762 161.165 101.719 138.161C97.8211 134.266 98.545 124.296 104.523 111.805Z" stroke="#005677" stroke-width="3" stroke-miterlimit="10" stroke-linecap="round" stroke-linejoin="round"/>
<path d="M95.7984 100.744C102.876 92.1168 133.535 78.5581 156.618 118.274C168.093 138.014 199.428 127.354 210.101 126.965C226.628 126.355 240.887 162.143 223.686 193.89C218.747 203.015 187.149 232.673 179.327 230.166C177.42 234.451 102.486 246.006 132.922 183.42C140.777 167.273 107.851 155.878 86.7047 127.5C83.1104 122.689 86.1661 112.497 95.7984 100.744Z" fill="#005677"/>
<path d="M251.949 220.165C269.875 216.783 278.475 195.916 271.158 173.557C263.841 151.199 243.378 135.815 225.452 139.197C207.526 142.579 198.926 163.446 206.242 185.805C213.559 208.164 234.023 223.547 251.949 220.165Z" fill="#005677"/>
<path d="M256.58 218.216C274.506 214.834 283.106 193.967 275.789 171.609C268.472 149.25 248.009 133.866 230.083 137.248C212.157 140.63 203.556 161.497 210.873 183.856C218.19 206.215 238.654 221.598 256.58 218.216Z" stroke="#005677" stroke-width="3" stroke-miterlimit="10" stroke-linecap="round" stroke-linejoin="round"/>
<path d="M204.478 239.122C219.408 236.305 226.571 218.925 220.477 200.303C214.383 181.681 197.34 168.868 182.409 171.685C167.479 174.502 160.315 191.882 166.409 210.504C172.503 229.126 189.547 241.939 204.478 239.122Z" fill="#005677"/>
<path d="M121.176 187.828C143.928 187.828 162.373 168.993 162.373 145.758C162.373 122.524 143.928 103.689 121.176 103.689C98.4231 103.689 79.9785 122.524 79.9785 145.758C79.9785 168.993 98.4231 187.828 121.176 187.828Z" fill="#005677"/>
<path d="M87.367 147.22C89.2681 130.348 103.301 117.259 120.313 117.259C136.972 117.259 150.77 129.808 153.122 146.159C153.22 146.159 153.318 146.139 153.416 146.139C157.845 146.139 161.451 149.802 161.451 154.345C161.451 158.868 157.865 162.551 153.416 162.551C152.808 162.551 152.201 162.47 151.632 162.33C147.105 175.54 134.757 185.987 120.313 185.006C83.8195 182.565 86.2106 146.539 87.367 147.22Z" fill="white" stroke="#005677" stroke-width="3" stroke-miterlimit="10" stroke-linecap="round" stroke-linejoin="round"/>
<path d="M121.177 103.689C136.405 103.689 149.713 112.135 156.847 124.704C152.339 128.387 146.636 130.588 140.423 130.588C126.096 130.588 114.435 118.88 114.121 104.31C116.414 103.91 118.766 103.689 121.177 103.689Z" fill="#005677"/>
<path d="M120.55 151.283C120.55 151.283 112.181 153.424 109.574 152.884" stroke="#005677" stroke-width="3" stroke-miterlimit="10" stroke-linecap="round" stroke-linejoin="round"/>
<path d="M134.512 148.604C140.934 147.54 145.295 141.361 144.252 134.804C143.21 128.247 137.16 123.793 130.738 124.858C124.317 125.922 119.956 132.101 120.998 138.658C122.04 145.215 128.091 149.668 134.512 148.604Z" stroke="#DB1490" stroke-width="1.97464" stroke-miterlimit="10" stroke-linecap="round" stroke-linejoin="round"/>
<path d="M102.624 148.607C109.045 147.542 113.406 141.364 112.364 134.806C111.322 128.249 105.271 123.796 98.8497 124.86C92.4283 125.924 88.0675 132.103 89.1097 138.66C90.1518 145.218 96.2023 149.671 102.624 148.607Z" stroke="#DB1490" stroke-width="1.97464" stroke-miterlimit="10" stroke-linecap="round" stroke-linejoin="round"/>
<path d="M144.361 137.793L152.201 145.799" stroke="#DB1490" stroke-width="1.97464" stroke-miterlimit="10" stroke-linecap="round" stroke-linejoin="round"/>
<path d="M120.314 136.732H113.004" stroke="#DB1490" stroke-width="1.97464" stroke-miterlimit="10" stroke-linecap="round" stroke-linejoin="round"/>
<path d="M128.977 138.254C130.568 138.254 131.858 136.704 131.858 134.792C131.858 132.879 130.568 131.329 128.977 131.329C127.386 131.329 126.096 132.879 126.096 134.792C126.096 136.704 127.386 138.254 128.977 138.254Z" fill="#005677"/>
<path d="M99.049 137.853C100.64 137.853 101.93 136.303 101.93 134.391C101.93 132.478 100.64 130.928 99.049 130.928C97.4579 130.928 96.168 132.478 96.168 134.391C96.168 136.303 97.4579 137.853 99.049 137.853Z" fill="#005677"/>
<path d="M71.1992 229.098L88.7992 195.154L82.3315 175.74C82.0963 175 81.9003 174.259 81.7827 173.479L79.7444 159.949L86.3885 145.78C86.7609 144.979 87.8388 144.899 88.3288 145.619C89.7203 147.641 90.1515 150.183 89.5047 152.564L87.7604 159.009L95.0513 172.058C95.0513 172.058 108.006 180.344 109.515 186.688L105.184 228.197" fill="white"/>
<path d="M71.1992 229.098L88.7992 195.154L82.3315 175.74C82.0963 175 81.9003 174.259 81.7827 173.479L79.7444 159.949L86.3885 145.78C86.7609 144.979 87.8388 144.899 88.3288 145.619C89.7203 147.641 90.1515 150.183 89.5047 152.564L87.7604 159.009L95.0513 172.058C95.0513 172.058 108.006 180.344 109.515 186.688L105.184 228.197" stroke="#005677" stroke-width="3" stroke-miterlimit="10" stroke-linecap="round" stroke-linejoin="round"/>
<path d="M159.861 170.456L155.001 154.565C154.726 153.684 154.06 153.023 153.198 152.763C152.335 152.503 151.414 152.723 150.728 153.304C148.886 154.905 147.965 157.327 148.239 159.788L148.964 166.313L147.22 168.174L148.024 160.068C148.043 159.968 148.024 159.848 148.004 159.748L144.555 146.679C144.359 145.919 143.829 145.298 143.104 144.978C142.379 144.658 141.575 144.698 140.89 145.078C139.322 145.939 138.165 147.44 137.695 149.201L137.577 149.621L134.735 143.577C134.559 143.217 134.167 143.016 133.775 143.117C132.442 143.437 130.188 144.838 129.483 147.86C129.267 147.74 129.032 147.66 128.777 147.64C128.072 147.56 127.405 147.88 126.994 148.48C125.445 150.702 124.936 153.504 125.622 156.146L127.249 162.39L124.074 174.739L109.982 182.144C104.082 185.246 99.7707 190.79 98.144 197.355L88.4032 229.077C88.3444 229.337 88.4032 228.857 88.56 229.077C88.7168 229.277 88.9716 229.077 89.2264 229.077C89.246 229.077 89.246 229.077 89.2656 229.077H124.368C124.779 229.057 125.112 229.497 125.171 229.077L127.641 198.976L159.607 171.416C159.861 171.156 159.979 170.776 159.861 170.456Z" fill="white"/>
<path d="M124.33 229.037L126.839 198.476L159.06 170.716L154.199 154.805C153.807 153.544 152.278 153.084 151.298 153.944C149.672 155.365 148.849 157.507 149.103 159.668L149.887 166.613L146.046 170.696" stroke="#005677" stroke-width="3" stroke-miterlimit="10" stroke-linecap="round" stroke-linejoin="round"/>
<path d="M145.536 176.68L147.202 159.988L143.752 146.919C143.478 145.859 142.282 145.338 141.322 145.859C139.95 146.619 138.95 147.9 138.558 149.441L138.029 151.482" stroke="#005677" stroke-width="3" stroke-miterlimit="10" stroke-linecap="round" stroke-linejoin="round"/>
<path d="M139.696 177.521L142.029 160.989L134.013 143.937C134.013 143.937 129.838 144.958 130.171 150.422" stroke="#005677" stroke-width="3" stroke-miterlimit="10" stroke-linecap="round" stroke-linejoin="round"/>
<path d="M89.2871 229.037L99.0278 197.535C100.596 191.21 104.751 185.867 110.435 182.885L124.859 175.319L128.191 162.37L126.506 155.906C125.879 153.524 126.329 150.982 127.74 148.981C128.25 148.26 129.308 148.36 129.681 149.161L136.207 163.391L133.875 178.041" stroke="#005677" stroke-width="3" stroke-miterlimit="10" stroke-linecap="round" stroke-linejoin="round"/>
</svg>
