<svg xmlns="http://www.w3.org/2000/svg" width="20" height="21" viewBox="0 0 20 21" fill="none">
  <path d="M10 13.3951C11.5533 13.3951 12.8125 12.1359 12.8125 10.5826C12.8125 9.02934 11.5533 7.77014 10 7.77014C8.4467 7.77014 7.1875 9.02934 7.1875 10.5826C7.1875 12.1359 8.4467 13.3951 10 13.3951Z" stroke="white" stroke-linecap="round" stroke-linejoin="round"/>
  <path d="M13.75 3.08264H6.25C4.17893 3.08264 2.5 4.76157 2.5 6.83264V14.3326C2.5 16.4037 4.17893 18.0826 6.25 18.0826H13.75C15.8211 18.0826 17.5 16.4037 17.5 14.3326V6.83264C17.5 4.76157 15.8211 3.08264 13.75 3.08264Z" stroke="white" stroke-linecap="round" stroke-linejoin="round"/>
  <path d="M14.0625 5.77014C14.4767 5.77014 14.8125 6.10593 14.8125 6.52014C14.8125 6.93436 14.4767 7.27014 14.0625 7.27014C13.6483 7.27014 13.3125 6.93436 13.3125 6.52014C13.3125 6.10593 13.6483 5.77014 14.0625 5.77014Z" fill="white" stroke="white"/>
</svg>