<svg xmlns="http://www.w3.org/2000/svg" width="20" height="21" viewBox="0 0 20 21" fill="none">
  <path d="M16.875 3.08264H3.125C2.77982 3.08264 2.5 3.36246 2.5 3.70764V17.4576C2.5 17.8028 2.77982 18.0826 3.125 18.0826H16.875C17.2202 18.0826 17.5 17.8028 17.5 17.4576V3.70764C17.5 3.36246 17.2202 3.08264 16.875 3.08264Z" stroke="white" stroke-linecap="round" stroke-linejoin="round"/>
  <path d="M9.6875 9.95764V14.3326" stroke="white" stroke-linecap="round" stroke-linejoin="round"/>
  <path d="M6.5625 9.95764V14.3326" stroke="white" stroke-linecap="round" stroke-linejoin="round"/>
  <path d="M9.6875 12.1451C9.6875 11.565 9.91797 11.0086 10.3282 10.5983C10.7384 10.1881 11.2948 9.95764 11.875 9.95764C12.4552 9.95764 13.0116 10.1881 13.4218 10.5983C13.832 11.0086 14.0625 11.565 14.0625 12.1451V14.3326" stroke="white" stroke-linecap="round" stroke-linejoin="round"/>
  <path d="M6.5625 6.08264C6.97671 6.08264 7.3125 6.41843 7.3125 6.83264C7.3125 7.24686 6.97671 7.58264 6.5625 7.58264C6.14829 7.58264 5.8125 7.24686 5.8125 6.83264C5.8125 6.41843 6.14829 6.08264 6.5625 6.08264Z" fill="white" stroke="white"/>
</svg>