<svg xmlns="http://www.w3.org/2000/svg" width="20" height="21" viewBox="0 0 20 21" fill="none">
  <path d="M12.8125 10.5826L8.4375 7.77014V13.3951L12.8125 10.5826Z" fill="white" stroke="white" stroke-linecap="round" stroke-linejoin="round"/>
  <path d="M1.875 10.5827C1.875 12.9194 2.11484 14.2897 2.29766 14.9944C2.346 15.1861 2.43911 15.3635 2.56935 15.5122C2.69959 15.6609 2.86325 15.7766 3.04688 15.8498C5.66563 16.86 10 16.8327 10 16.8327C10 16.8327 14.3344 16.86 16.9531 15.8498C17.1373 15.7771 17.3016 15.6615 17.4324 15.5128C17.5632 15.3641 17.6568 15.1864 17.7055 14.9944C17.8883 14.2912 18.1281 12.9194 18.1281 10.5827C18.1281 8.24593 17.8883 6.87562 17.7055 6.17093C17.6574 5.97822 17.564 5.79974 17.4332 5.65029C17.3024 5.50084 17.1378 5.38473 16.9531 5.31156C14.3344 4.30531 10 4.33265 10 4.33265C10 4.33265 5.66563 4.30531 3.04688 5.31547C2.86221 5.38863 2.69765 5.50475 2.56681 5.6542C2.43597 5.80365 2.34264 5.98213 2.29453 6.17484C2.11484 6.87484 1.875 8.24593 1.875 10.5827Z" stroke="white" stroke-linecap="round" stroke-linejoin="round"/>
</svg>