<svg width="284" height="303" viewBox="0 0 284 303" fill="none" xmlns="http://www.w3.org/2000/svg">
<path fill-rule="evenodd" clip-rule="evenodd" d="M127.902 0.140462C167.754 0.807152 208.112 7.56936 237.314 31.662C267.504 56.569 285.593 92.2682 283.889 128.832C282.244 164.158 253.406 190.613 228.62 218.281C198.699 251.681 175.926 301.348 127.902 302.956C79.6176 304.572 44.8349 261.716 19.2966 225.287C-0.746776 196.696 6.6883 162.503 5.83394 128.832C4.94453 93.7801 -11.1458 54.7458 14.2889 27.9309C40.5979 0.194342 87.074 -0.542567 127.902 0.140462Z" fill="#C5E7FF"/>
<path d="M217.341 42.9755L239.841 92.1755L140.041 137.675L117.541 88.4755L217.341 42.9755ZM218.341 40.3755L114.941 87.5755L139.041 140.375L242.441 93.1755L218.341 40.3755Z" fill="#1C1B1A"/>
<path d="M170.741 88.7755L175.541 89.2755L180.341 89.7755L177.541 93.6755L174.741 97.5755L172.741 93.2755L170.741 88.7755ZM167.441 86.3755L170.841 93.8755L174.241 101.375L179.041 94.6755L183.841 87.9755L175.641 87.1755L167.441 86.3755Z" fill="#1C1B1A"/>
<path d="M154.742 143.676C154.342 143.676 154.042 143.476 153.842 143.076C153.642 142.576 153.842 141.976 154.342 141.776L162.342 138.076C162.842 137.876 163.442 138.076 163.642 138.576C163.842 139.076 163.642 139.676 163.142 139.876L155.142 143.576C155.042 143.676 154.842 143.676 154.742 143.676Z" fill="#1C1B1A"/>
<path d="M168.84 137.276C168.44 137.276 168.14 137.076 167.94 136.676C167.74 136.176 167.94 135.576 168.44 135.376L238.04 103.576C238.54 103.376 239.14 103.576 239.34 104.076C239.54 104.576 239.34 105.176 238.84 105.376L169.34 137.076C169.14 137.276 169.04 137.276 168.84 137.276Z" fill="#1C1B1A"/>
<path d="M242.842 103.675C242.442 103.675 242.142 103.475 241.942 103.175C241.642 102.675 241.842 102.075 242.342 101.875L245.342 100.375C245.842 100.075 246.442 100.275 246.642 100.775C246.942 101.275 246.742 101.875 246.242 102.075L243.242 103.575C243.142 103.675 242.942 103.675 242.842 103.675Z" fill="#1C1B1A"/>
<path d="M144.843 151.875C144.443 151.875 144.143 151.675 143.943 151.275L141.143 145.175C140.943 144.675 141.143 144.075 141.643 143.875C142.143 143.675 142.743 143.875 142.943 144.375L145.743 150.475C145.943 150.975 145.743 151.575 145.243 151.775C145.143 151.875 144.943 151.875 144.843 151.875Z" fill="#1C1B1A"/>
<path d="M149.843 149.576C149.443 149.576 149.143 149.376 148.943 148.976L146.143 142.876C145.943 142.376 146.143 141.776 146.643 141.576C147.143 141.376 147.743 141.576 147.943 142.076L150.743 148.176C150.943 148.676 150.743 149.276 150.243 149.476C150.143 149.576 150.043 149.576 149.843 149.576Z" fill="#1C1B1A"/>
<path d="M166.242 135.476C167.042 135.476 167.742 135.876 168.042 136.576C168.442 137.576 168.042 138.676 167.042 139.176C166.742 139.276 166.542 139.376 166.242 139.376C165.442 139.376 164.742 138.976 164.442 138.276C164.042 137.276 164.442 136.176 165.442 135.676C165.742 135.576 166.042 135.476 166.242 135.476ZM166.242 133.476C165.742 133.476 165.142 133.576 164.642 133.876C162.642 134.776 161.742 137.176 162.642 139.076C163.342 140.576 164.742 141.376 166.242 141.376C166.742 141.376 167.342 141.276 167.842 140.976C169.842 140.076 170.742 137.676 169.842 135.776C169.242 134.376 167.742 133.476 166.242 133.476Z" fill="#1C1B1A"/>
<path d="M67.74 249.175C66.74 249.175 65.74 248.975 64.84 248.675C62.84 247.875 61.24 246.375 60.34 244.375L4.54 117.675C3.94 116.375 3.84 114.875 4.24 113.575C4.64 112.175 5.54 111.175 6.84 110.575L215.74 16.3754C218.24 15.2754 221.34 16.6754 222.54 19.5754L278.34 146.475C280.14 150.475 278.24 155.275 274.24 157.075L71.04 248.475C69.94 248.975 68.84 249.175 67.74 249.175ZM217.54 17.9754C217.24 17.9754 216.84 18.0754 216.54 18.1754L7.64 112.275C6.94 112.575 6.44 113.175 6.14 113.975C5.94 114.975 6.04 115.875 6.44 116.875L62.14 243.675C62.84 245.175 64.04 246.275 65.54 246.875C67.04 247.475 68.74 247.375 70.24 246.775L273.44 155.275C276.44 153.875 277.84 150.375 276.54 147.275L220.64 20.2754C220.04 18.8754 218.74 17.9754 217.54 17.9754Z" fill="#1C1B1A"/>
<path d="M198.206 33.4408L196.375 34.2456L198.709 39.5549L200.54 38.7501L198.206 33.4408Z" fill="#1C1B1A"/>
<path d="M200.766 34.2803L195.457 36.6147L196.262 38.4455L201.571 36.1111L200.766 34.2803Z" fill="#1C1B1A"/>
<path d="M206.94 29.2754L204.84 30.2754L205.74 32.3754L207.94 31.4754L206.94 29.2754Z" fill="#1C1B1A"/>
<path d="M208.54 32.7754L206.34 33.7754L207.34 35.8754L209.44 34.9754L208.54 32.7754Z" fill="#1C1B1A"/>
<path d="M210.54 27.7754L208.34 28.6754L209.24 30.8754L211.44 29.9754L210.54 27.7754Z" fill="#1C1B1A"/>
<path d="M212.04 31.2754L209.84 32.1754L210.84 34.3754L212.94 33.3754L212.04 31.2754Z" fill="#1C1B1A"/>
<path d="M256.238 203.575L244.238 199.675L232.238 195.775L236.138 207.775L240.038 219.775L244.238 211.575L250.738 217.975L254.438 214.175L248.038 207.775L256.238 203.575Z" fill="#FDF8F6"/>
<path d="M240.038 220.776C239.538 220.776 239.238 220.476 239.038 220.076L231.238 196.076C231.138 195.676 231.238 195.276 231.438 195.076C231.738 194.776 232.138 194.676 232.438 194.876L256.438 202.676C256.838 202.776 257.138 203.176 257.138 203.576C257.138 203.976 256.938 204.376 256.638 204.576L249.638 208.176L255.038 213.576C255.438 213.976 255.438 214.576 255.038 214.976L251.238 218.776C250.838 219.176 250.238 219.176 249.838 218.776L244.438 213.376L240.838 220.376C240.738 220.576 240.438 220.776 240.038 220.776ZM233.838 197.276L240.338 217.176L243.438 211.076C243.538 210.776 243.838 210.576 244.138 210.576C244.438 210.576 244.738 210.676 245.038 210.876L250.738 216.576L253.138 214.176L247.438 208.476C247.238 208.276 247.138 207.976 247.138 207.576C247.138 207.276 247.338 206.976 247.638 206.876L253.738 203.776L233.838 197.276Z" fill="#1C1B1A"/>
<path d="M27.5365 132.376C24.3365 132.376 21.2365 127.876 19.0365 120.276C18.0365 116.876 18.2365 109.276 22.8365 103.176C26.6365 98.0758 32.8365 95.2758 40.6365 95.1758C47.9365 95.0758 51.4365 84.4758 53.7365 77.4758C54.3365 75.6758 54.8365 74.0758 55.3365 72.9758C56.7365 69.9758 59.7365 68.1758 63.7365 68.1758H63.8365C70.6365 68.1758 79.8365 73.1758 85.2365 84.4758C85.6365 85.2758 85.4365 86.1758 84.7365 87.5758C79.7365 96.9758 42.5365 130.176 28.0365 132.376C27.8365 132.376 27.6365 132.376 27.5365 132.376ZM63.8365 70.2758H63.7365C60.5365 70.2758 58.1365 71.6758 57.1365 73.8758C56.7365 74.8758 56.2365 76.3758 55.6365 78.1758C53.1365 85.6758 49.3365 97.1758 40.6365 97.2758C33.3365 97.3758 27.9365 99.7758 24.4365 104.476C20.5365 109.676 20.0365 116.576 21.0365 119.776C23.2365 127.476 26.0365 130.676 27.8365 130.476C40.7365 128.576 73.9365 99.8758 81.9365 88.5758C83.6365 86.1758 83.5365 85.4758 83.5365 85.4758C78.4365 74.8758 70.0365 70.2758 63.8365 70.2758Z" fill="#1C1B1A"/>
<path d="M13.1382 119.575C12.6382 112.875 18.5382 92.8754 39.6382 96.8754C50.1382 98.8754 57.2382 79.6754 60.7382 74.2754C66.1382 66.0754 83.0382 72.8754 87.8382 93.2754C89.2382 99.1754 35.7382 134.775 19.0382 134.175C16.2382 134.075 13.8382 128.675 13.1382 119.575Z" fill="#1C1B1A"/>
<path d="M102.566 101.15C111.331 94.0707 112.697 81.2273 105.618 72.463C98.5393 63.6987 85.6959 62.3324 76.9317 69.4112C68.1674 76.49 66.801 89.3334 73.8798 98.0977C80.9586 106.862 93.802 108.228 102.566 101.15Z" fill="#1C1B1A"/>
<path d="M90.4382 104.176C85.8382 104.176 81.3382 102.676 77.5382 99.7756C72.9382 96.2756 70.0382 91.2756 69.2382 85.6756C68.4382 79.9756 69.9382 74.3756 73.3382 69.8756C76.8382 65.2756 81.8382 62.3756 87.4382 61.5756C93.1382 60.7756 98.7382 62.2756 103.238 65.6756C107.838 69.1756 110.738 74.1756 111.538 79.7756C113.138 91.4756 104.938 102.276 93.2382 103.876C92.4382 104.076 91.4382 104.176 90.4382 104.176ZM90.5382 63.3756C89.6382 63.3756 88.7382 63.4756 87.8382 63.5756C82.7382 64.2756 78.1382 66.9756 75.0382 71.0756C71.9382 75.1756 70.5382 80.2756 71.2382 85.4756C71.9382 90.5756 74.6382 95.1756 78.7382 98.2756C82.8382 101.376 87.9382 102.776 93.1382 102.076C103.738 100.576 111.138 90.7756 109.738 80.1756C109.038 75.0756 106.338 70.4756 102.238 67.3756C98.8382 64.6756 94.7382 63.3756 90.5382 63.3756Z" fill="#1C1B1A"/>
<path d="M82.6938 95.8977C87.0311 90.1762 85.9089 82.0219 80.1874 77.6847C74.4659 73.3474 66.3117 74.4696 61.9744 80.1911C57.6371 85.9126 58.7593 94.0668 64.4808 98.4041C70.2023 102.741 78.3565 101.619 82.6938 95.8977Z" fill="#1C1B1A"/>
<path d="M68.9381 81.7754C79.2381 84.2754 98.438 87.5754 102.238 96.3754C106.338 106.075 107.138 131.275 86.738 129.675C82.238 129.175 77.8381 126.175 73.9381 124.775C67.9381 122.575 64.2381 124.575 56.5381 132.275C48.8381 139.975 46.5381 145.975 34.4381 145.475C24.6381 145.075 15.7381 133.875 14.5381 128.975C10.7381 112.775 31.1381 99.0754 37.9381 97.0754C44.7381 95.0754 48.5381 100.675 54.3381 96.0754C58.0381 93.2754 63.0381 86.9754 68.9381 81.7754Z" fill="#1C1B1A"/>
<path d="M57.9375 227.475L63.9375 208.475C79.3375 198.875 96.1375 191.775 113.838 187.675L139.537 181.575H139.638L210.237 154.275C210.537 154.175 210.837 153.875 210.837 153.575L217.138 123.275C217.338 122.475 217.838 121.875 218.538 121.575C218.838 121.475 219.137 121.375 219.438 121.375C220.438 121.375 221.437 122.075 221.737 123.075L236.438 173.675L222.737 177.675C222.637 177.675 222.638 177.675 222.538 177.775L152.037 212.975L103.537 229.275L57.9375 227.475Z" fill="#FDF8F6"/>
<path d="M219.439 122.375C220.039 122.375 220.539 122.775 220.739 123.375L235.139 172.975L222.339 176.675C222.239 176.675 222.139 176.775 222.039 176.775L151.639 211.975L103.439 228.175L59.3391 226.575L64.8391 209.175C80.0391 199.675 96.6391 192.775 114.139 188.675L139.839 182.575C139.939 182.575 140.039 182.575 140.139 182.475L210.739 155.175C211.339 154.975 211.839 154.375 211.939 153.675L218.239 123.375C218.339 122.975 218.639 122.575 219.039 122.375C219.139 122.375 219.239 122.375 219.439 122.375ZM219.439 120.375C219.039 120.375 218.639 120.475 218.239 120.575C217.239 120.975 216.439 121.875 216.239 122.975L209.939 153.275L139.339 180.575L113.639 186.675C95.7391 190.875 78.7391 197.975 63.1391 207.775L63.0391 207.875L56.5391 228.575L103.639 230.275L152.339 213.875L222.839 178.675L237.539 174.375L222.639 122.875C222.239 121.275 220.839 120.375 219.439 120.375Z" fill="#1C1B1A"/>
<path d="M62.5391 209.276C76.6391 197.676 95.7391 190.776 113.639 186.576L139.339 180.476L197.439 157.476C201.539 168.576 206.239 179.076 211.439 188.676L152.339 213.676L106.639 229.076L62.5391 209.276Z" fill="#1C1B1A"/>
<path d="M217.338 154.576L218.338 154.276L223.638 170.776C222.638 172.676 222.038 174.676 221.838 176.776L221.638 179.176L222.938 178.476L237.638 174.176L222.738 122.676C222.138 120.776 220.138 119.776 218.238 120.476C217.238 120.876 216.438 121.776 216.238 122.876L209.938 153.176C212.037 154.776 214.738 155.276 217.338 154.576Z" fill="#1C1B1A"/>
<path d="M174.538 278.176C174.338 278.176 174.138 278.176 173.938 278.076L137.438 265.976C136.538 264.276 132.738 256.576 129.538 247.976C124.738 235.376 123.238 226.576 125.238 222.676C125.438 222.276 125.338 221.776 125.038 221.476C124.838 221.276 124.638 221.176 124.338 221.176C124.138 221.176 123.938 221.276 123.838 221.376L108.038 231.276C100.238 236.176 91.3383 238.776 82.1383 238.776C72.8383 238.776 63.7383 236.076 55.9383 231.076L54.7383 219.076L120.938 176.976C124.038 174.976 127.538 173.976 131.138 173.976C141.138 173.976 149.338 181.476 150.238 191.476L156.438 261.576C156.438 261.876 156.638 262.176 156.838 262.276L175.538 274.876C176.038 275.276 176.338 275.876 176.338 276.476C176.338 277.376 175.538 278.176 174.538 278.176Z" fill="#FDF8F6"/>
<path d="M131.039 174.976C140.539 174.976 148.339 182.076 149.139 191.576L155.339 261.676C155.439 262.276 155.739 262.776 156.239 263.176L174.939 275.776C175.139 275.976 175.339 276.176 175.339 276.476C175.339 276.976 174.939 277.276 174.539 277.276C174.439 277.276 174.339 277.276 174.239 277.176L138.239 265.176C137.139 262.876 133.639 255.676 130.539 247.676C124.739 232.376 125.039 226.076 125.939 223.676L130.039 221.076C130.839 220.576 131.139 219.676 130.839 218.776C130.539 217.976 129.839 217.376 128.939 217.376H128.839C126.139 217.576 124.139 218.676 122.839 220.876L107.439 230.576C99.8391 235.376 91.0391 237.876 82.0391 237.876C73.0391 237.876 64.3391 235.376 56.7391 230.576L55.6391 219.676L121.339 177.876C124.239 175.976 127.639 174.976 131.039 174.976ZM131.039 172.976C127.439 172.976 123.639 173.976 120.239 176.176L53.5391 218.676L54.9391 231.776C63.2391 237.176 72.6391 239.876 82.1391 239.876C91.3391 239.876 100.439 237.376 108.539 232.276L124.339 222.376C125.139 220.676 126.639 219.576 128.939 219.476L124.339 222.376C119.239 232.676 136.739 266.976 136.739 266.976L173.539 279.176C173.839 279.276 174.139 279.376 174.539 279.376C176.039 279.376 177.339 278.176 177.339 276.676C177.339 275.676 176.939 274.776 176.039 274.176L157.339 261.576L151.139 191.476C150.239 180.376 140.939 172.976 131.039 172.976Z" fill="#1C1B1A"/>
<path d="M157.94 239.476C148.94 247.176 139.24 253.276 129.54 257.676C127.74 251.076 122.64 225.676 124.34 222.276L108.54 232.176C92.1398 242.476 64.1398 250.176 54.9398 231.676L47.3398 214.176L120.24 176.176C132.94 168.076 149.84 176.376 151.14 191.376L157.94 239.476Z" fill="#1C1B1A"/>
<path d="M152.841 265.776L152.641 266.776L139.541 264.976C138.341 263.276 136.841 261.776 135.041 260.676L133.041 259.376V260.876L130.141 275.876L182.841 286.076C184.741 286.476 186.641 285.076 186.841 283.076C186.941 281.976 186.441 280.876 185.641 280.176L157.541 259.776C155.041 261.076 153.341 263.276 152.841 265.776Z" fill="#1C1B1A"/>
<path d="M89.7365 183.275L79.9365 203.775L54.6365 222.175C47.7365 227.175 37.9365 224.375 34.6365 216.575L19.9365 181.075C15.8365 173.475 17.4365 164.075 23.7365 158.175L34.6365 148.075L50.5365 150.175C57.5365 151.075 64.1365 154.075 69.4365 158.775L91.8365 179.675L89.7365 183.275Z" fill="#7FD0FF"/>
<path d="M93.9368 192.475L80.3368 198.375C80.3368 198.375 77.5368 194.975 77.7368 192.375C77.9368 189.775 82.3368 184.175 86.8368 184.075C91.3368 183.975 93.9368 192.475 93.9368 192.475Z" fill="#FDF8F6"/>
<path d="M80.3371 199.375C80.0371 199.375 79.7371 199.275 79.5371 198.975C79.2371 198.575 76.5371 195.175 76.7371 192.275C76.9371 189.275 81.7371 183.175 86.8371 183.075H86.9371C91.9371 183.075 94.6371 191.275 94.9371 192.175C95.0371 192.675 94.8371 193.175 94.3371 193.375L80.7371 199.275C80.6371 199.375 80.4371 199.375 80.3371 199.375ZM86.9371 185.075C82.8371 185.175 78.8371 190.475 78.7371 192.475C78.6371 193.975 79.8371 195.975 80.6371 197.175L92.7371 191.975C91.8371 189.475 89.6371 185.075 86.9371 185.075Z" fill="#1C1B1A"/>
<path d="M52.037 202.075C51.637 202.075 51.337 201.875 51.137 201.575L37.137 176.775C36.837 176.275 37.037 175.675 37.537 175.375C38.037 175.075 38.6371 175.275 38.9371 175.775L52.537 199.875L77.037 189.975C77.537 189.775 78.1371 189.975 78.3371 190.575C78.5371 191.075 78.337 191.675 77.737 191.875L52.4371 201.975C52.3371 202.075 52.137 202.075 52.037 202.075Z" fill="#1C1B1A"/>
<path d="M80.0367 188.975C79.8367 188.975 79.5367 188.875 79.4367 188.775L72.5367 182.975C72.2367 182.675 72.1367 182.275 72.2367 181.875L72.7367 180.275C73.7367 177.075 72.8367 173.575 70.4367 171.275L62.4367 163.375C62.0367 162.975 62.0367 162.375 62.4367 161.975C62.8367 161.575 63.4367 161.575 63.8367 161.975L71.8367 169.875C74.7367 172.775 75.8367 176.975 74.6367 180.875L74.3367 181.775L80.7367 187.175C81.1367 187.575 81.2367 188.175 80.8367 188.575C80.6367 188.875 80.3367 188.975 80.0367 188.975Z" fill="#1C1B1A"/>
<path d="M93.2383 177.176L94.4383 176.476C95.4383 175.876 96.6383 175.476 97.8383 175.176L103.638 173.976C104.838 173.776 105.838 174.776 105.538 175.976C105.238 177.176 104.338 178.176 103.238 178.576L96.3383 180.276L93.2383 177.176Z" fill="#FDF8F6"/>
<path d="M96.2383 181.275C95.9383 181.275 95.7383 181.175 95.5383 180.975L92.5383 177.875C92.3383 177.675 92.2383 177.375 92.2383 177.075C92.2383 176.775 92.4383 176.475 92.7383 176.375L93.9383 175.675C95.0383 175.075 96.3383 174.575 97.5383 174.275L103.338 173.075C104.238 172.875 105.138 173.175 105.738 173.875C106.338 174.575 106.638 175.475 106.338 176.375C105.938 177.875 104.838 179.075 103.438 179.675C103.338 179.675 103.338 179.675 103.238 179.775L96.3383 181.475C96.4383 181.275 96.3383 181.275 96.2383 181.275ZM94.8383 177.375L96.5383 179.175L102.838 177.675C103.638 177.275 104.238 176.575 104.538 175.675C104.638 175.375 104.438 175.175 104.438 175.075C104.338 174.975 104.138 174.875 103.838 174.875L98.0383 176.075C96.9383 176.275 95.9383 176.675 94.9383 177.275L94.8383 177.375Z" fill="#1C1B1A"/>
<path d="M91.0391 178.875L93.0391 177.375C93.8391 176.775 95.0391 176.575 96.0391 176.975L104.239 180.375C105.339 180.875 105.539 182.375 104.539 183.075C103.539 183.875 102.339 184.075 101.139 183.875L95.0391 180.875L91.0391 178.875Z" fill="#FDF8F6"/>
<path d="M101.938 184.875C101.538 184.875 101.238 184.875 100.838 184.775C100.738 184.775 100.637 184.775 100.637 184.675L90.5375 179.675C90.2375 179.475 90.0375 179.175 89.9375 178.875C89.9375 178.575 90.0375 178.175 90.3375 177.975L92.3375 176.475C93.4375 175.575 94.9375 175.375 96.3375 175.975L104.537 179.375C105.437 179.775 105.937 180.475 106.037 181.475C106.137 182.375 105.837 183.275 105.037 183.875C104.237 184.575 103.137 184.875 101.938 184.875ZM101.438 182.875C102.337 183.075 103.238 182.775 103.938 182.275C104.137 182.075 104.137 181.875 104.137 181.775C104.137 181.675 104.038 181.475 103.838 181.275L95.6375 177.875C94.9375 177.575 94.2375 177.675 93.6375 178.175L92.9375 178.675L101.438 182.875Z" fill="#1C1B1A"/>
<path d="M86.1367 182.275L89.1367 179.475C89.9367 178.775 91.1367 178.675 92.1367 179.075L98.9367 182.475C100.037 182.975 100.237 184.475 99.2367 185.175C98.2367 185.975 97.0367 186.175 95.8367 185.975L90.3367 183.675L86.1367 182.275Z" fill="#FDF8F6"/>
<path d="M96.7367 187.175C96.3367 187.175 96.0367 187.175 95.6367 187.075C95.5367 187.075 95.5367 187.075 95.4367 186.975L89.9367 184.675L85.8367 183.275C85.5367 183.175 85.2367 182.875 85.2367 182.575C85.1367 182.275 85.2367 181.875 85.5367 181.675L88.5367 178.875C89.7367 177.975 91.2367 177.775 92.5367 178.275L99.3367 181.775C100.137 182.075 100.737 182.875 100.837 183.775C100.937 184.675 100.637 185.575 99.8367 186.175C98.9367 186.775 97.8367 187.175 96.7367 187.175ZM96.1367 185.175C97.0367 185.375 97.9367 185.175 98.6367 184.575C98.8367 184.375 98.8367 184.175 98.8367 184.075C98.8367 183.975 98.7367 183.775 98.5367 183.575L91.7367 180.075C91.1367 179.875 90.4367 179.975 89.8367 180.375L88.1367 181.975L90.7367 182.875L96.1367 185.175Z" fill="#1C1B1A"/>
<path d="M80.0391 187.976L85.8391 182.576C86.6391 181.976 87.6391 181.876 88.5391 182.176L94.6391 185.276C95.6391 185.676 95.7391 187.076 94.9391 187.676C94.0391 188.376 92.9391 188.576 91.8391 188.376L88.1391 186.476L80.0391 187.976Z" fill="#FDF8F6"/>
<path d="M92.6383 189.475C92.3383 189.475 91.9383 189.475 91.6383 189.375C91.5383 189.375 91.4383 189.375 91.4383 189.275L87.7383 187.375C87.2383 187.175 87.0383 186.575 87.3383 186.075C87.5383 185.575 88.1383 185.375 88.6383 185.675L92.2383 187.475C93.0383 187.575 93.7383 187.375 94.3383 186.975C94.5383 186.875 94.5383 186.675 94.5383 186.575C94.5383 186.475 94.4383 186.275 94.3383 186.275L88.2383 183.175C87.7383 182.975 87.1383 183.075 86.6383 183.375L80.9383 188.775C80.5383 189.175 79.9383 189.175 79.5383 188.775C79.1383 188.375 79.1383 187.775 79.5383 187.375L85.3383 181.975C85.3383 181.975 85.4383 181.975 85.4383 181.875C86.4383 181.075 87.8383 180.875 89.1383 181.375L95.2383 184.475C95.9383 184.775 96.5383 185.475 96.6383 186.375C96.7383 187.175 96.4383 188.075 95.7383 188.575C94.6383 189.175 93.6383 189.475 92.6383 189.475Z" fill="#1C1B1A"/>
<path d="M114.738 180.575L71.0382 211.575L70.4382 210.775C69.4382 209.275 69.7382 207.275 71.2382 206.275L112.338 177.075L114.738 180.575Z" fill="#1C1B1A"/>
<path d="M97.7365 192.575L130.337 169.475L120.337 136.875C119.337 133.775 115.637 132.475 112.937 134.375L88.6365 151.575C86.9365 152.775 86.2365 154.975 86.8365 156.975L97.7365 192.575Z" fill="#1C1B1A"/>
<path d="M108.64 161.975C109.64 163.375 111.54 163.675 112.94 162.675C114.34 161.675 114.64 159.775 113.64 158.375C112.64 156.975 110.74 156.675 109.34 157.675C107.94 158.575 107.64 160.575 108.64 161.975Z" fill="#FDF8F6"/>
<path d="M153.138 212.475L150.838 196.975C149.938 190.575 147.638 184.575 144.238 179.175L145.938 178.075C149.538 183.775 151.938 190.075 152.838 196.675L155.138 212.175L153.138 212.475Z" fill="#FDF8F6"/>
<path d="M29.6404 119.575L56.2404 112.675C52.6404 103.075 42.8404 96.8754 32.2404 98.2754C19.8404 99.8754 11.1404 111.175 12.7404 123.475C14.2404 135.075 24.3404 143.475 35.7404 143.075L29.6404 119.575Z" fill="#1C1B1A"/>
<path d="M23.3091 104.629C30.6265 103.986 36.0371 97.5322 35.394 90.2148C34.7508 82.8973 28.2974 77.4867 20.9799 78.1299C13.6625 78.773 8.25187 85.2264 8.89504 92.5439C9.53821 99.8614 15.9916 105.272 23.3091 104.629Z" fill="#1C1B1A"/>
<path d="M21.04 104.276C13.94 104.276 7.84003 98.9756 6.84003 91.7756C5.84003 83.9756 11.34 76.7756 19.14 75.7756C26.94 74.7756 34.14 80.2756 35.14 88.0756C36.14 95.8756 30.64 103.076 22.84 104.076C22.34 104.276 21.64 104.276 21.04 104.276ZM21.04 77.6756C20.54 77.6756 19.94 77.6756 19.44 77.7756C12.74 78.6756 8.04003 84.8756 8.84003 91.5756C9.74003 98.2756 15.94 103.076 22.64 102.176C29.34 101.276 34.14 95.0756 33.24 88.3756C32.44 82.1756 27.14 77.6756 21.04 77.6756Z" fill="#1C1B1A"/>
<path d="M32.9385 107.576C28.2385 109.176 25.2385 113.976 24.6385 119.876H24.5385C23.4385 117.676 21.3385 116.276 19.1385 116.576C16.3385 116.976 14.3385 120.076 14.7385 123.476C15.1385 127.176 17.9385 129.876 20.8385 129.476C21.4385 129.376 22.0385 129.176 22.6385 128.876V155.776C22.6385 158.976 39.8385 164.176 39.8385 157.576L39.7385 146.276C41.9385 146.876 44.0385 146.876 46.1385 146.176C53.6385 143.576 56.7385 132.876 53.1385 122.276C49.4385 111.576 40.3385 104.976 32.9385 107.576Z" fill="#FDF8F6"/>
<path d="M34.8389 161.775C29.8389 161.775 21.5389 158.875 21.5389 155.775V130.375C21.3389 130.475 21.1389 130.475 20.9389 130.475C19.4389 130.675 17.8389 130.175 16.6389 129.175C15.0389 127.875 13.9389 125.775 13.7389 123.475C13.3389 119.575 15.7389 115.975 19.0389 115.475C20.8389 115.275 22.7389 115.875 24.0389 117.375C25.2389 111.975 28.3389 108.075 32.6389 106.575C40.6389 103.875 50.2389 110.675 54.0389 121.875C55.8389 127.175 56.1389 132.775 54.7389 137.475C53.3389 142.275 50.3389 145.675 46.4389 147.075C44.6389 147.675 42.6389 147.875 40.7389 147.475L40.8389 157.575C40.8389 159.075 40.1389 160.175 38.9389 160.875C37.8389 161.475 36.4389 161.775 34.8389 161.775ZM22.5389 127.775C22.7389 127.775 22.8389 127.775 23.0389 127.875C23.3389 128.075 23.5389 128.375 23.5389 128.775V155.675C23.7389 156.775 30.3389 159.975 35.5389 159.675C38.7389 159.475 38.7389 157.975 38.7389 157.475L38.6389 146.175C38.6389 145.875 38.7389 145.575 39.0389 145.375C39.2389 145.175 39.6389 145.075 39.9389 145.175C41.9389 145.775 43.9389 145.675 45.7389 145.075C49.0389 143.975 51.5389 140.975 52.7389 136.875C54.0389 132.575 53.7389 127.475 52.0389 122.475C48.6389 112.375 40.1389 106.075 33.1389 108.475C29.0389 109.875 26.1389 114.175 25.4389 119.975C25.3389 120.475 24.9389 120.875 24.4389 120.875C24.0389 120.875 23.7389 120.675 23.5389 120.275C22.5389 118.375 20.8389 117.275 19.1389 117.475C16.8389 117.775 15.2389 120.375 15.5389 123.275C15.7389 125.075 16.5389 126.575 17.7389 127.575C18.6389 128.275 19.6389 128.575 20.5389 128.475C21.0389 128.375 21.4389 128.275 21.9389 127.975C22.1389 127.875 22.3389 127.775 22.5389 127.775Z" fill="#1C1B1A"/>
<path d="M39.1415 147.075C39.0415 147.075 38.9415 147.075 38.8415 147.075C35.3415 145.975 32.0415 143.475 29.3415 140.075C29.0415 139.675 29.0415 138.975 29.5415 138.675C29.9415 138.375 30.6415 138.375 30.9415 138.875C33.3415 141.975 36.4415 144.275 39.4415 145.275C39.9415 145.475 40.2415 145.975 40.1415 146.475C39.9415 146.875 39.5415 147.075 39.1415 147.075Z" fill="#1C1B1A"/>
<path d="M48.0382 116.775C47.9382 117.275 48.9382 117.875 50.1382 118.175C51.3382 118.475 52.5382 118.375 52.6382 117.875C52.7382 117.375 51.7382 116.775 50.5382 116.475C49.3382 116.175 48.1382 116.275 48.0382 116.775Z" fill="#1C1B1A"/>
<path d="M35.4401 121.176C35.7401 121.676 37.1401 121.476 38.5401 120.676C39.9401 119.876 40.9401 118.776 40.6401 118.276C40.3401 117.776 38.9401 117.976 37.5401 118.776C36.1401 119.576 35.1401 120.576 35.4401 121.176Z" fill="#1C1B1A"/>
<path d="M47.5405 140.476C45.8405 140.476 44.3405 138.876 43.6405 137.776C43.3405 137.276 43.5405 136.676 43.9405 136.376C44.4405 136.076 45.0405 136.276 45.3405 136.676C45.3405 136.676 46.7405 138.976 48.0405 138.276C48.5405 138.076 49.1405 138.276 49.3405 138.776C49.5405 139.276 49.3405 139.876 48.8405 140.076C48.4405 140.376 47.9405 140.476 47.5405 140.476Z" fill="#1C1B1A"/>
<path d="M22.9391 124.576C22.4391 124.576 21.9391 124.176 21.9391 123.576C21.9391 122.276 21.5391 121.376 20.8391 120.776C19.9391 119.976 18.6391 119.976 18.6391 119.976C18.1391 119.976 17.6391 119.576 17.5391 119.076C17.5391 118.476 17.9391 118.076 18.4391 117.976C18.5391 117.976 20.5391 117.876 22.1391 119.276C23.2391 120.276 23.8391 121.676 23.9391 123.576C23.9391 124.076 23.5391 124.576 22.9391 124.576Z" fill="#1C1B1A"/>
<path d="M40.7418 130.976C40.0418 130.976 39.2418 130.776 38.6418 130.376C37.7418 129.776 37.0418 128.876 36.7418 127.776C36.6418 127.276 36.9418 126.676 37.4418 126.576C37.9418 126.476 38.5418 126.776 38.6418 127.276C38.8418 127.876 39.1418 128.376 39.6418 128.676C40.1418 128.976 40.6418 129.076 41.2418 128.976C41.7418 128.876 42.2418 128.476 42.4418 127.976C42.7418 127.476 42.8418 126.776 42.6418 126.176C42.5418 125.676 42.8418 125.076 43.3418 124.976C43.8418 124.876 44.4418 125.176 44.5418 125.676C44.8418 126.776 44.7418 127.876 44.1418 128.876C43.6418 129.876 42.7418 130.576 41.6418 130.876C41.3418 130.976 41.0418 130.976 40.7418 130.976Z" fill="#1C1B1A"/>
<path d="M53.041 127.476C51.241 127.476 49.541 126.176 48.941 124.276C48.841 123.776 49.141 123.176 49.641 123.076C50.141 122.976 50.741 123.276 50.841 123.776C51.141 124.976 52.341 125.776 53.441 125.476C54.541 125.176 55.241 123.976 54.841 122.676C54.741 122.176 55.041 121.576 55.541 121.476C56.041 121.376 56.641 121.676 56.741 122.176C57.341 124.476 56.041 126.776 53.941 127.376C53.641 127.476 53.341 127.476 53.041 127.476Z" fill="#1C1B1A"/>
<path d="M38.7414 117.476C40.1414 114.576 40.9414 111.076 41.2414 107.176C41.2414 107.076 41.2414 106.876 41.2414 106.776C38.3414 105.376 35.3414 105.076 32.6414 106.076C27.4414 107.976 24.3414 113.976 23.9414 121.276L38.7414 117.476Z" fill="#1C1B1A"/>
<path d="M58.0411 112.975C57.6411 112.975 57.3411 112.775 57.1411 112.375C57.0411 112.275 51.9411 101.675 40.8411 100.675C40.2411 100.675 39.8411 100.175 39.9411 99.5755C39.9411 98.9755 40.4411 98.5755 41.0411 98.6755C53.3411 99.7755 58.7411 110.975 58.9411 111.475C59.1411 111.975 58.9411 112.575 58.4411 112.775C58.3411 112.875 58.2411 112.975 58.0411 112.975Z" fill="#1C1B1A"/>
<path d="M48.3392 133.775C48.1392 133.775 47.8392 133.675 47.6392 133.475C47.2392 133.075 47.2392 132.475 47.5392 132.075C47.7392 131.775 47.8392 131.475 47.7392 131.175L46.5392 127.475C46.3392 126.975 46.6392 126.375 47.1392 126.175C47.6392 125.975 48.2392 126.275 48.4392 126.775L49.6392 130.475C49.9392 131.475 49.7392 132.575 49.0392 133.375C48.9392 133.575 48.6392 133.775 48.3392 133.775Z" fill="#1C1B1A"/>
<path d="M43.3394 161.375L25.0394 162.275C23.2394 162.375 21.6394 160.975 21.5394 159.175L21.2394 152.975C21.1394 151.175 22.5394 149.575 24.3394 149.475L42.6394 148.575C44.4394 148.475 46.0394 149.875 46.1394 151.675L46.4394 157.875C46.5394 159.775 45.1394 161.275 43.3394 161.375Z" fill="#7FD0FF"/>
</svg>
