<svg width="528" height="244" viewBox="0 0 528 244" fill="none" xmlns="http://www.w3.org/2000/svg">
<g clip-path="url(#clip0_1526_9096)">
<rect width="528" height="244" rx="4" fill="#7FD0FF"/>
<path d="M124.336 90.336C123.141 90.336 122.152 90.168 121.368 89.832C120.584 89.496 119.959 89.0387 119.492 88.46C119.044 87.8627 118.727 87.172 118.54 86.388C118.353 85.604 118.26 84.764 118.26 83.868C118.26 83.0093 118.325 82.1507 118.456 81.292C118.587 80.4147 118.736 79.5747 118.904 78.772C119.184 77.4467 119.567 76.252 120.052 75.188C120.537 74.124 121.144 73.2187 121.872 72.472C122.6 71.7067 123.449 71.128 124.42 70.736C125.391 70.3253 126.511 70.12 127.78 70.12C128.657 70.12 129.432 70.2413 130.104 70.484C130.776 70.7267 131.345 71.0627 131.812 71.492C132.297 71.9027 132.689 72.3973 132.988 72.976C133.287 73.5547 133.492 74.18 133.604 74.852L130.16 76.252C130.104 75.3 129.861 74.6093 129.432 74.18C129.003 73.732 128.359 73.508 127.5 73.508C126.865 73.508 126.305 73.592 125.82 73.76C125.353 73.928 124.943 74.208 124.588 74.6C124.252 74.992 123.953 75.524 123.692 76.196C123.449 76.868 123.225 77.708 123.02 78.716L122.432 81.656C122.339 82.0853 122.264 82.4773 122.208 82.832C122.171 83.1867 122.152 83.4853 122.152 83.728C122.152 84.848 122.367 85.6693 122.796 86.192C123.225 86.696 123.907 86.948 124.84 86.948C125.344 86.948 125.792 86.9013 126.184 86.808C126.595 86.696 126.949 86.528 127.248 86.304C127.565 86.0613 127.845 85.7533 128.088 85.38C128.331 84.988 128.555 84.5027 128.76 83.924L132.036 85.38C131.327 87.004 130.337 88.236 129.068 89.076C127.799 89.916 126.221 90.336 124.336 90.336ZM139.075 90.336C137.134 90.336 135.734 89.832 134.875 88.824C134.035 87.816 133.615 86.3693 133.615 84.484C133.615 84.0547 133.634 83.588 133.671 83.084C133.709 82.58 133.774 82.132 133.867 81.74C134.334 79.5373 135.155 77.8573 136.331 76.7C137.507 75.5427 139.075 74.964 141.035 74.964C142.491 74.964 143.649 75.3187 144.507 76.028C145.366 76.7373 145.795 77.736 145.795 79.024C145.795 80.6853 145.133 81.9267 143.807 82.748C142.501 83.5693 140.363 84.0173 137.395 84.092C137.358 84.26 137.33 84.4653 137.311 84.708C137.293 84.9507 137.283 85.1467 137.283 85.296C137.283 85.968 137.414 86.4813 137.675 86.836C137.955 87.172 138.459 87.34 139.187 87.34C139.878 87.34 140.494 87.2 141.035 86.92C141.595 86.64 142.146 86.0893 142.687 85.268L144.927 87.088C144.143 88.2827 143.285 89.1227 142.351 89.608C141.437 90.0933 140.345 90.336 139.075 90.336ZM140.559 77.82C139.887 77.82 139.355 78.0627 138.963 78.548C138.571 79.0333 138.273 79.78 138.067 80.788L137.871 81.712C138.767 81.656 139.495 81.572 140.055 81.46C140.615 81.3293 141.054 81.1707 141.371 80.984C141.689 80.7787 141.903 80.5453 142.015 80.284C142.127 80.004 142.183 79.696 142.183 79.36C142.183 78.3333 141.642 77.82 140.559 77.82ZM148.898 90C148.114 90 147.554 89.8507 147.218 89.552C146.882 89.2533 146.714 88.7867 146.714 88.152C146.714 88.0027 146.723 87.8253 146.742 87.62C146.76 87.4147 146.788 87.228 146.826 87.06L150.382 69.28H154.106L150.55 87.032H152.118L151.53 90H148.898ZM159.611 90.336C157.669 90.336 156.269 89.832 155.411 88.824C154.571 87.816 154.151 86.3693 154.151 84.484C154.151 84.0547 154.169 83.588 154.207 83.084C154.244 82.58 154.309 82.132 154.403 81.74C154.869 79.5373 155.691 77.8573 156.867 76.7C158.043 75.5427 159.611 74.964 161.571 74.964C163.027 74.964 164.184 75.3187 165.043 76.028C165.901 76.7373 166.331 77.736 166.331 79.024C166.331 80.6853 165.668 81.9267 164.343 82.748C163.036 83.5693 160.899 84.0173 157.931 84.092C157.893 84.26 157.865 84.4653 157.847 84.708C157.828 84.9507 157.819 85.1467 157.819 85.296C157.819 85.968 157.949 86.4813 158.211 86.836C158.491 87.172 158.995 87.34 159.723 87.34C160.413 87.34 161.029 87.2 161.571 86.92C162.131 86.64 162.681 86.0893 163.223 85.268L165.463 87.088C164.679 88.2827 163.82 89.1227 162.887 89.608C161.972 90.0933 160.88 90.336 159.611 90.336ZM161.095 77.82C160.423 77.82 159.891 78.0627 159.499 78.548C159.107 79.0333 158.808 79.78 158.603 80.788L158.407 81.712C159.303 81.656 160.031 81.572 160.591 81.46C161.151 81.3293 161.589 81.1707 161.907 80.984C162.224 80.7787 162.439 80.5453 162.551 80.284C162.663 80.004 162.719 79.696 162.719 79.36C162.719 78.3333 162.177 77.82 161.095 77.82ZM170.945 69.28H174.669L172.793 78.604H173.185C173.708 77.2787 174.286 76.3453 174.921 75.804C175.574 75.244 176.405 74.964 177.413 74.964C178.514 74.964 179.364 75.3187 179.961 76.028C180.558 76.7187 180.857 77.904 180.857 79.584C180.857 80.1627 180.82 80.7413 180.745 81.32C180.689 81.88 180.614 82.4213 180.521 82.944C180.092 85.24 179.364 87.0507 178.337 88.376C177.329 89.6827 176.022 90.336 174.417 90.336C173.409 90.336 172.662 90.0653 172.177 89.524C171.71 88.9827 171.468 88.2733 171.449 87.396H171.057L170.525 90H166.801L170.945 69.28ZM173.465 87.284C174.249 87.284 174.856 87.0227 175.285 86.5C175.733 85.9773 176.088 85.1 176.349 83.868L176.741 81.936C176.834 81.5067 176.909 81.068 176.965 80.62C177.04 80.172 177.077 79.8267 177.077 79.584C177.077 79.136 176.956 78.7627 176.713 78.464C176.47 78.1653 176.088 78.016 175.565 78.016C175.061 78.016 174.613 78.1467 174.221 78.408C173.829 78.6507 173.502 78.996 173.241 79.444C172.98 79.892 172.737 80.3587 172.513 80.844C172.308 81.3293 172.158 81.8147 172.065 82.3L171.561 84.82C171.412 85.604 171.514 86.2107 171.869 86.64C172.224 87.0693 172.756 87.284 173.465 87.284ZM181.949 90L184.889 75.3H188.613L187.941 78.66H188.333C188.613 77.6333 189.033 76.8213 189.593 76.224C190.172 75.608 191.003 75.3 192.085 75.3H192.701L191.889 78.884H190.517C189.584 78.884 188.865 79.1173 188.361 79.584C187.857 80.0507 187.484 80.9093 187.241 82.16L185.673 90H181.949ZM202.511 90C201.746 90 201.186 89.8507 200.831 89.552C200.495 89.2347 200.327 88.74 200.327 88.068C200.327 87.9187 200.336 87.7787 200.355 87.648C200.374 87.5173 200.402 87.34 200.439 87.116L200.523 86.696H200.131C199.59 88.0213 199.002 88.964 198.367 89.524C197.732 90.0653 196.911 90.336 195.903 90.336C194.802 90.336 193.952 89.9907 193.355 89.3C192.758 88.5907 192.459 87.396 192.459 85.716C192.459 85.1373 192.487 84.568 192.543 84.008C192.618 83.4293 192.702 82.8787 192.795 82.356C193.224 80.06 193.943 78.2587 194.951 76.952C195.978 75.6267 197.294 74.964 198.899 74.964C199.907 74.964 200.644 75.2347 201.111 75.776C201.596 76.3173 201.848 77.0267 201.867 77.904H202.259L202.791 75.3H206.515L204.163 87.032H205.619L205.031 90H202.511ZM197.751 87.284C198.255 87.284 198.703 87.1627 199.095 86.92C199.487 86.6587 199.814 86.304 200.075 85.856C200.336 85.408 200.57 84.9413 200.775 84.456C200.999 83.9707 201.158 83.4853 201.251 83L201.755 80.48C201.904 79.696 201.802 79.0893 201.447 78.66C201.092 78.2307 200.56 78.016 199.851 78.016C199.067 78.016 198.451 78.2773 198.003 78.8C197.574 79.3227 197.228 80.2 196.967 81.432L196.575 83.364C196.482 83.7933 196.398 84.232 196.323 84.68C196.267 85.128 196.239 85.4733 196.239 85.716C196.239 86.164 196.36 86.5373 196.603 86.836C196.846 87.1347 197.228 87.284 197.751 87.284ZM210.098 90C209.314 90 208.754 89.8507 208.418 89.552C208.082 89.2347 207.914 88.7213 207.914 88.012C207.914 87.8627 207.924 87.704 207.942 87.536C207.961 87.3493 207.989 87.1813 208.026 87.032L209.79 78.268H207.97L208.558 75.3H209.426C209.912 75.3 210.257 75.2067 210.462 75.02C210.686 74.8333 210.854 74.4507 210.966 73.872L211.47 71.352H214.886L214.102 75.3H216.678L216.09 78.268H213.514L211.75 87.032H214.046L213.458 90H210.098ZM221.224 73.48C219.955 73.48 219.32 73.0133 219.32 72.08C219.32 71.9307 219.33 71.7627 219.348 71.576C219.386 71.3893 219.442 71.184 219.516 70.96C219.722 70.3253 220.03 69.8587 220.44 69.56C220.851 69.2613 221.411 69.112 222.12 69.112C223.39 69.112 224.024 69.5787 224.024 70.512C224.024 70.6613 224.006 70.8293 223.968 71.016C223.95 71.2027 223.903 71.408 223.828 71.632C223.623 72.2667 223.315 72.7333 222.904 73.032C222.494 73.3307 221.934 73.48 221.224 73.48ZM218.788 90C218.004 90 217.444 89.8507 217.108 89.552C216.772 89.2533 216.604 88.7867 216.604 88.152C216.604 88.0027 216.614 87.8253 216.632 87.62C216.651 87.4147 216.679 87.228 216.716 87.06L219.068 75.3H222.792L220.44 87.032H221.728L221.14 90H218.788ZM223.594 90L226.534 75.3H230.258L229.586 78.66H229.978C230.407 77.4653 230.948 76.5507 231.602 75.916C232.274 75.2813 233.142 74.964 234.206 74.964C235.27 74.964 236.035 75.272 236.502 75.888C236.987 76.4853 237.23 77.3907 237.23 78.604C237.23 78.9213 237.192 79.3133 237.118 79.78C237.043 80.228 236.978 80.592 236.922 80.872L235.69 87.032H236.978L236.39 90H234.038C233.254 90 232.684 89.8413 232.33 89.524C231.994 89.2067 231.826 88.6933 231.826 87.984C231.826 87.8533 231.835 87.7133 231.854 87.564C231.872 87.4147 231.9 87.284 231.938 87.172L233.114 81.292C233.17 80.9933 233.216 80.6853 233.254 80.368C233.31 80.032 233.338 79.724 233.338 79.444C233.338 78.9587 233.244 78.6133 233.058 78.408C232.89 78.184 232.582 78.072 232.134 78.072C231.704 78.072 231.331 78.1747 231.014 78.38C230.715 78.5667 230.407 78.9027 230.09 79.388C229.828 79.7987 229.586 80.2467 229.362 80.732C229.138 81.1987 228.97 81.7213 228.858 82.3L227.318 90H223.594ZM250.954 90.588C250.954 91.2973 250.833 91.9787 250.59 92.632C250.366 93.2853 249.956 93.8547 249.358 94.34C248.78 94.8253 247.986 95.208 246.978 95.488C245.97 95.7867 244.682 95.936 243.114 95.936C241.994 95.936 241.07 95.8613 240.342 95.712C239.614 95.5627 239.036 95.348 238.606 95.068C238.196 94.788 237.906 94.452 237.738 94.06C237.57 93.668 237.486 93.2293 237.486 92.744C237.486 91.904 237.757 91.232 238.298 90.728C238.858 90.224 239.586 89.9533 240.482 89.916V89.412C239.96 89.3187 239.577 89.0853 239.334 88.712C239.11 88.3387 238.998 87.9 238.998 87.396C238.998 87.004 239.082 86.6493 239.25 86.332C239.418 85.996 239.633 85.7067 239.894 85.464C240.174 85.2213 240.492 85.0347 240.846 84.904C241.22 84.7547 241.602 84.6707 241.994 84.652V84.26C241.397 83.924 240.94 83.4667 240.622 82.888C240.305 82.2907 240.146 81.5347 240.146 80.62C240.146 78.884 240.678 77.512 241.742 76.504C242.825 75.4773 244.412 74.964 246.502 74.964C247.342 74.964 248.098 75.076 248.77 75.3L248.938 74.46C249.088 73.788 249.312 73.3213 249.61 73.06C249.928 72.78 250.46 72.64 251.206 72.64H253.166L252.606 75.496H249.834L249.75 75.888C250.217 76.1493 250.609 76.5693 250.926 77.148C251.244 77.708 251.402 78.408 251.402 79.248C251.402 80.984 250.861 82.356 249.778 83.364C248.696 84.372 247.109 84.876 245.018 84.876C244.234 84.876 243.534 84.792 242.918 84.624C242.657 84.7547 242.442 84.9507 242.274 85.212C242.125 85.4733 242.05 85.7627 242.05 86.08C242.05 86.3973 242.144 86.6307 242.33 86.78C242.517 86.9107 242.844 86.976 243.31 86.976H246.838C248.276 86.976 249.321 87.2653 249.974 87.844C250.628 88.4227 250.954 89.3373 250.954 90.588ZM247.258 91.428C247.258 90.9613 247.146 90.6347 246.922 90.448C246.698 90.28 246.26 90.196 245.606 90.196H241.182C240.94 90.42 240.772 90.672 240.678 90.952C240.604 91.232 240.566 91.54 240.566 91.876C240.566 92.4173 240.706 92.8 240.986 93.024C241.285 93.248 241.845 93.36 242.666 93.36H244.57C245.112 93.36 245.56 93.3133 245.914 93.22C246.269 93.1453 246.54 93.024 246.726 92.856C246.932 92.688 247.072 92.4827 247.146 92.24C247.221 92.016 247.258 91.7453 247.258 91.428ZM245.41 82.328C246.176 82.328 246.726 82.16 247.062 81.824C247.398 81.488 247.632 80.9747 247.762 80.284C247.818 79.9667 247.856 79.724 247.874 79.556C247.893 79.388 247.902 79.248 247.902 79.136C247.902 78.5947 247.781 78.1933 247.538 77.932C247.296 77.6707 246.829 77.54 246.138 77.54C245.373 77.54 244.822 77.708 244.486 78.044C244.15 78.38 243.917 78.8933 243.786 79.584C243.73 79.9013 243.693 80.144 243.674 80.312C243.656 80.48 243.646 80.62 243.646 80.732C243.646 81.2733 243.768 81.6747 244.01 81.936C244.253 82.1973 244.72 82.328 245.41 82.328ZM263.974 90.336C262.947 90.336 262.098 90.1867 261.426 89.888C260.772 89.5893 260.25 89.1787 259.858 88.656C259.484 88.1147 259.223 87.4893 259.074 86.78C258.924 86.0707 258.85 85.3053 258.85 84.484C258.85 84.0547 258.868 83.5973 258.906 83.112C258.943 82.6267 259.008 82.1693 259.102 81.74C259.307 80.6947 259.587 79.7613 259.942 78.94C260.315 78.1 260.782 77.3907 261.342 76.812C261.902 76.2147 262.564 75.7573 263.33 75.44C264.114 75.1227 265.01 74.964 266.018 74.964C267.044 74.964 267.884 75.1133 268.538 75.412C269.21 75.7107 269.732 76.1307 270.106 76.672C270.498 77.1947 270.768 77.8107 270.918 78.52C271.067 79.2293 271.142 79.9947 271.142 80.816C271.142 81.2453 271.123 81.7027 271.086 82.188C271.048 82.6733 270.983 83.1307 270.89 83.56C270.684 84.6053 270.395 85.548 270.022 86.388C269.667 87.2093 269.21 87.9187 268.65 88.516C268.09 89.0947 267.418 89.5427 266.634 89.86C265.868 90.1773 264.982 90.336 263.974 90.336ZM264.282 87.34C264.636 87.34 264.944 87.284 265.206 87.172C265.486 87.0413 265.719 86.8453 265.906 86.584C266.111 86.304 266.279 85.9493 266.41 85.52C266.559 85.072 266.699 84.5213 266.83 83.868L267.334 81.348C267.427 80.8813 267.474 80.4333 267.474 80.004C267.474 79.2947 267.334 78.7813 267.054 78.464C266.792 78.128 266.344 77.96 265.71 77.96C264.982 77.96 264.431 78.2213 264.058 78.744C263.703 79.248 263.404 80.144 263.162 81.432L262.658 83.952C262.564 84.4187 262.518 84.8667 262.518 85.296C262.518 86.0053 262.648 86.528 262.91 86.864C263.19 87.1813 263.647 87.34 264.282 87.34ZM278.79 75.3L277.026 84.092C276.97 84.3907 276.914 84.6893 276.858 84.988C276.821 85.2867 276.802 85.576 276.802 85.856C276.802 86.3413 276.886 86.696 277.054 86.92C277.241 87.1253 277.558 87.228 278.006 87.228C278.473 87.228 278.856 87.116 279.154 86.892C279.472 86.668 279.77 86.3413 280.05 85.912C280.312 85.5013 280.554 85.0533 280.778 84.568C281.002 84.064 281.17 83.5227 281.282 82.944L282.822 75.3H286.546L284.194 87.032H285.65L285.062 90H282.542C281.758 90 281.198 89.8413 280.862 89.524C280.526 89.2067 280.358 88.6933 280.358 87.984C280.358 87.8533 280.368 87.7133 280.386 87.564C280.405 87.4147 280.433 87.2653 280.47 87.116L280.554 86.64H280.162C279.733 87.8347 279.182 88.7493 278.51 89.384C277.857 90.0187 276.998 90.336 275.934 90.336C274.87 90.336 274.096 90.0373 273.61 89.44C273.144 88.824 272.91 87.9093 272.91 86.696C272.91 86.3787 272.948 85.996 273.022 85.548C273.097 85.1 273.162 84.736 273.218 84.456L275.066 75.3H278.79ZM287.387 90L290.327 75.3H294.051L293.379 78.66H293.771C294.051 77.6333 294.471 76.8213 295.031 76.224C295.609 75.608 296.44 75.3 297.523 75.3H298.139L297.327 78.884H295.955C295.021 78.884 294.303 79.1173 293.799 79.584C293.295 80.0507 292.921 80.9093 292.679 82.16L291.111 90H287.387Z" fill="#002019"/>
<rect x="302" y="60" width="109" height="40" rx="12" fill="#C5E7FF"/>
<path d="M316.889 90L315.517 75.3H319.241L319.717 81.18L319.633 86.78H320.025L321.957 81.18L324.533 75.3H328.425L321.621 90H316.889ZM332.482 73.48C331.213 73.48 330.578 73.0133 330.578 72.08C330.578 71.9307 330.587 71.7627 330.606 71.576C330.643 71.3893 330.699 71.184 330.774 70.96C330.979 70.3253 331.287 69.8587 331.698 69.56C332.109 69.2613 332.669 69.112 333.378 69.112C334.647 69.112 335.282 69.5787 335.282 70.512C335.282 70.6613 335.263 70.8293 335.226 71.016C335.207 71.2027 335.161 71.408 335.086 71.632C334.881 72.2667 334.573 72.7333 334.162 73.032C333.751 73.3307 333.191 73.48 332.482 73.48ZM330.046 90C329.262 90 328.702 89.8507 328.366 89.552C328.03 89.2533 327.862 88.7867 327.862 88.152C327.862 88.0027 327.871 87.8253 327.89 87.62C327.909 87.4147 327.937 87.228 327.974 87.06L330.326 75.3H334.05L331.698 87.032H332.986L332.398 90H330.046ZM338.996 69.28H342.72L340.844 78.604H341.236C341.758 77.2787 342.337 76.3453 342.972 75.804C343.625 75.244 344.456 74.964 345.464 74.964C346.565 74.964 347.414 75.3187 348.012 76.028C348.609 76.7187 348.908 77.904 348.908 79.584C348.908 80.1627 348.87 80.7413 348.796 81.32C348.74 81.88 348.665 82.4213 348.572 82.944C348.142 85.24 347.414 87.0507 346.388 88.376C345.38 89.6827 344.073 90.336 342.468 90.336C341.46 90.336 340.713 90.0653 340.228 89.524C339.761 88.9827 339.518 88.2733 339.5 87.396H339.108L338.576 90H334.852L338.996 69.28ZM341.516 87.284C342.3 87.284 342.906 87.0227 343.336 86.5C343.784 85.9773 344.138 85.1 344.4 83.868L344.792 81.936C344.885 81.5067 344.96 81.068 345.016 80.62C345.09 80.172 345.128 79.8267 345.128 79.584C345.128 79.136 345.006 78.7627 344.764 78.464C344.521 78.1653 344.138 78.016 343.616 78.016C343.112 78.016 342.664 78.1467 342.272 78.408C341.88 78.6507 341.553 78.996 341.292 79.444C341.03 79.892 340.788 80.3587 340.564 80.844C340.358 81.3293 340.209 81.8147 340.116 82.3L339.612 84.82C339.462 85.604 339.565 86.2107 339.92 86.64C340.274 87.0693 340.806 87.284 341.516 87.284ZM350 90L352.94 75.3H356.664L355.992 78.66H356.384C356.664 77.6333 357.084 76.8213 357.644 76.224C358.223 75.608 359.053 75.3 360.136 75.3H360.752L359.94 78.884H358.568C357.635 78.884 356.916 79.1173 356.412 79.584C355.908 80.0507 355.535 80.9093 355.292 82.16L353.724 90H350ZM370.562 90C369.797 90 369.237 89.8507 368.882 89.552C368.546 89.2347 368.378 88.74 368.378 88.068C368.378 87.9187 368.387 87.7787 368.406 87.648C368.425 87.5173 368.453 87.34 368.49 87.116L368.574 86.696H368.182C367.641 88.0213 367.053 88.964 366.418 89.524C365.783 90.0653 364.962 90.336 363.954 90.336C362.853 90.336 362.003 89.9907 361.406 89.3C360.809 88.5907 360.51 87.396 360.51 85.716C360.51 85.1373 360.538 84.568 360.594 84.008C360.669 83.4293 360.753 82.8787 360.846 82.356C361.275 80.06 361.994 78.2587 363.002 76.952C364.029 75.6267 365.345 74.964 366.95 74.964C367.958 74.964 368.695 75.2347 369.162 75.776C369.647 76.3173 369.899 77.0267 369.918 77.904H370.31L370.842 75.3H374.566L372.214 87.032H373.67L373.082 90H370.562ZM365.802 87.284C366.306 87.284 366.754 87.1627 367.146 86.92C367.538 86.6587 367.865 86.304 368.126 85.856C368.387 85.408 368.621 84.9413 368.826 84.456C369.05 83.9707 369.209 83.4853 369.302 83L369.806 80.48C369.955 79.696 369.853 79.0893 369.498 78.66C369.143 78.2307 368.611 78.016 367.902 78.016C367.118 78.016 366.502 78.2773 366.054 78.8C365.625 79.3227 365.279 80.2 365.018 81.432L364.626 83.364C364.533 83.7933 364.449 84.232 364.374 84.68C364.318 85.128 364.29 85.4733 364.29 85.716C364.29 86.164 364.411 86.5373 364.654 86.836C364.897 87.1347 365.279 87.284 365.802 87.284ZM375.293 90L378.233 75.3H381.957L381.285 78.66H381.677C382.106 77.4653 382.648 76.5507 383.301 75.916C383.973 75.2813 384.841 74.964 385.905 74.964C386.969 74.964 387.734 75.272 388.201 75.888C388.686 76.4853 388.929 77.3907 388.929 78.604C388.929 78.9213 388.892 79.3133 388.817 79.78C388.742 80.228 388.677 80.592 388.621 80.872L387.389 87.032H388.677L388.089 90H385.737C384.953 90 384.384 89.8413 384.029 89.524C383.693 89.2067 383.525 88.6933 383.525 87.984C383.525 87.8533 383.534 87.7133 383.553 87.564C383.572 87.4147 383.6 87.284 383.637 87.172L384.813 81.292C384.869 80.9933 384.916 80.6853 384.953 80.368C385.009 80.032 385.037 79.724 385.037 79.444C385.037 78.9587 384.944 78.6133 384.757 78.408C384.589 78.184 384.281 78.072 383.833 78.072C383.404 78.072 383.03 78.1747 382.713 78.38C382.414 78.5667 382.106 78.9027 381.789 79.388C381.528 79.7987 381.285 80.2467 381.061 80.732C380.837 81.1987 380.669 81.7213 380.557 82.3L379.017 90H375.293ZM393.133 90C392.349 90 391.789 89.8507 391.453 89.552C391.117 89.2347 390.949 88.7213 390.949 88.012C390.949 87.8627 390.959 87.704 390.977 87.536C390.996 87.3493 391.024 87.1813 391.061 87.032L392.825 78.268H391.005L391.593 75.3H392.461C392.947 75.3 393.292 75.2067 393.497 75.02C393.721 74.8333 393.889 74.4507 394.001 73.872L394.505 71.352H397.921L397.137 75.3H399.713L399.125 78.268H396.549L394.785 87.032H397.081L396.493 90H393.133Z" fill="#001E2D"/>
<path d="M131.308 132C130.543 132 129.983 131.851 129.628 131.552C129.292 131.235 129.124 130.74 129.124 130.068C129.124 129.919 129.133 129.779 129.152 129.648C129.171 129.517 129.199 129.34 129.236 129.116L129.32 128.696H128.928C128.387 130.021 127.799 130.964 127.164 131.524C126.529 132.065 125.708 132.336 124.7 132.336C123.599 132.336 122.749 131.991 122.152 131.3C121.555 130.591 121.256 129.396 121.256 127.716C121.256 127.137 121.284 126.568 121.34 126.008C121.415 125.429 121.499 124.879 121.592 124.356C122.021 122.06 122.74 120.259 123.748 118.952C124.775 117.627 126.091 116.964 127.696 116.964C128.704 116.964 129.441 117.235 129.908 117.776C130.393 118.317 130.645 119.027 130.664 119.904H131.056L131.588 117.3H135.312L132.96 129.032H134.416L133.828 132H131.308ZM126.548 129.284C127.052 129.284 127.5 129.163 127.892 128.92C128.284 128.659 128.611 128.304 128.872 127.856C129.133 127.408 129.367 126.941 129.572 126.456C129.796 125.971 129.955 125.485 130.048 125L130.552 122.48C130.701 121.696 130.599 121.089 130.244 120.66C129.889 120.231 129.357 120.016 128.648 120.016C127.864 120.016 127.248 120.277 126.8 120.8C126.371 121.323 126.025 122.2 125.764 123.432L125.372 125.364C125.279 125.793 125.195 126.232 125.12 126.68C125.064 127.128 125.036 127.473 125.036 127.716C125.036 128.164 125.157 128.537 125.4 128.836C125.643 129.135 126.025 129.284 126.548 129.284ZM136.039 132L138.979 117.3H142.703L142.031 120.66H142.423C142.852 119.465 143.394 118.551 144.047 117.916C144.719 117.281 145.587 116.964 146.651 116.964C147.715 116.964 148.48 117.272 148.947 117.888C149.432 118.485 149.675 119.391 149.675 120.604C149.675 120.921 149.638 121.313 149.563 121.78C149.488 122.228 149.423 122.592 149.367 122.872L148.135 129.032H149.423L148.835 132H146.483C145.699 132 145.13 131.841 144.775 131.524C144.439 131.207 144.271 130.693 144.271 129.984C144.271 129.853 144.28 129.713 144.299 129.564C144.318 129.415 144.346 129.284 144.383 129.172L145.559 123.292C145.615 122.993 145.662 122.685 145.699 122.368C145.755 122.032 145.783 121.724 145.783 121.444C145.783 120.959 145.69 120.613 145.503 120.408C145.335 120.184 145.027 120.072 144.579 120.072C144.15 120.072 143.776 120.175 143.459 120.38C143.16 120.567 142.852 120.903 142.535 121.388C142.274 121.799 142.031 122.247 141.807 122.732C141.583 123.199 141.415 123.721 141.303 124.3L139.763 132H136.039ZM161.496 132C160.73 132 160.17 131.851 159.816 131.552C159.48 131.235 159.312 130.74 159.312 130.068C159.312 129.919 159.321 129.779 159.34 129.648C159.358 129.517 159.386 129.34 159.424 129.116L159.508 128.696H159.116C158.574 130.021 157.986 130.964 157.352 131.524C156.717 132.065 155.896 132.336 154.888 132.336C153.786 132.336 152.937 131.991 152.34 131.3C151.742 130.591 151.444 129.396 151.444 127.716C151.444 127.137 151.472 126.568 151.528 126.008C151.602 125.429 151.686 124.879 151.78 124.356C152.209 122.06 152.928 120.259 153.936 118.952C154.962 117.627 156.278 116.964 157.883 116.964C158.892 116.964 159.629 117.235 160.096 117.776C160.581 118.317 160.833 119.027 160.852 119.904H161.244L162.98 111.28H166.704L163.148 129.032H164.604L164.016 132H161.496ZM156.736 129.284C157.24 129.284 157.688 129.163 158.079 128.92C158.472 128.659 158.798 128.304 159.06 127.856C159.321 127.408 159.554 126.941 159.76 126.456C159.984 125.971 160.142 125.485 160.236 125L160.74 122.48C160.889 121.696 160.786 121.089 160.432 120.66C160.077 120.231 159.545 120.016 158.836 120.016C158.052 120.016 157.436 120.277 156.988 120.8C156.558 121.323 156.213 122.2 155.952 123.432L155.56 125.364C155.466 125.793 155.382 126.232 155.308 126.68C155.252 127.128 155.224 127.473 155.224 127.716C155.224 128.164 155.345 128.537 155.588 128.836C155.83 129.135 156.213 129.284 156.736 129.284Z" fill="#002019"/>
<rect x="170.5" y="102" width="109" height="40" rx="12" fill="#C5E7FF"/>
<path d="M193.398 132C192.633 132 192.073 131.851 191.718 131.552C191.382 131.235 191.214 130.74 191.214 130.068C191.214 129.919 191.223 129.779 191.242 129.648C191.261 129.517 191.289 129.34 191.326 129.116L191.41 128.696H191.018C190.477 130.021 189.889 130.964 189.254 131.524C188.619 132.065 187.798 132.336 186.79 132.336C185.689 132.336 184.839 131.991 184.242 131.3C183.645 130.591 183.346 129.396 183.346 127.716C183.346 127.137 183.374 126.568 183.43 126.008C183.505 125.429 183.589 124.879 183.682 124.356C184.111 122.06 184.83 120.259 185.838 118.952C186.865 117.627 188.181 116.964 189.786 116.964C190.794 116.964 191.531 117.235 191.998 117.776C192.483 118.317 192.735 119.027 192.754 119.904H193.146L194.882 111.28H198.606L195.05 129.032H196.506L195.918 132H193.398ZM188.638 129.284C189.142 129.284 189.59 129.163 189.982 128.92C190.374 128.659 190.701 128.304 190.962 127.856C191.223 127.408 191.457 126.941 191.662 126.456C191.886 125.971 192.045 125.485 192.138 125L192.642 122.48C192.791 121.696 192.689 121.089 192.334 120.66C191.979 120.231 191.447 120.016 190.738 120.016C189.954 120.016 189.338 120.277 188.89 120.8C188.461 121.323 188.115 122.2 187.854 123.432L187.462 125.364C187.369 125.793 187.285 126.232 187.21 126.68C187.154 127.128 187.126 127.473 187.126 127.716C187.126 128.164 187.247 128.537 187.49 128.836C187.733 129.135 188.115 129.284 188.638 129.284ZM203.306 115.48C202.037 115.48 201.402 115.013 201.402 114.08C201.402 113.931 201.412 113.763 201.43 113.576C201.468 113.389 201.524 113.184 201.598 112.96C201.804 112.325 202.112 111.859 202.522 111.56C202.933 111.261 203.493 111.112 204.202 111.112C205.472 111.112 206.106 111.579 206.106 112.512C206.106 112.661 206.088 112.829 206.05 113.016C206.032 113.203 205.985 113.408 205.91 113.632C205.705 114.267 205.397 114.733 204.986 115.032C204.576 115.331 204.016 115.48 203.306 115.48ZM200.87 132C200.086 132 199.526 131.851 199.19 131.552C198.854 131.253 198.686 130.787 198.686 130.152C198.686 130.003 198.696 129.825 198.714 129.62C198.733 129.415 198.761 129.228 198.798 129.06L201.15 117.3H204.874L202.522 129.032H203.81L203.222 132H200.87ZM208.084 132L206.712 117.3H210.436L210.912 123.18L210.828 128.78H211.22L213.152 123.18L215.728 117.3H219.62L212.816 132H208.084ZM224.489 132.336C222.548 132.336 221.148 131.832 220.289 130.824C219.449 129.816 219.029 128.369 219.029 126.484C219.029 126.055 219.048 125.588 219.085 125.084C219.123 124.58 219.188 124.132 219.281 123.74C219.748 121.537 220.569 119.857 221.745 118.7C222.921 117.543 224.489 116.964 226.449 116.964C227.905 116.964 229.063 117.319 229.921 118.028C230.78 118.737 231.209 119.736 231.209 121.024C231.209 122.685 230.547 123.927 229.221 124.748C227.915 125.569 225.777 126.017 222.809 126.092C222.772 126.26 222.744 126.465 222.725 126.708C222.707 126.951 222.697 127.147 222.697 127.296C222.697 127.968 222.828 128.481 223.089 128.836C223.369 129.172 223.873 129.34 224.601 129.34C225.292 129.34 225.908 129.2 226.449 128.92C227.009 128.64 227.56 128.089 228.101 127.268L230.341 129.088C229.557 130.283 228.699 131.123 227.765 131.608C226.851 132.093 225.759 132.336 224.489 132.336ZM225.973 119.82C225.301 119.82 224.769 120.063 224.377 120.548C223.985 121.033 223.687 121.78 223.481 122.788L223.285 123.712C224.181 123.656 224.909 123.572 225.469 123.46C226.029 123.329 226.468 123.171 226.785 122.984C227.103 122.779 227.317 122.545 227.429 122.284C227.541 122.004 227.597 121.696 227.597 121.36C227.597 120.333 227.056 119.82 225.973 119.82ZM231.68 132L234.62 117.3H238.344L237.672 120.66H238.064C238.344 119.633 238.764 118.821 239.324 118.224C239.902 117.608 240.733 117.3 241.816 117.3H242.432L241.62 120.884H240.248C239.314 120.884 238.596 121.117 238.092 121.584C237.588 122.051 237.214 122.909 236.972 124.16L235.404 132H231.68ZM246.918 132.336C244.454 132.336 242.7 131.477 241.654 129.76L244.006 127.576C244.324 128.173 244.706 128.621 245.154 128.92C245.602 129.219 246.237 129.368 247.058 129.368C247.861 129.368 248.44 129.228 248.794 128.948C249.149 128.668 249.326 128.276 249.326 127.772C249.326 127.38 249.214 127.091 248.99 126.904C248.785 126.717 248.458 126.549 248.01 126.4L246.722 125.952C246.237 125.784 245.798 125.597 245.406 125.392C245.014 125.168 244.678 124.907 244.398 124.608C244.118 124.309 243.904 123.955 243.754 123.544C243.605 123.133 243.53 122.639 243.53 122.06C243.53 121.369 243.642 120.716 243.866 120.1C244.09 119.484 244.436 118.943 244.902 118.476C245.369 118.009 245.957 117.645 246.666 117.384C247.394 117.104 248.244 116.964 249.214 116.964C251.361 116.964 252.985 117.739 254.086 119.288L251.734 121.472C251.417 121.005 251.034 120.641 250.586 120.38C250.157 120.1 249.625 119.96 248.99 119.96C248.393 119.96 247.926 120.091 247.59 120.352C247.273 120.613 247.114 121.005 247.114 121.528C247.114 121.901 247.226 122.172 247.45 122.34C247.674 122.508 247.992 122.667 248.402 122.816L249.69 123.264C250.792 123.637 251.613 124.104 252.154 124.664C252.696 125.224 252.966 126.027 252.966 127.072C252.966 127.819 252.836 128.519 252.574 129.172C252.332 129.807 251.958 130.357 251.454 130.824C250.95 131.291 250.316 131.664 249.55 131.944C248.804 132.205 247.926 132.336 246.918 132.336ZM260.556 132.336C258.615 132.336 257.215 131.832 256.356 130.824C255.516 129.816 255.096 128.369 255.096 126.484C255.096 126.055 255.115 125.588 255.152 125.084C255.189 124.58 255.255 124.132 255.348 123.74C255.815 121.537 256.636 119.857 257.812 118.7C258.988 117.543 260.556 116.964 262.516 116.964C263.972 116.964 265.129 117.319 265.988 118.028C266.847 118.737 267.276 119.736 267.276 121.024C267.276 122.685 266.613 123.927 265.288 124.748C263.981 125.569 261.844 126.017 258.876 126.092C258.839 126.26 258.811 126.465 258.792 126.708C258.773 126.951 258.764 127.147 258.764 127.296C258.764 127.968 258.895 128.481 259.156 128.836C259.436 129.172 259.94 129.34 260.668 129.34C261.359 129.34 261.975 129.2 262.516 128.92C263.076 128.64 263.627 128.089 264.168 127.268L266.408 129.088C265.624 130.283 264.765 131.123 263.832 131.608C262.917 132.093 261.825 132.336 260.556 132.336ZM262.04 119.82C261.368 119.82 260.836 120.063 260.444 120.548C260.052 121.033 259.753 121.78 259.548 122.788L259.352 123.712C260.248 123.656 260.976 123.572 261.536 123.46C262.096 123.329 262.535 123.171 262.852 122.984C263.169 122.779 263.384 122.545 263.496 122.284C263.608 122.004 263.664 121.696 263.664 121.36C263.664 120.333 263.123 119.82 262.04 119.82Z" fill="#001E2D"/>
<path d="M298.9 121.528L299.852 117.72H299.46L297.164 121.556L292.74 128.724L290.976 121.556L290.304 117.72H289.912L289.604 121.528L287.504 132H283.864L287.784 112.456H291.76L293.44 119.372L293.888 122.452H294.168L295.764 119.372L300.132 112.456H304.36L300.44 132H296.8L298.9 121.528ZM309.95 132.336C308.009 132.336 306.609 131.832 305.75 130.824C304.91 129.816 304.49 128.369 304.49 126.484C304.49 126.055 304.509 125.588 304.546 125.084C304.584 124.58 304.649 124.132 304.742 123.74C305.209 121.537 306.03 119.857 307.206 118.7C308.382 117.543 309.95 116.964 311.91 116.964C313.366 116.964 314.524 117.319 315.382 118.028C316.241 118.737 316.67 119.736 316.67 121.024C316.67 122.685 316.008 123.927 314.682 124.748C313.376 125.569 311.238 126.017 308.27 126.092C308.233 126.26 308.205 126.465 308.186 126.708C308.168 126.951 308.158 127.147 308.158 127.296C308.158 127.968 308.289 128.481 308.55 128.836C308.83 129.172 309.334 129.34 310.062 129.34C310.753 129.34 311.369 129.2 311.91 128.92C312.47 128.64 313.021 128.089 313.562 127.268L315.802 129.088C315.018 130.283 314.16 131.123 313.226 131.608C312.312 132.093 311.22 132.336 309.95 132.336ZM311.434 119.82C310.762 119.82 310.23 120.063 309.838 120.548C309.446 121.033 309.148 121.78 308.942 122.788L308.746 123.712C309.642 123.656 310.37 123.572 310.93 123.46C311.49 123.329 311.929 123.171 312.246 122.984C312.564 122.779 312.778 122.545 312.89 122.284C313.002 122.004 313.058 121.696 313.058 121.36C313.058 120.333 312.517 119.82 311.434 119.82ZM319.773 132C318.989 132 318.429 131.851 318.093 131.552C317.757 131.253 317.589 130.787 317.589 130.152C317.589 130.003 317.598 129.825 317.617 129.62C317.635 129.415 317.663 129.228 317.701 129.06L321.257 111.28H324.981L321.425 129.032H322.993L322.405 132H319.773ZM328.75 111.28H332.474L330.598 120.604H330.99C331.512 119.279 332.091 118.345 332.726 117.804C333.379 117.244 334.21 116.964 335.218 116.964C336.319 116.964 337.168 117.319 337.766 118.028C338.363 118.719 338.662 119.904 338.662 121.584C338.662 122.163 338.624 122.741 338.55 123.32C338.494 123.88 338.419 124.421 338.326 124.944C337.896 127.24 337.168 129.051 336.142 130.376C335.134 131.683 333.827 132.336 332.222 132.336C331.214 132.336 330.467 132.065 329.982 131.524C329.515 130.983 329.272 130.273 329.254 129.396H328.862L328.33 132H324.606L328.75 111.28ZM331.27 129.284C332.054 129.284 332.66 129.023 333.09 128.5C333.538 127.977 333.892 127.1 334.154 125.868L334.546 123.936C334.639 123.507 334.714 123.068 334.77 122.62C334.844 122.172 334.882 121.827 334.882 121.584C334.882 121.136 334.76 120.763 334.518 120.464C334.275 120.165 333.892 120.016 333.37 120.016C332.866 120.016 332.418 120.147 332.026 120.408C331.634 120.651 331.307 120.996 331.046 121.444C330.784 121.892 330.542 122.359 330.318 122.844C330.112 123.329 329.963 123.815 329.87 124.3L329.366 126.82C329.216 127.604 329.319 128.211 329.674 128.64C330.028 129.069 330.56 129.284 331.27 129.284ZM345.298 132.336C344.271 132.336 343.422 132.187 342.75 131.888C342.097 131.589 341.574 131.179 341.182 130.656C340.809 130.115 340.547 129.489 340.398 128.78C340.249 128.071 340.174 127.305 340.174 126.484C340.174 126.055 340.193 125.597 340.23 125.112C340.267 124.627 340.333 124.169 340.426 123.74C340.631 122.695 340.911 121.761 341.266 120.94C341.639 120.1 342.106 119.391 342.666 118.812C343.226 118.215 343.889 117.757 344.654 117.44C345.438 117.123 346.334 116.964 347.342 116.964C348.369 116.964 349.209 117.113 349.862 117.412C350.534 117.711 351.057 118.131 351.43 118.672C351.822 119.195 352.093 119.811 352.242 120.52C352.391 121.229 352.466 121.995 352.466 122.816C352.466 123.245 352.447 123.703 352.41 124.188C352.373 124.673 352.307 125.131 352.214 125.56C352.009 126.605 351.719 127.548 351.346 128.388C350.991 129.209 350.534 129.919 349.974 130.516C349.414 131.095 348.742 131.543 347.958 131.86C347.193 132.177 346.306 132.336 345.298 132.336ZM345.606 129.34C345.961 129.34 346.269 129.284 346.53 129.172C346.81 129.041 347.043 128.845 347.23 128.584C347.435 128.304 347.603 127.949 347.734 127.52C347.883 127.072 348.023 126.521 348.154 125.868L348.658 123.348C348.751 122.881 348.798 122.433 348.798 122.004C348.798 121.295 348.658 120.781 348.378 120.464C348.117 120.128 347.669 119.96 347.034 119.96C346.306 119.96 345.755 120.221 345.382 120.744C345.027 121.248 344.729 122.144 344.486 123.432L343.982 125.952C343.889 126.419 343.842 126.867 343.842 127.296C343.842 128.005 343.973 128.528 344.234 128.864C344.514 129.181 344.971 129.34 345.606 129.34ZM360.115 117.3L358.351 126.092C358.295 126.391 358.239 126.689 358.183 126.988C358.145 127.287 358.127 127.576 358.127 127.856C358.127 128.341 358.211 128.696 358.379 128.92C358.565 129.125 358.883 129.228 359.331 129.228C359.797 129.228 360.18 129.116 360.479 128.892C360.796 128.668 361.095 128.341 361.375 127.912C361.636 127.501 361.879 127.053 362.103 126.568C362.327 126.064 362.495 125.523 362.607 124.944L364.147 117.3H367.871L365.519 129.032H366.975L366.387 132H363.867C363.083 132 362.523 131.841 362.187 131.524C361.851 131.207 361.683 130.693 361.683 129.984C361.683 129.853 361.692 129.713 361.711 129.564C361.729 129.415 361.757 129.265 361.795 129.116L361.879 128.64H361.487C361.057 129.835 360.507 130.749 359.835 131.384C359.181 132.019 358.323 132.336 357.259 132.336C356.195 132.336 355.42 132.037 354.935 131.44C354.468 130.824 354.235 129.909 354.235 128.696C354.235 128.379 354.272 127.996 354.347 127.548C354.421 127.1 354.487 126.736 354.543 126.456L356.391 117.3H360.115ZM368.711 132L371.651 117.3H375.375L374.703 120.66H375.095C375.375 119.633 375.795 118.821 376.355 118.224C376.934 117.608 377.764 117.3 378.847 117.3H379.463L378.651 120.884H377.279C376.346 120.884 375.627 121.117 375.123 121.584C374.619 122.051 374.246 122.909 374.003 124.16L372.435 132H368.711ZM378.938 132L381.878 117.3H385.602L384.93 120.66H385.322C385.751 119.465 386.292 118.551 386.946 117.916C387.618 117.281 388.486 116.964 389.55 116.964C390.614 116.964 391.379 117.272 391.846 117.888C392.331 118.485 392.574 119.391 392.574 120.604C392.574 120.921 392.536 121.313 392.462 121.78C392.387 122.228 392.322 122.592 392.266 122.872L391.034 129.032H392.322L391.734 132H389.382C388.598 132 388.028 131.841 387.674 131.524C387.338 131.207 387.17 130.693 387.17 129.984C387.17 129.853 387.179 129.713 387.198 129.564C387.216 129.415 387.244 129.284 387.282 129.172L388.458 123.292C388.514 122.993 388.56 122.685 388.598 122.368C388.654 122.032 388.682 121.724 388.682 121.444C388.682 120.959 388.588 120.613 388.402 120.408C388.234 120.184 387.926 120.072 387.478 120.072C387.048 120.072 386.675 120.175 386.358 120.38C386.059 120.567 385.751 120.903 385.434 121.388C385.172 121.799 384.93 122.247 384.706 122.732C384.482 123.199 384.314 123.721 384.202 124.3L382.662 132H378.938ZM399.802 132.336C397.861 132.336 396.461 131.832 395.602 130.824C394.762 129.816 394.342 128.369 394.342 126.484C394.342 126.055 394.361 125.588 394.398 125.084C394.435 124.58 394.501 124.132 394.594 123.74C395.061 121.537 395.882 119.857 397.058 118.7C398.234 117.543 399.802 116.964 401.762 116.964C403.218 116.964 404.375 117.319 405.234 118.028C406.093 118.737 406.522 119.736 406.522 121.024C406.522 122.685 405.859 123.927 404.534 124.748C403.227 125.569 401.09 126.017 398.122 126.092C398.085 126.26 398.057 126.465 398.038 126.708C398.019 126.951 398.01 127.147 398.01 127.296C398.01 127.968 398.141 128.481 398.402 128.836C398.682 129.172 399.186 129.34 399.914 129.34C400.605 129.34 401.221 129.2 401.762 128.92C402.322 128.64 402.873 128.089 403.414 127.268L405.654 129.088C404.87 130.283 404.011 131.123 403.078 131.608C402.163 132.093 401.071 132.336 399.802 132.336ZM401.286 119.82C400.614 119.82 400.082 120.063 399.69 120.548C399.298 121.033 398.999 121.78 398.794 122.788L398.598 123.712C399.494 123.656 400.222 123.572 400.782 123.46C401.342 123.329 401.781 123.171 402.098 122.984C402.415 122.779 402.63 122.545 402.742 122.284C402.854 122.004 402.91 121.696 402.91 121.36C402.91 120.333 402.369 119.82 401.286 119.82Z" fill="#002019"/>
<path d="M167.056 154.456L164.032 169.576C163.696 171.256 163.033 172.469 162.044 173.216C161.073 173.944 159.72 174.308 157.984 174.308C157.181 174.308 156.472 174.187 155.856 173.944C155.24 173.683 154.717 173.328 154.288 172.88C153.877 172.432 153.551 171.9 153.308 171.284C153.065 170.668 152.925 169.987 152.888 169.24L156.304 168.456C156.341 169.165 156.509 169.763 156.808 170.248C157.107 170.733 157.583 170.976 158.236 170.976C158.833 170.976 159.281 170.836 159.58 170.556C159.897 170.276 160.131 169.791 160.28 169.1L162.576 157.592H157.564L158.18 154.456H167.056ZM172.505 174.336C170.564 174.336 169.164 173.832 168.305 172.824C167.465 171.816 167.045 170.369 167.045 168.484C167.045 168.055 167.064 167.588 167.101 167.084C167.138 166.58 167.204 166.132 167.297 165.74C167.764 163.537 168.585 161.857 169.761 160.7C170.937 159.543 172.505 158.964 174.465 158.964C175.921 158.964 177.078 159.319 177.937 160.028C178.796 160.737 179.225 161.736 179.225 163.024C179.225 164.685 178.562 165.927 177.237 166.748C175.93 167.569 173.793 168.017 170.825 168.092C170.788 168.26 170.76 168.465 170.741 168.708C170.722 168.951 170.713 169.147 170.713 169.296C170.713 169.968 170.844 170.481 171.105 170.836C171.385 171.172 171.889 171.34 172.617 171.34C173.308 171.34 173.924 171.2 174.465 170.92C175.025 170.64 175.576 170.089 176.117 169.268L178.357 171.088C177.573 172.283 176.714 173.123 175.781 173.608C174.866 174.093 173.774 174.336 172.505 174.336ZM173.989 161.82C173.317 161.82 172.785 162.063 172.393 162.548C172.001 163.033 171.702 163.78 171.497 164.788L171.301 165.712C172.197 165.656 172.925 165.572 173.485 165.46C174.045 165.329 174.484 165.171 174.801 164.984C175.118 164.779 175.333 164.545 175.445 164.284C175.557 164.004 175.613 163.696 175.613 163.36C175.613 162.333 175.072 161.82 173.989 161.82ZM180.817 159.3H184.541L184.625 164.9L184.541 170.5H184.933L186.781 164.9L188.909 159.3H192.353L192.577 164.9L192.633 170.5H193.025L194.817 164.9L196.833 159.3H200.557L194.425 174H190.281L190.057 168.4L190.253 162.8H189.861L188.405 168.4L186.221 174H181.573L180.817 159.3ZM204.752 157.48C203.482 157.48 202.848 157.013 202.848 156.08C202.848 155.931 202.857 155.763 202.876 155.576C202.913 155.389 202.969 155.184 203.044 154.96C203.249 154.325 203.557 153.859 203.968 153.56C204.378 153.261 204.938 153.112 205.648 153.112C206.917 153.112 207.552 153.579 207.552 154.512C207.552 154.661 207.533 154.829 207.496 155.016C207.477 155.203 207.43 155.408 207.356 155.632C207.15 156.267 206.842 156.733 206.432 157.032C206.021 157.331 205.461 157.48 204.752 157.48ZM202.316 174C201.532 174 200.972 173.851 200.636 173.552C200.3 173.253 200.132 172.787 200.132 172.152C200.132 172.003 200.141 171.825 200.16 171.62C200.178 171.415 200.206 171.228 200.244 171.06L202.596 159.3H206.32L203.968 171.032H205.256L204.668 174H202.316ZM212.133 174.336C209.669 174.336 207.914 173.477 206.869 171.76L209.221 169.576C209.538 170.173 209.921 170.621 210.369 170.92C210.817 171.219 211.452 171.368 212.273 171.368C213.076 171.368 213.654 171.228 214.009 170.948C214.364 170.668 214.541 170.276 214.541 169.772C214.541 169.38 214.429 169.091 214.205 168.904C214 168.717 213.673 168.549 213.225 168.4L211.937 167.952C211.452 167.784 211.013 167.597 210.621 167.392C210.229 167.168 209.893 166.907 209.613 166.608C209.333 166.309 209.118 165.955 208.969 165.544C208.82 165.133 208.745 164.639 208.745 164.06C208.745 163.369 208.857 162.716 209.081 162.1C209.305 161.484 209.65 160.943 210.117 160.476C210.584 160.009 211.172 159.645 211.881 159.384C212.609 159.104 213.458 158.964 214.429 158.964C216.576 158.964 218.2 159.739 219.301 161.288L216.949 163.472C216.632 163.005 216.249 162.641 215.801 162.38C215.372 162.1 214.84 161.96 214.205 161.96C213.608 161.96 213.141 162.091 212.805 162.352C212.488 162.613 212.329 163.005 212.329 163.528C212.329 163.901 212.441 164.172 212.665 164.34C212.889 164.508 213.206 164.667 213.617 164.816L214.905 165.264C216.006 165.637 216.828 166.104 217.369 166.664C217.91 167.224 218.181 168.027 218.181 169.072C218.181 169.819 218.05 170.519 217.789 171.172C217.546 171.807 217.173 172.357 216.669 172.824C216.165 173.291 215.53 173.664 214.765 173.944C214.018 174.205 213.141 174.336 212.133 174.336ZM224.035 153.28H227.759L225.883 162.66H226.275C226.704 161.465 227.245 160.551 227.899 159.916C228.571 159.281 229.439 158.964 230.503 158.964C231.567 158.964 232.332 159.272 232.799 159.888C233.284 160.485 233.527 161.391 233.527 162.604C233.527 162.921 233.489 163.304 233.415 163.752C233.34 164.2 233.275 164.564 233.219 164.844L231.987 171.032H233.275L232.687 174H230.335C229.551 174 228.991 173.841 228.655 173.524C228.319 173.207 228.151 172.693 228.151 171.984C228.151 171.853 228.16 171.713 228.179 171.564C228.197 171.415 228.225 171.284 228.263 171.172L229.411 165.208C229.467 164.909 229.513 164.611 229.551 164.312C229.607 164.013 229.635 163.724 229.635 163.444C229.635 162.959 229.541 162.613 229.355 162.408C229.187 162.184 228.879 162.072 228.431 162.072C227.964 162.072 227.572 162.184 227.255 162.408C226.956 162.632 226.667 162.959 226.387 163.388C226.125 163.799 225.883 164.256 225.659 164.76C225.435 165.245 225.267 165.777 225.155 166.356L223.615 174H219.891L224.035 153.28ZM247.809 174.336C246.614 174.336 245.625 174.168 244.841 173.832C244.057 173.496 243.431 173.039 242.965 172.46C242.517 171.863 242.199 171.172 242.013 170.388C241.826 169.604 241.733 168.764 241.733 167.868C241.733 167.009 241.798 166.151 241.929 165.292C242.059 164.415 242.209 163.575 242.377 162.772C242.657 161.447 243.039 160.252 243.525 159.188C244.01 158.124 244.617 157.219 245.345 156.472C246.073 155.707 246.922 155.128 247.893 154.736C248.863 154.325 249.983 154.12 251.253 154.12C252.13 154.12 252.905 154.241 253.577 154.484C254.249 154.727 254.818 155.063 255.285 155.492C255.77 155.903 256.162 156.397 256.461 156.976C256.759 157.555 256.965 158.18 257.077 158.852L253.633 160.252C253.577 159.3 253.334 158.609 252.905 158.18C252.475 157.732 251.831 157.508 250.973 157.508C250.338 157.508 249.778 157.592 249.293 157.76C248.826 157.928 248.415 158.208 248.061 158.6C247.725 158.992 247.426 159.524 247.165 160.196C246.922 160.868 246.698 161.708 246.493 162.716L245.905 165.656C245.811 166.085 245.737 166.477 245.681 166.832C245.643 167.187 245.625 167.485 245.625 167.728C245.625 168.848 245.839 169.669 246.269 170.192C246.698 170.696 247.379 170.948 248.313 170.948C248.817 170.948 249.265 170.901 249.657 170.808C250.067 170.696 250.422 170.528 250.721 170.304C251.038 170.061 251.318 169.753 251.561 169.38C251.803 168.988 252.027 168.503 252.233 167.924L255.509 169.38C254.799 171.004 253.81 172.236 252.541 173.076C251.271 173.916 249.694 174.336 247.809 174.336ZM262.212 174.336C261.185 174.336 260.336 174.187 259.664 173.888C259.011 173.589 258.488 173.179 258.096 172.656C257.723 172.115 257.461 171.489 257.312 170.78C257.163 170.071 257.088 169.305 257.088 168.484C257.088 168.055 257.107 167.597 257.144 167.112C257.181 166.627 257.247 166.169 257.34 165.74C257.545 164.695 257.825 163.761 258.18 162.94C258.553 162.1 259.02 161.391 259.58 160.812C260.14 160.215 260.803 159.757 261.568 159.44C262.352 159.123 263.248 158.964 264.256 158.964C265.283 158.964 266.123 159.113 266.776 159.412C267.448 159.711 267.971 160.131 268.344 160.672C268.736 161.195 269.007 161.811 269.156 162.52C269.305 163.229 269.38 163.995 269.38 164.816C269.38 165.245 269.361 165.703 269.324 166.188C269.287 166.673 269.221 167.131 269.128 167.56C268.923 168.605 268.633 169.548 268.26 170.388C267.905 171.209 267.448 171.919 266.888 172.516C266.328 173.095 265.656 173.543 264.872 173.86C264.107 174.177 263.22 174.336 262.212 174.336ZM262.52 171.34C262.875 171.34 263.183 171.284 263.444 171.172C263.724 171.041 263.957 170.845 264.144 170.584C264.349 170.304 264.517 169.949 264.648 169.52C264.797 169.072 264.937 168.521 265.068 167.868L265.572 165.348C265.665 164.881 265.712 164.433 265.712 164.004C265.712 163.295 265.572 162.781 265.292 162.464C265.031 162.128 264.583 161.96 263.948 161.96C263.22 161.96 262.669 162.221 262.296 162.744C261.941 163.248 261.643 164.144 261.4 165.432L260.896 167.952C260.803 168.419 260.756 168.867 260.756 169.296C260.756 170.005 260.887 170.528 261.148 170.864C261.428 171.181 261.885 171.34 262.52 171.34ZM270.477 174L273.417 159.3H277.141L276.469 162.66H276.861C277.29 161.465 277.813 160.551 278.429 159.916C279.045 159.281 279.857 158.964 280.865 158.964C281.929 158.964 282.694 159.272 283.161 159.888C283.646 160.504 283.889 161.428 283.889 162.66H284.281C284.71 161.465 285.242 160.551 285.877 159.916C286.53 159.281 287.37 158.964 288.397 158.964C289.461 158.964 290.226 159.272 290.693 159.888C291.178 160.485 291.421 161.391 291.421 162.604C291.421 162.921 291.383 163.304 291.309 163.752C291.234 164.2 291.169 164.564 291.113 164.844L289.881 171.032H291.169L290.581 174H288.229C287.445 174 286.875 173.869 286.521 173.608C286.185 173.347 286.017 172.889 286.017 172.236C286.017 172.031 286.026 171.835 286.045 171.648C286.063 171.461 286.091 171.293 286.129 171.144L287.277 165.404C287.333 165.105 287.389 164.779 287.445 164.424C287.501 164.051 287.529 163.724 287.529 163.444C287.529 162.959 287.435 162.613 287.249 162.408C287.081 162.184 286.773 162.072 286.325 162.072C285.914 162.072 285.569 162.184 285.289 162.408C285.027 162.632 284.766 162.959 284.505 163.388C284.243 163.799 284.01 164.209 283.805 164.62C283.599 165.012 283.441 165.479 283.329 166.02L281.733 174H278.009L279.857 164.76C279.894 164.517 279.922 164.293 279.941 164.088C279.978 163.883 279.997 163.668 279.997 163.444C279.997 162.959 279.903 162.613 279.717 162.408C279.549 162.184 279.241 162.072 278.793 162.072C278.382 162.072 278.037 162.184 277.757 162.408C277.495 162.632 277.234 162.959 276.973 163.388C276.711 163.817 276.469 164.265 276.245 164.732C276.021 165.199 275.853 165.721 275.741 166.3L274.201 174H270.477ZM292.762 174L295.702 159.3H299.426L298.754 162.66H299.146C299.575 161.465 300.098 160.551 300.714 159.916C301.33 159.281 302.142 158.964 303.15 158.964C304.214 158.964 304.979 159.272 305.446 159.888C305.931 160.504 306.174 161.428 306.174 162.66H306.566C306.995 161.465 307.527 160.551 308.162 159.916C308.815 159.281 309.655 158.964 310.682 158.964C311.746 158.964 312.511 159.272 312.978 159.888C313.463 160.485 313.706 161.391 313.706 162.604C313.706 162.921 313.668 163.304 313.594 163.752C313.519 164.2 313.454 164.564 313.398 164.844L312.166 171.032H313.454L312.866 174H310.514C309.73 174 309.16 173.869 308.806 173.608C308.47 173.347 308.302 172.889 308.302 172.236C308.302 172.031 308.311 171.835 308.33 171.648C308.348 171.461 308.376 171.293 308.414 171.144L309.562 165.404C309.618 165.105 309.674 164.779 309.73 164.424C309.786 164.051 309.814 163.724 309.814 163.444C309.814 162.959 309.72 162.613 309.534 162.408C309.366 162.184 309.058 162.072 308.61 162.072C308.199 162.072 307.854 162.184 307.574 162.408C307.312 162.632 307.051 162.959 306.79 163.388C306.528 163.799 306.295 164.209 306.09 164.62C305.884 165.012 305.726 165.479 305.614 166.02L304.018 174H300.294L302.142 164.76C302.179 164.517 302.207 164.293 302.226 164.088C302.263 163.883 302.282 163.668 302.282 163.444C302.282 162.959 302.188 162.613 302.002 162.408C301.834 162.184 301.526 162.072 301.078 162.072C300.667 162.072 300.322 162.184 300.042 162.408C299.78 162.632 299.519 162.959 299.258 163.388C298.996 163.817 298.754 164.265 298.53 164.732C298.306 165.199 298.138 165.721 298.026 166.3L296.486 174H292.762ZM321.599 159.3L319.835 168.092C319.779 168.391 319.723 168.689 319.667 168.988C319.63 169.287 319.611 169.576 319.611 169.856C319.611 170.341 319.695 170.696 319.863 170.92C320.05 171.125 320.367 171.228 320.815 171.228C321.282 171.228 321.664 171.116 321.963 170.892C322.28 170.668 322.579 170.341 322.859 169.912C323.12 169.501 323.363 169.053 323.587 168.568C323.811 168.064 323.979 167.523 324.091 166.944L325.631 159.3H329.355L327.003 171.032H328.459L327.871 174H325.351C324.567 174 324.007 173.841 323.671 173.524C323.335 173.207 323.167 172.693 323.167 171.984C323.167 171.853 323.176 171.713 323.195 171.564C323.214 171.415 323.242 171.265 323.279 171.116L323.363 170.64H322.971C322.542 171.835 321.991 172.749 321.319 173.384C320.666 174.019 319.807 174.336 318.743 174.336C317.679 174.336 316.904 174.037 316.419 173.44C315.952 172.824 315.719 171.909 315.719 170.696C315.719 170.379 315.756 169.996 315.831 169.548C315.906 169.1 315.971 168.736 316.027 168.456L317.875 159.3H321.599ZM330.195 174L333.135 159.3H336.859L336.187 162.66H336.579C337.009 161.465 337.55 160.551 338.203 159.916C338.875 159.281 339.743 158.964 340.807 158.964C341.871 158.964 342.637 159.272 343.103 159.888C343.589 160.485 343.831 161.391 343.831 162.604C343.831 162.921 343.794 163.313 343.719 163.78C343.645 164.228 343.579 164.592 343.523 164.872L342.291 171.032H343.579L342.991 174H340.639C339.855 174 339.286 173.841 338.931 173.524C338.595 173.207 338.427 172.693 338.427 171.984C338.427 171.853 338.437 171.713 338.455 171.564C338.474 171.415 338.502 171.284 338.539 171.172L339.715 165.292C339.771 164.993 339.818 164.685 339.855 164.368C339.911 164.032 339.939 163.724 339.939 163.444C339.939 162.959 339.846 162.613 339.659 162.408C339.491 162.184 339.183 162.072 338.735 162.072C338.306 162.072 337.933 162.175 337.615 162.38C337.317 162.567 337.009 162.903 336.691 163.388C336.43 163.799 336.187 164.247 335.963 164.732C335.739 165.199 335.571 165.721 335.459 166.3L333.919 174H330.195ZM350.248 157.48C348.978 157.48 348.344 157.013 348.344 156.08C348.344 155.931 348.353 155.763 348.372 155.576C348.409 155.389 348.465 155.184 348.54 154.96C348.745 154.325 349.053 153.859 349.464 153.56C349.874 153.261 350.434 153.112 351.144 153.112C352.413 153.112 353.048 153.579 353.048 154.512C353.048 154.661 353.029 154.829 352.992 155.016C352.973 155.203 352.926 155.408 352.852 155.632C352.646 156.267 352.338 156.733 351.928 157.032C351.517 157.331 350.957 157.48 350.248 157.48ZM347.812 174C347.028 174 346.468 173.851 346.132 173.552C345.796 173.253 345.628 172.787 345.628 172.152C345.628 172.003 345.637 171.825 345.656 171.62C345.674 171.415 345.702 171.228 345.74 171.06L348.092 159.3H351.816L349.464 171.032H350.752L350.164 174H347.812ZM355.473 174C354.689 174 354.129 173.851 353.793 173.552C353.457 173.235 353.289 172.721 353.289 172.012C353.289 171.863 353.299 171.704 353.317 171.536C353.336 171.349 353.364 171.181 353.401 171.032L355.165 162.268H353.345L353.933 159.3H354.801C355.287 159.3 355.632 159.207 355.837 159.02C356.061 158.833 356.229 158.451 356.341 157.872L356.845 155.352H360.261L359.477 159.3H362.053L361.465 162.268H358.889L357.125 171.032H359.421L358.833 174H355.473ZM372.189 159.3H376.081L367.681 176.744C367.42 177.285 367.149 177.733 366.869 178.088C366.608 178.461 366.3 178.76 365.945 178.984C365.591 179.208 365.189 179.367 364.741 179.46C364.312 179.553 363.799 179.6 363.201 179.6H360.765L361.353 176.632H364.013L364.657 175.064L363.005 159.3H366.729L367.261 165.18L367.121 170.78H367.513L369.445 165.18L372.189 159.3Z" fill="#002019"/>
</g>
<defs>
<clipPath id="clip0_1526_9096">
<rect width="528" height="244" rx="4" fill="white"/>
</clipPath>
</defs>
</svg>
