<svg width="353" height="263" viewBox="0 0 353 263" fill="none" xmlns="http://www.w3.org/2000/svg">
<path fill-rule="evenodd" clip-rule="evenodd" d="M230.138 249.165C196.598 262.669 161.346 266.443 126.174 258.057C89.7907 249.381 50.8046 235.611 33.7308 202.331C17.0994 169.914 32.2746 132.212 43.8945 97.6793C54.5147 66.1181 67.6366 34.2867 96.0953 16.9951C125.101 -0.628607 161.468 -4.42892 193.505 6.77581C223.63 17.312 236.844 48.7234 257.168 73.3294C285.087 107.129 339.119 131.669 332.458 175C325.805 218.282 270.76 232.809 230.138 249.165Z" fill="#7FD0FF"/>
<g clip-path="url(#clip0_2691_52639)">
<path d="M184.574 65.595L169.246 81.5509L153.919 97.5068L148.12 88.1231L142.322 78.7321L163.448 72.1672L184.574 65.595Z" fill="#C5E7FF"/>
<path d="M151.326 124.83C167.452 108.704 167.452 82.5567 151.326 66.4298C135.199 50.3029 109.052 50.3029 92.9249 66.4298C76.798 82.5567 76.798 108.704 92.9249 124.83C109.052 140.957 135.199 140.957 151.326 124.83Z" fill="#C5E7FF"/>
<path d="M145.834 131.894C145.55 131.894 145.28 131.726 145.163 131.449C143.943 128.572 141.526 126.395 138.547 125.475L97.682 112.9C93.0084 111.462 87.9405 111.703 83.4203 113.58C83.0479 113.733 82.6243 113.558 82.4637 113.185C82.3103 112.813 82.4856 112.382 82.858 112.229C87.6922 110.22 93.1034 109.965 98.1056 111.506L138.97 124.081C142.366 125.125 145.112 127.6 146.506 130.879C146.667 131.252 146.492 131.682 146.119 131.836C146.024 131.872 145.929 131.894 145.834 131.894Z" fill="#31302F"/>
<path d="M191.818 223.46C196.477 224.183 225.614 223.212 278.309 222.971C274.504 218.085 266.325 211.9 261.586 208.22C254.225 202.502 254.846 197.302 261.586 184.728C268.326 172.153 276.103 166.712 267.275 153.079C260.162 142.088 236.97 137.386 228.557 138.474C201.158 142.008 193.461 171.919 194.958 180.624C196.448 189.335 207.65 190.942 204.371 199.814C202.312 205.386 195.857 214.113 191.826 223.46H191.818Z" fill="#31302F"/>
<path d="M271.998 223.212C267.975 215.237 260.263 209.644 246.272 206.613C217.661 200.421 201.325 211.608 194.534 222.722C193.694 224.102 243.833 222.24 271.998 223.212Z" fill="#FDF8F6"/>
<path d="M124.124 111.681L116.171 108.738C107.029 105.357 102.311 95.1116 105.692 85.9689L106.861 82.8142C111.089 71.3639 123.919 65.4635 135.37 69.6917L135.077 73.1676C142.256 75.8184 145.951 83.8584 143.3 91.0368L138.035 105.269C135.968 110.856 129.71 113.733 124.124 111.674V111.681Z" fill="#31302F"/>
<path d="M142.704 104.063C148.822 95.7503 146.605 83.7313 137.753 77.2173C128.902 70.7033 116.767 72.1611 110.65 80.4734C104.533 88.7857 106.75 100.805 115.601 107.319C124.453 113.833 136.587 112.375 142.704 104.063Z" fill="#31302F"/>
<path d="M121.049 91.4675C123.751 85.684 129.797 81.8721 135.895 82.5731C139.699 83.004 142.766 85.1071 144.585 88.1011C143.08 87.2102 138.721 84.9391 136.048 86.9619C132.777 89.4302 128.22 95.389 121.049 91.4675Z" fill="#31302F"/>
<path d="M153.348 92.6068C151.647 97.2146 146.528 99.5733 141.92 97.8645C137.312 96.1558 134.953 91.044 136.662 86.4362C138.364 81.8283 143.483 79.4696 148.09 81.1784C152.698 82.8799 155.057 87.9989 153.348 92.6068Z" fill="#31302F"/>
<path d="M131.09 71.0645C121.64 68.8738 111.826 73.8249 108.072 82.9603C109.606 85.0634 111.789 86.7721 114.462 87.7653C121.399 90.3284 129.008 87.0569 131.447 80.4555C132.609 77.3081 132.389 73.9782 131.09 71.0718V71.0645Z" fill="#31302F"/>
<path d="M141.081 81.3099C139.379 85.9177 134.26 88.2764 129.652 86.5677C125.044 84.8589 122.686 79.7472 124.394 75.1393C126.103 70.5314 131.215 68.1727 135.823 69.8815C140.431 71.583 142.789 76.702 141.081 81.3099Z" fill="#31302F"/>
<path d="M144.127 91.0622C149.052 89.928 152.124 85.0165 150.99 80.092C149.856 75.1675 144.945 72.0949 140.02 73.2291C135.096 74.3633 132.023 79.2748 133.157 84.1993C134.291 89.1237 139.203 92.1964 144.127 91.0622Z" fill="#31302F"/>
<path d="M119.793 74.4673C119.793 74.4673 119.749 74.4673 119.734 74.4673C119.333 74.4308 119.033 74.0802 119.07 73.6786C119.267 71.2688 116.821 69.7207 116.799 69.7061C116.456 69.4943 116.353 69.0415 116.565 68.6983C116.777 68.3551 117.222 68.2529 117.566 68.4573C117.697 68.5377 120.801 70.4874 120.53 73.7955C120.501 74.1752 120.18 74.4673 119.8 74.4673H119.793Z" fill="#31302F"/>
<path d="M120.202 74.3871C119.983 74.3871 119.764 74.2849 119.618 74.095C117.617 71.4442 119.194 68.1362 119.26 67.9975C119.435 67.6324 119.873 67.4863 120.238 67.6616C120.604 67.8368 120.75 68.275 120.574 68.6328C120.574 68.6328 119.326 71.2763 120.786 73.2114C121.027 73.5327 120.969 73.9928 120.647 74.2338C120.516 74.336 120.363 74.3798 120.209 74.3798L120.202 74.3871Z" fill="#31302F"/>
<path d="M147.754 101.231L148.273 98.0398C149.507 90.4672 144.242 84.0848 136.574 83.8584C130.221 82.8215 124.167 86.3048 121.692 91.935C119.231 91.0441 116.412 91.9861 115.017 94.3156C113.805 96.3456 114.039 98.8358 115.412 100.596L101.004 113.594L109.825 129.265C112.082 133.274 117.573 133.961 120.75 130.638L126.57 122.729C127.658 123.226 128.826 123.598 130.068 123.803C137.604 125.03 144.709 119.911 145.936 112.375L146.79 107.117C148.295 107.197 149.66 106.153 149.923 104.627C150.186 103.086 149.222 101.633 147.747 101.231H147.754Z" fill="#FDF8F6"/>
<path d="M115.826 133.493C115.505 133.493 115.184 133.471 114.855 133.435C112.445 133.135 110.386 131.748 109.196 129.63L100.374 113.959C100.206 113.66 100.265 113.287 100.52 113.061L114.446 100.493C113.205 98.4998 113.168 96.0024 114.395 93.9504C115.826 91.5625 118.645 90.4087 121.303 91.0586C124.115 85.3627 130.322 82.1204 136.646 83.1281C140.545 83.2596 143.985 84.888 146.329 87.7287C148.68 90.5766 149.629 94.2863 149.001 98.1566L148.578 100.756C150.068 101.465 150.937 103.078 150.652 104.751C150.374 106.394 149.038 107.628 147.424 107.825L146.665 112.491C145.372 120.415 137.88 125.811 129.957 124.519C128.905 124.351 127.853 124.051 126.824 123.628L121.347 131.069C121.347 131.069 121.31 131.12 121.289 131.142C119.835 132.661 117.886 133.486 115.826 133.486V133.493ZM101.93 113.755L110.466 128.915C111.43 130.623 113.095 131.741 115.038 131.982C116.966 132.223 118.842 131.565 120.193 130.171L125.984 122.299C126.189 122.021 126.561 121.926 126.875 122.065C127.963 122.554 129.073 122.897 130.19 123.08C137.31 124.241 144.058 119.385 145.219 112.258L146.073 107C146.132 106.635 146.46 106.365 146.833 106.386C147.994 106.452 149.009 105.634 149.206 104.502C149.403 103.349 148.695 102.246 147.556 101.932C147.198 101.83 146.971 101.479 147.03 101.114L147.548 97.9229C148.111 94.4689 147.271 91.1827 145.19 88.6634C143.108 86.144 140.041 84.6909 136.543 84.5886C136.514 84.5886 136.478 84.5886 136.448 84.5813C130.548 83.6247 124.75 86.7721 122.355 92.2343C122.201 92.5848 121.8 92.7601 121.435 92.6286C119.258 91.84 116.827 92.7163 115.636 94.7025C114.607 96.4259 114.738 98.5655 115.98 100.157C116.213 100.457 116.177 100.895 115.892 101.151L101.922 113.762L101.93 113.755Z" fill="#31302F"/>
<path d="M116.807 102.713C116.683 102.713 116.551 102.677 116.435 102.611C114.989 101.75 113.966 100.377 113.557 98.7409C113.148 97.1125 113.397 95.411 114.258 93.9651C114.463 93.6219 114.916 93.5051 115.259 93.7095C115.602 93.914 115.719 94.3667 115.514 94.71C114.85 95.8199 114.66 97.1198 114.981 98.3758C115.303 99.6318 116.084 100.683 117.194 101.348C117.537 101.552 117.654 102.005 117.45 102.348C117.311 102.575 117.07 102.706 116.822 102.706L116.807 102.713Z" fill="#31302F"/>
<path d="M119.764 99.6535C119.669 99.6535 119.567 99.6316 119.472 99.5951C119.099 99.4345 118.931 99.0036 119.099 98.6312C119.837 96.9516 118.617 95.6956 118.61 95.681C118.325 95.3962 118.325 94.9288 118.61 94.6513C118.895 94.3665 119.362 94.3665 119.64 94.6513C119.72 94.7317 121.568 96.6376 120.428 99.2154C120.304 99.4929 120.041 99.6535 119.757 99.6535H119.764Z" fill="#31302F"/>
<path d="M142.745 108.767C141.518 108.767 139.642 108.044 138.933 105.196C138.838 104.802 139.072 104.408 139.466 104.313C139.853 104.21 140.255 104.451 140.35 104.846C141.022 107.533 142.782 107.321 142.986 107.292C143.38 107.226 143.76 107.489 143.826 107.883C143.892 108.278 143.636 108.65 143.249 108.723C143.103 108.752 142.935 108.767 142.745 108.767Z" fill="#31302F"/>
<path d="M144.483 95.389C144.556 95.871 143.541 96.4186 142.211 96.6231C140.882 96.8276 139.751 96.6012 139.678 96.1192C139.605 95.6373 140.62 95.0896 141.949 94.8851C143.278 94.6807 144.41 94.907 144.483 95.389Z" fill="#31302F"/>
<path d="M131.995 83.2157C126.438 81.3682 120.26 83.7926 117.5 89.0723C118.311 90.4233 119.523 91.5698 121.071 92.3146C125.102 94.2425 129.856 92.7016 131.689 88.8751C132.565 87.0495 132.616 85.034 131.995 83.2157Z" fill="#31302F"/>
<path d="M126.752 123.584C126.643 123.584 126.541 123.562 126.438 123.511C120.677 120.736 117.376 114.383 118.406 108.059C118.471 107.657 118.844 107.387 119.245 107.453C119.647 107.518 119.917 107.891 119.852 108.292C118.924 113.974 121.896 119.692 127.081 122.189C127.446 122.364 127.599 122.803 127.424 123.168C127.3 123.431 127.037 123.584 126.767 123.584H126.752Z" fill="#31302F"/>
<path d="M119.588 112.944C119.456 112.36 119.369 111.776 119.296 111.192C117.39 117.355 118.945 123.774 122.881 128.331L126.416 123.526C123.034 120.977 120.537 117.318 119.588 112.952V112.944Z" fill="#31302F"/>
<path d="M142.921 102.268C141.65 102.268 139.897 101.793 138.152 99.7997C137.889 99.493 137.918 99.033 138.218 98.7701C138.525 98.5072 138.985 98.5364 139.248 98.8358C141.774 101.728 144.155 100.581 144.177 100.574C144.542 100.391 144.973 100.537 145.155 100.902C145.338 101.26 145.192 101.698 144.827 101.881C144.761 101.91 144.016 102.275 142.913 102.275L142.921 102.268Z" fill="#31302F"/>
<path d="M282.565 224.424H169.15C165.601 224.424 162.717 221.539 162.717 217.99V158.49C162.717 154.941 165.601 152.056 169.15 152.056H178.468V121.612C178.468 121.283 178.687 120.991 179.009 120.904C179.33 120.816 179.666 120.955 179.826 121.24L197.827 152.049H282.558C286.107 152.049 288.991 154.933 288.991 158.482V217.983C288.991 221.532 286.107 224.416 282.558 224.416L282.565 224.424ZM169.15 153.517C166.412 153.517 164.177 155.751 164.177 158.49V217.99C164.177 220.728 166.412 222.963 169.15 222.963H282.565C285.303 222.963 287.538 220.728 287.538 217.99V158.49C287.538 155.751 285.311 153.517 282.565 153.517H197.418C197.155 153.517 196.922 153.378 196.79 153.151L179.936 124.307V152.779C179.936 153.181 179.607 153.509 179.206 153.509H169.158L169.15 153.517Z" fill="#31302F"/>
<path d="M266.289 143.476C266.128 143.476 265.967 143.425 265.836 143.315L247.821 128.907H199.844C196.295 128.907 193.41 126.023 193.41 122.474V62.9735C193.41 59.4245 196.295 56.54 199.844 56.54H276.337C279.886 56.54 282.77 59.4245 282.77 62.9735V122.474C282.77 126.023 279.886 128.907 276.337 128.907H267.019V142.746C267.019 143.023 266.858 143.279 266.603 143.403C266.501 143.454 266.391 143.476 266.289 143.476ZM199.844 58.0005C197.105 58.0005 194.871 60.2351 194.871 62.9735V122.474C194.871 125.212 197.105 127.447 199.844 127.447H248.076C248.244 127.447 248.405 127.505 248.529 127.608L265.559 141.227V128.177C265.559 127.776 265.887 127.447 266.289 127.447H276.337C279.075 127.447 281.31 125.212 281.31 122.474V62.9735C281.31 60.2351 279.075 58.0005 276.337 58.0005H199.844Z" fill="#31302F"/>
<path d="M245.935 178.316L248.607 209.089C245.036 212.798 240.75 215.026 236.076 215.186C231.403 215.347 226.977 213.412 223.158 209.95L222.18 181.281L245.935 178.309V178.316Z" fill="#FDF8F6"/>
<path d="M235.545 215.931C231.032 215.931 226.592 214.062 222.663 210.498C222.517 210.367 222.43 210.177 222.422 209.98L221.444 181.31C221.429 180.908 221.743 180.572 222.152 180.558C222.568 180.543 222.897 180.857 222.904 181.266L223.868 209.622C227.614 212.93 231.813 214.609 236.041 214.463C240.262 214.317 244.337 212.375 247.842 208.826L245.199 178.389C245.162 177.987 245.462 177.637 245.863 177.6C246.265 177.557 246.615 177.863 246.652 178.265L249.325 209.037C249.339 209.249 249.266 209.454 249.12 209.607C245.294 213.587 240.788 215.77 236.085 215.931C235.903 215.931 235.713 215.938 235.53 215.938L235.545 215.931Z" fill="#31302F"/>
<path d="M236.888 180.404C234.362 185.034 236.063 190.832 240.693 193.359C245.323 195.885 251.121 194.184 253.648 189.554C256.174 184.924 254.473 179.126 249.843 176.6C245.213 174.073 239.415 175.774 236.888 180.404Z" fill="#FDF8F6"/>
<path d="M227.635 186.838C227.635 186.838 209.408 188.678 207.057 179.689C205.998 175.621 208.846 168.903 213.527 161.462C213.695 161.199 209.357 160.242 211.584 157.986C218.587 150.903 230.176 143.571 239.932 141.877C239.932 141.877 230.717 170.393 242.364 178.112L227.628 186.838H227.635Z" fill="#FDF8F6"/>
<path d="M223.779 187.729C218.105 187.729 208.137 186.728 206.348 179.871C205.347 176.038 207.421 169.933 212.511 161.71C211.671 161.316 210.452 160.673 210.247 159.534C210.123 158.848 210.401 158.154 211.065 157.475C217.572 150.888 229.343 142.972 239.808 141.154C240.063 141.11 240.319 141.205 240.487 141.395C240.655 141.584 240.706 141.855 240.633 142.096C240.545 142.373 231.717 170.174 242.78 177.498C243.116 177.717 243.211 178.177 242.984 178.513C242.758 178.849 242.305 178.944 241.969 178.718C236.894 175.351 234.901 168.056 236.062 157.022C236.704 150.859 238.209 145.192 238.895 142.826C229.044 144.951 218.222 152.326 212.117 158.504C211.942 158.687 211.65 159.023 211.693 159.278C211.781 159.76 212.862 160.264 213.329 160.476C213.833 160.71 214.132 160.848 214.242 161.228C214.3 161.433 214.271 161.674 214.154 161.849C209.072 169.925 206.866 176.03 207.772 179.499C209.933 187.78 227.394 186.13 227.569 186.108C227.978 186.064 228.328 186.363 228.372 186.765C228.416 187.166 228.117 187.524 227.715 187.568C227.503 187.59 225.962 187.736 223.794 187.736L223.779 187.729Z" fill="#31302F"/>
<path d="M236.151 178.608C235.866 178.608 235.596 178.44 235.479 178.163C230.637 166.8 231.55 153.137 237.859 142.519C238.064 142.169 238.509 142.059 238.86 142.264C239.203 142.468 239.32 142.921 239.115 143.264C233.032 153.488 232.156 166.639 236.822 177.586C236.983 177.958 236.808 178.389 236.435 178.542C236.34 178.579 236.246 178.601 236.151 178.601V178.608Z" fill="#31302F"/>
<path d="M243.189 187.298C243.043 187.298 242.905 187.254 242.773 187.167C242.445 186.94 242.357 186.48 242.591 186.152C244.263 183.727 247.491 181.675 250.412 182.449C250.799 182.551 251.032 182.953 250.93 183.34C250.828 183.727 250.426 183.961 250.039 183.859C247.79 183.26 245.146 185.02 243.796 186.977C243.657 187.181 243.423 187.291 243.197 187.291L243.189 187.298Z" fill="#31302F"/>
<path d="M221.626 177.483C221.582 177.483 221.531 177.483 221.487 177.483C218.048 177.315 215.967 170.838 215.747 170.101C215.674 169.86 215.726 169.604 215.886 169.414C216.047 169.224 216.295 169.129 216.543 169.166L226.431 170.495C226.657 170.524 226.854 170.656 226.964 170.853C227.074 171.05 227.095 171.284 227.008 171.495C225.343 175.526 223.583 177.491 221.633 177.491L221.626 177.483ZM217.515 170.765C218.398 173.095 219.983 175.95 221.553 176.023C221.575 176.023 221.597 176.023 221.611 176.023C222.743 176.023 224.028 174.541 225.27 171.809L217.515 170.765Z" fill="#31302F"/>
<path d="M224.044 155.795C222.897 156.518 222.386 157.781 222.912 158.607C223.431 159.432 224.789 159.512 225.935 158.789C227.082 158.066 227.593 156.803 227.067 155.978C226.541 155.153 225.19 155.072 224.044 155.795Z" fill="#31302F"/>
<path d="M230.74 157.248C230.338 157.248 230.009 156.912 230.017 156.511C230.024 155.32 229.768 154.115 229.272 153.035C229.104 152.67 229.264 152.231 229.63 152.063C229.995 151.895 230.433 152.056 230.601 152.421C231.185 153.699 231.492 155.116 231.477 156.518C231.477 156.92 231.148 157.241 230.747 157.241L230.74 157.248Z" fill="#31302F"/>
<path d="M135.704 148.785C138.854 148.785 141.407 151.338 141.407 154.488V165.181L174.854 184.735L141.407 183.904V220.305C141.407 223.455 138.854 226.008 135.704 226.008H77.2988C74.1491 226.008 71.5958 223.455 71.5957 220.305V154.488C71.5958 151.338 74.1491 148.785 77.2988 148.785H135.704Z" fill="#A3B4FF"/>
<path d="M72.5907 224.541C72.4885 224.541 72.3936 224.519 72.2986 224.475C71.9335 224.314 71.7656 223.883 71.9262 223.511C72.5323 222.138 73.1822 220.707 73.8468 219.261C78.9512 208.125 88.5393 199.449 100.158 195.448L112.448 191.212C112.448 191.212 112.499 191.198 112.528 191.19C112.74 191.146 117.705 190.051 123.781 190.029C132.055 190 138.035 191.891 141.606 195.667C141.884 195.959 141.869 196.419 141.577 196.696C141.285 196.974 140.825 196.959 140.548 196.667C132.836 188.503 113.872 192.395 112.886 192.607L100.632 196.828C89.3864 200.698 80.1123 209.096 75.1758 219.867C74.5186 221.306 73.8687 222.73 73.2626 224.102C73.1457 224.373 72.8755 224.541 72.598 224.541H72.5907Z" fill="#31302F"/>
<path d="M108.416 226.038L100.361 226.147C100.361 226.147 100.632 218.326 107.941 215.902C115.251 213.47 127.023 211.995 129.849 217.91C132.682 223.825 139.678 232.194 134.865 232.252C131.258 232.296 124.27 222.292 124.27 222.292L125.65 237.773C125.65 237.773 122.984 238.795 120.553 238.233C119.53 237.999 117.77 237.488 115.806 236.707C113.082 235.626 110.388 233.822 108.423 226.045L108.416 226.038Z" fill="#FDF8F6"/>
<path d="M134.361 233.07C132.9 233.07 131.469 232.42 130.513 231.244L123.261 222.372C123.006 222.058 123.049 221.598 123.363 221.342C123.677 221.087 124.137 221.13 124.393 221.444L131.644 230.317C132.586 231.471 134.156 231.902 135.551 231.398C135.778 231.317 135.88 231.135 135.916 231.04C135.953 230.945 135.997 230.748 135.88 230.529L129.205 218.253C125.766 212.192 113.33 215.077 108.138 216.596C103.946 217.822 101.843 222.598 100.813 226.381C100.711 226.768 100.31 227.002 99.9152 226.892C99.5281 226.79 99.2945 226.388 99.404 225.994C100.529 221.846 102.88 216.61 107.722 215.194C114.579 213.185 126.657 210.812 130.476 217.545L137.158 229.828C137.45 230.361 137.486 230.989 137.275 231.551C137.063 232.113 136.61 232.559 136.04 232.763C135.485 232.96 134.916 233.063 134.354 233.063L134.361 233.07Z" fill="#31302F"/>
<path d="M123.253 239.401C122.304 239.401 121.333 239.058 120.61 238.05C120.376 237.722 120.449 237.269 120.77 237.028C121.099 236.794 121.552 236.867 121.793 237.189C122.691 238.43 124.261 237.831 124.984 237.459L122.567 218.034C122.516 217.633 122.8 217.268 123.202 217.216C123.596 217.165 123.969 217.45 124.02 217.852L126.495 237.758C126.532 238.036 126.408 238.306 126.174 238.459C125.502 238.905 124.392 239.394 123.253 239.394V239.401Z" fill="#31302F"/>
<path d="M120.553 239.394C119.319 239.394 116.617 239.153 115.777 237.123C114.879 234.954 111.491 221.014 111.345 220.415C111.25 220.02 111.491 219.626 111.885 219.531C112.28 219.436 112.674 219.677 112.769 220.072C113.981 225.052 116.449 234.91 117.136 236.56C117.567 237.605 119.144 237.89 120.254 237.933L116.887 218.604C116.822 218.209 117.085 217.83 117.479 217.757C117.881 217.691 118.253 217.954 118.326 218.348L121.839 238.518C121.875 238.722 121.824 238.927 121.7 239.087C121.576 239.248 121.386 239.35 121.189 239.372C121.152 239.372 120.918 239.394 120.568 239.394H120.553Z" fill="#31302F"/>
<path d="M116.214 237.393C109.583 237.393 106.932 223.241 106.823 222.635C106.75 222.24 107.013 221.861 107.414 221.788C107.809 221.715 108.188 221.977 108.261 222.379C108.955 226.184 111.774 236.027 116.294 235.932C116.681 235.903 117.032 236.239 117.039 236.648C117.046 237.05 116.732 237.386 116.323 237.393C116.287 237.393 116.25 237.393 116.214 237.393Z" fill="#31302F"/>
<path d="M90.5109 141.292C90.5109 141.292 112.783 150.742 120.889 159.351C128.995 167.961 129.915 177.301 115.237 180.229C115.237 180.229 112.754 178.842 114.244 184.275C115.792 189.92 116.683 195.389 116.683 195.389C116.683 195.389 118.034 202.261 112.9 203.743C104.648 206.131 96.0243 203.217 95.0165 202.655C95.0165 202.655 94.7463 193.834 92.3365 189.438C89.9194 185.042 86.6552 180.755 86.6552 180.755L81.7991 180.894C81.7991 180.894 75.256 181.478 73.5181 172.138C71.9115 163.485 70.5825 144.52 90.4963 141.292H90.5109Z" fill="#FDF8F6"/>
<path d="M103.05 149.574C103.619 150.107 104.393 150.209 104.78 149.8C105.167 149.391 105.007 148.624 104.437 148.091C103.868 147.558 103.094 147.456 102.707 147.865C102.327 148.274 102.48 149.04 103.05 149.574Z" fill="#31302F"/>
<path d="M94.7326 157.088C95.3022 157.621 96.0763 157.723 96.4633 157.314C96.8504 156.905 96.6897 156.138 96.1201 155.605C95.5505 155.072 94.7765 154.97 94.3894 155.379C94.0024 155.788 94.1631 156.555 94.7326 157.088Z" fill="#31302F"/>
<path d="M88.7576 156.175C88.7576 156.175 88.7211 156.175 88.6992 156.175C88.2976 156.146 87.9981 155.795 88.0274 155.394C88.3195 151.509 91.9707 150.574 93.8328 150.589C94.2345 150.596 94.5558 150.932 94.5485 151.333C94.5412 151.735 94.2125 152.034 93.8036 152.049C93.6137 152.049 89.7434 152.049 89.4806 155.503C89.4513 155.883 89.13 156.175 88.7503 156.175H88.7576Z" fill="#31302F"/>
<path d="M99.5213 148.997C99.5213 148.997 99.4848 148.997 99.4629 148.997C99.0612 148.967 98.7618 148.617 98.791 148.215C99.0904 144.33 102.756 143.388 104.596 143.41C104.998 143.418 105.319 143.754 105.312 144.155C105.305 144.557 104.984 144.878 104.567 144.871C104.392 144.871 100.507 144.871 100.244 148.325C100.215 148.705 99.8937 148.997 99.514 148.997H99.5213Z" fill="#31302F"/>
<path d="M107.351 181.471C104.393 181.471 101.122 181.288 97.5215 180.923C97.1198 180.879 96.8277 180.521 96.8715 180.12C96.9154 179.718 97.2732 179.419 97.6748 179.47C116.566 181.39 122.912 177.805 124.906 174.453C127.454 170.181 124.146 164.69 123.073 163.105C118.91 156.986 98.0618 144.323 97.8501 144.192C97.5069 143.98 97.3973 143.534 97.6018 143.191C97.8136 142.848 98.259 142.738 98.6022 142.943C99.4712 143.469 119.94 155.897 124.278 162.28C125.475 164.04 129.148 170.181 126.162 175.191C123.672 179.36 117.362 181.456 107.351 181.456V181.471Z" fill="#31302F"/>
<path d="M109.862 161.885C109.629 161.885 109.402 161.776 109.264 161.571C109.037 161.243 109.118 160.783 109.446 160.556C109.979 160.184 110.264 159.811 110.293 159.439C110.33 158.935 109.877 158.482 109.877 158.475L103.641 153.648C103.319 153.4 103.261 152.94 103.509 152.626C103.758 152.304 104.218 152.246 104.532 152.494L110.819 157.365C110.965 157.497 111.834 158.344 111.754 159.541C111.695 160.374 111.199 161.119 110.279 161.754C110.154 161.842 110.008 161.885 109.862 161.885Z" fill="#31302F"/>
<path d="M108.154 168.085C107.496 168.085 106.795 168.034 106.043 167.925C105.642 167.866 105.371 167.494 105.43 167.092C105.488 166.69 105.861 166.42 106.262 166.479C112.447 167.391 114.573 163.616 114.594 163.58C114.784 163.222 115.23 163.098 115.588 163.287C115.945 163.477 116.077 163.923 115.88 164.281C115.785 164.456 113.74 168.085 108.161 168.085H108.154Z" fill="#31302F"/>
<path d="M90.7733 166.953C90.7733 166.953 79.8123 159.592 81.3312 154.97C82.8428 150.355 94.7531 146.623 96.5422 146.923C98.3313 147.215 96.3158 144.666 96.3158 144.666L103.02 144.681C103.02 144.681 99.748 137.276 94.0229 137.21C88.305 137.137 90.6126 137.897 90.6126 137.897C90.6126 137.897 89.5246 132.639 81.8935 135.334C74.2624 138.028 65.514 147.193 65.1051 150.369C64.6962 153.546 62.8778 164.982 66.383 171.284C69.8882 177.586 75.7886 175.585 75.7886 175.585C75.7886 175.585 73.9484 170.962 80.1409 168.837C86.3261 166.712 88.0495 171.05 88.0495 171.05L90.7733 166.953Z" fill="#31302F"/>
<path d="M79.2798 176.381C78.9877 176.381 78.7175 176.205 78.6007 175.921C78.2794 175.11 78.5058 173.993 79.1922 173C80.0904 171.7 81.5582 170.933 83.0771 170.962C85.9178 171.013 88.2327 173.942 88.3349 174.066C88.5832 174.387 88.5248 174.84 88.2107 175.088C87.8967 175.336 87.4367 175.278 87.1884 174.964C87.1665 174.942 85.1948 172.459 83.0625 172.423C81.5509 172.394 80.7038 173.401 80.4044 173.832C79.9663 174.467 79.8567 175.088 79.9663 175.38C80.1123 175.753 79.9297 176.176 79.5573 176.33C79.4697 176.366 79.3748 176.381 79.2871 176.381H79.2798Z" fill="#31302F"/>
<path d="M106.875 205.649C101.135 205.649 95.1474 203.473 94.7677 203.334C94.5121 203.239 94.3295 203.013 94.293 202.743L94.0082 200.618C94.0082 200.618 94.0082 200.545 94.0082 200.508C94.1689 190.073 87.5455 182.712 86.3406 181.463C85.9317 181.463 84.8217 181.485 81.835 181.617C77.2198 181.821 74.0579 175.643 73.9264 175.38C73.7439 175.022 73.8899 174.584 74.2477 174.402C74.6056 174.219 75.0437 174.365 75.2263 174.723C75.2555 174.782 78.1107 180.317 81.7693 180.156C86.5232 179.952 87.1366 179.922 87.3119 180.361C88.4876 181.536 95.6148 189.175 95.4687 200.472L95.6878 202.093C97.9443 202.852 108.854 206.233 113.666 202.312C115.638 200.705 116.354 197.974 115.791 194.199C114.886 188.116 112.637 180.697 112.615 180.623C112.498 180.236 112.717 179.828 113.104 179.711C113.491 179.594 113.9 179.813 114.017 180.2C114.039 180.273 116.317 187.795 117.245 193.987C117.887 198.31 116.996 201.494 114.594 203.451C112.586 205.087 109.767 205.634 106.882 205.634L106.875 205.649Z" fill="#31302F"/>
<path d="M194.257 188.934H171.43V190.394H194.257V188.934Z" fill="#31302F"/>
<path d="M194.257 193.76H171.43V195.221H194.257V193.76Z" fill="#31302F"/>
<path d="M194.257 198.383H171.43V199.844H194.257V198.383Z" fill="#31302F"/>
<path d="M187.962 203.21H171.43V204.67H187.962V203.21Z" fill="#31302F"/>
<path d="M213.236 127.542C212.973 127.542 212.718 127.396 212.586 127.147C212.404 126.79 212.542 126.351 212.9 126.162L235.414 114.485C237.948 113.17 240.664 112.28 243.483 111.841L281.375 105.941C281.777 105.883 282.149 106.153 282.208 106.547C282.266 106.949 281.996 107.321 281.602 107.38L243.709 113.28C241.044 113.696 238.481 114.536 236.086 115.777L213.572 127.454C213.462 127.513 213.353 127.534 213.236 127.534V127.542Z" fill="#31302F"/>
<path d="M220.983 127.272L216.404 127.403L219.267 124.278C220.37 123.073 221.874 122.299 223.502 122.116C224.948 121.948 225.708 122.445 226.818 124.168L232.243 133.289L230.082 133.749C228.541 134.077 226.934 133.581 225.854 132.434L220.983 127.272Z" fill="#FDF8F6"/>
<path d="M229.148 134.581C227.717 134.581 226.322 133.997 225.321 132.938L220.67 128.009L216.42 128.133C216.128 128.148 215.857 127.973 215.733 127.71C215.609 127.439 215.66 127.133 215.857 126.914L218.72 123.788C219.947 122.452 221.612 121.597 223.416 121.393C225.358 121.174 226.322 122.058 227.432 123.781L232.865 132.924C232.989 133.128 233.004 133.376 232.909 133.588C232.814 133.8 232.624 133.961 232.39 134.012L230.229 134.472C229.871 134.545 229.506 134.589 229.148 134.589V134.581ZM220.984 126.541C221.181 126.541 221.378 126.622 221.517 126.768L226.388 131.93C227.286 132.887 228.644 133.311 229.929 133.033L231.098 132.785L226.198 124.54C225.175 122.948 224.65 122.715 223.591 122.839C222.138 123.007 220.794 123.693 219.808 124.767L218.114 126.622L220.962 126.541C220.962 126.541 220.976 126.541 220.984 126.541Z" fill="#31302F"/>
<path d="M214.96 127.447L210.381 127.578L213.243 124.453C214.346 123.248 215.85 122.474 217.479 122.291C218.925 122.123 220.298 122.978 220.794 124.343L225.205 136.02L222.196 136.261C220.641 136.385 219.151 135.582 218.406 134.216L214.952 127.447H214.96Z" fill="#FDF8F6"/>
<path d="M221.889 137.013C220.188 137.013 218.603 136.086 217.771 134.574L214.521 128.199L210.41 128.316C210.132 128.33 209.848 128.155 209.724 127.892C209.599 127.622 209.651 127.315 209.848 127.096L212.71 123.971C213.937 122.634 215.602 121.78 217.406 121.576C219.195 121.371 220.882 122.408 221.495 124.11L225.906 135.779C225.986 135.991 225.964 136.232 225.84 136.429C225.716 136.626 225.512 136.75 225.285 136.765L222.277 137.006C222.152 137.013 222.028 137.02 221.897 137.02L221.889 137.013ZM214.959 126.724C215.237 126.724 215.485 126.877 215.609 127.126L219.063 133.895C219.662 134.99 220.882 135.647 222.145 135.545L224.182 135.377L220.115 124.606C219.728 123.54 218.684 122.89 217.566 123.022C216.113 123.189 214.77 123.876 213.784 124.949L212.09 126.804L214.938 126.724C214.938 126.724 214.952 126.724 214.959 126.724Z" fill="#31302F"/>
<path d="M208.942 127.629L204.363 127.761L207.226 124.635C208.329 123.43 209.833 122.656 211.461 122.474C212.907 122.306 214.28 123.16 214.777 124.526L218.771 135.209L215.762 135.45C214.207 135.574 212.717 134.771 211.972 133.406L208.942 127.629Z" fill="#FDF8F6"/>
<path d="M215.448 136.195C213.746 136.195 212.162 135.268 211.329 133.756L208.503 128.367L204.385 128.484C204.1 128.498 203.822 128.323 203.698 128.06C203.574 127.79 203.625 127.483 203.822 127.264L206.685 124.139C207.912 122.802 209.577 121.948 211.38 121.744C213.169 121.546 214.849 122.576 215.47 124.278L219.457 134.954C219.537 135.165 219.515 135.406 219.391 135.604C219.267 135.793 219.063 135.925 218.836 135.94L215.828 136.181C215.703 136.188 215.579 136.195 215.448 136.195ZM208.941 126.892C209.212 126.892 209.46 127.045 209.591 127.286L212.622 133.062C213.228 134.165 214.44 134.822 215.711 134.72L217.755 134.552L214.104 124.774C213.717 123.708 212.666 123.058 211.556 123.189C210.102 123.357 208.759 124.044 207.773 125.117L206.079 126.972L208.927 126.892C208.927 126.892 208.941 126.892 208.949 126.892H208.941Z" fill="#31302F"/>
<path d="M203.223 127.79L198.645 127.921L201.507 124.796C202.61 123.591 204.114 122.817 205.743 122.635C207.188 122.467 208.561 123.321 209.058 124.687L212.417 133.961L209.408 134.202C207.853 134.326 206.363 133.522 205.618 132.157L203.223 127.79Z" fill="#FDF8F6"/>
<path d="M209.088 134.954C207.387 134.954 205.802 134.026 204.97 132.515L202.794 128.535L198.668 128.652C198.376 128.659 198.106 128.491 197.981 128.228C197.857 127.958 197.908 127.651 198.106 127.432L200.968 124.307C202.195 122.97 203.86 122.116 205.664 121.911C207.453 121.707 209.132 122.744 209.753 124.445L213.112 133.719C213.192 133.931 213.163 134.172 213.039 134.362C212.915 134.552 212.71 134.676 212.484 134.698L209.475 134.939C209.351 134.946 209.227 134.954 209.096 134.954H209.088ZM203.225 127.06C203.487 127.06 203.736 127.206 203.867 127.439L206.262 131.806C206.876 132.923 208.095 133.573 209.359 133.478L211.411 133.31L208.38 124.935C208 123.876 206.949 123.226 205.832 123.357C204.378 123.525 203.035 124.212 202.049 125.285L200.355 127.14L203.203 127.06C203.203 127.06 203.217 127.06 203.225 127.06Z" fill="#31302F"/>
<path d="M234.061 222.963L238.64 223.095L235.777 219.969C234.675 218.764 233.17 217.99 231.542 217.808C230.096 217.64 229.336 218.136 228.227 219.86L222.801 228.98L224.962 229.44C226.503 229.769 228.11 229.273 229.19 228.126L234.061 222.963Z" fill="#FDF8F6"/>
<path d="M225.891 230.273C225.533 230.273 225.168 230.236 224.81 230.156L222.649 229.696C222.415 229.645 222.225 229.492 222.13 229.272C222.035 229.053 222.05 228.812 222.174 228.608L227.6 219.487C228.717 217.749 229.688 216.866 231.631 217.085C233.434 217.289 235.099 218.144 236.326 219.48L239.189 222.605C239.386 222.824 239.437 223.138 239.313 223.401C239.189 223.671 238.926 223.839 238.626 223.825L234.376 223.701L229.732 228.63C228.731 229.689 227.337 230.273 225.905 230.273H225.891ZM223.948 228.477L225.117 228.725C226.402 229.002 227.76 228.579 228.658 227.622L233.529 222.459C233.675 222.306 233.88 222.218 234.084 222.233L236.932 222.313L235.238 220.458C234.252 219.378 232.909 218.698 231.455 218.531C230.396 218.406 229.871 218.64 228.834 220.254L223.941 228.477H223.948Z" fill="#31302F"/>
<path d="M240.079 223.138L244.658 223.27L241.795 220.144C240.693 218.94 239.188 218.165 237.56 217.983C236.114 217.815 234.741 218.669 234.245 220.035L229.834 231.712L232.843 231.953C234.398 232.077 235.888 231.273 236.633 229.908L240.087 223.138H240.079Z" fill="#FDF8F6"/>
<path d="M233.156 232.697C233.032 232.697 232.908 232.697 232.776 232.683L229.768 232.442C229.541 232.427 229.33 232.296 229.213 232.106C229.089 231.908 229.067 231.675 229.147 231.456L233.558 219.779C234.171 218.092 235.851 217.055 237.64 217.26C239.443 217.464 241.108 218.319 242.335 219.655L245.198 222.78C245.395 222.999 245.446 223.313 245.322 223.576C245.198 223.847 244.928 224.015 244.635 224L240.524 223.883L237.282 230.244C236.442 231.77 234.857 232.697 233.156 232.697ZM230.856 231.061L232.9 231.229C234.171 231.332 235.383 230.674 235.997 229.557L239.436 222.802C239.568 222.554 239.83 222.401 240.108 222.401L242.956 222.481L241.262 220.626C240.276 219.545 238.932 218.859 237.479 218.698C236.362 218.567 235.318 219.217 234.93 220.276L230.856 231.054V231.061Z" fill="#31302F"/>
<path d="M246.103 223.314L250.681 223.445L247.819 220.319C246.716 219.115 245.212 218.341 243.583 218.158C242.137 217.99 240.764 218.844 240.268 220.21L236.273 230.893L239.282 231.134C240.837 231.259 242.327 230.455 243.072 229.09L246.103 223.314Z" fill="#FDF8F6"/>
<path d="M239.597 231.879C239.473 231.879 239.349 231.879 239.218 231.865L236.209 231.624C235.983 231.609 235.771 231.478 235.654 231.288C235.53 231.098 235.508 230.857 235.588 230.638L239.583 219.954C240.196 218.268 241.876 217.231 243.665 217.428C245.469 217.632 247.134 218.487 248.36 219.823L251.223 222.948C251.42 223.167 251.471 223.481 251.347 223.744C251.223 224.015 250.945 224.183 250.661 224.168L246.542 224.051L243.723 229.426C242.891 230.945 241.306 231.872 239.597 231.872V231.879ZM237.29 230.244L239.335 230.412C240.605 230.514 241.817 229.857 242.431 228.739L245.454 222.97C245.585 222.722 245.863 222.569 246.119 222.576L248.966 222.656L247.272 220.801C246.286 219.721 244.943 219.034 243.49 218.874C242.372 218.742 241.328 219.392 240.941 220.451L237.283 230.236L237.29 230.244Z" fill="#31302F"/>
<path d="M251.823 223.481L256.401 223.613L253.539 220.487C252.436 219.283 250.932 218.508 249.303 218.326C247.857 218.158 246.485 219.012 245.988 220.378L242.629 229.652L245.638 229.893C247.193 230.017 248.683 229.214 249.428 227.848L251.823 223.481Z" fill="#FDF8F6"/>
<path d="M245.95 230.638C245.826 230.638 245.702 230.638 245.57 230.623L242.562 230.382C242.335 230.368 242.131 230.244 242.007 230.046C241.882 229.857 241.853 229.616 241.934 229.404L245.293 220.13C245.906 218.436 247.586 217.391 249.382 217.596C251.186 217.8 252.851 218.655 254.078 219.991L256.94 223.116C257.137 223.335 257.188 223.65 257.064 223.912C256.94 224.183 256.67 224.358 256.378 224.336L252.252 224.219L250.076 228.199C249.251 229.711 247.659 230.638 245.957 230.638H245.95ZM243.635 229.002L245.687 229.17C246.958 229.272 248.17 228.615 248.783 227.498L251.179 223.131C251.31 222.89 251.566 222.737 251.843 222.751L254.691 222.832L252.997 220.977C252.011 219.896 250.667 219.217 249.214 219.049C248.104 218.918 247.053 219.567 246.666 220.626L243.635 229.002Z" fill="#31302F"/>
<path d="M253.305 104.704C265.818 100.112 272.24 86.2457 267.648 73.7323C263.057 61.219 249.19 54.7971 236.677 59.3888C224.164 63.9804 217.742 77.8467 222.333 90.3601C226.925 102.873 240.791 109.295 253.305 104.704Z" fill="#31302F"/>
<path d="M243.023 109.402C243.972 109.307 244.892 109.103 245.783 108.811L251.851 122.51C257.62 124.161 263.74 121.451 266.398 116.077L270.327 108.124L264.251 94.4103C265.091 94.549 265.938 94.5198 266.756 94.2642C270.582 93.0812 272.313 87.7869 270.531 82.5584C268.881 77.7314 264.638 74.6936 261.067 75.7744C258.482 76.5557 256.854 79.2065 256.591 82.4415C254.086 72.9483 246.696 66.3615 238.714 67.1794C229.615 68.1068 223.204 78.3156 224.394 89.9704C225.584 101.632 233.924 110.33 243.023 109.402Z" fill="#FDF8F6"/>
<path d="M255.262 123.722C254.064 123.722 252.845 123.554 251.647 123.211C251.435 123.153 251.267 122.999 251.18 122.802L245.374 109.694C244.615 109.906 243.855 110.052 243.096 110.125C233.61 111.096 224.898 102.085 223.664 90.0434C222.437 78.0017 229.156 67.4131 238.634 66.4492C246.061 65.6897 253.217 71.1082 256.438 79.6009C257.255 77.3372 258.818 75.6868 260.841 75.0734C264.784 73.8831 269.436 77.1327 271.21 82.3174C272.299 85.5086 272.182 88.9262 270.882 91.4747C269.991 93.2346 268.633 94.4322 266.96 94.9507C266.457 95.1041 265.931 95.1917 265.398 95.2136L270.984 107.825C271.072 108.022 271.064 108.249 270.969 108.446L267.041 116.398C264.777 120.969 260.155 123.722 255.262 123.722ZM252.37 121.897C257.708 123.255 263.28 120.714 265.734 115.748L269.516 108.102L263.579 94.7024C263.47 94.4541 263.506 94.1693 263.667 93.9576C263.835 93.7458 264.098 93.6363 264.361 93.6874C265.128 93.8115 265.858 93.775 266.53 93.5632C267.815 93.1616 268.874 92.2123 269.582 90.8175C270.699 88.6195 270.794 85.6182 269.83 82.7921C268.311 78.3376 264.47 75.5042 261.265 76.4682C259.066 77.1327 257.548 79.4403 257.307 82.4927C257.277 82.8505 257 83.128 256.642 83.1645C256.284 83.1937 255.963 82.9674 255.868 82.6241C253.414 73.3354 246.229 67.1429 238.773 67.9024C230.09 68.786 223.956 78.6516 225.103 89.8974C226.249 101.136 234.238 109.563 242.928 108.679C243.797 108.592 244.666 108.402 245.535 108.117C245.893 108 246.28 108.175 246.433 108.519L252.355 121.897H252.37Z" fill="#31302F"/>
<path d="M256.932 78.6299C256.794 78.7759 256.662 78.9293 256.516 79.0753C248.513 87.1518 233.703 85.6256 223.443 75.665C223.327 75.5555 223.217 75.4387 223.107 75.3218C225.254 71.8532 228.299 69.1805 232.097 67.8003C240.918 64.5872 250.996 69.3119 256.932 78.6299Z" fill="#31302F"/>
<path d="M246.214 109.351C245.937 109.351 245.674 109.191 245.55 108.921C245.382 108.555 245.55 108.117 245.915 107.957C250.238 105.985 253.561 101.633 255.021 96.0098C255.123 95.6227 255.518 95.3818 255.912 95.484C256.299 95.5862 256.533 95.9879 256.438 96.3749C254.86 102.421 251.253 107.131 246.521 109.286C246.426 109.329 246.316 109.351 246.222 109.351H246.214Z" fill="#31302F"/>
<path d="M229.491 90.8613C229.951 91.2337 229.477 92.5628 228.44 93.8334C227.403 95.0967 226.191 95.8197 225.731 95.4473C225.27 95.0748 225.745 93.7458 226.782 92.4752C227.819 91.2118 229.031 90.4889 229.491 90.8613Z" fill="#31302F"/>
<path d="M243.848 87.9697C243.957 88.6926 242.416 89.5251 240.415 89.8318C238.407 90.1312 236.691 89.788 236.582 89.0651C236.472 88.3421 238.013 87.5096 240.014 87.2029C242.022 86.9035 243.738 87.2468 243.848 87.9697Z" fill="#31302F"/>
<path d="M235.633 99.7706C235.546 99.7706 235.451 99.756 235.363 99.7195C234.341 99.3178 233.596 98.3904 233.421 97.2951L232.676 92.5558C232.61 92.1541 232.887 91.7817 233.282 91.7233C233.683 91.6649 234.056 91.935 234.114 92.3294L234.859 97.0687C234.954 97.6602 235.341 98.1421 235.896 98.3612C236.268 98.5073 236.458 98.9308 236.305 99.3105C236.188 99.5953 235.918 99.7706 235.626 99.7706H235.633Z" fill="#31302F"/>
<path d="M237.976 102.56C237.691 102.56 237.385 102.531 237.056 102.48C236.662 102.414 236.391 102.034 236.457 101.64C236.523 101.245 236.903 100.975 237.297 101.041C239.283 101.377 239.553 100.238 239.568 100.187C239.656 99.7923 240.043 99.544 240.437 99.6316C240.831 99.7192 241.08 100.106 240.992 100.501C240.824 101.275 239.977 102.56 237.969 102.56H237.976Z" fill="#31302F"/>
<path d="M260.906 86.2389C260.621 86.2389 260.344 86.071 260.234 85.7862C259.416 83.8145 259.343 82.04 260.015 80.5138C260.979 78.3231 263.133 77.5052 263.221 77.4687C263.601 77.3299 264.017 77.5198 264.156 77.8995C264.294 78.2793 264.104 78.6955 263.725 78.8342C263.703 78.8415 262.038 79.4915 261.337 81.1126C260.84 82.2518 260.921 83.6393 261.578 85.2239C261.731 85.5963 261.556 86.0272 261.183 86.1805C261.096 86.217 261.001 86.2389 260.906 86.2389Z" fill="#31302F"/>
<path d="M230.426 97.4555C230.623 98.2953 230.346 99.0767 229.806 99.2081C229.265 99.3396 228.659 98.7627 228.462 97.9229C228.265 97.0831 228.542 96.3017 229.083 96.1703C229.623 96.0388 230.229 96.6157 230.426 97.4555Z" fill="#31302F"/>
<path d="M241.438 93.1398C241.635 93.9796 241.358 94.761 240.817 94.8924C240.277 95.0239 239.671 94.447 239.474 93.6072C239.276 92.7674 239.554 91.986 240.094 91.8546C240.635 91.7232 241.241 92.3001 241.438 93.1398Z" fill="#31302F"/>
<path d="M255.248 69.9985C263.697 69.9985 270.547 63.149 270.547 54.6998C270.547 46.2506 263.697 39.4011 255.248 39.4011C246.799 39.4011 239.949 46.2506 239.949 54.6998C239.949 63.149 246.799 69.9985 255.248 69.9985Z" fill="#31302F"/>
</g>
<defs>
<clipPath id="clip0_2691_52639">
<rect width="224.726" height="200" fill="white" transform="translate(64.2734 39.401)"/>
</clipPath>
</defs>
</svg>
