<svg width="376" height="233" viewBox="0 0 376 233" fill="none" xmlns="http://www.w3.org/2000/svg">
<g clip-path="url(#clip0_1794_35098)">
<path d="M298.664 112.964C316.537 112.964 331.026 98.5425 331.026 80.7531C331.026 62.9638 316.537 48.5427 298.664 48.5427C280.791 48.5427 266.302 62.9638 266.302 80.7531C266.302 98.5425 280.791 112.964 298.664 112.964Z" fill="#31302F"/>
<path d="M325.226 55.4044C329.99 53.9962 345.315 55.5287 345.715 72.6349C345.908 81.1397 360.861 83.7215 365.237 85.6406C372.003 88.609 369.738 102.774 355.752 109.636C351.735 111.611 317.757 75.341 315.603 62.2248C315.244 59.9882 318.751 57.3235 325.226 55.4044Z" stroke="#31302F" stroke-width="1.65677" stroke-miterlimit="10" stroke-linecap="round" stroke-linejoin="round"/>
<path d="M325.517 49.6335C331.246 49.1364 348.353 53.8996 345.149 71.9033C343.562 80.8636 360.033 86.6347 364.589 89.5479C371.658 94.0488 366.052 108.421 348.67 112.743C343.672 113.985 312.746 68.9901 313.105 54.7971C313.174 52.3809 317.73 50.2962 325.517 49.6335Z" fill="#31302F"/>
<path d="M346.446 146.472C359.561 146.472 370.193 135.871 370.193 122.794C370.193 109.717 359.561 99.1157 346.446 99.1157C333.331 99.1157 322.699 109.717 322.699 122.794C322.699 135.871 333.331 146.472 346.446 146.472Z" fill="#31302F"/>
<path d="M349.346 147.3C362.461 147.3 373.093 136.699 373.093 123.622C373.093 110.545 362.461 99.9442 349.346 99.9442C336.231 99.9442 325.599 110.545 325.599 123.622C325.599 136.699 336.231 147.3 349.346 147.3Z" stroke="#31302F" stroke-width="1.65677" stroke-miterlimit="10" stroke-linecap="round" stroke-linejoin="round"/>
<path d="M352.978 110.437C359.078 110.437 364.023 105.517 364.023 99.4472C364.023 93.3776 359.078 88.4573 352.978 88.4573C346.878 88.4573 341.933 93.3776 341.933 99.4472C341.933 105.517 346.878 110.437 352.978 110.437Z" fill="#31302F"/>
<path d="M357.893 103.907C355.628 113.889 352.66 132.403 344.141 136.158C334.822 140.273 310.398 141.281 311.724 121.634C312.179 117.271 315.01 112.977 316.335 109.25C318.392 103.465 316.418 99.9165 308.88 92.5301C301.341 85.1436 295.529 83.0727 295.846 71.3234C296.109 61.8521 306.823 53.1127 311.6 51.9391C327.146 48.0871 340.676 67.5956 342.664 74.1399C344.638 80.6841 339.254 84.4257 343.796 89.9897C346.654 93.4827 352.812 98.1907 357.893 103.907Z" fill="#31302F"/>
<path d="M291.789 193.152C314.962 193.152 333.747 182.538 333.747 169.446C333.747 156.354 314.962 145.74 291.789 145.74C268.616 145.74 249.831 156.354 249.831 169.446C249.831 182.538 268.616 193.152 291.789 193.152Z" fill="#A3B4FF"/>
<path d="M275.817 109.67L193.917 148.248L189.221 154.352C180.418 165.802 183.763 182.374 196.33 189.584C203.875 193.914 213.161 193.836 220.629 189.409L262.251 164.681C272.358 178.57 290.818 183.568 306.565 176.674L310.35 175.017L330.76 197.014C337.608 204.399 348.858 205.682 357.186 200.018C365.941 194.077 368.64 182.444 363.395 173.266C363.395 173.266 344.984 128.958 334.244 124.455L297.843 109.194C290.771 106.236 282.753 106.412 275.817 109.67Z" fill="#A3B4FF"/>
<path d="M317.203 156.846C322.981 150.631 325.511 143.588 322.853 141.117C320.194 138.646 313.355 141.681 307.576 147.897C301.798 154.112 299.268 161.155 301.927 163.626C304.585 166.097 311.424 163.062 317.203 156.846Z" fill="#31302F"/>
<path d="M306.602 114.151C324.194 114.151 338.454 99.9648 338.454 82.4653C338.454 64.9657 324.194 50.7794 306.602 50.7794C289.011 50.7794 274.751 64.9657 274.751 82.4653C274.751 99.9648 289.011 114.151 306.602 114.151Z" fill="#31302F"/>
<path d="M326.002 85.8063C326.029 80.8774 324.58 75.8933 321.487 71.5719C313.631 60.582 298.292 58.0001 287.233 65.8284C278.604 71.9309 275.166 82.5618 277.803 92.1711C276.05 98.9087 277.182 106.35 281.559 112.467C289.415 123.457 304.754 126.038 315.812 118.21C321.653 114.082 325.104 107.869 325.919 101.311C329.108 103.52 333.471 103.644 336.826 101.27C341.092 98.2459 342.086 92.3644 339.049 88.1258C336.053 83.9425 330.254 82.9208 326.002 85.8063Z" fill="white" stroke="#31302F" stroke-width="1.65677" stroke-miterlimit="10" stroke-linecap="round" stroke-linejoin="round"/>
<path d="M326.193 94.753C327.436 91.9365 330.266 89.8932 333.345 89.5894" stroke="#31302F" stroke-width="1.65677" stroke-miterlimit="10" stroke-linecap="round" stroke-linejoin="round"/>
<path d="M329.217 66.4912C330.874 69.7909 332.365 73.1459 333.759 76.5285C333.87 76.8184 333.842 77.1912 333.552 77.274C330.929 78.0472 328.112 78.2819 325.227 77.9781C319.953 77.4259 314.596 75.0512 310.205 71.1716C305.415 66.9192 301.852 61.1066 300.334 55.0042C300.154 54.3139 301.066 54.2034 301.342 54.7833C302.543 52.6433 305.249 51.9254 307.679 51.953C310.399 51.9806 313.146 52.809 315.838 53.7754C318.752 54.8109 321.471 55.9983 323.819 58.4144C326.097 60.7339 327.753 63.6194 329.217 66.4912Z" fill="#31302F"/>
<path d="M291.511 107.759C289.357 105.55 305.69 100.828 305.69 100.828C307.761 101.794 304.379 114.938 300.209 114.966L298.691 114.98C295.211 115.007 292.45 112.909 291.884 109.802L291.511 107.759Z" fill="#31302F"/>
<path d="M292.838 110.823C292.686 110.451 292.562 110.064 292.493 109.678L292.12 107.634C292.092 107.51 292.037 107.399 291.954 107.317C292.037 106.281 298.222 103.644 305.526 101.504C305.609 101.684 305.705 102.07 305.705 102.76C301.467 106.033 297.035 108.808 292.838 110.823Z" fill="white"/>
<path d="M305.069 102.291C305.069 102.346 305.083 102.402 305.083 102.471C301.162 105.481 297.089 108.049 293.196 109.968C293.154 109.83 293.127 109.705 293.099 109.567L292.726 107.524C292.712 107.455 292.699 107.386 292.671 107.331C293.789 106.24 299.119 104.072 305.069 102.291ZM305.69 100.828C305.69 100.828 289.357 105.55 291.511 107.759L291.884 109.802C292.008 110.465 292.229 111.086 292.547 111.652C297.186 109.498 301.894 106.53 306.312 103.078C306.353 101.891 306.16 101.035 305.69 100.828Z" fill="#31302F"/>
<path d="M335.051 106.185L329.93 96.7742C329.581 96.1432 328.898 95.7807 328.16 95.8747C327.664 95.9418 327.222 96.2372 326.927 96.6399C326.016 97.875 325.747 99.4592 326.217 100.922L327.504 104.95L326.605 106.333L326.123 101.124C326.109 101.057 326.083 100.99 326.069 100.922L322.235 93.1763C322.034 92.7735 321.699 92.4379 321.283 92.2768C320.707 92.0754 320.104 92.1828 319.648 92.5587C318.75 93.2971 318.187 94.398 318.106 95.5659L318.093 95.8478L315.506 92.3976C315.345 92.1963 315.077 92.1157 314.835 92.2097C314.004 92.5722 312.717 93.7401 312.637 95.7539C312.235 95.6465 311.806 95.6599 311.323 96.17C311.202 96.3043 311.095 96.452 311.028 96.6265C310.371 98.1838 310.425 99.9424 311.176 101.459L313.012 105.192L312.489 113.394L304.299 119.852C300.867 122.55 298.775 126.604 298.534 130.954L305.813 154.407C305.8 154.582 305.773 154.246 305.907 154.354C305.921 154.367 305.974 154.394 306.082 154.434C310.304 156.099 315.117 154.689 317.798 151.051L321.994 145.372C322.262 145.305 317.771 128.229 317.771 128.229L334.997 106.789C335.145 106.628 335.158 106.386 335.051 106.185Z" fill="white"/>
<path d="M326.83 111.597L325.795 100.538L321.819 92.5027C321.487 91.8399 320.631 91.6605 320.065 92.1299C319.251 92.7926 318.754 93.7729 318.685 94.8083L318.588 96.2028" stroke="#31302F" stroke-width="1.65677" stroke-miterlimit="10" stroke-linecap="round" stroke-linejoin="round"/>
<path d="M323.046 112.908L322.48 101.877L314.956 91.8675C314.956 91.8675 312.305 93.0686 313.23 96.5755" stroke="#31302F" stroke-width="1.65677" stroke-miterlimit="10" stroke-linecap="round" stroke-linejoin="round"/>
<path d="M319.222 113.999L318.905 104.183L312.733 95.8022C312.388 95.3328 311.656 95.4018 311.422 95.9403C310.745 97.4175 310.773 99.1295 311.491 100.593L313.437 104.569L312.871 113.405L304.242 120.198C300.846 122.877 298.761 126.881 298.526 131.188L305.913 155.018C309.861 157.572 315.136 156.509 317.773 152.63L322.398 145.823L317.179 128.165L335.058 105.95L329.784 96.2716C329.37 95.4984 328.293 95.4018 327.741 96.0921C326.843 97.2243 326.567 98.7153 327.009 100.096L328.417 104.5L326.388 107.648" stroke="#31302F" stroke-width="1.65677" stroke-miterlimit="10" stroke-linecap="round" stroke-linejoin="round"/>
<path d="M323.182 141.971L349.676 161.052" stroke="#31302F" stroke-width="1.65677" stroke-miterlimit="10" stroke-linecap="round" stroke-linejoin="round"/>
<path d="M301.936 163.633L321.527 184.895" stroke="#31302F" stroke-width="1.65677" stroke-miterlimit="10" stroke-linecap="round" stroke-linejoin="round"/>
<path d="M303.26 90.8731C303.26 91.9224 302.404 92.7784 301.355 92.7784C300.305 92.7784 299.449 91.9224 299.449 90.8731C299.449 89.8238 300.305 88.9678 301.355 88.9678C302.404 88.9678 303.26 89.8238 303.26 90.8731Z" fill="#31302F"/>
<path d="M280.977 91.6602C282.029 91.6602 282.882 90.8071 282.882 89.7549C282.882 88.7026 282.029 87.8496 280.977 87.8496C279.924 87.8496 279.071 88.7026 279.071 89.7549C279.071 90.8071 279.924 91.6602 280.977 91.6602Z" fill="#31302F"/>
<path d="M297.571 92.1158C298.4 89.9205 300.595 88.3466 303.163 88.3466C305.841 88.3466 308.092 90.0448 308.837 92.3781" stroke="#31302F" stroke-width="1.65677" stroke-miterlimit="10" stroke-linecap="round" stroke-linejoin="round"/>
<path d="M277.608 91.1079C278.299 88.6089 280.149 86.8279 282.303 86.8279C284.553 86.8279 286.458 88.7608 287.08 91.4117" stroke="#31302F" stroke-width="1.65677" stroke-miterlimit="10" stroke-linecap="round" stroke-linejoin="round"/>
<path d="M288.005 99.0192C288.005 99.0192 294.011 100.11 295.378 99.1572" stroke="#31302F" stroke-width="1.65677" stroke-miterlimit="10" stroke-linecap="round" stroke-linejoin="round"/>
<path d="M281.929 97.9007C286.832 97.9007 290.807 93.9446 290.807 89.0645C290.807 84.1845 286.832 80.2284 281.929 80.2284C277.026 80.2284 273.052 84.1845 273.052 89.0645C273.052 93.9446 277.026 97.9007 281.929 97.9007Z" stroke="#007DAB" stroke-width="1.65677" stroke-miterlimit="10"/>
<path d="M302.694 97.9007C307.597 97.9007 311.571 93.9446 311.571 89.0646C311.571 84.1845 307.597 80.2284 302.694 80.2284C297.791 80.2284 293.816 84.1845 293.816 89.0646C293.816 93.9446 297.791 97.9007 302.694 97.9007Z" stroke="#007DAB" stroke-width="1.65677" stroke-miterlimit="10"/>
<path d="M324.785 87.3941L311.559 89.0647" stroke="#007DAB" stroke-width="1.65677" stroke-miterlimit="10" stroke-linecap="round"/>
<path d="M290.807 89.0648H293.816" stroke="#007DAB" stroke-width="1.65677" stroke-miterlimit="10"/>
<path d="M284.291 77.5501C284.291 77.5501 280.743 77.0117 277.595 78.9032" stroke="#31302F" stroke-width="1.65677" stroke-miterlimit="10" stroke-linecap="round" stroke-linejoin="round"/>
<path d="M299.312 74.8303C303.095 74.7889 308.618 76.2109 312.594 82.2305" stroke="#31302F" stroke-width="1.65677" stroke-miterlimit="10" stroke-linecap="round" stroke-linejoin="round"/>
</g>
<path d="M147.908 123.211C140.376 110.895 124.013 102.651 107.109 102.613L43.9878 102.496C43.8892 102.5 43.7906 102.503 43.7204 102.488C30.9825 102.538 19.487 110.124 14.1718 121.635L11.6189 127.131L12.9797 154.028C13.3592 160.229 17.0499 182.471 21.1397 182.806C50.7285 185.225 92.0791 187.823 92.0791 187.823L163.019 192.84L147.908 123.211Z" fill="#31302F"/>
<path d="M71.4499 44.009C76.9003 43.2479 79.4869 45.7869 80.6884 48.0523C80.867 48.3599 80.9937 48.6809 81.1389 49.0303C82.6547 38.3425 86.7281 31.2398 93.2585 27.8474C98.9328 24.9072 106.607 24.8448 115.417 27.6944C122.032 29.8271 127.028 32.8843 127.098 32.8994C127.252 32.9814 127.338 33.147 127.373 33.3258C127.533 34.6328 130.889 65.6797 125.2 79.3857C119.51 93.0918 117.72 97.4305 117.72 97.4305C117.661 97.5892 117.538 97.7094 117.382 97.7494C117.279 97.7761 110.833 99.865 101.498 96.9514L98.8627 109.43C98.8275 109.594 98.7221 109.742 98.5566 109.829C98.3626 109.934 95.3483 111.317 87.7181 108.672C82.3199 106.801 74.6087 102.94 63.9358 95.2104C63.7454 95.0715 63.6554 94.8074 63.7291 94.5785L71.796 67.0903C67.9714 66.0962 64.7458 61.9758 64.0949 56.696C63.2727 50.2779 66.531 44.6887 71.4499 44.009Z" fill="white"/>
<path d="M76.8145 60.4849L65.1031 55.7628L62.9143 40.3376C61.8374 32.7144 65.0822 25.1397 71.3561 20.6642C78.3506 15.6828 86.6442 10.1243 88.2598 10.6921C90.1043 11.3336 112.667 15.6732 126.338 19.5929C134.035 21.8117 138.463 29.7885 136.254 37.4392L128.723 52.5359L127.008 32.6355C127.008 32.6355 110.483 41.4163 90.7807 32.9929L76.8145 60.4849Z" fill="#31302F"/>
<path d="M68.5177 19.4798C62.0276 26.443 60.5788 37.4971 63.7566 46.1796C68.6725 30.0963 85.5009 16.616 94.8887 12.2315C83.7734 8.71059 75.0078 12.5166 68.5177 19.4798Z" fill="#A6F6DE"/>
<path d="M74.1059 66.6817C69.3798 67.207 64.8579 62.6364 64.0102 56.5065C63.1625 50.3767 66.3348 44.9892 71.0609 44.4639C75.7869 43.9386 80.3088 48.5092 81.1566 54.639" fill="white"/>
<path d="M74.1059 66.6817C69.3798 67.207 64.8579 62.6364 64.0102 56.5065C63.1625 50.3767 66.3348 44.9892 71.0609 44.4639C75.7869 43.9386 80.3088 48.5092 81.1566 54.639" stroke="#31302F" stroke-width="1.65677" stroke-miterlimit="10" stroke-linecap="round" stroke-linejoin="round"/>
<path d="M107.962 51.8878C107.433 53.4382 106.306 54.4685 105.489 54.1703C104.667 53.8956 104.426 52.3997 104.955 50.8492C105.484 49.2988 106.611 48.2685 107.428 48.5667C108.274 48.8464 108.52 50.3189 107.962 51.8878Z" fill="#31302F"/>
<path d="M126.036 55.7023C125.507 57.2527 124.379 58.283 123.562 57.9849C122.74 57.7101 122.499 56.2142 123.029 54.6638C123.558 53.1133 124.685 52.0831 125.507 52.3578C126.347 52.6609 126.589 54.1568 126.036 55.7023Z" fill="#31302F"/>
<path d="M127.1 33.4386C127.1 33.4386 130.781 65.51 125.06 79.2338C119.345 92.9342 117.541 97.2945 117.541 97.2945C117.541 97.2945 101.039 102.874 82.2258 83.7991" stroke="#31302F" stroke-width="1.65677" stroke-miterlimit="10" stroke-linecap="round" stroke-linejoin="round"/>
<path d="M72.4036 67.0005L63.4997 94.6024" stroke="#31302F" stroke-width="1.65677" stroke-miterlimit="10" stroke-linecap="round" stroke-linejoin="round"/>
<path d="M101.018 96.4566L98.2967 109.333" stroke="#31302F" stroke-width="1.65677" stroke-miterlimit="10" stroke-linecap="round" stroke-linejoin="round"/>
<path d="M119.797 47.7273C119.797 47.7273 121.177 65.891 121.765 67.7064C122.354 69.5217 114.35 71.5693 114.35 71.5693" stroke="#31302F" stroke-width="1.65677" stroke-miterlimit="10" stroke-linecap="round" stroke-linejoin="round"/>
<path d="M55.9418 118.382L91.4134 130.638C93.5803 131.374 95.9293 130.239 96.683 128.101L103.296 108.964C104.05 106.825 102.892 104.471 100.73 103.713L65.2533 91.4799C63.0863 90.7445 60.7373 91.8791 59.9836 94.0176L53.3522 113.126C52.6169 115.293 53.7798 117.623 55.9418 118.382Z" fill="#31302F"/>
<path d="M78.4428 96.8379L93.0874 88.6071C94.7008 87.7059 96.7576 88.2708 97.6872 89.8658L97.8157 90.0648C98.9606 92.0244 99.0623 94.3959 98.0848 96.4373L96.2886 100.236" fill="white"/>
<path d="M78.4428 96.8379L93.0874 88.6071C94.7008 87.7059 96.7576 88.2708 97.6872 89.8658L97.8157 90.0648C98.9606 92.0244 99.0623 94.3959 98.0848 96.4373L96.2886 100.236" stroke="#31302F" stroke-width="1.65677" stroke-miterlimit="10" stroke-linecap="round" stroke-linejoin="round"/>
<path d="M49.3181 167.377L78.4193 96.8332L111.449 94.9558L119.315 94.5676C122.307 94.4279 124.317 97.6014 122.847 100.222C122.283 101.251 121.25 101.959 120.06 102.144L111.721 103.36L112.285 121.104C112.347 123.32 111.71 125.484 110.441 127.291L107.536 131.463C105.834 133.912 103.141 135.511 100.161 135.824L90.9902 136.813L91.7324 170.455" fill="white"/>
<path d="M49.3181 167.377L78.4193 96.8332L111.449 94.9558L119.315 94.5676C122.307 94.4279 124.317 97.6014 122.847 100.222C122.283 101.251 121.25 101.959 120.06 102.144L111.721 103.36L112.285 121.104C112.347 123.32 111.71 125.484 110.441 127.291L107.536 131.463C105.834 133.912 103.141 135.511 100.161 135.824L90.9902 136.813L91.7324 170.455" stroke="#31302F" stroke-width="1.65677" stroke-miterlimit="10" stroke-linecap="round" stroke-linejoin="round"/>
<path d="M102.22 128.19C102.22 128.19 93.2998 129.38 94.5946 136.218" stroke="#31302F" stroke-width="1.65677" stroke-miterlimit="10" stroke-linecap="round" stroke-linejoin="round"/>
<path d="M102.478 117.207C102.478 117.207 110.743 115.877 111.835 118.878" stroke="#31302F" stroke-width="1.65677" stroke-miterlimit="10" stroke-linecap="round" stroke-linejoin="round"/>
<path d="M102.96 110.067C102.96 110.067 111.226 108.736 112.318 111.737" stroke="#31302F" stroke-width="1.65677" stroke-miterlimit="10" stroke-linecap="round" stroke-linejoin="round"/>
<path d="M102.294 102.923C102.294 102.923 110.56 101.593 111.652 104.594" stroke="#31302F" stroke-width="1.65677" stroke-miterlimit="10" stroke-linecap="round" stroke-linejoin="round"/>
<path d="M103.862 75.672C104.438 77.7026 106.693 81.3823 111.111 79.8569" stroke="#31302F" stroke-width="1.65677" stroke-linecap="round"/>
<path d="M106.418 195.894L86.364 194.783C70.8649 193.934 59.6693 179.552 62.6467 164.309C64.8278 153.148 74.1225 144.786 85.4342 143.753L199.316 133.348L308.844 154.85C321.448 157.318 330.093 168.952 328.848 181.735C327.512 195.352 315.434 205.348 301.803 204.124L246.229 199.078L153.119 198.975L106.418 195.894Z" fill="#A6F6DE"/>
<path d="M62.6467 164.31C59.6693 179.552 70.865 193.934 86.364 194.783L107.295 197.368L152.064 198.907C150.324 195.352 148.433 191.806 146.39 188.268C135.085 168.686 110.122 160.924 95.5974 150.028L85.4455 143.772C74.1225 144.786 64.8391 153.168 62.6467 164.31Z" fill="#A6F6DE"/>
<path d="M119.648 162.981C119.648 162.981 138.896 172.714 148.222 176.997C157.516 181.272 169.526 191.197 169.526 191.197C182.798 200.419 188.113 214.002 188.339 214.575C189.14 216.639 188.095 218.936 186.03 219.738C183.966 220.539 181.649 219.505 180.848 217.44C180.825 217.401 180.205 215.831 178.902 213.483C180.039 218.793 179.661 222.607 179.638 222.882C179.395 225.08 177.438 226.653 175.239 226.411C173.682 226.242 172.438 225.214 171.911 223.851C171.696 223.298 171.598 222.677 171.659 222.016C171.668 221.985 171.747 220.949 171.636 219.267C171.408 220.858 171.144 221.845 171.11 221.968C170.51 224.087 168.298 225.311 166.191 224.73C164.916 224.372 163.96 223.438 163.518 222.312C163.229 221.541 163.167 220.665 163.39 219.833C163.406 219.771 165.178 212.911 162.323 204.58C164.018 211.262 162.668 216.237 162.594 216.514C161.993 218.633 159.801 219.846 157.694 219.265C156.419 218.907 155.463 217.973 155.01 216.828C154.721 216.057 154.65 215.212 154.862 214.36C154.912 214.175 155.775 210.706 154.407 205.945C148.777 206.799 144.467 200.688 144.467 200.688C144.467 200.688 107.32 197.276 106.416 195.845C105.511 194.413 100.898 189.493 103.833 177.923C106.884 165.921 119.648 162.981 119.648 162.981Z" fill="white" stroke="#31302F" stroke-width="1.65677" stroke-miterlimit="10" stroke-linecap="round" stroke-linejoin="round"/>
<path d="M174.718 200.551C174.718 200.551 178.423 207.87 178.893 213.514L174.718 200.551Z" fill="white"/>
<path d="M174.718 200.551C174.718 200.551 178.423 207.87 178.893 213.514" stroke="#31302F" stroke-width="1.65677" stroke-miterlimit="10" stroke-linecap="round" stroke-linejoin="round"/>
<path d="M169.937 202.92C169.937 202.92 173.035 211.581 171.639 219.318L169.937 202.92Z" fill="white"/>
<path d="M169.937 202.92C169.937 202.92 173.035 211.581 171.639 219.318" stroke="#31302F" stroke-width="1.65677" stroke-miterlimit="10" stroke-linecap="round" stroke-linejoin="round"/>
<path d="M281.585 167.254C281.585 167.254 261.303 174.638 251.562 177.761C241.802 180.894 228.721 189.333 228.721 189.333C214.454 196.892 207.553 209.762 207.262 210.295C206.226 212.247 206.968 214.66 208.92 215.695C210.873 216.73 213.285 215.989 214.321 214.036C214.349 213.994 215.159 212.51 216.728 210.353C214.954 215.495 214.871 219.321 214.866 219.584C214.837 221.79 216.603 223.585 218.808 223.614C220.367 223.652 221.729 222.761 222.421 221.476C222.712 220.943 222.858 220.338 222.88 219.7C222.888 219.669 222.917 218.636 223.243 216.989C223.278 218.584 223.42 219.597 223.449 219.736C223.791 221.91 225.822 223.395 228.006 223.072C229.298 222.873 230.372 222.071 230.944 220.985C231.336 220.264 231.486 219.396 231.373 218.523C231.358 218.453 230.412 211.443 234.253 203.518C231.768 209.956 232.519 215.047 232.556 215.338C232.899 217.511 234.918 218.977 237.103 218.654C238.426 218.463 239.469 217.653 240.06 216.556C240.452 215.834 240.613 214.986 240.481 214.124C240.449 213.934 240.013 210.381 241.944 205.827C247.434 207.348 252.439 201.8 252.439 201.8C252.439 201.8 289.738 202.857 290.801 201.54C291.864 200.222 297.023 195.889 295.515 184.07C293.923 171.7 281.585 167.254 281.585 167.254Z" fill="white" stroke="#31302F" stroke-width="1.65677" stroke-miterlimit="10" stroke-linecap="round" stroke-linejoin="round"/>
<path d="M222.426 197.97C222.426 197.97 217.871 204.795 216.748 210.342L222.426 197.97Z" fill="white"/>
<path d="M222.426 197.97C222.426 197.97 217.871 204.795 216.748 210.342" stroke="#31302F" stroke-width="1.65677" stroke-miterlimit="10" stroke-linecap="round" stroke-linejoin="round"/>
<path d="M226.896 200.887C226.896 200.887 222.79 209.12 223.231 216.969L226.896 200.887Z" fill="white"/>
<path d="M226.896 200.887C226.896 200.887 222.79 209.12 223.231 216.969" stroke="#31302F" stroke-width="1.65677" stroke-miterlimit="10" stroke-linecap="round" stroke-linejoin="round"/>
<path d="M295.977 161.81L281.584 167.254" stroke="#31302F" stroke-width="1.65677" stroke-miterlimit="10" stroke-linecap="round" stroke-linejoin="round"/>
<path d="M186.357 164.204C177.908 161.89 172.926 153.171 175.22 144.733L181.086 123.211L211.694 131.544L205.828 153.067C203.514 161.516 194.795 166.498 186.357 164.204Z" fill="white" stroke="#31302F" stroke-width="1.65677" stroke-miterlimit="10" stroke-linecap="round" stroke-linejoin="round"/>
<path d="M191.446 148.289L179.439 145.319C165.636 141.901 157.129 127.843 160.536 114.021L161.715 109.249C165.985 91.9572 183.605 81.3153 200.897 85.5852L201.04 90.6619C211.867 93.3484 218.555 104.391 215.869 115.219L210.557 136.708C208.487 145.173 199.872 150.381 191.446 148.289Z" fill="#31302F"/>
<path d="M199.107 104.388C204.889 100.896 206.745 93.3775 203.253 87.5954C199.761 81.8132 192.243 79.9567 186.461 83.4487C180.679 86.9408 178.822 94.459 182.314 100.241C185.806 106.023 193.324 107.88 199.107 104.388Z" fill="#31302F"/>
<path d="M196.468 88.4291C183.233 86.8982 170.596 95.1583 166.85 108.213C169.264 110.858 172.528 112.856 176.325 113.791C186.196 116.221 196.08 110.593 198.397 101.204C199.503 96.709 198.696 92.1978 196.468 88.4291Z" fill="#31302F"/>
<path d="M174.376 97.8231C164.867 107.169 163.384 122.201 171.217 133.287C174.782 133.052 178.376 131.785 181.489 129.415C189.581 123.257 191.373 112.008 185.523 104.312C182.735 100.658 178.7 98.4532 174.376 97.8231Z" fill="#31302F"/>
<path d="M211.683 100.881C210.074 107.438 203.45 111.445 196.882 109.817C190.325 108.209 186.318 101.585 187.946 95.0166C189.574 88.4485 196.179 84.4529 202.747 86.0807C209.315 87.7085 213.322 94.3326 211.683 100.881Z" fill="#31302F"/>
<path d="M225.391 104.901C223.733 111.643 216.913 115.763 210.172 114.105C203.43 112.447 199.31 105.628 200.968 98.8858C202.626 92.144 209.445 88.0243 216.187 89.6821C222.929 91.3399 227.049 98.1595 225.391 104.901Z" fill="#31302F"/>
<path d="M208.268 104.674C214.21 101.085 216.118 93.3587 212.529 87.4165C208.94 81.4743 201.214 79.5664 195.272 83.1551C189.33 86.7438 187.422 94.4701 191.011 100.412C194.599 106.355 202.326 108.262 208.268 104.674Z" fill="#31302F"/>
<path d="M167.413 93.8431C167.413 93.8431 172.002 93.4868 174.077 96.9008" stroke="#31302F" stroke-width="1.65677" stroke-miterlimit="10" stroke-linecap="round" stroke-linejoin="round"/>
<path d="M169.837 90.7757C169.837 90.7757 170.635 95.3177 174.456 96.4735" stroke="#31302F" stroke-width="1.65677" stroke-miterlimit="10" stroke-linecap="round" stroke-linejoin="round"/>
<path d="M223.659 119.503C222.191 101.615 208.754 88.1362 193.634 89.3875C180.878 90.4464 171.008 101.695 169.155 115.95C168.846 115.867 168.549 115.804 168.233 115.752C163.519 115.035 158.858 118.064 157.608 122.669C156.201 127.859 159.328 133.14 164.52 134.416C166.799 134.977 169.084 134.648 171.028 133.682C175.619 146.509 186.733 155.153 198.977 154.155C214.098 152.904 225.127 137.39 223.659 119.503Z" fill="white" stroke="#31302F" stroke-width="1.65677" stroke-miterlimit="10" stroke-linecap="round" stroke-linejoin="round"/>
<path d="M176.867 105.66L178.359 124.446C178.415 125.039 178.177 125.62 177.725 126.011C176.861 126.77 175.513 126.558 174.907 125.553L169.081 115.914L176.867 105.66Z" fill="#31302F"/>
<path d="M170.474 125.819C170.474 125.819 170.589 122.001 167.776 120.107" stroke="#31302F" stroke-width="1.65677" stroke-miterlimit="10" stroke-linecap="round" stroke-linejoin="round"/>
<path d="M173.658 91.2541C167.922 95.5817 163.564 101.798 161.719 109.299L160.842 112.88C161.957 113.592 163.213 114.143 164.558 114.487C171.3 116.145 178.119 112.025 179.777 105.283C181.165 99.6093 178.509 93.9251 173.658 91.2541Z" fill="#31302F"/>
<path d="M199.412 127.874C199.412 127.874 202.999 147.039 209.585 130.781" stroke="#31302F" stroke-width="1.65677" stroke-miterlimit="10" stroke-linecap="round" stroke-linejoin="round"/>
<path d="M192.85 99.418C192.85 99.418 188.927 99.0772 186.829 101.852" stroke="#31302F" stroke-width="1.65677" stroke-miterlimit="10" stroke-linecap="round" stroke-linejoin="round"/>
<path d="M218.028 101.66C218.028 101.66 214.827 99.3651 211.6 100.681" stroke="#31302F" stroke-width="1.65677" stroke-miterlimit="10" stroke-linecap="round" stroke-linejoin="round"/>
<path d="M204.328 112.235L207.586 117.674C208.194 118.682 208.166 119.87 207.655 120.822" stroke="#31302F" stroke-width="1.65677" stroke-miterlimit="10" stroke-linecap="round" stroke-linejoin="round"/>
<path d="M220.57 115.965C220.529 117.474 219.266 118.672 217.769 118.65C216.26 118.61 215.062 117.347 215.083 115.849C215.124 114.34 216.387 113.142 217.884 113.164C219.413 113.193 220.611 114.456 220.57 115.965Z" fill="#31302F"/>
<path d="M194.71 113.682C194.669 115.191 193.406 116.389 191.908 116.368C190.4 116.327 189.202 115.064 189.223 113.567C189.264 112.058 190.526 110.86 192.024 110.881C193.552 110.911 194.739 112.154 194.71 113.682Z" fill="#31302F"/>
<path d="M198.967 127.193C198.967 127.193 207.545 128.963 209.538 127.63" stroke="#31302F" stroke-width="1.65677" stroke-miterlimit="10" stroke-linecap="round" stroke-linejoin="round"/>
<defs>
<clipPath id="clip0_1794_35098">
<rect width="197.75" height="155.488" fill="white" transform="translate(178.023 46.334)"/>
</clipPath>
</defs>
</svg>
