<svg width="329" height="175" viewBox="0 0 329 175" fill="none" xmlns="http://www.w3.org/2000/svg">
<path d="M62.45 140.494C63.425 130.519 72.575 123.469 82.475 124.894L165.575 137.269L156.425 159.544H60.5L62.45 140.494Z" fill="#31302F"/>
<path d="M101.75 144.769C108.875 144.694 114.575 138.919 114.5 131.794L114.35 118.069L88.625 118.294L88.775 132.019C88.85 139.144 94.7 144.844 101.75 144.769Z" fill="#FDF8F6" stroke="#31302F" stroke-width="1.5" stroke-miterlimit="10" stroke-linecap="round" stroke-linejoin="round"/>
<path d="M88.8531 136.219L88.7031 118.294L105.053 118.144L110.303 124.219C106.253 131.119 98.7531 135.544 88.8531 136.219Z" fill="#31302F"/>
<path d="M92.0033 120.768C77.9033 117.018 69.5783 102.543 73.3283 88.5183L73.7033 87.1683C77.4533 73.0683 91.9283 64.7433 105.953 68.4933C120.053 72.2433 128.378 86.7183 124.628 100.743L124.253 102.093C120.503 116.118 106.103 124.518 92.0033 120.768Z" fill="#31302F"/>
<path d="M103.027 120.169C88.9267 116.419 80.6017 101.944 84.3517 87.9187L84.7267 86.5687C88.4767 72.4687 102.952 64.1437 116.977 67.8937C131.077 71.6437 139.402 86.1187 135.652 100.144L135.277 101.494C131.527 115.594 117.127 123.919 103.027 120.169Z" fill="#31302F"/>
<path d="M100.324 114.694C88.6241 111.544 81.5741 99.5438 84.7241 87.7688L85.8491 83.4188C88.9991 71.7188 100.999 64.6688 112.774 67.8188C124.474 70.9688 131.524 82.9688 128.374 94.7438L127.249 99.0938C124.099 110.869 112.024 117.844 100.324 114.694Z" fill="#31302F"/>
<path d="M79.3989 104.344L74.5989 102.994C71.6739 102.169 70.0239 99.0939 70.8489 96.2439C71.6739 93.3189 74.7489 91.6689 77.5989 92.4939L82.3989 93.8439C85.3239 94.6689 86.9739 97.7439 86.1489 100.594C85.3239 103.519 82.3239 105.169 79.3989 104.344Z" fill="#FDF8F6" stroke="#31302F" stroke-width="1.5" stroke-miterlimit="10" stroke-linecap="round" stroke-linejoin="round"/>
<path d="M107.9 77.4188L109.1 77.7188C117.125 79.8938 122.975 86.1188 124.925 93.6188L126.425 93.5438C129.425 93.4688 131.975 95.8688 132.05 98.8688C132.125 101.869 129.725 104.419 126.725 104.494L124.925 104.569C124.925 104.644 124.85 104.719 124.85 104.869L122.675 113.119C119.525 124.969 107.375 132.019 95.525 128.869L94.325 128.569C82.475 125.419 75.425 113.269 78.575 101.419L80.75 93.1688C83.825 81.3188 96.05 74.2688 107.9 77.4188Z" fill="#FDF8F6" stroke="#31302F" stroke-width="1.5" stroke-miterlimit="10" stroke-linecap="round" stroke-linejoin="round"/>
<path d="M79.625 92.7936C84.125 91.2936 89.3 83.0436 92.15 72.3936C87.65 73.8936 82.475 82.1436 79.625 92.7936Z" fill="#31302F"/>
<path d="M128.6 96.9185C128.6 96.9185 125.675 97.7435 125.375 100.893" stroke="#31302F" stroke-width="1.5" stroke-miterlimit="10" stroke-linecap="round" stroke-linejoin="round"/>
<path d="M75.9531 95.2686C75.9531 95.2686 78.5781 96.8436 78.1281 99.9186" stroke="#31302F" stroke-width="1.5" stroke-miterlimit="10" stroke-linecap="round" stroke-linejoin="round"/>
<path d="M91.1005 94.1433C91.1755 95.0433 89.2255 96.0183 86.7505 96.2433C84.2005 96.5433 82.1005 96.0183 82.0255 95.1183C81.9505 94.2183 83.9005 93.2433 86.3755 93.0183C88.9255 92.7183 91.0255 93.2433 91.1005 94.1433Z" fill="#31302F"/>
<path d="M108.68 97.6937C108.975 96.8314 107.275 95.4703 104.884 94.6537C102.493 93.8371 100.316 93.8741 100.022 94.7365C99.727 95.5988 101.427 96.9599 103.818 97.7765C106.209 98.5931 108.386 98.5561 108.68 97.6937Z" fill="#31302F"/>
<path d="M95.0022 100.894L92.3022 106.219C91.4772 107.794 92.2272 109.744 93.8772 110.344" stroke="#31302F" stroke-width="1.5" stroke-miterlimit="10" stroke-linecap="round" stroke-linejoin="round"/>
<path d="M107 114.844C107 114.844 103.775 120.919 99.5 117.769" stroke="#31302F" stroke-width="1.5" stroke-miterlimit="10" stroke-linecap="round" stroke-linejoin="round"/>
<path d="M116.827 74.944C120.802 77.569 124.027 80.494 126.277 83.269C125.977 84.019 125.602 84.769 125.152 85.444C122.977 88.819 119.302 90.769 115.177 91.294C113.002 90.319 110.752 89.044 108.502 87.544C99.4266 81.544 93.8766 73.819 96.2016 70.294C98.4516 66.919 107.677 68.944 116.827 74.944Z" fill="#31302F"/>
<path d="M82.7023 78.3936C79.0273 81.3936 77.2273 85.2186 77.1523 88.8186C77.9023 89.1936 78.6523 89.5686 79.4023 89.8686C83.2273 91.1436 87.2773 90.4686 90.8773 88.2936C90.5023 85.5186 93.2773 81.0186 97.7023 78.2436C107.002 72.3936 93.7273 69.4686 82.7023 78.3936Z" fill="#31302F"/>
<path d="M101.9 104.194C101.6 105.694 100.55 106.744 99.5747 106.519C98.5997 106.294 98.0747 104.944 98.4497 103.369" stroke="#31302F" stroke-width="1.5" stroke-miterlimit="10" stroke-linecap="round" stroke-linejoin="round"/>
<path d="M87.0521 103.819C86.7521 105.319 85.7021 106.369 84.7271 106.144C83.7521 105.919 83.2271 104.569 83.6021 102.994" stroke="#31302F" stroke-width="1.5" stroke-miterlimit="10" stroke-linecap="round" stroke-linejoin="round"/>
<path d="M100.477 69.6938C101.152 66.1688 105.802 65.3438 105.802 65.3438" stroke="#31302F" stroke-width="1.5" stroke-miterlimit="10" stroke-linecap="round" stroke-linejoin="round"/>
<path d="M99.125 65.1938C99.125 65.1938 100.85 65.7188 100.7 67.8938" stroke="#31302F" stroke-width="1.5" stroke-miterlimit="10" stroke-linecap="round" stroke-linejoin="round"/>
<path d="M97.7773 77.7188C99.4273 82.4438 102.877 86.8687 109.177 90.0938" stroke="#31302F" stroke-width="1.5" stroke-miterlimit="10" stroke-linecap="round" stroke-linejoin="round"/>
<path d="M126.351 87.9937L123.126 102.469H120.651L119.301 84.4688L126.351 87.9937Z" fill="#31302F"/>
<path d="M128.451 114.919L133.026 113.944C139.776 112.669 146.751 113.569 152.976 116.419L203.076 139.594C211.026 143.269 214.851 152.419 211.926 160.669C208.776 169.519 198.951 174.094 190.101 170.869L119.226 144.619C115.626 143.269 112.851 140.344 111.726 136.744C110.301 132.244 111.501 127.369 114.876 124.069L121.326 117.694L119.151 110.194C118.776 108.769 118.851 107.269 119.451 105.994C119.901 105.094 121.176 105.094 121.626 105.994L126.426 116.344L125.676 125.794L192.201 145.669" stroke="#31302F" stroke-width="1.5" stroke-miterlimit="10" stroke-linecap="round" stroke-linejoin="round"/>
<path d="M114.127 123.469L120.277 117.469L118.252 110.494C117.802 108.919 117.952 107.194 118.627 105.694C119.002 104.944 119.677 104.494 120.502 104.494C121.327 104.494 122.002 104.944 122.377 105.694L126.502 114.544L132.952 113.119C139.927 111.844 146.977 112.744 153.427 115.669L203.527 138.844C211.927 142.744 215.902 152.269 212.827 160.969C211.177 165.469 207.952 169.069 203.602 171.094C201.202 172.219 198.652 172.744 196.102 172.744C194.002 172.744 191.902 172.369 189.952 171.619L119.077 145.369C115.177 143.944 112.252 140.869 111.052 136.969C109.252 132.244 110.527 127.069 114.127 123.469Z" fill="#FDF8F6"/>
<path d="M121.777 109.369C121.777 108.094 122.902 105.544 123.877 104.719C124.402 104.269 125.227 104.569 125.377 105.169L128.152 113.719L125.902 121.519L124.702 124.294L121.777 109.369Z" fill="#FDF8F6"/>
<path d="M122.375 107.944C122.375 106.669 122.975 105.544 123.95 104.719C124.475 104.269 125.3 104.569 125.45 105.169L128.225 113.719L125.975 121.519" stroke="#31302F" stroke-width="1.5" stroke-miterlimit="10" stroke-linecap="round" stroke-linejoin="round"/>
<path d="M128.451 114.919L133.026 113.944C139.776 112.669 146.751 113.569 152.976 116.419L203.076 139.594C211.026 143.269 214.851 152.419 211.926 160.669C208.776 169.519 198.951 174.094 190.101 170.869L119.226 144.619C115.626 143.269 112.851 140.344 111.726 136.744C110.301 132.244 111.501 127.369 114.876 124.069L121.326 117.694L119.151 110.194C118.776 108.769 118.851 107.269 119.451 105.994C119.901 105.094 121.176 105.094 121.626 105.994L126.426 116.344L125.676 125.794L192.201 145.669" stroke="#31302F" stroke-width="1.5" stroke-miterlimit="10" stroke-linecap="round" stroke-linejoin="round"/>
<path d="M157.402 135.169L164.152 121.894" stroke="#31302F" stroke-width="1.5" stroke-miterlimit="10" stroke-linecap="round" stroke-linejoin="round"/>
<path d="M104.3 166.519L103.025 156.319C102.8 154.144 100.85 152.569 98.6753 152.794C96.5003 153.019 94.9253 154.969 95.1503 157.144L96.4253 167.344C96.6503 169.519 98.6003 171.094 100.775 170.869C103.025 170.644 104.6 168.694 104.3 166.519Z" fill="#FDF8F6" stroke="#31302F" stroke-width="1.5" stroke-miterlimit="10" stroke-linecap="round" stroke-linejoin="round"/>
<path d="M97.8494 170.494L96.0494 153.994C95.8994 152.494 94.5494 151.444 93.0494 151.594L90.5744 151.894C89.0744 152.044 88.0244 153.394 88.1744 154.894L89.9744 171.394C90.1244 172.894 91.4744 173.944 92.9744 173.794L95.4494 173.494C96.9494 173.269 97.9994 171.994 97.8494 170.494Z" fill="#FDF8F6" stroke="#31302F" stroke-width="1.5" stroke-miterlimit="10" stroke-linecap="round" stroke-linejoin="round"/>
<path d="M90.8728 170.119L89.0728 153.619C88.9228 152.119 87.5728 151.069 86.0728 151.219L83.5978 151.519C82.0978 151.669 81.0478 153.019 81.1978 154.519L82.9978 171.019C83.1478 172.519 84.4978 173.569 85.9978 173.419L88.4728 173.119C89.9728 172.969 91.0228 171.619 90.8728 170.119Z" fill="#FDF8F6" stroke="#31302F" stroke-width="1.5" stroke-miterlimit="10" stroke-linecap="round" stroke-linejoin="round"/>
<path d="M83.45 168.244L81.95 154.219C81.725 152.044 79.775 150.469 77.6 150.694C75.425 150.919 66.95 157.144 67.25 159.319L74.675 159.769L75.65 169.144C75.875 171.319 77.825 172.894 80 172.669C82.1 172.369 83.675 170.419 83.45 168.244Z" fill="#FDF8F6" stroke="#31302F" stroke-width="1.5" stroke-miterlimit="10" stroke-linecap="round" stroke-linejoin="round"/>
<path d="M157.85 135.394L165.05 121.369L151.55 115.144C143.825 111.619 134.825 111.769 127.25 115.669L125.75 125.944L157.85 135.394Z" fill="#31302F"/>
<path d="M110.152 68.1185C120.277 66.5435 135.127 71.1935 137.977 90.6184" stroke="#31302F" stroke-width="1.5" stroke-miterlimit="10" stroke-linecap="round" stroke-linejoin="round"/>
<path d="M5.08676 65.187L1.71484 63.5483" stroke="#31302F" stroke-width="1.5" stroke-miterlimit="10" stroke-linecap="round" stroke-linejoin="round"/>
<path d="M3.43721 68.6878L1.41406 68.3154" stroke="#31302F" stroke-width="1.5" stroke-miterlimit="10" stroke-linecap="round" stroke-linejoin="round"/>
<path d="M6.95885 61.8359L5.53516 60.3462" stroke="#31302F" stroke-width="1.5" stroke-miterlimit="10" stroke-linecap="round" stroke-linejoin="round"/>
<path d="M37.0078 93.7891C40.3797 104.366 48.9968 106.228 54.4668 104.664C59.9368 103.174 59.5622 99.6732 58.1385 99.0774C54.242 97.3643 50.0459 103.397 54.0172 108.164C57.7638 112.708 62.7842 111.293 62.7842 111.293" stroke="#31302F" stroke-width="1.5" stroke-miterlimit="10"/>
<path d="M41.0492 87.2215C47.0109 79.0691 45.1953 67.6563 36.9939 61.7302C28.7925 55.8042 17.311 57.609 11.3493 65.7613C5.3876 73.9137 7.20323 85.3265 15.4046 91.2525C23.606 97.1786 35.0875 95.3738 41.0492 87.2215Z" stroke="#31302F" stroke-width="1.5" stroke-miterlimit="10" stroke-dasharray="1.32 1.32"/>
<path d="M17.4492 75.0941C17.4492 70.5506 21.1209 66.9009 25.6917 66.9009C30.2625 66.9009 33.9341 70.5506 33.9341 75.0941C33.9341 78.2968 32.0608 81.0527 29.3633 82.3934V84.181H22.02V82.3934C19.3225 81.1272 17.4492 78.3713 17.4492 75.0941Z" stroke="#31302F" stroke-width="1.5"/>
<path d="M30.2588 86.937H21.1172" stroke="#31302F" stroke-width="1.5"/>
<path d="M25.6914 83.2874V76.0625" stroke="#31302F" stroke-width="1.5"/>
<path d="M27.4873 76.0625H23.8906" stroke="#31302F" stroke-width="1.5"/>
<path d="M30.2622 75.0933C30.2622 72.5609 28.2391 70.5498 25.6914 70.5498" stroke="#31302F" stroke-width="1.5"/>
</svg>
