<svg width="92" height="77" viewBox="0 0 92 77" fill="none" xmlns="http://www.w3.org/2000/svg">
<path d="M62.763 7.67668C57.7314 6.85389 52.8579 8.72098 49.5352 12.2336C50.8959 12.0754 52.2883 12.1071 53.7124 12.3602C63.2693 13.9109 69.5984 23.8792 67.8579 34.6071C67.763 35.2083 67.6364 35.7779 67.5098 36.3476C71.4022 34.1324 74.282 30.1767 75.0731 25.3349C76.4339 16.9172 70.9276 9.00579 62.763 7.67668Z" fill="#31302F"/>
<path d="M48.5834 10.1456C52.5708 8.02538 66.653 3.15157 69.9442 17.2655C71.5897 24.2908 80.5771 24.4174 84.7859 25.1136C91.3049 26.1896 91.7163 38.4048 80.4821 46.9491C77.2543 49.3858 64.8809 57.3605 62.191 55.9997C59.5011 54.6073 30.0075 54.987 50.8303 37.8984C56.21 33.4997 46.4315 37.6769 42.2543 27.2339C41.5265 25.4617 43.1404 13.057 48.5834 10.1456Z" fill="#31302F"/>
<path d="M99.2205 49.1684C101.016 41.8172 96.5128 34.402 89.1615 32.6062C81.8103 30.8103 74.3951 35.3139 72.5993 42.6652C70.8035 50.0165 75.307 57.4316 82.6583 59.2274C90.0096 61.0233 97.4247 56.5197 99.2205 49.1684Z" fill="#31302F"/>
<path d="M87.6679 59.8606C82.8894 59.8606 78.2375 57.4556 75.5793 53.1201C71.4654 46.4746 73.5223 37.6771 80.1995 33.5632C86.8451 29.4492 95.6426 31.5062 99.7565 38.1834C103.87 44.829 101.813 53.6264 95.1362 57.7404C92.7945 59.1961 90.1995 59.8606 87.6679 59.8606ZM87.6362 32.4872C85.2628 32.4872 82.8894 33.1201 80.7059 34.4492C74.5033 38.2784 72.5729 46.4429 76.4021 52.6138C80.2312 58.8163 88.3957 60.7467 94.5666 56.9176C100.769 53.0885 102.7 44.9239 98.8704 38.753C96.3704 34.7024 92.035 32.4872 87.6362 32.4872Z" fill="#31302F"/>
<path d="M68.3655 61.7589C74.6748 61.7589 79.7895 56.6441 79.7895 50.3348C79.7895 44.0255 74.6748 38.9108 68.3655 38.9108C62.0561 38.9108 56.9414 44.0255 56.9414 50.3348C56.9414 56.6441 62.0561 61.7589 68.3655 61.7589Z" fill="#31302F"/>
<path d="M34.8585 3.89131L34.3281 4.23669L35.1225 5.45657L35.6529 5.11119L34.8585 3.89131Z" fill="#31302F"/>
<path d="M32.3976 0.12984L31.8672 0.47522L32.6616 1.69509L33.1919 1.34971L32.3976 0.12984Z" fill="#31302F"/>
<path d="M36.7115 2.32385L35.2578 2.40198L35.2918 3.034L36.7454 2.95587L36.7115 2.32385Z" fill="#31302F"/>
<path d="M32.2193 2.5454L30.7656 2.62354L30.7996 3.25556L32.2533 3.17743L32.2193 2.5454Z" fill="#31302F"/>
<path d="M32.7961 4.00388L32.1367 5.30164L32.701 5.58834L33.3604 4.29059L32.7961 4.00388Z" fill="#31302F"/>
<path d="M34.8275 9.85959e-05L34.168 1.29785L34.7322 1.58462L35.3918 0.286871L34.8275 9.85959e-05Z" fill="#31302F"/>
<path d="M34.3538 51.4364L66.1652 44.0638C73.9216 42.2921 81.0288 51.6078 81.8488 64.6384L82.6005 76.926H29.1602L34.3538 51.4364Z" fill="#F7D471"/>
<path d="M59.6142 44.0898C59.6142 44.0898 66.1264 48.6842 71.3997 48.2496C76.6731 47.846 86.4255 44.8659 80.358 30.7723C74.2905 16.6788 70.2244 17.1134 65.9676 14.5679C61.7108 12.0223 54.2456 4.88242 52.2443 8.42133C50.243 11.9602 51.8313 16.834 52.5302 18.7897C53.2291 20.7454 59.6142 44.0898 59.6142 44.0898Z" fill="#31302F"/>
<path d="M63.9603 48.5003C63.1059 44.418 63.8337 36.0952 63.8337 36.0952C63.8337 36.0952 68.3274 34.7977 70.1945 33.0572C72.0616 31.3167 72.8843 26.5383 70.0679 25.9053C67.6628 25.3674 65.5109 28.5636 65.2894 28.4686C62.5995 27.3927 65.321 19.4496 58.1375 17.6775C53.1691 16.4433 51.5236 12.8041 51.5236 12.8041C51.5236 12.8041 42.8843 29.418 42.7894 33.6585C42.5362 42.6775 53.7071 39.8294 53.7071 39.8294L50.5426 46.2534C50.1628 46.2534 50.3527 52.4876 53.3907 52.9939C57.5679 53.6902 64.0869 49.0699 63.9603 48.5003Z" fill="#FDF8F6"/>
<path d="M54.2769 53.3736C53.9604 53.3736 53.644 53.342 53.3275 53.3103C50.4478 52.8357 49.9731 47.9622 50.0997 46.6331C50.0997 46.4749 50.1313 46.1901 50.2896 46.0319L53.106 40.2724C51.4921 40.5888 47.2199 41.1268 44.5617 39.0065C43.0744 37.8357 42.3782 36.0319 42.4415 33.6268C42.568 29.3546 50.8592 13.3103 51.2073 12.6458C51.2706 12.5508 51.3972 12.4875 51.4921 12.4875C51.6187 12.4875 51.7136 12.5508 51.7769 12.6774C51.7769 12.7091 53.4225 16.1901 58.1693 17.3926C62.8528 18.5635 63.5174 22.266 64.0237 24.9875C64.3085 26.5065 64.4984 27.7091 65.2579 28.1205C65.3212 28.0572 65.4478 27.9306 65.5427 27.8357C66.3972 26.9812 68.1377 25.1458 70.1313 25.5888C71.0807 25.8103 71.7453 26.4749 72.0301 27.4876C72.5364 29.2597 71.7453 31.9812 70.3845 33.2787C68.7073 34.861 65.0364 36.0635 64.1187 36.3483C64.0237 37.6774 63.5174 44.8293 64.2769 48.4686C64.3402 48.6901 64.1503 48.9116 63.9604 49.1015C62.8212 50.304 57.9478 53.3736 54.2769 53.3736ZM50.7642 46.4749C50.6377 46.9179 50.7326 49.4812 51.682 51.1901C52.1566 52.0445 52.7579 52.5508 53.4541 52.6458C57.3782 53.3103 63.2326 49.1648 63.6756 48.4686C62.8212 44.3546 63.5174 36.38 63.5491 36.0319C63.5491 35.9053 63.644 35.7787 63.7706 35.747C63.8022 35.747 68.2009 34.4496 70.0047 32.7724C71.2073 31.6331 71.9035 29.1964 71.4921 27.6141C71.2706 26.7913 70.7959 26.3167 70.068 26.1584C68.4225 25.8103 66.8402 27.4243 66.0807 28.2154C65.6693 28.6584 65.5111 28.8167 65.2579 28.7217C64.087 28.247 63.8022 26.7597 63.5174 25.0508C63.0427 22.361 62.4415 19.0065 58.1377 17.9622C54.1187 16.9812 52.2199 14.5445 51.5237 13.4686C50.068 16.3167 43.2009 29.9559 43.106 33.6584C43.0427 35.842 43.6756 37.4875 45.0047 38.5319C48.0111 40.9369 53.5807 39.5445 53.644 39.5129C53.7706 39.4812 53.8972 39.5129 53.9604 39.6078C54.0237 39.7027 54.0554 39.8293 53.9921 39.9559L50.8275 46.38C50.7959 46.4116 50.7959 46.4432 50.7642 46.4749Z" fill="#31302F"/>
<path d="M64.8165 32.9303H64.7848C64.6266 32.8987 64.5 32.7404 64.5 32.5822C64.6899 31.0632 66.3354 29.7657 66.8101 29.4176C67.3165 29.0379 67.8228 28.6582 68.3291 28.4999C68.4873 28.4366 68.6772 28.5316 68.7405 28.6898C68.8038 28.848 68.7089 29.0379 68.5506 29.1012C68.1392 29.2594 67.6646 29.6075 67.1899 29.924C66.2722 30.5885 65.2595 31.6645 65.1329 32.6771C65.1013 32.8037 64.9747 32.9303 64.8165 32.9303Z" fill="#31302F"/>
<path d="M56.2393 27.4875C54.9102 27.4875 53.6128 26.8546 52.7583 25.7786C52.6634 25.6521 52.695 25.4305 52.8216 25.3356C52.9482 25.2407 53.1697 25.2723 53.2647 25.3989C54.1507 26.5698 55.7014 27.1077 57.0621 26.7596C57.2204 26.728 57.4102 26.8229 57.4419 26.9812C57.4735 27.1394 57.3786 27.3293 57.2204 27.3609C56.9039 27.4558 56.5874 27.4875 56.2393 27.4875Z" fill="#31302F"/>
<path d="M49.6251 23.215C48.5175 23.215 47.4732 22.5504 46.9352 21.5378C46.8403 21.3796 46.9036 21.1897 47.0618 21.1264C47.22 21.0315 47.4099 21.0947 47.4732 21.253C47.9162 22.1074 48.8023 22.6454 49.6884 22.5821C49.8466 22.5821 50.0049 22.7087 50.0049 22.8985C50.0049 23.0884 49.8783 23.215 49.6884 23.215C49.72 23.215 49.6568 23.215 49.6251 23.215Z" fill="#31302F"/>
<path d="M57.5052 22.456C57.4103 22.456 57.347 22.4244 57.2837 22.3611C56.7774 21.8864 56.1761 21.5383 55.5432 21.4117C55.385 21.3801 55.2584 21.1902 55.29 21.032C55.3217 20.8737 55.5116 20.7472 55.6698 20.7788C56.4293 20.9687 57.1571 21.3484 57.7267 21.918C57.8533 22.0446 57.8533 22.2345 57.7267 22.3611C57.6635 22.4244 57.5685 22.456 57.5052 22.456Z" fill="#31302F"/>
<path d="M51.7453 19.6077C51.6504 19.6077 51.5554 19.5761 51.4921 19.4811C51.2073 19.133 50.163 18.5634 49.625 18.5951C49.4668 18.5951 49.3086 18.4685 49.3086 18.2786C49.3086 18.0887 49.4352 17.9621 49.625 17.9621C50.4162 17.9305 51.5871 18.5951 51.9985 19.0697C52.125 19.1963 52.0934 19.4178 51.9668 19.5128C51.9035 19.5761 51.8086 19.6077 51.7453 19.6077Z" fill="#31302F"/>
<path d="M48.6766 30.2088C48.6449 30.2088 48.6133 30.2088 48.55 30.1771C47.8221 29.8923 47.2525 29.3544 46.8728 28.6582C46.8095 28.5316 46.8411 28.405 46.9361 28.2784C47.5057 27.6772 48.7715 26.2215 49.5626 25.2404C49.6576 25.1139 49.8791 25.0822 50.0057 25.1771C50.1323 25.2721 50.1639 25.4936 50.069 25.6202C49.3411 26.5379 48.2019 27.8354 47.569 28.5316C47.8854 29.0063 48.3285 29.386 48.8032 29.5759C48.9614 29.6392 49.0563 29.829 48.993 29.9873C48.9297 30.1455 48.8032 30.2088 48.6766 30.2088Z" fill="#31302F"/>
<path d="M50.132 33.4998C49.6573 33.4998 49.151 33.3732 48.7079 33.12C48.5497 33.0251 48.5181 32.8352 48.5813 32.677C48.6763 32.5188 48.8662 32.4871 49.0244 32.5504C50.0687 33.1517 51.556 32.7403 52.2522 31.6643C52.3472 31.5061 52.537 31.4745 52.6953 31.5694C52.8535 31.6643 52.8851 31.8542 52.7902 32.0124C52.2206 32.9618 51.1763 33.4998 50.132 33.4998Z" fill="#31302F"/>
<path d="M53.6132 40.0511C53.4866 40.0511 53.3601 39.9561 53.3284 39.8295C53.2651 39.6713 53.3601 39.4814 53.5183 39.4182C54.6259 39.0384 55.6069 38.5321 56.4297 37.9308C56.5563 37.8359 56.7778 37.8675 56.8727 37.9941C56.9677 38.1207 56.936 38.3422 56.8094 38.4371C55.955 39.1017 54.8791 39.6397 53.7082 40.0194C53.6765 40.0511 53.6449 40.0511 53.6132 40.0511Z" fill="#31302F"/>
<path d="M63.8985 25.6204C63.7086 25.6204 63.5821 25.4622 63.5821 25.304C63.6137 23.0255 61.9048 20.9052 59.3732 20.0191C54.7213 18.4052 51.2403 15.1141 51.4934 12.5191C51.5251 12.3293 51.6517 12.2027 51.8415 12.2343C51.9998 12.266 52.158 12.3926 52.1264 12.5824C51.9365 14.5445 54.7529 17.7407 59.5947 19.4179C62.3795 20.3989 64.2466 22.7407 64.215 25.304C64.215 25.4938 64.0884 25.6204 63.8985 25.6204Z" fill="#31302F"/>
<path d="M64.4991 40.8732C63.7079 40.8732 62.9484 40.5567 62.3788 39.9554C61.1763 38.6896 61.1446 36.601 62.3472 35.2403C62.9801 34.5124 63.8978 34.1327 64.8155 34.1643C65.0054 34.1643 65.132 34.3225 65.1003 34.5124C65.1003 34.7023 64.9421 34.8289 64.7522 34.7972C64.0244 34.7656 63.2965 35.0504 62.7902 35.6517C61.8092 36.7592 61.8408 38.4681 62.8219 39.4808C63.2965 39.9554 63.8662 40.2086 64.5307 40.177C65.1953 40.177 65.8282 39.8605 66.3029 39.3225C67.2839 38.2149 67.2522 36.5061 66.2712 35.4934C66.1446 35.3668 66.1446 35.177 66.2712 35.0504C66.3978 34.9238 66.5877 34.9238 66.7143 35.0504C67.9168 36.3162 67.9484 38.4048 66.7459 39.7656C66.1446 40.4301 65.3535 40.8099 64.4991 40.8415C64.5307 40.8732 64.5307 40.8732 64.4991 40.8732Z" fill="#007DAB"/>
<path d="M21.1832 47.2537C20.7085 47.2537 20.2338 47.1904 19.7908 47.0322C19.7591 47.0322 19.7275 47.0006 19.7275 47.0006L18.0186 45.8613C17.892 45.7664 17.8287 45.6082 17.892 45.4499C17.9553 45.2917 18.1135 45.2284 18.2718 45.2917C20.93 46.1145 24.3794 43.9942 25.9933 40.5449C27.354 37.6018 26.9743 34.5639 25.0439 33.298C24.8857 33.2031 24.854 33.0132 24.949 32.855C25.0439 32.6968 25.2338 32.6651 25.392 32.7601L27.1009 33.8993C29.2844 35.355 29.7908 38.7411 28.2718 41.9373C26.8161 45.1335 23.8414 47.2537 21.1832 47.2537ZM20.0439 46.431C22.6705 47.2221 26.1199 45.1018 27.7338 41.6841C29.0629 38.836 28.7148 35.8613 26.9427 34.5322C27.7338 36.2411 27.6705 38.5829 26.6262 40.8297C25.1705 43.9626 22.2275 46.0829 19.5692 46.1145L20.0439 46.431Z" fill="#31302F"/>
<path d="M19.4711 46.1149C18.9965 46.1149 18.5218 46.0516 18.0787 45.8933C16.9079 45.5136 15.9901 44.6908 15.4838 43.4883C14.7243 41.7478 14.8825 39.5009 15.8952 37.349C17.6357 33.6149 21.4332 31.3364 24.3762 32.2857C25.5471 32.6655 26.4648 33.4883 26.9711 34.6908C27.7306 36.4313 27.5724 38.6781 26.5598 40.83C25.1041 43.9946 22.1294 46.1149 19.4711 46.1149ZM18.3003 45.2921C20.9585 46.1149 24.4079 43.9946 26.0218 40.5452C26.9395 38.5832 27.0977 36.463 26.4015 34.9123C25.9585 33.8997 25.199 33.1718 24.1863 32.8554C21.5281 32.0326 18.0787 34.1528 16.4648 37.6022C15.5471 39.5642 15.3889 41.6845 16.0851 43.2351C16.5281 44.2794 17.2876 44.9756 18.3003 45.2921Z" fill="#31302F"/>
<path d="M30.5398 30.292C29.369 30.292 28.0715 30.0072 26.8373 29.4059C23.1031 27.6654 20.8247 23.8679 21.774 20.9249C21.774 20.8933 21.8057 20.8616 21.8057 20.8616L22.9449 19.1528C23.0398 19.0262 23.1981 18.9629 23.3563 19.0262C23.5145 19.0895 23.5778 19.2477 23.5145 19.4059C22.6917 22.0641 24.812 25.5135 28.2614 27.1274C31.2044 28.4882 34.2424 28.1085 35.5082 26.1781C35.6031 26.0198 35.793 25.9882 35.9512 26.0831C36.1095 26.1781 36.1411 26.3679 36.0462 26.5262L34.9069 28.235C33.9892 29.5958 32.3753 30.292 30.5398 30.292ZM22.3436 21.1781C21.5525 23.8047 23.6728 27.254 27.0905 28.8679C29.9386 30.1971 32.9133 29.849 34.2424 28.0768C32.5335 28.8679 30.1917 28.8047 27.9449 27.7604C24.812 26.3047 22.6917 23.3616 22.6601 20.7034L22.3436 21.1781Z" fill="#31302F"/>
<path d="M31.6844 28.6148C30.4818 28.6148 29.216 28.33 27.9818 27.7287C24.2477 25.9882 21.9692 22.1907 22.9186 19.2477C23.2983 18.0768 24.1211 17.1591 25.3236 16.6528C27.0641 15.8933 29.311 16.0515 31.4629 17.0641C35.197 18.8046 37.4755 22.6021 36.5261 25.5452C36.1464 26.716 35.3236 27.6338 34.1211 28.1401C33.3616 28.4565 32.5388 28.6148 31.6844 28.6148ZM23.4882 19.4376C22.6654 22.0958 24.7856 25.5452 28.235 27.1591C30.197 28.0768 32.3173 28.235 33.8679 27.5388C34.8806 27.0958 35.6084 26.3363 35.9249 25.3236C36.7477 22.6654 34.6274 19.216 31.178 17.6021C29.216 16.6844 27.0958 16.5262 25.5451 17.2224C24.5325 17.6654 23.8046 18.4249 23.4882 19.4376Z" fill="#31302F"/>
<path d="M26.1827 74.2158C26.1511 74.2158 26.1511 74.2158 26.1194 74.2158L21.8789 73.2032C21.7207 73.1715 21.6574 73.0133 21.6891 72.8867L22.322 70.2285C22.3536 70.1335 22.322 70.0703 22.2903 69.9753C22.2587 69.912 22.1637 69.8487 22.1005 69.8487L14.3473 67.9817C14.0941 67.9184 13.841 67.8551 13.5245 67.7601C13.4929 67.7601 13.4612 67.7601 13.4296 67.7601C13.3663 67.7601 13.3346 67.7601 13.2713 67.7918C13.208 67.8234 13.1448 67.9184 13.1131 67.9817L12.4802 70.6715C12.4486 70.7981 12.3536 70.893 12.227 70.893C12.1954 70.893 12.1954 70.893 12.1637 70.893L7.92323 69.8804C7.76501 69.8487 7.70172 69.6905 7.73336 69.5639L8.74602 65.2918C8.77767 65.1652 8.74602 65.0703 8.65108 64.9753C5.17007 61.7791 3.68273 56.969 4.79033 52.3804L4.85362 51.9057C6.24602 46.0513 11.4359 41.969 17.4486 41.969C18.4612 41.969 19.4739 42.0956 20.4865 42.3171L28.746 44.2791C28.7777 44.2791 28.8093 44.2791 28.8093 44.2791C28.9042 44.2791 28.9992 44.2475 29.0625 44.1842C30.2334 42.8234 31.9739 42.0323 33.7777 42.0323C34.1891 42.0323 34.6005 42.0639 35.0118 42.1589L34.6005 43.8677C34.5688 43.9943 34.6321 44.1209 34.727 44.2158C34.7903 44.2475 34.8536 44.2791 34.9169 44.2791C34.9802 44.2791 35.0435 44.2475 35.0751 44.2158C36.0878 43.5513 37.2903 43.1715 38.4929 43.1715C38.9043 43.1715 39.3156 43.2032 39.727 43.2981L38.0498 50.3551C38.0182 50.45 38.0498 50.5133 38.0815 50.5766C39.1258 52.3171 39.727 54.3108 39.8853 56.3044C39.8853 56.431 39.9802 56.5576 40.1384 56.5892L43.208 57.3171L41.5625 64.2475L39.6321 63.7728C39.6004 63.7728 39.5688 63.7728 39.5688 63.7728C39.5055 63.7728 39.4422 63.8044 39.3789 63.8361C39.3156 63.8994 39.2523 63.9943 39.2523 64.0892L39.1891 66.1462L37.2587 65.6715C37.227 65.6715 37.1954 65.6715 37.1954 65.6715C37.1004 65.6715 37.0055 65.7032 36.9422 65.7981C34.6321 68.6462 31.1827 70.4184 27.5435 70.6082C27.4169 70.6082 27.2903 70.7032 27.2587 70.8614L26.4992 74.0576C26.4359 74.1209 26.3093 74.2158 26.1827 74.2158Z" fill="#FDF8F6"/>
<path d="M17.4437 42.2544C18.4247 42.2544 19.4374 42.381 20.4184 42.6025L28.6779 44.5645C28.7412 44.5645 28.7728 44.5961 28.8361 44.5961C29.026 44.5961 29.1842 44.5329 29.3108 44.3746C30.45 43.0772 32.0639 42.3177 33.7728 42.3177C34.0576 42.3177 34.3424 42.3493 34.6272 42.381L34.3108 43.7417C34.2475 43.9949 34.3424 44.248 34.5639 44.4063C34.6589 44.4696 34.7855 44.5329 34.9121 44.5329C35.0386 44.5329 35.1652 44.5012 35.2602 44.4379C36.2412 43.805 37.3488 43.4569 38.5196 43.4569C38.8045 43.4569 39.0893 43.4885 39.3741 43.5202L37.7602 50.2291C37.7285 50.3873 37.7602 50.5455 37.8234 50.7037C38.8361 52.4126 39.4374 54.343 39.5639 56.305C39.5956 56.5898 39.7855 56.8113 40.0386 56.8746L42.8234 57.5392L41.3045 63.8366L39.6905 63.4569C39.6272 63.4569 39.5956 63.4253 39.5323 63.4253C39.4057 63.4253 39.2475 63.4569 39.1526 63.5518C38.9943 63.6784 38.8994 63.8367 38.8994 64.0265L38.8361 65.7037L37.2855 65.324C37.2222 65.324 37.1905 65.2923 37.1272 65.2923C36.9374 65.2923 36.7475 65.3873 36.6209 65.5139C34.3741 68.2987 31.0196 70.0075 27.4437 70.1974C27.1589 70.1974 26.9374 70.4189 26.8741 70.6721L26.4627 72.381L26.1146 73.805L21.969 72.824L22.6019 70.1974C22.6336 70.0392 22.6019 69.8493 22.5386 69.7227C22.4437 69.5645 22.3171 69.4696 22.1589 69.4379L14.4057 67.5708C14.1526 67.5075 13.8994 67.4442 13.5829 67.3493C13.5196 67.3177 13.4564 67.3177 13.3931 67.3177C13.2981 67.3177 13.1715 67.3493 13.0766 67.4126C12.9184 67.5075 12.8234 67.6341 12.7602 67.824L12.1272 70.4822L8.01332 69.5329L8.74116 66.5582L9.02597 65.324C9.08926 65.1025 8.99433 64.8493 8.8361 64.7227C5.45002 61.6215 3.99433 56.9063 5.07028 52.4126L5.16521 51.9696C6.52597 46.2417 11.5893 42.2544 17.4437 42.2544ZM17.4437 41.6215C11.431 41.6215 5.988 45.7037 4.5323 51.8113L4.43737 52.2544C3.26648 57.1278 4.94369 62.0012 8.39306 65.1658L8.10825 66.3999L7.3804 69.4379C7.31711 69.7544 7.50699 70.0708 7.82344 70.1341L12.0639 71.1468C12.0956 71.1468 12.1589 71.1784 12.1905 71.1784C12.4437 71.1784 12.6969 70.9885 12.7602 70.7354L13.3931 68.0455C13.6779 68.1404 13.9627 68.2037 14.2475 68.2987L22.0007 70.1658L21.3677 72.824C21.3045 73.1404 21.4943 73.4569 21.8108 73.5202L26.0513 74.5329C26.0829 74.5329 26.1462 74.5645 26.1779 74.5645C26.431 74.5645 26.6842 74.3746 26.7475 74.1215L27.0956 72.6658L27.507 70.9569C31.3045 70.767 34.7855 68.9316 37.1589 66.0202L39.469 66.5898L39.5323 64.1531L41.7475 64.6911L43.5513 57.1594L40.1652 56.3366C40.007 54.248 39.3741 52.2227 38.3298 50.4822L40.1019 43.1404C40.0703 43.1404 40.0386 43.1088 40.007 43.1088C39.5007 42.9822 38.9943 42.9189 38.488 42.9189C37.1905 42.9189 35.9564 43.2987 34.8804 43.9949L35.3551 42.0012C35.3234 42.0012 35.2918 41.9696 35.2602 41.9696C34.7538 41.843 34.2475 41.7797 33.7412 41.7797C31.8108 41.7797 30.007 42.6341 28.8045 44.0582L20.545 42.0961C19.5007 41.748 18.4564 41.6215 17.4437 41.6215Z" fill="#31302F"/>
<path d="M37.605 56.9057L36.9721 56.8424C37.0354 55.8931 36.3392 55.0703 35.4215 55.007C34.9784 54.9753 34.5354 55.1019 34.1873 55.4184C33.8392 55.7032 33.6177 56.1146 33.586 56.5893L32.9531 56.526C33.0164 55.8931 33.3012 55.3234 33.7759 54.9437C34.2506 54.5323 34.8519 54.3424 35.4848 54.4057C36.7506 54.5007 37.7316 55.6083 37.605 56.9057Z" fill="#31302F"/>
<path d="M5.51928 48.045C5.96232 48.0766 6.40536 47.9817 6.7851 47.7602C7.35472 47.4437 7.79776 46.9374 7.98764 46.3045L7.41802 46.1146C7.25979 46.5893 6.94333 47.0007 6.50029 47.2222C6.05726 47.4437 5.55093 47.507 5.07624 47.3488C4.6965 47.2222 4.41169 46.969 4.22181 46.6526C4.03194 46.3045 4.00029 45.9247 4.12688 45.545C4.22181 45.2602 4.41169 45.0387 4.66485 44.9121C4.91802 44.7855 5.23447 44.7538 5.51928 44.8488C5.7408 44.9121 5.89903 45.0703 5.99396 45.2602C6.0889 45.45 6.12055 45.6716 6.05726 45.8931L6.62688 46.083C6.75346 45.7349 6.69017 45.3551 6.53194 45.007C6.34207 44.6589 6.05726 44.4374 5.70915 44.3108C4.82308 44.026 3.87371 44.5323 3.5889 45.4184C3.43067 45.9247 3.46232 46.4944 3.71548 46.969C3.96865 47.4437 4.38004 47.7918 4.91802 47.9817C5.10789 47.9817 5.29776 48.0133 5.51928 48.045Z" fill="#31302F"/>
<path d="M4.97827 43.868C5.16814 43.5516 5.4846 43.3301 5.86434 43.2668C6.24409 43.2035 6.62384 43.2668 6.94029 43.4567L6.62384 43.963C6.43397 43.8364 6.21245 43.8048 5.99093 43.8364C5.76941 43.868 5.57954 43.9946 5.4846 44.1845C5.32637 44.4377 5.26308 44.7225 5.32637 45.0073C5.38966 45.2921 5.54789 45.5453 5.80105 45.7035C6.02257 45.8617 6.30738 45.8301 6.59219 45.7668C6.81371 45.7351 6.49726 46.7161 5.61118 46.2731C5.57954 46.2415 5.51624 46.2098 5.4846 46.2098C4.69346 45.7035 4.47194 44.6592 4.97827 43.868Z" fill="#31302F"/>
<path d="M3.21114 58.3719L2.66028 54.5062L6.4704 49.5926C6.79362 49.1818 7.38954 49.1278 7.78502 49.5136C8.5525 50.2473 8.69879 51.4188 8.16069 52.331L5.27513 57.1708L3.21114 58.3719Z" fill="#FDF8F6"/>
<path d="M3.13526 58.6793C3.10456 58.672 3.10456 58.672 3.07386 58.6648C2.98898 58.6122 2.91133 58.5289 2.9023 58.4293L2.35159 54.564C2.34256 54.4644 2.35701 54.4029 2.40939 54.3178L6.22014 49.4049C6.41519 49.1262 6.74208 48.9762 7.07077 48.9564C7.39945 48.9367 7.72994 49.0473 7.99361 49.3046C8.86225 50.1595 9.04101 51.4685 8.4125 52.4892L5.52641 57.3283C5.51196 57.3899 5.47403 57.4134 5.40541 57.4296L3.36462 58.6686C3.29599 58.6848 3.22737 58.7011 3.13526 58.6793ZM2.99452 54.5861L3.46036 57.8467L5.01533 56.8827L7.88697 52.1051C8.36558 51.3088 8.23738 50.3366 7.54752 49.6863C7.44639 49.5649 7.26218 49.5214 7.13215 49.5231C6.9642 49.5484 6.81972 49.6116 6.72219 49.751L2.99452 54.5861Z" fill="#31302F"/>
<path d="M12.0059 54.5634L11.9807 54.3954C11.9141 53.9908 11.5578 53.7124 11.1525 53.7791L2.75184 54.9791L3.16723 58.0267L10.1527 57.0448C11.3688 56.8447 12.1749 55.7702 12.0059 54.5634Z" fill="#FDF8F6"/>
<path d="M3.10639 58.3031C3.07564 58.2959 3.01413 58.2814 2.99064 58.2434C2.9364 58.1983 2.88943 58.1224 2.88046 58.023L2.46515 54.9751C2.43996 54.8071 2.5758 54.6446 2.74409 54.6193L11.1441 53.4194C11.7178 53.3275 12.2674 53.7486 12.3285 54.3141L12.3536 54.4821C12.5551 55.8263 11.6059 57.0942 10.2288 57.2887L3.24393 58.2706C3.16789 58.3176 3.13714 58.3103 3.10639 58.3031ZM3.08916 55.2193L3.42722 57.633L10.1136 56.6781C11.1233 56.5267 11.8316 55.5912 11.6805 54.583L11.6553 54.415C11.6463 54.3156 11.5759 54.2018 11.4909 54.1494C11.4059 54.097 11.2901 54.0373 11.1833 54.077L3.08916 55.2193Z" fill="#31302F"/>
<path d="M12.4472 57.5571L12.422 57.3891C12.3554 56.9844 11.9992 56.7061 11.5938 56.7727L3.19323 57.9728L3.60861 61.0204L10.594 60.0385C11.7794 59.8311 12.5928 58.7259 12.4472 57.5571Z" fill="#FDF8F6"/>
<path d="M3.50989 61.2894C3.38688 61.2605 3.2784 61.1701 3.2767 61.04L2.86137 57.9922C2.84515 57.9236 2.86694 57.8314 2.91948 57.7465C2.96476 57.6924 3.0408 57.6454 3.14032 57.6364L11.5405 56.4364C11.8083 56.4022 12.0851 56.4673 12.3328 56.6553C12.5498 56.836 12.6907 57.0637 12.7556 57.3383L12.7808 57.5064C12.9823 58.8505 12.0331 60.1184 10.656 60.313L3.67092 61.2949C3.60215 61.3111 3.5714 61.3039 3.50989 61.2894ZM3.52341 58.2129L3.86149 60.6265L10.548 59.6716C11.0529 59.5959 11.471 59.3377 11.7573 58.9512C12.0435 58.5647 12.1905 58.0806 12.1149 57.5766L12.0897 57.4086C12.0808 57.3092 12.0103 57.1954 11.9253 57.1429C11.8403 57.0905 11.7245 57.0308 11.6178 57.0706L3.52341 58.2129Z" fill="#31302F"/>
<path d="M10.9899 60.7579L10.981 60.6585C10.9144 60.2536 10.5276 59.9678 10.1298 60.0037L3.61519 60.9325L3.8256 62.3768C3.97669 63.3855 4.58543 64.2426 5.51094 64.7203L8.50262 66.2043L8.19022 63.4061L9.16143 63.2783C10.3154 63.0639 11.1589 61.9655 10.9899 60.7579Z" fill="#FDF8F6"/>
<path d="M8.40004 66.5047C8.3693 66.4974 8.33856 66.4902 8.33856 66.4902L5.34694 65.0062C4.35998 64.5139 3.65008 63.5356 3.49004 62.4275L3.27963 60.9831C3.25445 60.815 3.3902 60.6524 3.5584 60.6272L10.0728 59.6984C10.3405 59.6643 10.6479 59.7368 10.8647 59.9176C11.0816 60.0985 11.2532 60.3336 11.2801 60.6319L11.289 60.7313C11.3897 61.4038 11.1993 62.0724 10.8155 62.5982C10.3937 63.1474 9.82383 63.4996 9.1583 63.5697L8.48551 63.6705L8.77102 66.1705C8.77998 66.2699 8.72021 66.3856 8.63696 66.4633C8.56097 66.5102 8.49224 66.5264 8.40004 66.5047ZM3.9793 61.1806L4.13209 62.3194C4.27421 63.2287 4.83598 64.0099 5.64579 64.428L8.11319 65.6586L7.86183 63.4261C7.83664 63.258 7.9724 63.0954 8.1406 63.0702L9.11179 62.9424C9.61638 62.8668 10.0651 62.6158 10.3583 62.1985C10.6516 61.7811 10.7985 61.2968 10.723 60.7924L10.714 60.693C10.705 60.5936 10.6346 60.4796 10.5569 60.3965C10.472 60.344 10.3563 60.2843 10.2188 60.3167L3.9793 61.1806Z" fill="#31302F"/>
</svg>
