<svg width="256" height="200" viewBox="0 0 256 200" fill="none" xmlns="http://www.w3.org/2000/svg">
<g clip-path="url(#clip0_2586_91782)">
<path d="M110.071 117.288L90.4194 108.355C88.596 107.527 86.5581 107.282 84.5814 107.658C81.9996 108.156 81.1645 111.427 83.1947 113.105L91.3617 119.847L110.071 117.288Z" fill="#FDF8F6"/>
<path d="M91.3615 120.613C91.1852 120.613 91.009 120.552 90.8711 120.437L82.7041 113.695C81.5319 112.73 81.0416 111.22 81.417 109.749C81.7924 108.278 82.9493 107.19 84.4356 106.907C86.5731 106.493 88.7489 106.754 90.7332 107.658L110.385 116.591C110.699 116.729 110.875 117.058 110.829 117.403C110.783 117.74 110.515 118.008 110.178 118.054L91.4687 120.613C91.4687 120.613 91.3998 120.613 91.3615 120.613ZM86.4199 108.248C85.8529 108.248 85.2937 108.301 84.7267 108.409C83.815 108.585 83.1331 109.228 82.9033 110.125C82.6735 111.029 82.9646 111.917 83.6848 112.507L91.599 119.035L107.343 116.882L90.105 109.044C88.9328 108.516 87.684 108.24 86.4275 108.24L86.4199 108.248Z" fill="#31302F"/>
<path d="M176.625 186.6C219.937 186.6 255.047 183.856 255.047 180.471C255.047 177.086 219.937 174.342 176.625 174.342C133.314 174.342 98.2036 177.086 98.2036 180.471C98.2036 183.856 133.314 186.6 176.625 186.6Z" fill="#31302F"/>
<path d="M117.862 68.2552C117.862 68.2552 130.174 63.0455 128.802 59.3298C127.094 54.7023 119.708 58.0886 119.256 61.452C118.804 64.8076 123.769 56.8628 119.609 55.0317C116.36 53.6067 112.07 57.1616 117.862 68.2629V68.2552Z" fill="#31302F"/>
<path d="M36.8546 74.197C49.6852 68.3741 55.3661 53.2524 49.5431 40.4218C43.7202 27.5912 28.5986 21.9104 15.768 27.7333C2.93738 33.5562 -2.74346 48.6779 3.07945 61.5085C8.90237 74.339 24.024 80.0199 36.8546 74.197Z" fill="#7FD0FF"/>
<path d="M41.8452 53.5608L84.7336 103.367L31.2266 62.8617L41.8452 53.5608Z" fill="#7FD0FF"/>
<path d="M89.4229 63.5588L96.5786 100.64L96.2338 63.9649L89.4229 63.5588Z" fill="#31302F"/>
<path d="M122.283 82.3904L118.26 74.9666L108.661 98.3874L122.283 82.3904Z" fill="#31302F"/>
<path d="M57.9272 90.7566L44.5351 79.3105L39.6318 80.7126L57.9272 90.7566Z" fill="#31302F"/>
<path d="M91.5449 101.835C91.2691 101.835 91.0086 101.689 90.8707 101.437L64.033 52.1893C49.7139 53.1547 37.6855 46.5276 34.6823 35.9702C32.8742 29.6189 34.4984 22.7237 39.2331 16.5486C43.9219 10.4425 51.1159 5.7691 59.4974 3.39407C67.879 1.01139 76.4597 1.20292 83.6537 3.93037C90.932 6.68846 95.9272 11.7067 97.7353 18.0579C101.283 30.5536 91.3457 44.4437 75.0423 49.9675L92.2574 100.824C92.3877 101.199 92.2038 101.613 91.8361 101.774C91.7365 101.82 91.6292 101.835 91.5296 101.835H91.5449ZM64.4697 50.6264C64.7455 50.6264 65.006 50.7796 65.1439 51.0248L87.9747 92.9248L73.3492 49.73C73.2802 49.5385 73.2956 49.324 73.3875 49.1401C73.4794 48.9562 73.6403 48.8183 73.8395 48.757C89.7905 43.6622 99.643 30.3621 96.2643 18.4793C94.5942 12.603 89.9284 7.94493 83.1174 5.36305C76.2299 2.75052 67.9862 2.57431 59.9188 4.86506C51.8514 7.15581 44.9332 11.6377 40.4436 17.4833C36.0077 23.26 34.4831 29.6802 36.1532 35.5488C38.9879 45.5239 50.6026 51.722 64.4007 50.6264C64.4237 50.6264 64.439 50.6264 64.462 50.6264H64.4697Z" fill="#31302F"/>
<path d="M124.773 132.81C124.39 131.492 123.869 130.213 123.248 128.995C118.674 119.962 109.159 114.499 99.0381 114.576L87.8908 114.66H70.7293C70.7293 114.66 69.0209 104.333 67.6495 100.839C66.2781 97.3533 60.7236 97.4682 60.7236 97.4682L62.3172 108.179C62.3172 108.179 57.9119 98.6404 56.3183 96.5182C54.7248 94.3883 49.5457 94.6258 49.5457 94.6258L52.1659 101.36C52.1659 101.36 48.9864 97.1081 46.2436 96.0585C43.5009 95.0089 39.8311 96.319 39.8311 96.319L59.199 123.555L104.133 136.832L106.393 144.072L108.592 166.298H141.068C132.886 148.7 124.796 132.802 124.796 132.802L124.773 132.81Z" fill="#FDF8F6"/>
<path d="M141.045 167.079H108.569C108.178 167.079 107.849 166.78 107.803 166.39L105.612 144.241L103.497 137.468L58.9538 124.306C58.7929 124.26 58.6474 124.153 58.5478 124.015L39.1798 96.7786C39.0419 96.5794 39.0036 96.3342 39.0726 96.1044C39.1415 95.8745 39.3177 95.6907 39.5476 95.614C39.7085 95.5527 43.5238 94.212 46.4964 95.3535C47.6533 95.7979 48.8638 96.7403 49.9057 97.7286L48.8102 94.9169C48.7182 94.687 48.7489 94.4265 48.8791 94.2197C49.017 94.0128 49.2392 93.8826 49.4844 93.8749C50.059 93.8519 55.1231 93.691 56.9082 96.0737C57.7816 97.2382 59.4212 100.456 60.7772 103.237L59.9421 97.5983C59.9115 97.3838 59.9728 97.1616 60.1107 96.9931C60.2563 96.8245 60.4631 96.7249 60.6776 96.7249C60.9305 96.7249 66.7837 96.633 68.339 100.579C69.5418 103.635 70.9515 111.58 71.3576 113.917H87.8755L99.0228 113.825C99.0994 113.825 99.1683 113.825 99.245 113.825C109.68 113.825 119.348 119.632 123.93 128.665C124.589 129.96 125.11 131.262 125.485 132.542C126.052 133.668 133.905 149.152 141.743 165.999C141.85 166.237 141.834 166.512 141.697 166.735C141.559 166.957 141.314 167.087 141.053 167.087L141.045 167.079ZM109.266 165.547H139.85C131.936 148.592 124.175 133.316 124.091 133.162C124.068 133.116 124.052 133.078 124.037 133.032C123.685 131.822 123.187 130.581 122.566 129.347C118.214 120.766 109.013 115.25 99.0457 115.35L87.8908 115.434H70.7217C70.3463 115.434 70.0245 115.166 69.9632 114.798C69.9479 114.698 68.2547 104.501 66.9216 101.13C66.0636 98.9467 63.0986 98.4181 61.6047 98.2878L63.0603 108.079C63.1139 108.454 62.8841 108.815 62.524 108.929C62.1563 109.037 61.7655 108.861 61.6123 108.516C61.5663 108.424 57.2223 99.031 55.6977 96.9931C54.8243 95.8286 52.3191 95.4761 50.6566 95.4148L52.8707 101.107C53.0086 101.467 52.8707 101.866 52.5259 102.057C52.1888 102.241 51.7675 102.157 51.5376 101.85C51.507 101.812 48.4577 97.7592 45.9525 96.8015C44.3283 96.181 42.2674 96.5028 41.0645 96.7862L59.651 122.927L104.332 136.127C104.577 136.196 104.769 136.388 104.845 136.633L107.106 143.873C107.121 143.927 107.128 143.973 107.136 144.026L109.266 165.562V165.547Z" fill="#31302F"/>
<path d="M116.345 179.851L118.382 180.287C126.511 182.026 134.808 182.846 143.113 182.724L234.169 181.383L224.638 152.155C221.466 142.425 212.97 135.392 202.818 134.089L153.28 127.746C144.469 126.619 135.758 130.496 130.702 137.797L116.337 179.843L116.345 179.851Z" fill="#31302F"/>
<path d="M198.084 86.6961C197.624 85.5469 197.065 84.6505 196.376 83.961C194.169 81.7699 191.258 82.2755 188.446 82.7735C185.749 83.2409 183.206 83.6929 181.321 81.8235C177.069 77.5102 172.886 65.7423 179.781 52.5341L180.402 51.3466L179.161 50.8486C178.984 50.7796 178.793 50.7107 178.586 50.6417L178.509 50.6187L178.433 50.6034C177.575 50.4272 176.395 50.205 175.207 49.9982L175.115 49.9829H175.023C171.752 49.8986 169.009 51.4002 167.094 54.3269C165.569 56.6482 164.259 58.87 162.987 61.0382C160.39 65.4512 158.145 69.2589 155.318 71.6109C152.108 74.2771 147.68 76.1311 146.393 76.6368L145.443 77.0122L145.65 78.0081C145.849 78.9735 146.63 80.6666 149.22 83.2945C152.001 86.1139 148.362 95.5373 146.033 100.157C145.565 100.793 145.228 101.927 145.788 103.084C145.972 103.467 146.24 103.835 146.584 104.179C148.791 106.371 154.376 107.757 163.24 108.324L161.202 115.687L157.395 127.7C157.257 128.129 157.149 128.558 157.058 128.987L153.28 128.504C152.545 128.412 151.817 128.366 151.089 128.336C150.852 129.546 150.714 130.787 150.714 132.067C150.714 143.183 160.275 152.193 172.066 152.193C183.857 152.193 192.499 144.018 193.349 133.637L185.634 132.649L192.009 112.515L185.213 111.45C185.328 110.967 185.382 110.446 185.328 109.864C185.129 107.497 183.658 104.984 182.371 102.762C181.352 101.008 180.187 99.0233 180.609 98.3644C180.716 98.1958 181.175 97.8204 183.098 97.989C189.45 98.5483 194.621 95.6753 196.935 92.5647C198.398 90.5958 198.804 88.5119 198.076 86.6961H198.084Z" fill="#FDF8F6"/>
<path d="M172.073 152.944C159.876 152.944 149.955 143.574 149.955 132.051C149.955 130.772 150.085 129.462 150.338 128.175C150.415 127.807 150.759 127.539 151.12 127.562C151.985 127.592 152.698 127.646 153.38 127.73L156.475 128.129C156.536 127.891 156.597 127.669 156.666 127.455L160.474 115.442L162.259 109.006C153.64 108.385 148.338 106.976 146.048 104.708C145.642 104.302 145.32 103.858 145.098 103.398C144.416 101.973 144.814 100.555 145.381 99.7434C148.492 93.5377 150.706 85.8686 148.676 83.8154C146.492 81.6012 145.22 79.6936 144.898 78.146L144.692 77.15C144.615 76.7822 144.814 76.4222 145.159 76.2843L146.109 75.9089C147.365 75.4185 151.694 73.6028 154.82 71.0056C157.547 68.7378 159.762 64.9837 162.32 60.6321C163.585 58.4792 164.902 56.2498 166.45 53.8901C168.518 50.7336 171.499 49.1017 175.038 49.2013H175.123C175.161 49.2013 175.207 49.2013 175.245 49.2166L175.337 49.232C176.525 49.4388 177.712 49.661 178.578 49.8372L178.654 49.8525C178.654 49.8525 178.716 49.8679 178.746 49.8755L178.823 49.8985C179.038 49.9751 179.244 50.0441 179.428 50.1207L180.669 50.6187C180.869 50.6953 181.029 50.8638 181.106 51.063C181.183 51.2699 181.167 51.4921 181.068 51.6836L180.447 52.8711C173.744 65.7192 177.75 77.1117 181.849 81.2718C183.443 82.8577 185.688 82.467 188.292 82.0073C191.165 81.5017 194.406 80.9347 196.896 83.4093C197.662 84.1755 198.283 85.1485 198.781 86.4049C199.608 88.4812 199.172 90.8255 197.54 93.0167C195.103 96.2958 189.664 99.3373 183.021 98.7474C181.957 98.6555 181.466 98.7474 181.282 98.8087C181.344 99.4829 182.432 101.337 183.029 102.371C184.362 104.662 185.871 107.259 186.094 109.795C186.124 110.14 186.124 110.477 186.094 110.806L192.123 111.749C192.345 111.779 192.537 111.91 192.659 112.101C192.774 112.293 192.805 112.523 192.736 112.737L186.638 131.998L193.441 132.871C193.847 132.925 194.138 133.285 194.107 133.691C193.226 144.493 183.542 152.952 172.066 152.952L172.073 152.944ZM151.732 129.125C151.572 130.105 151.495 131.086 151.495 132.059C151.495 142.731 160.727 151.419 172.081 151.419C182.508 151.419 191.342 143.957 192.522 134.296L185.55 133.4C185.328 133.369 185.121 133.247 184.998 133.055C184.875 132.863 184.845 132.626 184.914 132.411L191.02 113.128L185.105 112.201C184.891 112.17 184.707 112.048 184.584 111.871C184.462 111.695 184.423 111.473 184.477 111.266C184.584 110.837 184.615 110.4 184.577 109.925C184.393 107.734 182.975 105.298 181.719 103.153C180.217 100.578 179.336 98.9543 179.965 97.9583C180.378 97.3147 181.428 97.0772 183.167 97.2304C189.219 97.7667 194.13 95.047 196.322 92.1126C197.616 90.3659 197.992 88.5501 197.364 86.9872C196.942 85.9376 196.444 85.1255 195.824 84.5126C193.901 82.5972 191.311 83.0569 188.568 83.5319C185.795 84.0146 182.937 84.5202 180.769 82.3674C176.356 77.8931 172.012 65.7499 179.091 52.1739L179.321 51.7372L178.861 51.5534C178.693 51.4844 178.517 51.4231 178.325 51.3542L178.271 51.3388C177.421 51.1626 176.249 50.9481 175.069 50.7413H175.008C172.027 50.6417 169.499 52.0437 167.737 54.7328C166.205 57.0619 164.902 59.276 163.646 61.4135C161.01 65.8878 158.735 69.7491 155.801 72.1854C152.499 74.9282 147.978 76.8206 146.668 77.3339L146.323 77.4718L146.4 77.8395C146.546 78.5444 147.174 80.1226 149.763 82.7428C153.548 86.5811 147.427 99.0768 146.722 100.487C146.707 100.525 146.684 100.563 146.653 100.594C146.316 101.053 146.071 101.889 146.477 102.731C146.622 103.038 146.844 103.337 147.128 103.62C148.545 105.03 152.506 106.853 163.293 107.543C163.523 107.558 163.738 107.673 163.868 107.864C163.998 108.056 164.044 108.293 163.983 108.516L161.945 115.878L158.13 127.922C158.015 128.29 157.907 128.688 157.808 129.14C157.724 129.531 157.356 129.791 156.965 129.738L153.188 129.255C152.736 129.194 152.261 129.155 151.732 129.125Z" fill="#31302F"/>
<path d="M109.265 127.562C108.936 127.562 108.629 127.347 108.53 127.01C108.384 126.543 105.044 116.07 90.0277 115.694C74.4061 115.304 70.5371 115.273 70.4988 115.265C70.0775 115.265 69.7327 114.913 69.7404 114.492C69.7404 114.07 70.0698 113.718 70.5142 113.733C70.5525 113.733 74.4215 113.771 90.066 114.162C106.254 114.568 109.963 126.459 110.001 126.574C110.123 126.98 109.894 127.409 109.488 127.524C109.419 127.547 109.342 127.554 109.273 127.554L109.265 127.562Z" fill="#31302F"/>
<path d="M65.0827 125.455C64.7073 125.455 64.3778 125.172 64.3242 124.789C64.1097 123.141 59.9266 97.9201 59.8883 97.6673C59.8193 97.2459 60.1028 96.8552 60.5165 96.7862C60.9302 96.7173 61.3286 97.0007 61.3976 97.4144C61.5738 98.4564 65.6266 122.919 65.8411 124.589C65.8948 125.011 65.6036 125.394 65.1823 125.447C65.1516 125.447 65.1133 125.447 65.0827 125.447V125.455Z" fill="#31302F"/>
<path d="M61.4049 124.965C61.1061 124.965 60.815 124.781 60.6924 124.49L48.7407 95.1238C48.5798 94.7331 48.7713 94.2887 49.162 94.1279C49.5528 93.967 49.9971 94.1585 50.158 94.5492L62.1097 123.915C62.2706 124.306 62.0791 124.75 61.6884 124.911C61.5964 124.95 61.4968 124.965 61.3972 124.965H61.4049Z" fill="#31302F"/>
<path d="M184.753 91.9134C184.684 91.9134 184.608 91.9058 184.539 91.8828C184.133 91.7679 183.895 91.3388 184.018 90.9328C184.761 88.3739 187.473 87.2094 190.032 86.4049C190.921 86.1291 193.617 85.2864 195.004 87.0485C195.265 87.3779 195.211 87.8606 194.874 88.1211C194.544 88.3815 194.062 88.3279 193.801 87.9908C193.311 87.3702 192.192 87.3243 190.484 87.8606C188.208 88.5731 186.025 89.4925 185.481 91.3465C185.381 91.6836 185.075 91.8981 184.745 91.8981L184.753 91.9134Z" fill="#31302F"/>
<path d="M153.426 72.0247C153.051 72.0247 152.744 71.9251 152.514 71.7872C150.568 70.661 151.687 66.3936 153.794 62.7545C155.901 59.123 159.057 56.0354 160.996 57.1617C162.942 58.2879 161.823 62.5629 159.716 66.1944C158.643 68.0408 157.379 69.642 156.154 70.6993C154.989 71.7106 154.093 72.0247 153.426 72.0247ZM160.068 58.4488C159.348 58.4488 157.218 59.9044 155.119 63.5206C152.828 67.4739 152.79 70.1707 153.281 70.4618C153.472 70.569 154.131 70.4235 155.15 69.5424C156.253 68.5924 157.402 67.1291 158.391 65.4283C160.681 61.475 160.72 58.7782 160.229 58.4871C160.191 58.4641 160.137 58.4488 160.068 58.4488Z" fill="#1E6586"/>
<path d="M170.924 108.738C155.808 108.554 147.296 106.654 145.626 103.099C145.013 101.797 145.481 100.609 145.894 100.05C147.771 96.3112 151.909 86.2288 149.105 83.3788C145.174 79.3949 145.389 77.4872 145.473 77.1424C145.534 76.8973 145.711 76.6904 145.956 76.6061C146.009 76.5832 151.495 74.5529 155.218 71.4577C158.03 69.121 160.267 65.3209 162.857 60.9233C164.128 58.7705 165.439 56.5334 166.971 54.2043C172.043 46.4816 180.501 51.27 180.585 51.316C180.953 51.5305 181.075 51.9978 180.861 52.3656C180.646 52.7333 180.179 52.8559 179.811 52.649C179.512 52.4805 172.518 48.5502 168.243 55.0547C166.733 57.3531 165.431 59.5673 164.167 61.7048C161.501 66.225 159.202 70.1323 156.191 72.6376C152.928 75.3497 148.545 77.2267 147.021 77.832C147.182 78.4372 147.802 79.8775 150.192 82.2985C154.291 86.451 147.963 99.3374 147.227 100.801C147.204 100.847 147.174 100.893 147.136 100.939C147.09 101 146.622 101.651 147.021 102.471C147.672 103.812 151.303 106.96 170.932 107.206C171.353 107.206 171.69 107.558 171.69 107.979C171.69 108.401 171.345 108.738 170.924 108.738Z" fill="#31302F"/>
<path d="M161.172 80.2069C160.796 80.2069 160.444 80.1226 160.114 79.9311C157.778 78.575 159.195 73.3193 161.8 68.8297C164.405 64.3402 168.266 60.5018 170.603 61.8579C171.369 62.3023 172.158 63.4285 171.591 66.3092C171.208 68.2934 170.25 70.6531 168.917 72.9592C166.672 76.8282 163.501 80.2069 161.172 80.2069ZM169.515 63.099C168.335 63.099 165.6 65.3362 163.125 69.5959C160.398 74.3 159.976 78.077 160.888 78.6056C161.792 79.1343 164.864 76.8972 167.592 72.1854C168.848 70.0173 169.737 67.8261 170.089 66.0104C170.411 64.3478 170.197 63.3902 169.829 63.1833C169.745 63.1297 169.637 63.1067 169.507 63.1067L169.515 63.099Z" fill="#1E6586"/>
<path d="M162.957 68.5387C162.796 68.5387 162.627 68.4851 162.489 68.3778L158.912 65.6121C158.574 65.3516 158.513 64.8689 158.774 64.5395C159.034 64.2024 159.517 64.1411 159.846 64.4016L163.424 67.1673C163.761 67.4278 163.822 67.9105 163.562 68.2399C163.409 68.4315 163.187 68.5387 162.957 68.5387Z" fill="#1E6586"/>
<path d="M163.639 94.8709C163.217 94.8709 162.873 94.5262 162.873 94.1048C162.873 93.6834 163.217 93.3387 163.639 93.3387C165.355 93.3387 167.033 92.2354 167.722 90.6648C167.891 90.2741 168.343 90.1056 168.734 90.2741C169.124 90.4427 169.293 90.8947 169.124 91.2854C168.197 93.3923 165.945 94.8709 163.639 94.8709Z" fill="#31302F"/>
<path d="M171.905 140.602C171.905 140.602 164.136 131.124 169.76 123.333C175.383 115.541 185.228 115.725 184.73 109.91C184.232 104.095 175.268 96.6866 183.152 97.3838C192.154 98.1805 199.417 91.7067 197.509 86.9183C194.1 78.3759 185.596 87.0256 180.877 82.2449C171.476 72.7142 176.831 56.3495 179.62 51.5305C179.712 51.3773 174.625 50.4962 174.625 50.4962C174.625 50.4962 179.291 41.3868 183.604 44.3058C187.925 47.2248 184.508 49.1784 195.142 51.2087C205.784 53.2313 217.483 57.6289 220.218 66.5851C225.289 83.2102 205.048 90.9482 215.085 100.088C225.121 109.228 233.479 106.616 227.166 116.422C220.854 126.236 228.094 135.2 234.046 136.372C239.999 137.545 171.897 140.602 171.897 140.602H171.905Z" fill="#31302F"/>
<path d="M21.7576 55.6676L21.9414 55.3229C25.1362 53.5914 27.0133 50.8103 26.3544 47.4087L26.3314 47.2861C25.8028 44.5433 23.3894 42.9651 20.5854 43.509C18.5551 43.8998 16.9999 44.8191 15.7894 45.9224L14.5176 39.3566C16.1954 38.1001 17.8579 37.1041 20.7233 36.5449C27.0516 35.319 32.1617 39.0348 33.3569 45.1792L33.4641 45.7155C34.6057 51.6224 31.9242 55.3612 28.5532 57.7515L29.2274 65.0528L24.4544 65.9798L21.7729 55.6676H21.7576ZM23.7419 71.0134L31.9778 69.4198L33.5867 77.7171L25.3508 79.3106L23.7419 71.0134Z" fill="#31302F"/>
<path d="M92.2889 14.9092C93.6526 13.6374 95.407 12.9479 97.2611 12.9479L97.2687 12.9555H97.5369L124.015 13.8979C125.968 13.9668 127.769 14.7943 129.102 16.2193C130.427 17.652 131.124 19.506 131.055 21.4597L130.481 37.5255C130.335 41.5478 126.934 44.7196 122.919 44.5663L111.389 44.1526C111.006 44.1373 110.676 44.4055 110.607 44.7809L102.77 87.3168L103.352 44.62C103.36 44.2063 103.03 43.8615 102.616 43.8462L96.4336 43.624C94.48 43.555 92.6796 42.7276 91.3465 41.3026C90.0211 39.8699 89.3239 38.0159 89.3929 36.0622L89.9675 19.9963C90.0364 18.0427 90.8638 16.2423 92.2889 14.9092Z" fill="#FDF8F6" stroke="#31302F" stroke-width="1.5" stroke-linejoin="round"/>
<path d="M140.11 157.84L107.044 161.683L109.23 180.488L142.296 176.644L140.11 157.84Z" fill="#31302F"/>
<path d="M145.895 184.517L153.372 184.731L148.691 179.621C146.883 177.644 144.424 176.388 141.765 176.089C139.398 175.813 138.157 176.633 136.349 179.445L127.484 194.354L131.016 195.112C133.537 195.649 136.157 194.837 137.927 192.96L145.895 184.517Z" fill="#FDF8F6"/>
<path d="M132.541 196.032C131.982 196.032 131.415 195.97 130.855 195.855L127.324 195.097C127.078 195.043 126.879 194.882 126.78 194.653C126.68 194.423 126.695 194.17 126.826 193.955L135.69 179.046C137.452 176.296 138.885 174.978 141.857 175.323C144.7 175.652 147.327 176.993 149.258 179.1L153.939 184.21C154.146 184.44 154.2 184.769 154.069 185.045C153.939 185.329 153.656 185.513 153.349 185.49L146.216 185.283L138.486 193.473C136.939 195.112 134.763 196.024 132.541 196.024V196.032ZM128.687 193.825L131.177 194.361C133.422 194.844 135.789 194.101 137.368 192.431L145.335 183.988C145.489 183.827 145.703 183.735 145.918 183.75L151.587 183.919L148.132 180.142C146.446 178.303 144.156 177.139 141.681 176.848C139.873 176.641 138.823 177.008 136.992 179.858L128.687 193.825Z" fill="#31302F"/>
<path d="M155.732 184.8L163.209 185.015L158.528 179.905C156.72 177.928 154.261 176.671 151.602 176.365C149.235 176.089 146.99 177.484 146.186 179.721L138.969 198.805L143.887 199.204C146.431 199.41 148.86 198.1 150.085 195.863L155.724 184.792L155.732 184.8Z" fill="#FDF8F6"/>
<path d="M144.408 200C144.217 200 144.025 199.993 143.826 199.977L138.907 199.579C138.67 199.564 138.448 199.426 138.325 199.226C138.195 199.02 138.172 198.774 138.256 198.545L145.473 179.46C146.408 176.886 148.967 175.292 151.694 175.614C154.537 175.944 157.164 177.284 159.095 179.391L163.776 184.501C163.983 184.731 164.037 185.061 163.906 185.336C163.776 185.62 163.493 185.788 163.186 185.781L156.191 185.574L150.767 196.208C149.48 198.56 147.028 199.993 144.401 199.993L144.408 200ZM140.049 198.139L143.949 198.453C146.186 198.629 148.339 197.48 149.419 195.503L155.05 184.455C155.188 184.195 155.456 184.019 155.755 184.034L161.424 184.203L157.969 180.425C156.283 178.587 153.993 177.422 151.518 177.131C149.495 176.894 147.595 178.073 146.906 179.989L140.049 198.131V198.139Z" fill="#31302F"/>
<path d="M165.569 185.091L173.047 185.306L168.366 180.195C166.557 178.219 164.098 176.962 161.44 176.664C159.072 176.388 156.828 177.782 156.023 180.019L149.496 197.487L154.414 197.886C156.958 198.092 159.386 196.782 160.612 194.545L165.569 185.099V185.091Z" fill="#FDF8F6"/>
<path d="M154.935 198.667C154.744 198.667 154.552 198.659 154.353 198.644L149.434 198.246C149.197 198.23 148.975 198.092 148.852 197.893C148.722 197.694 148.699 197.441 148.783 197.211L155.311 179.743C156.245 177.162 158.804 175.576 161.532 175.897C164.374 176.227 167.002 177.568 168.932 179.675L173.614 184.785C173.82 185.015 173.874 185.344 173.744 185.62C173.614 185.903 173.338 186.079 173.024 186.064L166.021 185.857L161.286 194.882C160.007 197.227 157.555 198.659 154.927 198.659L154.935 198.667ZM150.576 196.798L154.483 197.112C156.72 197.296 158.873 196.139 159.953 194.162L164.903 184.731C165.04 184.471 165.309 184.302 165.6 184.317L171.269 184.486L167.814 180.709C166.128 178.87 163.838 177.698 161.363 177.414C159.333 177.177 157.44 178.357 156.751 180.272L150.576 196.798Z" fill="#31302F"/>
<path d="M174.924 185.359L182.402 185.574L177.721 180.464C175.913 178.487 173.453 177.231 170.795 176.924C168.427 176.648 166.183 178.043 165.378 180.28L159.893 195.442L164.811 195.84C167.355 196.047 169.783 194.737 171.009 192.5L174.924 185.359Z" fill="#FDF8F6"/>
<path d="M165.324 196.629C165.133 196.629 164.941 196.622 164.742 196.606L159.823 196.208C159.586 196.193 159.371 196.062 159.241 195.855C159.111 195.656 159.08 195.403 159.164 195.181L164.65 180.019C165.585 177.437 168.151 175.852 170.879 176.166C173.721 176.495 176.349 177.836 178.279 179.943L182.961 185.053C183.167 185.283 183.221 185.612 183.091 185.888C182.961 186.171 182.677 186.348 182.371 186.332L175.36 186.125L171.675 192.852C170.396 195.181 167.952 196.614 165.324 196.614V196.629ZM160.949 194.767L164.864 195.082C167.102 195.265 169.254 194.109 170.335 192.132L174.25 184.992C174.387 184.739 174.656 184.578 174.947 184.593L180.616 184.762L177.161 180.985C175.475 179.146 173.185 177.974 170.71 177.69C168.687 177.453 166.787 178.633 166.098 180.548L160.957 194.767H160.949Z" fill="#31302F"/>
<mask id="mask0_2586_91782" style="mask-type:luminance" maskUnits="userSpaceOnUse" x="97" y="15" width="29" height="28">
<path d="M122.223 15.1721L97.9995 17.9877L100.815 42.2107L125.038 39.3952L122.223 15.1721Z" fill="white"/>
</mask>
<g mask="url(#mask0_2586_91782)">
<path d="M122.045 15.3994C121.876 15.2615 121.654 15.2155 121.439 15.2615C117.21 16.2192 114.521 19.2301 114.475 23.8039L111.28 27.8338C111.564 26.5773 111.801 24.5318 111.035 22.5934C110.445 21.1071 109.327 20.2107 107.802 20.0039C106.561 19.8353 105.32 20.1648 104.692 20.3793C104.477 20.4482 104.301 20.6245 104.24 20.8466C104.171 21.0612 104.217 21.3063 104.347 21.4902C104.692 21.9499 105.243 22.8616 105.94 24.616C106.729 26.7995 108.622 28.3548 110.238 29.1516L106.186 34.2694C106.469 33.0129 106.706 30.9673 105.94 29.029C105.35 27.5427 104.232 26.6463 102.707 26.4394C101.466 26.2709 100.225 26.6003 99.5967 26.8148C99.3822 26.8838 99.206 27.06 99.1447 27.2822C99.0758 27.4967 99.1217 27.7419 99.252 27.9257C99.5967 28.3854 100.148 29.2971 100.846 31.0516C101.635 33.2351 103.527 34.7903 105.144 35.5871L100.876 40.9731C100.631 41.2795 100.685 41.7315 100.991 41.9767C101.298 42.2219 101.75 42.1682 101.995 41.8618L106.262 36.4758C107.411 37.8702 109.35 39.3488 111.663 39.6247C113.525 39.9005 114.544 40.2299 115.073 40.4597C115.28 40.5517 115.525 40.5364 115.724 40.4214C115.923 40.3065 116.053 40.0997 116.069 39.8698C116.13 39.2109 116.161 37.9315 115.716 36.7593C115.165 35.319 114.038 34.4379 112.46 34.2081C110.399 33.9016 108.461 34.6065 107.304 35.1657L111.357 30.0479C112.506 31.4423 114.444 32.921 116.758 33.1968C118.62 33.4726 119.639 33.802 120.167 34.0318C120.374 34.1238 120.62 34.1085 120.819 33.9935C121.018 33.8786 121.148 33.6718 121.163 33.4419C121.225 32.783 121.255 31.5036 120.811 30.3314C120.259 28.8911 119.133 28.01 117.555 27.7802C115.494 27.4737 113.556 28.1786 112.399 28.7378L115.594 24.708C120.045 23.6124 122.351 20.295 122.313 15.974C122.313 15.7518 122.213 15.5526 122.045 15.4147V15.3994Z" fill="#31302F"/>
</g>
<mask id="mask1_2586_91782" style="mask-type:luminance" maskUnits="userSpaceOnUse" x="43" y="6" width="46" height="46">
<path d="M78.5288 6.58198L43.3486 16.1544L52.9211 51.3346L88.1012 41.7621L78.5288 6.58198Z" fill="white"/>
</mask>
<g mask="url(#mask1_2586_91782)">
<path d="M77.8025 8.24516C77.2321 8.39776 76.8988 8.98751 77.0514 9.5579L77.4236 10.9334C79.6473 19.1149 75.0903 27.5638 67.1917 30.288L66.63 28.2242C73.3935 25.8131 77.2783 18.5358 75.3666 11.4962L74.9944 10.1207C74.5701 8.76474 72.6084 9.30096 72.9306 10.6824L73.3028 12.0579C74.9082 17.9635 71.6968 24.0625 66.0694 26.1536L65.5088 24.083C70.0011 22.305 72.546 17.3855 71.2458 12.6206L70.8737 11.2452C70.4493 9.88921 68.4876 10.4254 68.8099 11.8068L69.182 13.1823C70.1691 16.8121 68.2976 20.5532 64.9414 22.0113L64.3705 19.918C66.5872 18.8003 67.8 16.233 67.1182 13.744L66.7461 12.3685C66.3217 11.0126 64.36 11.5488 64.6823 12.9302L65.0545 14.3057C65.4174 15.6517 64.8722 17.0327 63.7858 17.7805L62.2463 12.1164C61.822 10.7604 59.8602 11.2967 60.1825 12.6781L61.722 18.3422C60.4089 18.2417 59.2339 17.3311 58.8631 15.9907L58.4909 14.6153C58.0666 13.2593 56.1048 13.7955 56.4271 15.1769L56.7993 16.5524C57.4742 19.0403 59.8175 20.6437 62.2999 20.4786L62.8708 22.5718C59.2441 23.0206 55.7293 20.745 54.7423 17.1152L54.3701 15.7397C53.9458 14.3838 51.9841 14.92 52.3063 16.3014L52.6785 17.6769C53.9786 22.4418 58.6639 25.3965 63.4371 24.6504L63.9977 26.721C58.0837 27.7723 52.2211 24.1374 50.6158 18.2318L50.2436 16.8563C49.8193 15.5003 47.8576 16.0365 48.1798 17.418L48.552 18.7934C50.4705 25.8342 57.5046 30.1413 64.5583 28.7916L65.1199 30.8554C56.9255 32.5103 48.7119 27.5366 46.4882 19.3551L46.116 17.9796C45.6917 16.6237 43.73 17.1599 44.0522 18.5413L44.4244 19.9168C46.6978 29.0019 56.5742 35.0281 65.6816 32.9192L67.3805 39.1548L62.4485 46.8084C61.9165 47.6319 62.6856 48.6728 63.629 48.4197L77.3737 44.6752C78.3183 44.4152 78.4495 43.1281 77.5754 42.6929L69.4443 38.5931L67.7454 32.3575C76.6565 29.5592 82.1191 19.3608 79.4795 10.3774L79.1073 9.00193C78.9547 8.43154 78.3649 8.09827 77.7945 8.25087L77.8025 8.24516Z" fill="#31302F"/>
</g>
</g>
<defs>
<clipPath id="clip0_2586_91782">
<rect width="254.242" height="200" fill="white" transform="translate(0.803711 0.00012207)"/>
</clipPath>
</defs>
</svg>
