<svg width="264" height="200" viewBox="0 0 264 200" fill="none" xmlns="http://www.w3.org/2000/svg">
<path d="M32.5604 87.8923C47.5335 87.8923 59.6716 75.7542 59.6716 60.7811C59.6716 45.808 47.5335 33.6699 32.5604 33.6699C17.5873 33.6699 5.44922 45.808 5.44922 60.7811C5.44922 75.7542 17.5873 87.8923 32.5604 87.8923Z" fill="#FDF8F6"/>
<path d="M32.255 48.7047L32.1055 51.6318L33.7317 51.7149L33.8812 48.7878L32.255 48.7047Z" fill="#31302F"/>
<path d="M32.255 48.7047L32.1055 51.6318L33.7317 51.7149L33.8812 48.7878L32.255 48.7047Z" fill="#31302F"/>
<path d="M24.1641 52.9328L23.2793 54.2998L25.7398 55.8925L26.6246 54.5255L24.1641 52.9328Z" fill="#31302F"/>
<path d="M25.4183 62.0528L22.8086 63.3867L23.5496 64.8366L26.1593 63.5027L25.4183 62.0528Z" fill="#31302F"/>
<path d="M31.3559 66.8766L31.207 69.8037L32.8332 69.8864L32.9821 66.9593L31.3559 66.8766Z" fill="#31302F"/>
<path d="M39.4177 62.8096L38.5332 64.1768L40.994 65.7688L41.8785 64.4017L39.4177 62.8096Z" fill="#31302F"/>
<path d="M41.6208 53.7672L39.0117 55.1025L39.7536 56.5521L42.3627 55.2167L41.6208 53.7672Z" fill="#31302F"/>
<path d="M49.1694 62.8984L96.5529 114.19L38.2598 73.2381L49.1694 62.8984Z" fill="#FDF8F6"/>
<path d="M28.5721 141.463L32.8057 141.382C35.1667 141.382 37.1207 140.323 37.1207 139.021L38.5861 74.2959L25.8854 74.4587L24.4199 139.184C24.4199 140.405 26.2111 141.463 28.5721 141.463Z" fill="#7FD0FF"/>
<path d="M37.2007 136.985L24.5 137.148L24.4186 139.184C24.3372 140.486 26.2097 141.463 28.5707 141.463L32.8043 141.382C35.1653 141.382 37.1193 140.323 37.1193 139.021L37.2007 136.985Z" fill="#31302F"/>
<path d="M32.8853 62.5723L37.6074 73.5633L27.0234 73.6447L32.8853 62.5723Z" fill="#FDF8F6"/>
<path d="M32.805 64.2006L36.5501 72.912L28.1644 72.9934L32.805 64.2006ZM32.8865 61.0254L25.8848 74.3774L38.6669 74.2146L32.8865 61.0254Z" fill="#31302F"/>
<path d="M30.7695 66.9687L34.6774 66.8059L32.8863 61.0254L30.7695 66.9687Z" fill="#31302F"/>
<path d="M50.7164 193.65C50.0651 193.65 49.4138 193.569 48.681 193.488C41.6794 192.348 33.1308 185.59 29.5485 173.052C29.3857 172.401 29.7113 171.506 30.5255 170.366C37.3644 161.492 81.8169 133.729 97.2858 133.973C100.542 134.055 103.148 139.347 104.043 147.732C104.45 151.559 102.578 159.293 97.2044 164.422C92.3195 169.063 85.7248 170.773 77.6648 169.47C69.6861 168.168 63.987 178.833 60.242 185.835C59.265 187.626 58.4508 189.173 57.7995 190.15C56.334 192.429 53.8102 193.65 50.7164 193.65ZM97.1229 135.032C90.6098 135.032 77.2577 140.405 61.4632 149.524C47.4598 157.584 34.8405 166.621 31.4211 171.017C30.5255 172.157 30.6069 172.645 30.6069 172.727C34.0263 184.858 42.2493 191.371 48.9253 192.429C52.4261 192.999 55.4385 191.941 56.9854 189.58C57.6367 188.603 58.4508 187.137 59.3464 185.346C63.2543 178.019 69.0348 167.028 77.8276 168.412C85.562 169.633 91.831 168.086 96.4716 163.69C101.601 158.805 103.392 151.477 102.985 147.895C102.008 139.102 99.484 135.113 97.2858 135.032C97.2044 135.032 97.1229 135.032 97.1229 135.032Z" fill="#31302F"/>
<path d="M110.556 149.524C109.904 156.607 100.216 176.472 78.8037 168.493C68.1383 164.504 57.3916 183.392 52.7509 188.277C45.6678 195.93 29.222 185.835 27.8379 163.609C27.4309 157.258 89.6319 129.577 106.973 133.241C109.986 133.811 111.451 139.835 110.556 149.524Z" fill="#31302F"/>
<path d="M27.6397 192.931C39.4277 191.193 47.5745 180.227 45.836 168.439C44.0975 156.651 33.1321 148.504 21.3441 150.243C9.55609 151.981 1.40931 162.947 3.14779 174.735C4.88626 186.523 15.8517 194.67 27.6397 192.931Z" fill="#31302F"/>
<path d="M23.2791 196.255C23.0349 196.255 22.7906 196.255 22.5464 196.255C16.6031 196.092 11.1483 193.568 7.07753 189.253C3.00679 184.938 0.889996 179.321 1.13424 173.377C1.29707 167.434 3.82094 161.979 8.13593 157.909C12.4509 153.838 18.0686 151.721 24.0118 151.965C36.2241 152.372 45.8311 162.631 45.424 174.843C45.0169 186.811 35.1657 196.255 23.2791 196.255ZM23.2791 153.024C17.9057 153.024 12.858 155.059 8.86866 158.723C4.79791 162.549 2.35547 167.76 2.19264 173.377C2.02981 178.995 4.06518 184.368 7.89168 188.439C11.7182 192.51 16.9287 194.952 22.5464 195.115C34.1073 195.522 43.9585 186.322 44.2842 174.761C44.6912 163.119 35.4914 153.349 23.9304 153.024C23.6862 153.024 23.5234 153.024 23.2791 153.024Z" fill="#31302F"/>
<path d="M52.9587 181.54C58.3319 176.166 58.332 167.455 52.9587 162.081C47.5855 156.708 38.8738 156.708 33.5006 162.081C28.1273 167.455 28.1273 176.166 33.5006 181.54C38.8738 186.913 47.5855 186.913 52.9587 181.54Z" fill="#31302F"/>
<path d="M45.5052 178.996C35.1655 174.6 15.7887 167.761 13.4277 157.828C10.8224 147 14.5675 120.54 35.4912 125.914C40.1318 127.298 44.2026 131.124 47.9477 133.322C53.8095 136.66 58.0431 135.276 67.4872 128.6C76.9314 122.006 80.3508 116.144 92.9701 118.831C103.147 120.947 110.474 134.218 110.8 139.591C111.858 157.014 88.1666 167.761 80.6765 168.575C73.1863 169.389 70.2554 162.876 63.3351 166.621C59.0201 168.982 52.7511 174.681 45.5052 178.996Z" fill="#31302F"/>
<path d="M106.143 145.836C108.437 136.122 102.422 126.387 92.7072 124.093C82.9926 121.799 73.2579 127.815 70.964 137.529C68.6701 147.244 74.6858 156.979 84.4003 159.273C94.1148 161.566 103.85 155.551 106.143 145.836Z" fill="#31302F"/>
<path d="M174.223 107.025C173.979 106.374 173.653 105.804 173.327 105.234C173.246 104.583 173.165 104.013 173.002 103.362C172.025 100.024 171.211 97.0926 171.048 97.0112L174.386 83.0078C174.386 81.7866 173.734 80.8096 172.758 80.7282C171.699 80.5653 171.211 81.2981 170.234 82.9264L166.326 91.3121V80.0769C165.919 78.8556 164.86 78.0415 163.639 78.0415C161.929 78.1229 160.79 79.6698 161.115 81.2167L160.79 93.9988L156.393 79.1813C155.986 77.7972 154.439 76.9831 152.974 77.3902C151.671 77.7972 150.938 79.2627 151.183 80.6468L155.579 96.0342L148.333 86.9157C145.972 84.5547 145.891 84.3919 144.669 84.4733C142.96 84.6361 141.901 86.2644 142.39 87.8927L150.775 101.326L152.16 106.455L146.623 102.14C145.239 101.082 143.448 100.593 141.738 100.838C140.517 101.001 140.029 102.466 140.843 103.362L145.565 108.735C147.682 111.096 150.206 113.131 152.974 114.597C153.055 114.841 153.137 115.167 153.218 115.411C155.009 119.97 155.905 124.692 155.905 129.577C155.905 154.49 131.724 174.681 101.926 174.681C73.6755 174.681 49.9837 156.2 48.1112 132.671C48.0298 131.368 47.7041 130.147 47.1342 129.007C47.3785 128.193 47.4599 127.298 47.4599 126.321C47.4599 125.669 47.3785 124.936 47.3785 124.041C47.1342 118.016 46.7271 108.002 44.8546 105.804C43.3077 104.013 40.3768 102.466 38.3414 102.466C37.5273 102.466 36.9574 102.629 36.5503 103.117C36.0618 103.606 35.5733 105.071 35.2476 107.025C33.0494 104.99 24.5009 105.397 21.7328 106.944C19.2903 108.246 17.9877 110.2 17.9062 112.48C17.9062 114.353 18.5576 116.062 18.5576 116.144C18.639 116.225 18.7204 116.307 18.8018 116.307H18.8832C17.9877 117.528 17.9877 118.749 17.9877 119.563C17.9877 121.273 19.8602 122.657 19.9416 122.657C19.9416 122.657 19.9416 122.657 20.023 122.657C19.2903 123.39 18.8018 124.204 18.5576 125.099C18.0691 126.972 20.3487 129.007 20.8372 129.414C20.9186 129.903 21.4885 132.101 23.5239 133.078C24.2566 133.485 24.9079 133.729 25.5593 133.892C25.5593 134.218 25.5593 134.462 25.5593 134.788C26.9433 152.129 35.7361 168.168 50.3094 179.973C64.4756 191.453 82.8754 197.721 102.089 197.721C144.425 197.721 178.864 167.272 178.864 129.821C178.538 121.843 177.072 114.271 174.223 107.025Z" fill="#FDF8F6"/>
<path d="M101.763 198.373C82.3053 198.373 63.7427 192.023 49.4136 180.38C34.6775 168.494 25.8033 152.211 24.3378 134.625C24.3378 134.544 24.3378 134.381 24.3378 134.3C23.8493 134.137 23.3609 133.892 22.7909 133.648C20.7556 132.671 20.0228 130.636 19.7786 129.74C18.883 128.926 16.9291 126.891 17.499 124.774C17.6618 124.041 18.0689 123.39 18.5574 122.657C17.9061 122.006 16.9291 120.866 16.9291 119.401C16.9291 118.668 16.9291 117.528 17.5804 116.388C17.5804 116.388 17.5804 116.388 17.5804 116.307C17.499 116.144 16.8477 114.434 16.8477 112.399C16.8477 109.875 18.3945 107.677 21.0812 106.211C23.7679 104.746 31.0139 104.176 34.4333 105.723C34.759 104.42 35.166 103.118 35.7359 102.548C36.3058 101.978 37.12 101.652 38.1784 101.652C40.3766 101.734 43.5518 103.28 45.2615 105.316C47.134 107.514 47.7039 115.737 48.0296 124.041C48.0296 124.937 48.111 125.67 48.111 126.321C48.1924 127.216 48.111 128.193 47.8668 129.008C48.3553 130.229 48.6809 131.45 48.7623 132.671C50.6349 155.793 73.9196 173.949 101.763 173.949C131.073 173.949 154.927 154.083 154.927 129.659C154.927 124.937 154.032 120.296 152.241 115.818C152.159 115.655 152.078 115.411 151.997 115.248C149.228 113.702 146.705 111.748 144.588 109.305L139.866 103.932C139.296 103.28 139.133 102.385 139.459 101.571C139.784 100.757 140.436 100.187 141.331 100.024C143.285 99.6982 145.32 100.268 146.867 101.489L150.531 104.339L149.798 101.652L141.494 88.3001C141.413 88.2186 141.413 88.1372 141.413 88.0558C141.168 87.0788 141.331 86.0204 141.901 85.2063C142.471 84.3921 143.367 83.8222 144.425 83.6594C145.972 83.4966 146.379 83.9036 148.496 86.0204L148.821 86.3461C148.821 86.3461 148.821 86.4275 148.903 86.4275L153.625 92.3708L150.368 80.8913C150.043 79.1002 151.101 77.1462 152.729 76.6577C154.602 76.0878 156.556 77.1462 157.126 78.9373L160.057 88.9514L160.301 81.2984C160.138 80.3214 160.382 79.3444 161.034 78.5303C161.685 77.7161 162.662 77.2276 163.639 77.2276C165.186 77.1462 166.651 78.2046 167.14 79.8329C167.14 79.9143 167.14 79.9957 167.14 80.0771V87.7302L169.501 82.6824C170.315 81.217 171.129 79.8329 172.839 79.9957C174.223 80.1586 175.2 81.5426 175.2 83.1709C175.2 83.2523 175.2 83.2523 175.2 83.3337L171.943 97.0929C172.187 97.7442 172.676 99.2911 173.816 103.28C173.979 103.85 174.06 104.502 174.141 105.072C174.467 105.641 174.793 106.293 175.037 106.863C177.968 114.19 179.433 121.924 179.433 129.74C179.352 167.517 144.506 198.373 101.763 198.373ZM20.1043 121.843C20.3485 121.924 20.4299 122.169 20.5113 122.413C20.5927 122.657 20.5113 122.983 20.3485 123.146C19.6972 123.797 19.2901 124.53 19.0459 125.181C18.7202 126.321 20.1043 127.868 20.9998 128.6C21.1626 128.682 21.2441 128.845 21.2441 129.089C21.3255 129.496 21.814 131.369 23.4423 132.183C24.175 132.508 24.7449 132.753 25.3148 132.915C25.6405 132.997 25.8847 133.323 25.8847 133.73C25.8847 133.974 25.8847 134.3 25.8847 134.544C27.2688 151.722 35.9802 167.517 50.3092 179.159C64.3126 190.476 82.5495 196.745 101.601 196.745C143.448 196.745 177.561 166.621 177.561 129.659C177.561 122.006 176.095 114.516 173.246 107.351C173.002 106.781 172.757 106.211 172.35 105.641C172.269 105.56 172.269 105.397 172.269 105.316C172.187 104.746 172.106 104.176 171.943 103.606C170.559 98.8026 170.233 97.6628 170.071 97.4185C169.989 97.2557 169.908 97.0115 169.989 96.7672L173.327 82.8453C173.327 82.1125 172.92 81.4612 172.432 81.4612C172.025 81.3798 171.699 81.5426 170.722 83.2523L166.814 91.5567C166.651 91.8823 166.244 92.1266 165.918 91.9637C165.511 91.8823 165.267 91.5567 165.267 91.1496V79.9957C164.941 79.1816 164.209 78.6117 163.395 78.6931C162.825 78.6931 162.336 78.9373 162.011 79.4258C161.685 79.8329 161.522 80.4028 161.603 80.9727C161.603 81.0541 161.603 81.0541 161.603 81.1355L161.278 93.9177C161.278 94.3248 160.952 94.6504 160.545 94.7318C160.138 94.8133 159.812 94.569 159.65 94.1619L155.253 79.3444C154.927 78.3674 153.869 77.7975 152.892 78.1232C152.078 78.3674 151.427 79.5072 151.589 80.4028L155.904 95.7088C155.986 96.1159 155.823 96.4416 155.497 96.6858C155.172 96.8486 154.765 96.7672 154.52 96.4416L147.274 87.3231L147.03 87.0788C145.076 85.1249 145.076 85.1249 144.343 85.2063C143.774 85.2877 143.285 85.5319 142.959 86.0204C142.634 86.4275 142.552 86.9974 142.634 87.4859L150.938 100.838C151.02 100.919 151.02 101.001 151.02 101.082L152.404 106.211C152.485 106.537 152.322 106.944 152.078 107.107C151.752 107.27 151.427 107.27 151.101 107.107L145.565 102.792C144.343 101.815 142.797 101.408 141.25 101.652C140.843 101.734 140.761 101.978 140.68 102.141C140.598 102.222 140.598 102.548 140.843 102.873L145.565 108.247C147.6 110.526 150.043 112.48 152.811 113.946C152.973 114.027 153.136 114.19 153.218 114.434C153.299 114.679 153.381 114.923 153.462 115.167C155.335 119.808 156.23 124.693 156.23 129.659C156.23 154.979 131.643 175.577 101.438 175.577C72.7797 175.577 48.7623 156.77 46.8084 132.834C46.7269 131.694 46.4013 130.554 45.9128 129.415C45.8314 129.252 45.8314 129.008 45.9128 128.845C46.157 128.031 46.2385 127.216 46.157 126.402C46.157 125.751 46.0756 125.018 46.0756 124.123C45.8314 118.993 45.4243 108.328 43.7146 106.374C42.2491 104.746 39.5624 103.362 37.7713 103.28C37.2014 103.28 36.7943 103.362 36.5501 103.606C36.3872 103.769 35.8988 104.827 35.4103 107.107C35.3289 107.433 35.166 107.595 34.8404 107.758C34.5961 107.84 34.2705 107.758 34.0262 107.595C32.2351 105.886 24.175 106.13 21.4883 107.595C19.2901 108.735 18.1503 110.445 18.1503 112.399C18.1503 113.702 18.476 114.841 18.6388 115.411C18.8016 115.493 18.883 115.574 18.9644 115.655C19.2087 115.981 19.2087 116.388 18.9644 116.632C18.2317 117.609 18.2317 118.668 18.2317 119.401C18.5574 120.622 19.86 121.68 20.1043 121.843Z" fill="#31302F"/>
<path d="M164.046 111.177C163.72 111.177 163.394 110.933 163.313 110.608C163.313 110.526 161.033 104.583 154.927 103.036C154.52 102.955 154.194 102.466 154.357 102.059C154.439 101.652 154.927 101.326 155.334 101.489C162.336 103.199 164.778 109.793 164.86 110.038C165.023 110.445 164.778 110.933 164.371 111.096C164.208 111.177 164.127 111.177 164.046 111.177Z" fill="#31302F"/>
<path d="M152.403 98.7208C152.159 98.7208 151.833 98.558 151.67 98.3137C151.426 97.9066 151.589 97.4182 151.915 97.1739C152.322 96.9297 161.114 91.7191 167.465 94.0801C167.872 94.243 168.116 94.7315 167.953 95.1385C167.79 95.5456 167.302 95.7899 166.895 95.627C161.359 93.5102 152.892 98.558 152.81 98.558C152.729 98.7208 152.566 98.7208 152.403 98.7208Z" fill="#31302F"/>
<path d="M220.059 36.9268L225.514 51.4186L235.854 39.8577L235.772 55.408L249.613 48.3249L243.832 62.8167L259.382 61.2698L248.799 72.6679L263.779 76.7387L249.776 83.5775L262.232 92.8588L246.763 94.1615L255.067 107.269L240.169 102.873L243.181 118.179L230.806 108.653L228.119 124.041L220.059 110.689L211.918 124.041L209.231 108.653L196.937 118.179L199.868 102.873L184.969 107.269L193.274 94.1615L177.805 92.8588L190.261 83.5775L176.258 76.7387L191.238 72.6679L180.736 61.2698L196.204 62.8167L190.424 48.3249L204.265 55.408L204.183 39.8577L214.523 51.4186L220.059 36.9268Z" fill="#FDF8F6"/>
<path d="M125.701 54.3496L134.331 57.6876L143.368 44.417L140.925 60.1301L151.428 61.5141L139.948 65.2592L138.971 75.4361L133.842 67.2132L125.375 69.4928L129.934 62.8982L125.701 54.3496Z" fill="#FDF8F6"/>
<path d="M18.5573 116.795C18.2316 116.795 17.9059 116.632 17.8245 116.306C17.8245 116.225 17.0918 114.515 17.0918 112.48C17.0918 110.037 18.5573 107.921 21.1625 106.455C23.8492 104.99 33.0491 104.257 35.4102 106.781C35.7358 107.107 35.7358 107.595 35.4102 107.921C35.0845 108.246 34.596 108.246 34.2704 107.921C32.7235 106.292 24.582 106.537 21.9767 107.921C19.29 109.386 18.7201 111.177 18.7201 112.48C18.7201 114.19 19.29 115.736 19.29 115.736C19.4528 116.144 19.2086 116.632 18.8015 116.795C18.8015 116.713 18.7201 116.795 18.5573 116.795Z" fill="#31302F"/>
<path d="M19.4534 122.819C19.2906 122.819 19.1278 122.738 18.965 122.656C18.8835 122.575 17.1738 121.435 17.1738 119.318C17.1738 117.853 17.2552 114.84 22.0587 113.212C25.8038 111.909 29.956 111.665 34.4338 112.317C34.8409 112.398 35.1665 112.805 35.0851 113.212C35.0037 113.619 34.5966 113.945 34.1896 113.863C29.956 113.212 26.0481 113.538 22.5472 114.678C18.8021 115.98 18.8021 117.853 18.8021 119.237C18.8021 120.377 19.8605 121.191 19.8605 121.191C20.2676 121.435 20.349 121.924 20.1048 122.331C19.9419 122.738 19.6977 122.819 19.4534 122.819Z" fill="#31302F"/>
<path d="M23.2801 133.485C23.1987 133.485 23.0359 133.485 22.9545 133.403C20.6748 132.263 17.0926 127.297 17.7439 124.855C18.3952 122.494 20.9191 120.54 23.1987 119.807C26.6181 118.586 31.5844 117.283 35.5738 118.097C35.9809 118.179 36.3065 118.586 36.2251 119.074C36.1437 119.481 35.7366 119.807 35.2481 119.725C31.5844 118.993 27.0252 120.214 23.7686 121.435C21.6518 122.168 19.7793 123.878 19.3722 125.425C18.9651 126.89 21.8146 131.205 23.6872 132.101C24.0943 132.263 24.2571 132.752 24.0943 133.159C23.85 133.322 23.6058 133.485 23.2801 133.485Z" fill="#31302F"/>
<path d="M37.1192 121.435C36.7122 121.435 36.2237 121.273 35.7352 120.784C34.514 119.644 33.8626 117.446 33.7812 114.271C33.6184 109.793 34.7582 103.85 35.898 102.629C36.2237 102.222 36.9564 101.814 38.0962 101.814C40.2944 101.896 43.3068 103.443 45.0165 105.397C45.3422 105.722 45.2607 106.211 44.9351 106.537C44.6094 106.862 44.1209 106.781 43.7953 106.455C42.4112 104.827 39.8059 103.524 38.0962 103.443C37.7706 103.443 37.2821 103.443 37.1192 103.687C36.5493 104.338 35.2467 109.305 35.4095 114.19C35.4909 116.876 35.9794 118.749 36.7936 119.563C36.7936 119.563 37.0378 119.807 37.1192 119.726C38.259 119.319 39.5617 113.701 40.1316 108.735C40.213 108.328 40.5387 107.921 41.0272 108.002C41.4342 108.083 41.7599 108.409 41.7599 108.898C41.5156 111.584 40.3758 120.296 37.6891 121.273C37.5263 121.435 37.3635 121.435 37.1192 121.435Z" fill="#31302F"/>
<path d="M26.1282 127.948C25.8839 127.948 25.6397 127.867 25.4768 127.623C25.1512 127.297 25.2326 126.809 25.5583 126.483C25.7211 126.32 30.3617 122.412 36.7121 123.308C37.5263 123.389 38.3404 123.063 38.6661 122.494C39.1546 121.679 38.9917 121.11 38.1776 120.621C37.7705 120.377 37.6891 119.888 37.9333 119.481C38.1776 119.074 38.6661 118.993 39.0731 119.237C40.7014 120.295 41.0271 121.761 40.0501 123.389C39.3174 124.529 37.9333 125.18 36.4679 125.017C30.9317 124.285 26.6981 127.786 26.6167 127.867C26.4538 127.867 26.291 127.948 26.1282 127.948Z" fill="#31302F"/>
<path d="M157.939 75.2724C157.695 75.2724 157.532 75.191 157.369 75.0282C157.044 74.7025 157.044 74.214 157.369 73.8884L186.109 41.1596L169.012 39.9383C167.139 39.8569 165.592 38.4729 165.348 36.6003L161.847 14.2926C161.684 13.1528 162.01 11.9316 162.824 11.036C163.638 10.1405 164.778 9.65198 165.918 9.73339L200.194 11.5245C202.066 11.6059 203.613 12.99 203.939 14.7811L207.602 35.949C207.847 37.1702 207.439 38.3915 206.625 39.287C205.811 40.1826 204.59 40.6711 203.369 40.5082H198.402L158.59 74.9468C158.346 75.191 158.102 75.2724 157.939 75.2724ZM165.674 11.4431C165.022 11.4431 164.371 11.6874 163.964 12.2573C163.475 12.7457 163.313 13.4785 163.394 14.1298L166.895 36.4375C167.058 37.4959 167.953 38.31 169.093 38.3915L186.434 39.6127C187.004 39.6127 187.574 39.8569 188.063 40.1826C188.226 40.3454 188.388 40.5082 188.388 40.7525C188.388 40.9967 188.307 41.241 188.226 41.4038L166.406 66.0725L197.425 39.2056C197.588 39.0428 197.751 39.0428 197.995 39.0428H203.287C204.101 39.1242 204.753 38.8799 205.241 38.31C205.73 37.7401 205.974 37.0888 205.811 36.3561L202.147 15.1882C201.985 14.1298 201.008 13.3157 199.949 13.2342L165.674 11.4431Z" fill="#31302F"/>
<path d="M36.7132 20.4804C36.7132 20.4804 36.3875 19.9104 36.2247 19.6662C34.7592 16.8981 31.2584 15.8397 28.4903 17.3052C27.5947 17.7937 24.3381 19.5034 23.4426 19.9919C20.6745 21.4573 19.6161 24.9582 21.0815 27.7263C21.2444 28.0519 21.57 28.5404 21.57 28.5404L36.7132 20.4804Z" fill="#31302F"/>
<path d="M26.2113 11.0372C27.1883 12.9098 26.537 15.1894 24.6644 16.1664C22.7919 17.1434 20.5123 16.4921 19.5353 14.6195C18.5583 12.747 19.2096 10.4673 21.0822 9.49036C22.9547 8.51338 25.2343 9.1647 26.2113 11.0372Z" fill="#31302F"/>
<path d="M118.534 105.152C118.127 105.152 117.802 104.827 117.72 104.501L109.416 52.0697H103.554C98.3436 52.0697 94.1914 47.8361 94.1914 42.7069V25.6098C94.1914 20.3992 98.425 16.2471 103.554 16.2471H163.068C168.279 16.2471 172.431 20.4806 172.431 25.6098V42.7069C172.431 47.9175 168.198 52.0697 163.068 52.0697H120.244L119.43 104.419C119.349 104.827 119.023 105.152 118.534 105.152ZM103.473 17.794C99.1577 17.794 95.7383 21.2948 95.7383 25.5284V42.6255C95.7383 46.9405 99.2391 50.3599 103.473 50.3599H110.067C110.474 50.3599 110.8 50.6856 110.881 51.0113L117.883 94.8939L118.616 51.0927C118.616 50.6856 119.023 50.2785 119.43 50.2785H163.068C167.383 50.2785 170.803 46.7777 170.803 42.5441V25.447C170.803 21.132 167.302 17.7125 163.068 17.7125H103.473V17.794Z" fill="#31302F"/>
<path d="M137.587 40.8344C134.9 40.8344 132.051 39.369 129.771 37.415C127.654 38.8805 124.072 40.5902 119.675 39.369C117.721 38.7991 116.093 37.8221 114.872 36.6008C114.465 36.9265 114.058 37.2522 113.651 37.4964C110.068 39.6132 108.44 38.1477 108.277 37.9849L109.417 36.7637C109.417 36.7637 110.394 37.4964 112.918 36.0309C113.244 35.8681 113.569 35.6239 113.895 35.2982C113.162 34.3212 112.674 33.2628 112.511 32.2044C112.185 30.5761 112.511 29.1921 113.406 28.4594C114.058 27.9709 115.198 27.4824 117.07 28.2151C117.884 28.5408 118.373 29.2735 118.454 30.1691C118.536 31.7159 117.559 33.7513 116.175 35.3796C117.152 36.3566 118.536 37.2522 120.245 37.7407C123.828 38.7176 126.84 37.4964 128.631 36.2752C128.061 35.7053 127.573 35.054 127.166 34.4026C125.7 32.123 125.374 30.0062 126.433 28.5408C127.491 26.9939 129.038 26.2611 130.829 26.5868C132.702 26.9939 134.249 28.5408 134.574 30.4133C134.819 31.8788 133.516 34.2398 131.318 36.2752L131.236 36.3566C133.435 38.2291 136.284 39.5318 138.564 39.1247C141.088 38.7176 142.634 37.8221 143.286 36.438C139.704 35.3796 139.052 33.6699 138.971 32.6929C138.889 31.3089 140.029 30.0062 141.495 29.762C143.204 29.5177 144.833 31.6345 145.158 33.6699C145.24 34.077 145.24 34.6469 145.24 35.1354C146.624 35.3796 148.334 35.5425 150.532 35.6239V37.2522C148.252 37.2522 146.38 37.0079 144.914 36.7637C144.263 38.392 142.634 40.0203 138.889 40.753C138.319 40.8344 137.994 40.8344 137.587 40.8344ZM129.852 28.1337C129.038 28.1337 128.305 28.5408 127.736 29.4363C127.166 30.3319 127.41 31.7974 128.468 33.5071C128.875 34.077 129.364 34.7283 129.852 35.2982C129.934 35.2168 130.015 35.1354 130.097 35.1354C132.051 33.3443 132.946 31.4717 132.865 30.8204C132.62 29.5992 131.643 28.5408 130.422 28.2965C130.178 28.2151 130.015 28.1337 129.852 28.1337ZM141.657 31.3903C140.925 31.4717 140.436 32.0416 140.436 32.6115C140.518 33.2628 141.25 34.1584 143.449 34.8097C143.449 34.5655 143.449 34.2398 143.367 33.9956C143.204 32.6115 142.227 31.3903 141.657 31.3903ZM115.198 29.5177C114.872 29.5177 114.628 29.5992 114.383 29.762C113.976 30.1691 113.814 30.9832 114.058 31.9602C114.221 32.6929 114.546 33.4257 115.035 34.1584C116.175 32.8558 116.826 31.3089 116.744 30.3319C116.744 29.9248 116.582 29.8434 116.419 29.762C116.012 29.5992 115.523 29.5177 115.198 29.5177Z" fill="#31302F"/>
<path d="M100.055 71.7725L109.092 110.852L107.301 71.9353L100.055 71.7725Z" fill="#31302F"/>
<path d="M133.514 92.9395L128.059 85.8564L121.953 112.072L133.514 92.9395Z" fill="#31302F"/>
<path d="M87.3542 116.062L72.6995 104.338L67.5703 106.048L87.3542 116.062Z" fill="#31302F"/>
<path d="M185.54 33.0993C185.54 33.0993 195.065 22.5968 192.134 19.5844C188.389 15.8393 182.772 22.4339 183.83 25.8534C184.888 29.2728 186.11 19.4216 181.306 19.503C177.561 19.6658 175.037 25.0392 185.54 33.0993Z" fill="#31302F"/>
<path d="M103.717 112.317C103.473 112.317 103.147 112.154 102.984 111.91L72.6166 60.6184C57.4734 62.1652 44.447 55.5706 40.8647 44.4982C36.4683 30.8205 47.7036 14.8631 66.022 9.00127C74.8148 6.15175 83.9333 6.07033 91.6677 8.67561C99.4835 11.3623 105.02 16.4914 107.137 23.1675C111.37 36.2753 101.356 51.4185 84.2589 57.9317L104.45 111.258C104.613 111.666 104.45 112.073 104.043 112.317C103.961 112.317 103.88 112.317 103.717 112.317ZM73.1051 58.9901C73.4307 58.9901 73.675 59.1529 73.8378 59.3971L99.6463 103.036L82.4678 57.6874C82.3864 57.4432 82.3864 57.2803 82.4678 57.0361C82.5492 56.8733 82.712 56.7104 82.9563 56.629C99.7278 50.6043 109.66 36.1125 105.59 23.656C103.636 17.4684 98.4251 12.7464 91.0978 10.2225C83.689 7.69863 74.8962 7.86146 66.429 10.5482C49.0062 16.1658 38.178 31.2276 42.3302 44.0097C45.831 54.5122 58.369 60.6184 73.0237 58.9901H73.1051Z" fill="#31302F"/>
<path d="M236.994 140.73C236.668 140.73 236.424 140.567 236.261 140.323L234.47 136.985L231.132 135.194C230.887 135.031 230.725 134.787 230.725 134.461C230.725 134.136 230.887 133.891 231.132 133.729L234.47 131.937L236.261 128.599C236.424 128.355 236.668 128.192 236.994 128.192C237.319 128.192 237.563 128.355 237.726 128.599L239.517 131.937L242.855 133.729C243.1 133.891 243.263 134.136 243.263 134.461C243.263 134.787 243.1 135.031 242.855 135.194L239.517 136.985L237.726 140.323C237.563 140.567 237.319 140.73 236.994 140.73ZM233.167 134.38L235.447 135.601C235.609 135.683 235.691 135.764 235.772 135.927L236.994 138.206L238.215 135.927C238.296 135.764 238.378 135.683 238.54 135.601L240.82 134.38L238.54 133.159C238.378 133.077 238.296 132.996 238.215 132.833L236.994 130.553L235.772 132.833C235.691 132.996 235.609 133.077 235.447 133.159L233.167 134.38Z" fill="#31302F"/>
<path d="M74.4069 38.7988L73.837 38.9616C71.8017 39.6943 69.522 38.5545 68.7893 36.5191L58.6939 6.15136C57.8797 3.87174 59.4266 1.34788 61.7876 1.02222L68.0566 0.0452372C70.2548 -0.280423 72.2902 1.18505 72.6158 3.38325L77.0122 34.5652C77.2565 36.3563 76.1981 38.1474 74.4069 38.7988Z" fill="#31302F"/>
<path d="M78.9683 51.2554L77.2586 51.7439C75.2232 52.2324 73.1879 51.0926 72.5365 49.1386C71.8852 47.1847 72.9436 44.9865 74.8162 44.2537L76.4445 43.6024C78.317 42.8697 80.4338 43.6838 81.4108 45.475L81.4922 45.6378C82.632 47.9174 81.4108 50.6041 78.9683 51.2554Z" fill="#31302F"/>
<path d="M238.132 21.8641C237.807 21.8641 237.562 21.7012 237.4 21.457L235.608 18.119L232.27 16.3279C232.026 16.165 231.863 15.9208 231.863 15.5951C231.863 15.2695 232.026 15.0252 232.27 14.8624L235.608 13.0713L237.4 9.73325C237.562 9.489 237.807 9.32617 238.132 9.32617C238.458 9.32617 238.702 9.489 238.865 9.73325L240.656 13.0713L243.994 14.8624C244.238 15.0252 244.401 15.2695 244.401 15.5951C244.401 15.9208 244.238 16.165 243.994 16.3279L240.656 18.119L238.865 21.457C238.702 21.7012 238.458 21.8641 238.132 21.8641ZM234.387 15.5951L236.667 16.8163C236.83 16.8978 236.911 16.9792 236.992 17.142L238.214 19.4216L239.435 17.142C239.516 16.9792 239.598 16.8978 239.761 16.8163L242.04 15.5951L239.761 14.3739C239.598 14.2925 239.516 14.2111 239.435 14.0482L238.214 11.7686L236.992 14.0482C236.911 14.2111 236.83 14.2925 236.667 14.3739L234.387 15.5951Z" fill="#31302F"/>
<path d="M101.763 200C86.9458 200 72.4539 196.336 59.916 189.416L73.3495 165.154C81.8166 169.795 91.6679 172.319 101.845 172.319C121.384 172.319 139.621 162.875 148.251 148.139L172.106 162.142C158.347 185.508 131.398 200 101.763 200Z" fill="#7FD0FF"/>
<path d="M240.659 86.3456C239.357 89.3579 237.484 93.6729 236.1 96.6039C213.63 97.5809 213.304 97.4994 197.998 80.9722C199.056 78.2041 200.603 74.1333 201.662 71.3652L240.659 86.3456Z" fill="#31302F"/>
<path d="M225.596 66.1542L194.902 64.8516L217.699 85.4496L248.473 86.7522L225.596 66.1542Z" fill="#31302F"/>
<path d="M202.311 91.3109C202.229 91.3109 202.066 91.311 201.985 91.2295C201.578 91.0667 201.334 90.5782 201.578 90.1711L207.521 75.5979C207.684 75.2722 207.928 75.1094 208.335 75.1094L220.792 75.5979C221.28 75.5979 221.606 76.0049 221.606 76.412C221.606 76.9005 221.199 77.2262 220.792 77.2262L208.905 76.7377L203.125 90.741C202.962 91.1481 202.636 91.3109 202.311 91.3109Z" fill="#FDF8F6"/>
<path d="M204.429 92.1259C203.94 93.2657 202.637 93.8356 201.416 93.4286C200.276 92.9401 199.707 91.6374 200.114 90.4162C200.602 89.2764 201.905 88.7065 203.126 89.1136C204.347 89.6021 204.917 90.9047 204.429 92.1259Z" fill="#FDF8F6"/>
<path d="M201.252 99.6977L202.637 96.3597C203.125 95.2199 202.555 93.8358 201.334 93.3473C200.194 92.8588 198.81 93.4287 198.322 94.65L196.938 97.988L201.252 99.6977Z" fill="#FDF8F6"/>
<path d="M102.89 159.752C104.608 154.165 101.471 148.243 95.8843 146.525C90.2973 144.807 84.3754 147.943 82.6575 153.53C80.9395 159.117 84.076 165.039 89.663 166.757C95.25 168.475 101.172 165.339 102.89 159.752Z" fill="#31302F"/>
<path d="M134.097 145.523C138.349 132.343 131.111 118.212 117.931 113.96C104.751 109.709 90.6198 116.946 86.3682 130.127C82.1166 143.307 89.3545 157.438 102.535 161.689C115.715 165.941 129.846 158.703 134.097 145.523Z" fill="#31302F"/>
<path d="M111.395 164.214C117.185 160.336 118.735 152.498 114.856 146.707C110.978 140.917 103.14 139.367 97.3494 143.246C91.5591 147.124 90.0094 154.962 93.8879 160.753C97.7664 166.543 105.604 168.093 111.395 164.214Z" fill="#31302F"/>
<path d="M92.4798 154.84C98.0166 152.965 100.985 146.957 99.1096 141.42C97.2344 135.883 91.2259 132.915 85.6892 134.79C80.1525 136.665 77.1842 142.674 79.0594 148.211C80.9346 153.747 86.9431 156.716 92.4798 154.84Z" fill="#31302F"/>
<path d="M128.467 165.236C128.385 164.829 128.385 164.422 128.223 163.934L120.895 132.101L98.5876 137.23L105.915 169.063C105.996 169.47 106.159 169.877 106.241 170.284L97.7734 172.238C102.74 178.507 111.044 181.682 119.43 179.81C127.734 177.856 133.84 171.343 135.55 163.608L128.467 165.236Z" fill="#FDF8F6"/>
<path d="M114.627 181.03C107.951 181.03 101.519 178.018 97.2853 172.726C97.1225 172.563 97.1225 172.319 97.2039 172.156C97.2853 171.993 97.4481 171.83 97.6109 171.749L105.427 169.958C105.345 169.714 105.345 169.551 105.264 169.307L97.9366 137.473C97.9366 137.311 97.9366 137.148 98.018 136.985C98.0994 136.822 98.2623 136.741 98.4251 136.741L120.733 131.611C121.058 131.53 121.384 131.774 121.466 132.1L128.793 163.933C128.874 164.177 128.874 164.34 128.956 164.585L135.387 163.119C135.632 163.038 135.795 163.119 135.957 163.282C136.12 163.445 136.202 163.689 136.12 163.852C134.248 172.075 127.734 178.669 119.512 180.542C117.883 180.786 116.255 181.03 114.627 181.03ZM98.9136 172.645C103.961 178.344 111.859 180.949 119.267 179.239C126.758 177.53 132.701 171.749 134.736 164.422L128.63 165.806C128.467 165.806 128.304 165.806 128.142 165.724C127.979 165.643 127.897 165.48 127.897 165.317C127.816 164.91 127.816 164.503 127.734 164.096L120.57 132.833L99.4021 137.718L106.567 168.981C106.648 169.388 106.729 169.714 106.892 170.121C106.974 170.284 106.974 170.446 106.811 170.609C106.729 170.772 106.567 170.854 106.404 170.935L98.9136 172.645Z" fill="#31302F"/>
<path d="M132.702 132.834C131.807 132.997 131.074 133.485 130.504 133.974C127.085 124.448 117.071 118.749 106.894 121.029C96.9613 123.308 90.5295 132.508 91.2622 142.359C91.1808 142.359 91.1808 142.359 91.0994 142.359C88.4941 142.929 86.7844 145.616 87.4357 148.221C88.0057 150.827 90.6923 152.536 93.2976 151.885C93.6233 151.804 94.0304 151.641 94.356 151.478C98.8338 158.561 107.382 162.387 116.012 160.352C124.968 158.317 131.156 150.582 131.644 141.871C132.621 142.359 133.761 142.522 134.901 142.278C137.506 141.708 139.216 139.021 138.564 136.416C137.994 133.892 135.389 132.264 132.702 132.834Z" fill="#FDF8F6"/>
<path d="M111.453 161.654C104.615 161.654 98.02 158.235 94.1121 152.373C93.8678 152.454 93.705 152.536 93.4607 152.536C91.9953 152.862 90.5298 152.617 89.3086 151.803C88.0874 150.989 87.1918 149.768 86.8661 148.384C86.5405 146.918 86.7847 145.453 87.5989 144.232C88.3316 143.092 89.39 142.278 90.6926 141.871C90.1227 131.856 96.9616 122.738 106.813 120.458C116.827 118.179 127.004 123.471 130.83 132.996C131.4 132.671 131.97 132.345 132.621 132.264C134.087 131.938 135.552 132.182 136.774 132.996C137.995 133.81 138.89 135.032 139.216 136.416C139.867 139.347 138.076 142.359 135.064 143.01C134.087 143.255 133.11 143.173 132.214 142.929C131.319 151.722 124.806 159.13 116.176 161.166C114.629 161.492 113 161.654 111.453 161.654ZM94.3563 150.989C94.6006 150.989 94.7634 151.07 94.8448 151.315C99.3226 158.316 107.708 161.817 115.85 159.945C124.236 157.991 130.505 150.663 130.993 142.033C130.993 141.789 131.156 141.626 131.319 141.545C131.482 141.463 131.726 141.463 131.889 141.545C132.784 141.952 133.761 142.115 134.738 141.871C137.018 141.382 138.483 139.021 137.913 136.741C137.669 135.602 137.018 134.706 136.041 134.055C135.064 133.485 133.924 133.241 132.784 133.485C132.051 133.648 131.4 133.973 130.83 134.543C130.667 134.706 130.423 134.706 130.26 134.706C130.097 134.625 129.935 134.543 129.853 134.299C126.515 124.936 116.664 119.563 106.976 121.761C97.6129 123.959 91.0997 132.833 91.8324 142.359C91.8324 142.685 91.6696 142.929 91.344 143.01H91.2625C90.1227 143.255 89.1457 143.987 88.5758 144.883C88.0059 145.86 87.7617 147 88.0059 148.139C88.2502 149.279 88.9015 150.175 89.8785 150.826C90.8555 151.396 91.9953 151.64 93.1351 151.396C93.4607 151.315 93.705 151.233 94.0306 151.07C94.1935 150.989 94.2749 150.989 94.3563 150.989Z" fill="#31302F"/>
<path d="M104.613 113.375C95.5762 115.492 88.8188 122.168 86.2949 130.472C89.4701 132.019 93.1338 132.507 96.8789 131.612C105.427 129.658 110.719 121.272 109.01 112.724C107.463 112.805 106.079 113.049 104.613 113.375Z" fill="#31302F"/>
<path d="M102.253 141.952C98.671 141.952 95.4958 139.509 94.6817 135.927C94.1932 133.892 94.6002 131.775 95.6586 130.065C96.7984 128.274 98.5082 127.053 100.544 126.564C102.579 126.076 104.696 126.483 106.405 127.541C108.197 128.681 109.418 130.391 109.906 132.426C110.395 134.462 109.988 136.579 108.929 138.288C107.789 140.079 106.08 141.301 104.044 141.789C103.393 141.87 102.823 141.952 102.253 141.952ZM102.253 127.541C101.765 127.541 101.276 127.623 100.788 127.704C99.0781 128.111 97.6126 129.17 96.717 130.635C95.8215 132.101 95.4958 133.892 95.9029 135.602C96.717 139.102 100.218 141.301 103.8 140.486C105.51 140.079 106.975 139.021 107.871 137.555C108.766 136.09 109.092 134.299 108.685 132.589C108.278 130.879 107.22 129.414 105.754 128.518C104.696 127.949 103.474 127.541 102.253 127.541Z" fill="#052273"/>
<path d="M121.141 137.555C119.676 137.555 118.292 137.148 116.989 136.334C115.198 135.194 113.977 133.484 113.488 131.449C112.511 127.297 115.117 123.063 119.35 122.086C121.386 121.597 123.502 122.005 125.212 123.063C127.003 124.203 128.224 125.912 128.713 127.948C129.201 129.983 128.794 132.1 127.736 133.81C126.596 135.601 124.886 136.822 122.851 137.311C122.363 137.473 121.711 137.555 121.141 137.555ZM121.223 123.226C120.734 123.226 120.246 123.307 119.757 123.389C118.048 123.796 116.582 124.854 115.686 126.32C114.791 127.785 114.465 129.576 114.872 131.286C115.279 132.996 116.338 134.461 117.803 135.357C119.269 136.252 121.06 136.578 122.77 136.171C124.479 135.764 125.945 134.705 126.84 133.24C127.736 131.774 128.062 129.983 127.654 128.273C127.247 126.564 126.189 125.098 124.724 124.203C123.584 123.551 122.444 123.226 121.223 123.226Z" fill="#052273"/>
<path d="M91.8317 142.684C91.7503 142.684 91.5874 142.684 91.506 142.602C91.1804 142.439 91.0989 142.032 91.3432 141.788L94.9254 136.089C95.0883 135.763 95.4953 135.682 95.7396 135.926C96.0653 136.089 96.1467 136.496 95.9024 136.74L92.3202 142.439C92.2387 142.602 92.0759 142.684 91.8317 142.684Z" fill="#052273"/>
<path d="M109.58 133.077C109.336 133.077 109.01 132.914 109.01 132.589C108.929 132.263 109.173 131.937 109.498 131.856L113.813 130.879C114.139 130.798 114.465 131.042 114.546 131.368C114.628 131.693 114.383 132.019 114.058 132.1L109.743 133.077C109.661 133.077 109.58 133.077 109.58 133.077Z" fill="#052273"/>
<path d="M104.287 132.263C104.531 133.403 103.961 134.461 103.065 134.706C102.088 134.95 101.112 134.217 100.867 133.077C100.623 131.938 101.193 130.879 102.088 130.635C103.065 130.391 104.042 131.123 104.287 132.263Z" fill="#31302F"/>
<path d="M121.058 128.437C121.302 129.577 120.733 130.635 119.837 130.879C118.86 131.124 117.883 130.391 117.639 129.251C117.395 128.111 117.964 127.053 118.86 126.809C119.837 126.564 120.814 127.297 121.058 128.437Z" fill="#31302F"/>
<path d="M106.893 147.162C106.893 150.826 109.905 153.838 113.569 153.838C117.232 153.838 120.245 150.826 120.245 147.162C120.245 146.918 120.245 146.755 120.245 146.511H106.974C106.893 146.755 106.893 146.918 106.893 147.162Z" fill="#31302F"/>
<path d="M113.568 154.652C109.416 154.652 106.078 151.314 106.078 147.162C106.078 146.918 106.078 146.673 106.078 146.429L106.16 145.696H120.896L120.977 146.429C120.977 146.673 120.977 146.918 120.977 147.162C121.058 151.314 117.72 154.652 113.568 154.652ZM107.706 147.325C107.788 150.5 110.393 153.024 113.568 153.024C116.743 153.024 119.349 150.5 119.43 147.325H107.706Z" fill="#31302F"/>
<path d="M119.593 149.931C118.779 149.686 117.883 149.523 116.988 149.523C114.22 149.523 111.777 150.907 110.23 152.943C111.207 153.513 112.347 153.838 113.568 153.838C116.255 153.838 118.535 152.21 119.593 149.931Z" fill="#FDF8F6"/>
<path d="M113.567 154.652C112.264 154.652 110.962 154.327 109.822 153.675L109.008 153.187L109.578 152.454C111.287 150.093 114.056 148.709 116.986 148.709C117.963 148.709 118.94 148.872 119.836 149.197L120.732 149.442L120.324 150.256C119.103 152.943 116.498 154.652 113.567 154.652ZM111.532 152.617C112.183 152.861 112.834 152.943 113.567 152.943C115.521 152.943 117.312 151.966 118.371 150.419C117.882 150.337 117.475 150.256 116.986 150.256C114.951 150.337 112.997 151.151 111.532 152.617Z" fill="#31302F"/>
<path d="M211.43 163.201C209.883 163.201 208.255 162.875 206.789 162.143C204.266 160.922 202.312 158.723 201.416 156.118C200.52 153.431 200.683 150.582 201.904 148.058C203.126 145.534 205.324 143.58 207.929 142.685C210.616 141.789 213.465 141.952 215.989 143.173C221.281 145.697 223.479 152.047 220.874 157.339C219.653 159.863 217.455 161.817 214.849 162.713C213.791 163.038 212.651 163.201 211.43 163.201ZM211.43 143.662C210.453 143.662 209.476 143.824 208.499 144.15C206.219 144.964 204.428 146.592 203.37 148.709C202.312 150.826 202.149 153.269 202.963 155.548C203.777 157.828 205.405 159.619 207.522 160.677C209.639 161.736 212.081 161.898 214.361 161.084C216.641 160.27 218.432 158.642 219.49 156.525C221.688 152.047 219.816 146.674 215.338 144.557C214.117 143.987 212.814 143.662 211.43 143.662Z" fill="#31302F"/>
<path d="M212.326 157.096L210.697 152.536L213.628 146.512L215.094 147.163L212.488 152.618L213.791 156.607L212.326 157.096Z" fill="#31302F"/>
<path d="M209.245 138.977L204.938 140.471L205.471 142.009L209.779 140.516L209.245 138.977Z" fill="#31302F"/>
<path d="M223.74 145.936L222.201 146.47L223.695 150.777L225.233 150.244L223.74 145.936Z" fill="#31302F"/>
<path d="M202.758 157.154L199.912 158.141L200.446 159.679L203.292 158.692L202.758 157.154Z" fill="#31302F"/>
<path d="M213.404 162.274L211.865 162.808L212.852 165.654L214.39 165.12L213.404 162.274Z" fill="#31302F"/>
</svg>
