<svg width="445" height="223" viewBox="0 0 445 223" fill="none" xmlns="http://www.w3.org/2000/svg">
<path fill-rule="evenodd" clip-rule="evenodd" d="M268.69 3.05537C298.639 12.4579 318.211 39.5333 332.233 67.6256C348.467 100.149 367.998 137.793 352.318 170.601C336.691 203.297 295.194 211.678 259.768 219.244C230.13 225.574 200.826 220.752 172.936 208.912C143.763 196.527 110.979 182.191 101.345 151.987C91.8835 122.324 110.038 91.8492 127.337 65.9509C141.712 44.4291 164.31 32.847 187.95 22.3281C214.233 10.6335 241.252 -5.55861 268.69 3.05537Z" fill="#7FD0FF"/>
<path d="M325.394 182.782C322.573 182.782 319.689 182.087 317.058 180.613L202.123 116.515C193.892 111.926 190.945 101.569 195.576 93.3594C200.186 85.1707 210.606 82.2447 218.837 86.8337L333.772 150.932C342.003 155.521 344.95 165.878 340.319 174.088C337.182 179.645 331.372 182.782 325.394 182.782Z" fill="#FDF8F6" stroke="#31302F" stroke-width="1.87382" stroke-miterlimit="10" stroke-linecap="round" stroke-linejoin="round"/>
<path d="M284.324 167.183C281.187 180.171 275.904 190.044 272.514 189.244C269.125 188.444 268.915 177.245 272.03 164.257C275.167 151.269 280.45 141.396 283.84 142.196C287.229 142.996 287.46 154.195 284.324 167.183Z" fill="#31302F"/>
<path d="M363.831 79.7396C361.137 73.7192 346.318 59.5943 328.551 74.0139C319.71 81.171 304.154 68.3513 298.428 65.5937C289.545 61.3415 277.083 75.8874 282.198 95.9274C283.671 101.674 350.001 104.516 365.2 95.3379C367.789 93.7802 367.494 87.9282 363.831 79.7396Z" stroke="#31302F" stroke-width="1.87382" stroke-miterlimit="10" stroke-linecap="round" stroke-linejoin="round"/>
<path d="M369.453 74.4559C364.99 68.2671 345.35 55.1317 329.794 73.9507C322.047 83.2971 301.923 71.7194 295.018 69.6354C284.325 66.4147 274.536 84.497 285.188 105.737C288.24 111.841 360.822 104.053 374.947 91.4226C377.347 89.2754 375.515 82.8761 369.453 74.4559Z" fill="#31302F"/>
<path d="M277.736 123.146C290.524 123.146 300.891 112.826 300.891 100.095C300.891 87.3651 290.524 77.0452 277.736 77.0452C264.947 77.0452 254.58 87.3651 254.58 100.095C254.58 112.826 264.947 123.146 277.736 123.146Z" fill="#31302F"/>
<path d="M287.545 118.009C276.704 124.746 262.41 121.462 255.632 110.663C248.854 99.8639 252.159 85.6549 263 78.8977C273.841 72.1616 288.134 75.4455 294.912 86.2443C301.691 97.0432 298.386 111.252 287.545 118.009Z" stroke="#31302F" stroke-width="1.87382" stroke-miterlimit="10" stroke-linecap="round" stroke-linejoin="round"/>
<path d="M294.976 104.537C303.102 104.537 309.69 97.9868 309.69 89.9069C309.69 81.8269 303.102 75.2769 294.976 75.2769C286.85 75.2769 280.262 81.8269 280.262 89.9069C280.262 97.9868 286.85 104.537 294.976 104.537Z" fill="#31302F"/>
<path d="M293.292 82.0341C286.093 91.6331 271.779 108.347 274.894 118.746C278.304 130.113 295.987 152.511 312.553 136.407C316.111 132.681 317.816 126.914 320.131 122.914C323.731 116.683 328.425 115.736 340.761 116.788C353.096 117.841 359.369 121.419 369.642 112.199C377.915 104.769 377.578 88.6229 375.01 83.5076C366.632 66.8146 338.887 69.6564 331.52 72.8982C324.152 76.1189 324.91 83.7392 316.49 83.9497C311.185 84.0549 302.281 82.1814 293.292 82.0341Z" fill="#31302F"/>
<path d="M316.488 167.015L330.003 188.318C333.581 193.959 342.17 192.822 344.127 186.423L359.452 136.428L329.287 126.893L316.488 167.015Z" fill="#FDF8F6" stroke="#31302F" stroke-width="1.87382" stroke-miterlimit="10" stroke-linecap="round" stroke-linejoin="round"/>
<path d="M323.52 150.595L331.077 126.872L359.453 135.818L351.348 161.205C341.265 162.047 330.95 158.426 323.52 150.595Z" fill="#31302F"/>
<path d="M367.452 74.0349L372.231 80.0132C383.366 93.9486 383.956 113.083 373.662 126.408L361.242 142.512C356.59 148.532 347.728 149.437 341.329 144.554L316.721 125.798L367.452 74.0349Z" fill="#31302F"/>
<path d="M349.917 79.6766L341.054 79.0451C320.404 77.5926 302.027 88.4125 296.491 105.253L289.797 125.609C287.292 133.208 292.47 141.481 301.416 144.175L335.729 154.49L349.917 79.6766Z" fill="#31302F"/>
<path d="M316.679 132.976C314.321 125.903 313.521 112.557 319.205 102.811C323.12 96.0957 330.909 82.0762 337.203 82.0762C351.138 82.0762 362.042 93.9907 364.989 110.578C369.326 110.768 373.073 113.947 373.809 118.367V118.43C373.809 123.609 369.62 128.513 364.484 129.376C360.906 144.743 349.707 156.384 336.466 155.963C326.909 155.668 320.468 144.28 316.679 132.976Z" fill="#FDF8F6" stroke="#31302F" stroke-width="1.87382" stroke-miterlimit="10" stroke-linecap="round" stroke-linejoin="round"/>
<path d="M323.625 83.7181C327.625 81.0868 332.108 79.6133 336.866 79.6133C351.201 79.6133 363.2 93.0855 366.21 111.105C367.157 111.147 368.083 111.336 368.947 111.673C352.085 112.515 334.887 101.716 323.625 83.7181Z" fill="#31302F"/>
<path d="M357.748 114.199C344.317 112.894 332.003 102.327 325.225 86.7705" stroke="#31302F" stroke-width="1.87382" stroke-miterlimit="10" stroke-linecap="round" stroke-linejoin="round"/>
<path d="M329.415 100.516C326.131 95.8643 324.257 90.2649 323.752 84.2234" stroke="#31302F" stroke-width="1.87382" stroke-miterlimit="10" stroke-linecap="round" stroke-linejoin="round"/>
<path d="M366.041 121.841C366.041 121.841 365.557 118.136 368.967 116.262" stroke="#31302F" stroke-width="1.87382" stroke-miterlimit="10" stroke-linecap="round" stroke-linejoin="round"/>
<path d="M343.182 118.662C343.055 120.556 341.961 122.009 340.761 121.925C339.561 121.841 338.677 120.241 338.803 118.346C338.929 116.452 340.024 114.999 341.224 115.083C342.445 115.189 343.308 116.788 343.182 118.662Z" fill="#31302F"/>
<path d="M325.205 118.83C325.205 120.725 324.215 122.262 323.015 122.262C321.794 122.262 320.826 120.725 320.826 118.83C320.826 116.936 321.816 115.399 323.015 115.399C324.215 115.399 325.205 116.936 325.205 118.83Z" fill="#31302F"/>
<path d="M343.517 133.797C343.517 133.797 338.886 138.155 329.098 139.397C329.098 139.418 333.181 155.984 343.517 133.797Z" stroke="#31302F" stroke-width="1.87382" stroke-miterlimit="10" stroke-linecap="round" stroke-linejoin="round"/>
<path d="M330.403 119.125L328.045 126.072C327.35 128.114 328.571 130.324 330.697 130.808" stroke="#31302F" stroke-width="1.87382" stroke-miterlimit="10" stroke-linecap="round" stroke-linejoin="round"/>
<path d="M329.497 204.463C326.677 204.463 272.177 188.97 272.177 188.97L280.281 179.498L206.226 138.197C197.995 133.608 195.048 123.251 199.679 115.041C204.289 106.853 214.709 103.927 222.94 108.516L337.875 172.614C346.106 177.203 349.053 187.56 344.422 195.77C341.286 201.327 335.476 204.463 329.497 204.463Z" fill="#FDF8F6" stroke="#31302F" stroke-width="1.87382" stroke-miterlimit="10" stroke-linecap="round" stroke-linejoin="round"/>
<path d="M283.839 141.249C287.228 142.049 287.438 153.248 284.323 166.236C283.334 170.341 282.134 174.151 280.829 177.393C278.029 184.402 274.829 188.844 272.514 188.297" stroke="#31302F" stroke-width="1.87382" stroke-miterlimit="10" stroke-linecap="round" stroke-linejoin="round"/>
<path d="M128.466 10.7996L237.655 51.9531L209.447 151.206L64.3047 97.1905L128.466 10.7996Z" fill="#FDF8F6" stroke="#31302F" stroke-width="1.87382" stroke-miterlimit="10"/>
<path d="M237.656 51.9531L209.448 151.206L173.199 137.46L237.656 51.9531Z" stroke="#31302F" stroke-width="1.87382" stroke-miterlimit="10" stroke-linejoin="round"/>
<path d="M145.833 27.1978C143.496 24.7349 142.17 21.3458 142.464 17.7041C143.012 10.9048 148.969 5.83162 155.789 6.37893C162.61 6.92625 167.683 12.8625 167.157 19.6617C167.03 21.3668 166.546 22.9456 165.809 24.377" stroke="#31302F" stroke-width="1.87382" stroke-miterlimit="10" stroke-linecap="round" stroke-linejoin="round"/>
<path d="M204.205 50.0375C201.806 47.6588 200.374 44.2908 200.564 40.6491C200.9 33.8287 206.731 28.5872 213.552 28.945C220.372 29.2818 225.635 35.0917 225.298 41.9121C225.214 43.6172 224.793 45.217 224.077 46.6695" stroke="#31302F" stroke-width="1.87382" stroke-miterlimit="10" stroke-linecap="round" stroke-linejoin="round"/>
<path d="M118.088 42.291L124.171 34.1655L130.402 36.4179L124.298 44.5644L118.088 42.291Z" fill="#E5E2D9"/>
<path d="M131.918 47.2168L138.002 39.0913L144.232 41.3437L138.128 49.5113L131.918 47.2168Z" fill="#E5E2D9"/>
<path d="M145.77 52.1635L151.832 44.0381L158.063 46.2905L151.958 54.437L145.77 52.1635Z" fill="#E5E2D9"/>
<path d="M159.6 57.0893L165.662 48.9639L171.893 51.2163L165.788 59.3838L159.6 57.0893Z" fill="#E5E2D9"/>
<path d="M173.43 62.0153L179.492 53.9109L185.723 56.1422L179.619 64.3098L173.43 62.0153Z" fill="#E5E2D9"/>
<path d="M187.26 66.9621L193.322 58.8367L199.553 61.0891L193.47 69.2356L187.26 66.9621Z" fill="#E5E2D9"/>
<path d="M201.09 71.8879L207.152 63.7625L213.383 66.0148L207.3 74.1824L201.09 71.8879Z" fill="#E5E2D9"/>
<path d="M106.68 57.2158L112.742 49.0903L118.973 51.3427L112.869 59.5103L106.68 57.2158Z" fill="#E5E2D9"/>
<path d="M120.51 62.1626L126.572 54.0371L132.803 56.2895L126.699 64.436L120.51 62.1626Z" fill="#E5E2D9"/>
<path d="M134.34 67.0884L140.402 58.9629L146.633 61.2153L140.529 69.3828L134.34 67.0884Z" fill="#E5E2D9"/>
<path d="M148.17 72.0141L154.232 63.8887L160.463 66.1411L154.38 74.3086L148.17 72.0141Z" fill="#E5E2D9"/>
<path d="M162 76.9609L168.063 68.8354L174.293 71.0878L168.21 79.2344L162 76.9609Z" fill="#E5E2D9"/>
<path d="M175.83 81.8867L181.893 73.7612L188.124 76.0136L182.04 84.1812L175.83 81.8867Z" fill="#E5E2D9"/>
<path d="M189.66 86.8337L195.744 78.7083L201.954 80.9606L195.87 89.1072L189.66 86.8337Z" fill="#E5E2D9"/>
<path d="M95.248 72.1405L101.311 64.0361L107.541 66.2885L101.437 74.435L95.248 72.1405Z" fill="#E5E2D9"/>
<path d="M109.078 77.0874L115.141 68.9619L121.372 71.2143L115.267 79.3608L109.078 77.0874Z" fill="#E5E2D9"/>
<path d="M122.908 82.0132L128.971 73.8877L135.202 76.1401L129.118 84.3077L122.908 82.0132Z" fill="#E5E2D9"/>
<path d="M136.738 86.9599L142.801 78.8345L149.032 81.0869L142.948 89.2334L136.738 86.9599Z" fill="#E5E2D9"/>
<path d="M150.568 91.8857L156.652 83.7603L162.862 86.0127L156.778 94.1802L150.568 91.8857Z" fill="#E5E2D9"/>
<path d="M164.398 96.8325L170.482 88.707L176.713 90.9594L170.608 99.1059L164.398 96.8325Z" fill="#E5E2D9"/>
<path d="M178.229 101.758L184.312 93.6328L190.543 95.8852L184.438 104.032L178.229 101.758Z" fill="#E5E2D9"/>
<path d="M83.8184 87.0862L89.8809 78.9607L96.1118 81.2131L90.0282 89.3596L83.8184 87.0862Z" fill="#E5E2D9"/>
<path d="M97.6484 92.0119L103.711 83.8865L109.942 86.1389L103.858 94.3064L97.6484 92.0119Z" fill="#E5E2D9"/>
<path d="M111.479 96.959L117.541 88.8335L123.772 91.0859L117.688 99.2324L111.479 96.959Z" fill="#E5E2D9"/>
<path d="M125.309 101.885L131.392 93.7593L137.602 96.0117L131.518 104.179L125.309 101.885Z" fill="#E5E2D9"/>
<path d="M139.139 106.81L145.222 98.7061L151.453 100.958L145.349 109.105L139.139 106.81Z" fill="#E5E2D9"/>
<path d="M152.969 111.757L159.052 103.632L165.283 105.884L159.179 114.031L152.969 111.757Z" fill="#E5E2D9"/>
<path d="M166.799 116.683L172.882 108.558L179.113 110.81L173.009 118.978L166.799 116.683Z" fill="#E5E2D9"/>
<path d="M199.826 100.559C199.195 99.5272 198.837 98.4536 198.711 97.2958L198.605 96.3907L197.805 95.9486C197.111 95.5697 196.542 95.0013 196.1 94.2646C194.458 91.5912 194.732 87.5495 194.753 87.5074L195.658 86.6233L195.132 85.5076C193.974 83.1289 195.258 80.0345 196.079 78.7294L228.329 80.6029L224.771 77.8453C221.382 76.0349 214.541 73.8036 212.372 71.0039C212.078 70.625 211.825 70.2671 211.615 69.8882C208.689 65.0887 210.225 59.8261 210.246 59.7629C210.751 59.9524 222.75 64.5414 233.612 70.3934C235.633 71.488 237.296 73.0879 238.538 75.1297C244.306 84.5814 240.769 101.948 238.159 111.463C236.707 116.767 234.517 119.862 230.644 122.198L226.16 118.346C224.413 116.831 224.203 114.22 225.676 112.452L224.813 112.284C222.792 111.905 217.488 110.81 212.141 108.789C205.868 106.432 201.721 103.653 199.826 100.559Z" fill="#FDF8F6"/>
<path d="M230.938 121.798C235.148 119.293 237.127 115.904 238.453 111.063C242.452 96.4958 245.147 76.0558 233.906 69.9723C222.665 63.8887 210.54 59.3418 210.54 59.3418C210.54 59.3418 208.709 65.4254 212.687 70.5617C216.518 75.5085 226.349 79.2976 230.222 81.8657" stroke="#31302F" stroke-width="1.87382" stroke-miterlimit="10" stroke-linecap="round" stroke-linejoin="round"/>
<path d="M234.054 82.2869L196.395 78.3083C196.395 78.3083 192.753 83.9499 196.984 86.8759" stroke="#31302F" stroke-width="1.87382" stroke-miterlimit="10" stroke-linecap="round" stroke-linejoin="round"/>
<path d="M233.254 93.0014L195.069 87.0862C195.069 87.0862 194.564 94.1802 198.626 95.78C202.71 97.3798 230.097 103.463 230.097 103.463" stroke="#31302F" stroke-width="1.87382" stroke-miterlimit="10" stroke-linecap="round" stroke-linejoin="round"/>
<path d="M225.992 112.031C225.992 112.031 198.9 107.631 198.963 96.0537" stroke="#31302F" stroke-width="1.87382" stroke-miterlimit="10" stroke-linecap="round" stroke-linejoin="round"/>
<path d="M104.68 20.1038L111.268 10.3996L129.667 7.15784C131.203 6.88418 132.656 7.99985 132.761 9.55758C132.992 12.7151 130.993 15.6201 127.94 16.5253L111.689 21.43L104.68 20.1038Z" fill="#FDF8F6" stroke="#31302F" stroke-width="1.87382" stroke-miterlimit="10" stroke-linecap="round" stroke-linejoin="round"/>
<path d="M131.918 29.3028L132.213 28.8818C132.908 27.8714 132.634 26.4821 131.624 25.8084L110.489 11.5784L105.311 19.1986L122.909 31.05C125.877 33.0287 129.918 32.2709 131.918 29.3028Z" fill="#FDF8F6" stroke="#31302F" stroke-width="1.87382" stroke-miterlimit="10" stroke-linecap="round" stroke-linejoin="round"/>
<path d="M126.867 36.7336L127.162 36.3126C127.857 35.3022 127.583 33.9129 126.573 33.2392L105.438 19.0092L100.26 26.6294L117.858 38.4808C120.826 40.4595 124.868 39.7017 126.867 36.7336Z" fill="#FDF8F6" stroke="#31302F" stroke-width="1.87382" stroke-miterlimit="10" stroke-linecap="round" stroke-linejoin="round"/>
<path d="M117.205 40.9017L117.394 40.628C118.089 39.5966 117.836 38.1862 116.784 37.4705L100.386 26.4401L97.9438 30.0397C96.2387 32.5657 95.8598 35.7443 96.9755 38.5862L100.596 47.8904L105.543 41.028L108.006 42.691C111.037 44.7118 115.163 43.9119 117.205 40.9017Z" fill="#FDF8F6" stroke="#31302F" stroke-width="1.87382" stroke-miterlimit="10" stroke-linecap="round" stroke-linejoin="round"/>
<path d="M136.973 74.445C136.973 74.445 150.432 65.2032 147.853 61.0878C144.641 55.9673 136.628 61.836 136.936 65.9592C137.245 70.0824 141.193 59.3538 135.751 58.1973C131.499 57.2691 127.257 62.5941 136.973 74.445Z" fill="#7FD0FF"/>
<path d="M141.455 40.3333V46.2695" stroke="#31302F" stroke-width="1.87382"/>
<path d="M141.455 40.3333V46.2695" stroke="#31302F" stroke-width="1.87382"/>
<path d="M122.594 51.1531L127.772 54.1422" stroke="#31302F" stroke-width="1.87382"/>
<path d="M141.455 83.655V77.6978" stroke="#31302F" stroke-width="1.87382"/>
<path d="M160.296 72.8141L155.117 69.8459" stroke="#31302F" stroke-width="1.87382"/>
<path d="M160.296 51.1531L155.117 54.1422" stroke="#31302F" stroke-width="1.87382"/>
<path d="M57.1758 126.862V136.629" stroke="#31302F" stroke-width="1.87382"/>
<path d="M64.0304 131.745H50.3203" stroke="#31302F" stroke-width="1.87382"/>
<path d="M83.8887 145.386V150.88" stroke="#31302F" stroke-width="1.87382"/>
<path d="M87.7434 148.144H80.0352" stroke="#31302F" stroke-width="1.87382"/>
<path d="M246.646 22.4518V32.2192" stroke="#31302F" stroke-width="1.87382"/>
<path d="M253.501 27.3354H239.791" stroke="#31302F" stroke-width="1.87382"/>
</svg>
