<svg width="182" height="137" viewBox="0 0 182 137" fill="none" xmlns="http://www.w3.org/2000/svg">
<g clip-path="url(#clip0_1526_6362)">
<path d="M98.7504 136.058H128.499L121.42 110.512H91.6715L98.7504 136.058Z" fill="black"/>
<path d="M98.7504 136.058H128.499L121.42 139.248H91.6715L98.7504 136.058Z" fill="black"/>
<path d="M98.7504 137.003L128.499 136.058V137.003L121.42 140.193H91.6715V139.248L98.7504 137.003Z" fill="black"/>
<path d="M66.0391 41.7241C64.6157 41.7241 63.388 42.7246 63.1006 44.1187L49.0078 112.486C48.6241 114.347 50.0459 116.091 51.9463 116.091H163.256C164.679 116.091 165.907 115.091 166.194 113.697L180.287 45.3296C180.671 43.4685 179.249 41.7242 177.349 41.7241H66.0391Z" fill="white" stroke="black" stroke-width="2" stroke-miterlimit="10" stroke-linecap="round" stroke-linejoin="round"/>
<path d="M164.445 88.5003C166.331 85.0525 167.396 81.0894 167.396 76.8808C167.396 63.5067 156.57 52.6602 143.22 52.6602C129.871 52.6602 119.044 63.5067 119.044 76.8808C119.044 90.2549 129.871 101.101 143.22 101.101" stroke="black" stroke-width="2" stroke-miterlimit="10" stroke-linecap="round" stroke-linejoin="round"/>
<path d="M123.651 92.9508C114.209 83.4921 114.209 68.1566 123.651 58.6979C133.092 49.2393 148.399 49.2393 157.841 58.6979C167.282 68.1566 167.282 83.4921 157.841 92.9508C148.399 102.409 133.092 102.409 123.651 92.9508Z" fill="black"/>
<path d="M164.247 114.926C164.247 114.926 163.776 99.343 162.362 95.093C160.948 90.843 153.459 80.8808 145.927 80.071L125.413 77.8624L103.502 86.574C97.3418 89.028 92.6756 94.2181 90.8875 100.623L87.4163 114.926" fill="#A3B4FF"/>
<path d="M164.247 114.926C164.247 114.926 163.776 99.343 162.362 95.093C160.948 90.843 153.459 80.8808 145.927 80.071L125.413 77.8624L103.502 86.574C97.3418 89.028 92.6756 94.2181 90.8875 100.623L87.4163 114.926" stroke="black" stroke-width="2" stroke-miterlimit="10" stroke-linecap="round" stroke-linejoin="round"/>
<path d="M133.998 30.2677C125.939 26.7953 115.835 29.4211 114.414 32.5867C112.822 31.2002 110.703 30.2432 108.315 29.9855C102.718 29.372 97.7212 32.7953 97.1456 37.6173C96.6557 41.7891 99.644 45.6541 104.09 47.0038C103.037 49.8994 102.277 53.0282 101.885 56.3534C100.318 69.5802 121.665 72.9667 125.694 73.4084C136.606 74.5986 146.612 65.8625 148.021 53.9117C149.441 41.9486 143.734 34.464 133.998 30.2677Z" fill="black"/>
<path d="M115.419 81.8747L114.206 76.4514L131.059 64.7214L133.214 78.7459L142.24 79.1017C143.673 85.7397 135.002 91.6046 126.135 94.3285C116.901 97.1506 107.728 93.8991 105.645 87.0648C105.56 86.7826 105.486 86.4881 105.425 86.2059L115.419 81.8747Z" fill="white" stroke="black" stroke-width="2" stroke-miterlimit="10" stroke-linecap="round" stroke-linejoin="round"/>
<path d="M115.7 83.1384C115.798 83.5678 115.921 83.985 116.08 84.3776C117.709 83.4696 119.179 82.1568 120.367 80.4145L130.471 65.7275L130.03 65.433L114.194 76.439L115.7 83.1384Z" fill="black"/>
<path d="M130.875 34.1327C128.266 34.3904 126.074 35.2983 124.653 36.9057C120.648 41.4578 122.853 53.3227 132.467 56.2797C133.067 56.4638 133.765 56.3411 134.292 56.6601C136.79 47.8626 135.272 39.3596 130.875 34.1327Z" fill="black"/>
<path d="M103.808 41.0284C107.335 43.3228 112.259 44.9179 117.807 45.2737C127.127 45.8749 135.186 42.7829 137.855 38.0345C135.749 32.9425 132.05 29.2002 127.151 27.8996C118.762 25.6911 109.405 31.3106 103.808 41.0284Z" fill="black"/>
<path d="M128.149 65.7409C125.466 63.0528 125.466 58.6945 128.149 56.0064C130.832 53.3183 135.182 53.3183 137.865 56.0064C140.549 58.6945 140.549 63.0528 137.865 65.7409C135.182 68.429 130.832 68.429 128.149 65.7409Z" fill="white"/>
<path d="M133.447 53.9975C132.014 53.8994 130.654 54.2675 129.503 54.9423C125.768 52.6969 123.637 48.9055 122.987 45.2123C121.322 45.3596 119.595 45.3718 117.807 45.2614C112.381 44.9178 107.531 43.3718 104.029 41.151C102.816 43.3841 101.8 45.8503 101.065 48.5129C97.4029 61.5557 101.494 74.1078 110.201 76.5617C116.717 78.4022 123.98 74.0464 128.744 66.2551C129.809 67.1017 131.12 67.6416 132.577 67.7397C136.362 67.9851 139.632 65.1017 139.876 61.3103C140.109 57.519 137.231 54.2429 133.447 53.9975Z" fill="white" stroke="black" stroke-width="2" stroke-miterlimit="10" stroke-linecap="round" stroke-linejoin="round"/>
<path d="M103.906 53.9362C104.016 54.9914 104.641 55.8012 105.314 55.7276C105.988 55.6663 106.441 54.746 106.343 53.6908C106.233 52.6356 105.608 51.8258 104.935 51.8994C104.261 51.973 103.796 52.881 103.906 53.9362Z" fill="black"/>
<path d="M104.151 49.5313C104.151 49.5313 101.935 49.0037 99.8036 49.789" stroke="black" stroke-width="2" stroke-miterlimit="10" stroke-linecap="round" stroke-linejoin="round"/>
<path d="M115.651 55.5926C115.761 56.6478 116.386 57.4576 117.059 57.384C117.733 57.3226 118.186 56.4024 118.088 55.3472C117.978 54.292 117.353 53.4822 116.68 53.5558C116.006 53.6294 115.541 54.5374 115.651 55.5926Z" fill="black"/>
<path d="M120.183 53.0283C120.183 53.0283 117.415 50.0712 114.034 50.7706" stroke="black" stroke-width="2" stroke-miterlimit="10" stroke-linecap="round" stroke-linejoin="round"/>
<path d="M108.719 51.5068C108.719 51.5068 107.396 56.3534 106.735 57.8749C105.914 59.7522 109.233 59.9608 109.233 59.9608" stroke="black" stroke-width="2" stroke-miterlimit="10" stroke-linecap="round" stroke-linejoin="round"/>
<path d="M146.858 107.555L148.977 115.003" stroke="black" stroke-width="2" stroke-miterlimit="10" stroke-linecap="round" stroke-linejoin="round"/>
<path d="M118.525 65.1542L106.27 66.6797L109.106 68.7402C112.355 71.0978 116.669 69.6515 118.336 65.6495L118.525 65.1542Z" fill="black"/>
<mask id="path-23-inside-1_1526_6362" fill="white">
<path d="M7.98926 48.439C4.8663 48.4391 2.33108 50.9792 2.33105 54.1079V99.187C2.33105 102.316 4.86629 104.856 7.98926 104.856H66.5195C69.6424 104.856 72.1777 102.316 72.1777 99.187V91.3149L84.7188 79.2241H72.1777V54.1079C72.1777 50.9792 69.6424 48.4391 66.5195 48.439H7.98926Z"/>
</mask>
<path d="M7.98926 48.439C4.8663 48.4391 2.33108 50.9792 2.33105 54.1079V99.187C2.33105 102.316 4.86629 104.856 7.98926 104.856H66.5195C69.6424 104.856 72.1777 102.316 72.1777 99.187V91.3149L84.7188 79.2241H72.1777V54.1079C72.1777 50.9792 69.6424 48.4391 66.5195 48.439H7.98926Z" fill="white"/>
<path d="M7.98926 48.439L7.98919 46.439H7.98926V48.439ZM2.33105 54.1079H0.331055V54.1079L2.33105 54.1079ZM7.98926 104.856V106.856H7.98919L7.98926 104.856ZM66.5195 104.856L66.5196 106.856H66.5195V104.856ZM72.1777 91.3149H70.1777V90.465L70.7896 89.8751L72.1777 91.3149ZM84.7188 79.2241V77.2241H89.6748L86.1069 80.6639L84.7188 79.2241ZM72.1777 79.2241V81.2241H70.1777V79.2241H72.1777ZM72.1777 54.1079L74.1777 54.1079V54.1079H72.1777ZM66.5195 48.439V46.439H66.5196L66.5195 48.439ZM7.98926 48.439L7.98933 50.439C5.97446 50.439 4.33107 52.0802 4.33105 54.1079L2.33105 54.1079L0.331055 54.1079C0.331085 49.8782 3.75816 46.4391 7.98919 46.439L7.98926 48.439ZM2.33105 54.1079H4.33105V99.187H2.33105H0.331055V54.1079H2.33105ZM2.33105 99.187H4.33105C4.33105 101.215 5.97443 102.856 7.98933 102.856L7.98926 104.856L7.98919 106.856C3.75816 106.856 0.331055 103.417 0.331055 99.187H2.33105ZM7.98926 104.856V102.856H66.5195V104.856V106.856H7.98926V104.856ZM66.5195 104.856L66.5194 102.856C68.5343 102.856 70.1777 101.215 70.1777 99.187H72.1777H74.1777C74.1777 103.417 70.7505 106.856 66.5196 106.856L66.5195 104.856ZM72.1777 99.187H70.1777V91.3149H72.1777H74.1777V99.187H72.1777ZM72.1777 91.3149L70.7896 89.8751L83.3306 77.7843L84.7188 79.2241L86.1069 80.6639L73.5659 92.7548L72.1777 91.3149ZM84.7188 79.2241V81.2241H72.1777V79.2241V77.2241H84.7188V79.2241ZM72.1777 79.2241H70.1777V54.1079H72.1777H74.1777V79.2241H72.1777ZM72.1777 54.1079L70.1777 54.1079C70.1777 52.0803 68.5343 50.4391 66.5194 50.439L66.5195 48.439L66.5196 46.439C70.7505 46.4392 74.1777 49.8782 74.1777 54.1079L72.1777 54.1079ZM66.5195 48.439V50.439H7.98926V48.439V46.439H66.5195V48.439Z" fill="black" mask="url(#path-23-inside-1_1526_6362)"/>
<path d="M23.6904 98.0952L43.2248 99.4081L43.9229 80.8684L26.7399 80.2303L23.6904 98.0952Z" fill="white" stroke="black" stroke-width="2" stroke-miterlimit="10" stroke-linecap="round" stroke-linejoin="round"/>
<path d="M33.7703 57.3226C33.7703 57.3226 41.9025 64.2796 44.058 63.4575C46.2136 62.6354 51.4554 59.5189 50.1327 55.5557C48.8222 51.5926 47.5485 52.9545 45.7972 53.3717C44.0336 53.7889 43.4947 49.5067 42.3434 49.5926C41.1922 49.6907 40.0532 50.4637 37.9834 52.2551C35.9014 54.0343 33.7703 57.3226 33.7703 57.3226Z" fill="black"/>
<path d="M30.8673 87.0647C26.9359 85.7518 23.4454 82.9298 21.3267 78.9053C17.0401 70.7704 20.0284 60.979 27.781 56.6478C40.5181 49.519 48.5891 60.0465 49.4464 62.6109C49.6546 63.2121 49.8506 63.8011 50.0465 64.3655C50.4874 65.2735 50.8426 66.1937 51.112 67.1262C51.9571 69.0649 52.9001 70.4513 54.2351 70.9299C56.2681 71.6661 54.2351 93.0154 36.9811 83.0987" fill="white"/>
<path d="M30.8673 87.0647C26.9359 85.7518 23.4454 82.9298 21.3267 78.9053C17.0401 70.7704 20.0284 60.979 27.781 56.6478C40.5181 49.519 48.5891 60.0465 49.4464 62.6109C49.6546 63.2121 49.8506 63.8011 50.0465 64.3655C50.4874 65.2735 50.8426 66.1937 51.112 67.1262C51.9571 69.0649 52.9001 70.4513 54.2351 70.9299C56.2681 71.6661 54.2351 93.0154 36.9811 83.0987" stroke="black" stroke-width="2" stroke-miterlimit="10" stroke-linecap="round" stroke-linejoin="round"/>
<path d="M24.9518 53.8134C30.2059 51.0281 36.2683 51.298 41.2529 53.9606C39.6853 54.3164 38.1544 54.8563 36.6847 55.6416C26.7154 60.9299 23.4331 74.3285 29.3731 85.5677C29.7037 86.1935 30.0589 86.7947 30.4263 87.3836C25.307 86.353 20.6285 83.0524 17.9464 77.9727C13.2801 69.1507 16.4277 58.3409 24.9518 53.8134Z" fill="black"/>
<path d="M38.5215 63.1139C37.9826 60.6722 34.8718 60.9667 36.9661 59.7765C40.9342 57.5434 42.3916 52.8441 42.3916 52.8441C32.7407 50.0834 22.502 64.4391 22.502 64.4391L24.7188 83.8377L26.1885 88.353L31.0874 87.9972C32.7163 87.8745 34.0757 86.7211 34.4431 85.126L36.3782 76.8193C36.3047 76.8684 36.2312 76.9175 36.1455 76.9543C34.2717 77.9482 31.9447 77.2365 30.9404 75.347C29.9484 73.4697 30.6587 71.1384 32.5448 70.1323C34.4186 69.1384 36.7456 69.8501 37.7499 71.7396C37.7499 71.7519 37.7621 71.7642 37.7621 71.7764C38.2888 71.5924 39.489 71.0525 39.0848 70.0832C38.5705 68.8808 39.0603 65.5556 38.5215 63.1139Z" fill="black"/>
<path d="M49.422 76.8684C49.422 76.8684 50.1568 78.2549 51.6143 78.4389" stroke="black" stroke-width="2" stroke-miterlimit="10" stroke-linecap="round" stroke-linejoin="round"/>
<path d="M36.0723 73.4942C36.0723 73.4942 35.5579 72.0096 34.1494 71.6169" stroke="black" stroke-width="2" stroke-miterlimit="10" stroke-linecap="round" stroke-linejoin="round"/>
<path d="M48.4541 62.8808C46.2251 62.2305 44.5227 64.5127 44.6697 65.6661" stroke="black" stroke-width="2" stroke-miterlimit="10" stroke-linecap="round" stroke-linejoin="round"/>
<path d="M48.1603 68.3655C48.442 68.7704 48.9074 68.9421 49.2014 68.7458C49.4953 68.5372 49.5075 68.0464 49.2259 67.6293C48.9442 67.2244 48.4788 67.0526 48.1848 67.2489C47.8909 67.4452 47.8787 67.9483 48.1603 68.3655Z" fill="black"/>
<path d="M43.7266 85.8254L43.5061 91.764C41.0199 90.6475 38.8766 88.7334 37.5049 86.1322C36.9538 85.0892 36.5741 84.0095 36.3292 82.9175C38.4235 84.6598 41.0322 85.6782 43.7266 85.8254Z" fill="black"/>
<path d="M45.0377 95.7518C49.2753 95.8868 53.4149 97.0401 57.1013 99.1137L61.6328 104.856H10.5127L10.9291 103.813C12.9989 98.6229 18.0448 95.261 23.6173 95.3591L45.0377 95.7518Z" fill="black"/>
<path d="M45.2211 102.537L45.3926 92.6475L24.4742 89.531L20.2489 96.6475L45.2211 102.537Z" fill="black"/>
<path d="M32.2545 52.4939C29.9955 52.6697 27.8361 53.2172 25.8647 54.0724C19.9005 56.6191 15.5813 61.792 15.3361 67.4615C15.1768 71.187 16.8258 74.4271 19.6107 76.6631" fill="#A6F6DE"/>
<path d="M32.2545 52.4939C29.9955 52.6697 27.8361 53.2172 25.8647 54.0724C19.9005 56.6191 15.5813 61.792 15.3361 67.4615C15.1768 71.187 16.8258 74.4271 19.6107 76.6631C26.4088 68.7555 29.2425 63.5158 32.2545 52.4939Z" fill="#A6F6DE"/>
<path d="M32.2545 52.4939C29.9955 52.6697 27.8361 53.2172 25.8647 54.0724C19.9005 56.6191 15.5813 61.792 15.3361 67.4615C15.1768 71.187 16.8258 74.4271 19.6107 76.6631C26.4088 68.7555 29.2425 63.5158 32.2545 52.4939Z" stroke="black" stroke-width="2" stroke-miterlimit="10"/>
</g>
<defs>
<clipPath id="clip0_1526_6362">
<rect width="181" height="136" fill="white" transform="translate(0.5 0.58252)"/>
</clipPath>
</defs>
</svg>
