<svg width="181" height="136" viewBox="0 0 181 136" fill="none" xmlns="http://www.w3.org/2000/svg">
<g clip-path="url(#clip0_1526_6607)">
<path d="M105.153 19.3776C106.885 19.3776 108.71 19.5936 110.47 20.1256C115.313 21.7652 118.861 25.6201 120.995 31.8043C122.411 35.9515 126.187 37.9113 130.243 38.8541C134.309 39.7991 138.951 39.7946 142.528 39.7946C144.255 39.7946 145.662 39.7962 146.614 39.902V39.901C148.449 40.1162 150.074 41.4159 150.99 43.7369L151.164 44.2155L151.167 44.2242C152.875 49.1934 151.446 57.6346 143.948 64.942C143.821 64.9501 143.561 64.9472 143.104 64.8639L143.097 64.8619L143.09 64.861L142.652 64.777C140.359 64.2852 136.48 62.7132 131.707 60.3502C126.973 58.0063 121.456 54.9335 115.922 51.5104L114.815 50.8219C108.094 46.5857 102.364 42.4724 98.0059 38.8092C93.6153 35.1186 90.7181 31.9656 89.54 29.6617L89.5352 29.6539L89.5312 29.6451L89.4902 29.5397C89.4539 29.4055 89.4404 29.1814 89.5332 28.8297C89.6566 28.3618 89.9514 27.7455 90.4941 26.9967C91.5785 25.5007 93.5474 23.6206 96.6387 21.5319L96.6396 21.5309C98.201 20.4732 101.455 19.3776 105.153 19.3776Z" stroke="black" stroke-width="2"/>
<path d="M92.6921 16.9196C98.4203 14.5376 117.533 13.857 120.142 33.4802C121.446 43.235 140.219 43.8589 145.89 45.3334C154.624 47.6587 153.546 64.3327 137.156 74.4278C132.449 77.3202 85.9432 40.9664 81.6896 26.2207C80.9523 23.782 84.9223 20.1523 92.6921 16.9196Z" fill="black"/>
<path d="M163.28 75.8174C164.419 65.544 157.014 56.2925 146.741 55.1534C136.468 54.0143 127.216 61.4191 126.077 71.6924C124.938 81.9658 132.343 91.2173 142.616 92.3564C152.889 93.4955 162.141 86.0907 163.28 75.8174Z" fill="black"/>
<path d="M125.128 72.93C126.34 61.9983 136.185 54.1192 147.117 55.3312C158.049 56.5435 165.928 66.3878 164.716 77.3194C163.504 88.2513 153.66 96.1312 142.728 94.9193C131.796 93.7072 123.916 83.862 125.128 72.93Z" stroke="black" stroke-width="2"/>
<path d="M148.466 63.2141C150.592 56.9897 147.27 50.2198 141.046 48.0932C134.821 45.9667 128.051 49.2887 125.925 55.5132C123.798 61.7376 127.12 68.5075 133.345 70.6341C139.569 72.7606 146.339 69.4386 148.466 63.2141Z" fill="black"/>
<path d="M146.798 80.7798C145.834 94.7315 145.607 120.31 134.945 127.115C123.262 134.545 90.7076 140.897 88.439 114.128C88.1555 108.173 91.0479 101.764 92.0687 96.4896C93.6567 88.266 90.2539 83.8423 78.6275 75.4486C67.0011 66.9982 58.7775 65.4102 56.7925 49.4735C55.2045 36.6561 67.7951 22.6477 73.9769 20.0956C94.0537 11.7586 116.229 35.295 120.256 43.7454C124.226 52.1958 117.76 58.3209 125.02 64.8998C129.557 68.9832 138.801 74.0875 146.798 80.7798Z" fill="black"/>
<path d="M74.5451 17.5435C66.9454 18.224 45.6208 28.4326 54.0145 51.3451C58.1547 62.7447 37.9644 74.1442 32.6333 79.0216C24.4097 86.6213 35.072 104.203 58.8352 105.904C65.6409 106.358 95.6995 40.059 91.9563 21.5135C91.3325 18.3375 84.8671 16.636 74.5451 17.5435Z" fill="black"/>
<path d="M73.0213 112.729C74.8456 100.113 66.0964 88.4057 53.4795 86.5814C40.8626 84.7572 29.1557 93.5063 27.3315 106.123C25.5072 118.74 34.2563 130.447 46.8732 132.271C59.4901 134.096 71.197 125.346 73.0213 112.729Z" fill="black"/>
<path d="M30.9736 96.2697C35.4489 99.9017 42.1284 101.858 52.0615 101.586C56.2145 101.472 60.4601 99.822 64.3057 97.2472C67.1473 100.802 68.8944 105.282 69.0078 110.181V110.186C69.3309 121.988 58.891 131.914 46.9541 132.241C35.0916 132.566 25.2238 123.139 24.8984 111.265C24.7693 105.522 27.1367 100.234 30.9736 96.2697ZM47.5488 89.1525C53.5729 89.1525 59.0565 91.6702 62.9736 95.7306C59.4399 98.0515 55.6301 99.4877 52.0068 99.587C42.5358 99.8465 36.4431 98.0214 32.4414 94.88C36.2525 91.5714 41.1811 89.4507 46.4482 89.1749L47.0088 89.1525H47.5488ZM56.0498 51.839C67.4048 52.1172 76.7136 61.3326 76.9805 72.8615V72.8654C77.141 78.7232 73.9306 85.3328 69.0605 90.5607C67.685 92.0372 66.1921 93.3863 64.627 94.5665C60.3328 89.9973 54.2479 87.1525 47.5488 87.1525H46.9678L46.9541 87.1534C40.9381 87.3176 35.2623 89.7141 30.9355 93.5431C30.3873 92.9916 29.8867 92.4103 29.4297 91.8009C27.5844 89.3405 26.5502 85.7229 27.1152 82.2814C27.6709 78.8969 29.7777 75.6315 34.3428 73.7638C36.9452 72.6991 39.6163 70.7348 42.1309 68.4523C44.6561 66.1601 47.078 63.4972 49.1787 60.9757C51.2813 58.452 53.0743 56.0561 54.3408 54.2921C54.9744 53.4097 55.4772 52.6838 55.8223 52.1779C55.9087 52.0512 55.9836 51.9372 56.0498 51.839Z" stroke="black" stroke-width="2"/>
<path d="M63.9937 94.2297C66.6489 86.5642 62.5873 78.1976 54.9218 75.5424C47.2563 72.8872 38.8897 76.9488 36.2345 84.6143C33.5792 92.2798 37.6409 100.646 45.3064 103.302C52.9719 105.957 61.3385 101.895 63.9937 94.2297Z" fill="black"/>
<path d="M42.4443 86.8484C47.0949 97.9076 54.2409 118.722 64.8464 121.331C76.4161 124.166 104.717 120.423 99.1585 97.9643C97.7407 93.0302 93.6005 88.6065 91.332 84.5798C87.759 78.3412 89.347 73.8041 96.493 63.7657C103.639 53.7273 109.934 50.1543 107.155 36.5996C104.943 25.7105 90.8215 17.7705 85.0934 17.3735C66.4344 16.069 54.808 41.3636 53.9006 49.3036C52.9932 57.3003 59.969 60.533 55.8856 67.9058C53.2767 72.4997 47.1516 79.1919 42.4443 86.8484Z" fill="black"/>
<path d="M100.292 23.8215L100.374 23.8352C103.126 24.2939 105.766 25.6363 108.169 27.2581C109.975 28.477 111.683 29.8793 113.239 31.2346L114.742 32.5657L114.748 32.5715L114.755 32.5774C117.067 34.7242 119.019 37.2337 120.514 40.01L120.807 40.5686L120.81 40.5754L122.341 43.6379L122.376 43.7092L122.4 43.7834C124.114 49.195 123.04 54.2629 119.908 57.9924C116.79 61.7054 111.716 63.9967 105.581 64.0852H105.577C102.8 64.1144 100.334 63.7781 98.5645 63.4358C98.1036 63.3467 97.6889 63.2563 97.3271 63.1721L102.515 85.7737L102.796 86.9973H80.0781L80.1846 85.9006L82.9189 57.6594L78.6982 53.2375L74.4854 52.5002H74.4834C72.0913 52.0779 70.3256 50.0362 70.2549 47.6311V47.6301C70.1853 45.1886 71.7339 43.0699 74.1182 42.4387L74.1318 42.4348L74.1455 42.4319L75.1094 42.2043C76.7661 41.7949 78.5816 42.2003 79.8633 43.3987L81.0928 44.5051L84.1367 43.2209C87.2496 41.8897 89.3283 39.9024 90.6973 37.4153C92.0789 34.905 92.7656 31.8345 92.9873 28.3157L93.001 28.0881L93.1133 27.8889L95.1104 24.3323L95.3965 23.8215H100.292Z" fill="white" stroke="black" stroke-width="2"/>
<path d="M95.8871 44.2742C95.9521 45.2884 96.8326 46.0627 97.8468 45.9977C98.861 45.9326 99.6353 45.0522 99.5702 44.038C99.5052 43.0238 98.6248 42.2495 97.6106 42.3145C96.5964 42.3795 95.822 43.26 95.8871 44.2742Z" fill="black"/>
<path d="M117.475 43.6537C116.458 43.7189 115.58 42.9473 115.515 41.9302C115.45 40.9131 116.221 40.0357 117.239 39.9705C118.256 39.9053 119.133 40.6769 119.198 41.694C119.263 42.7111 118.492 43.5884 117.475 43.6537Z" fill="black"/>
<path d="M101.462 45.1226C100.525 43.0521 98.306 41.6669 95.8239 41.8261C93.235 41.9921 91.1651 43.773 90.5891 46.0744" stroke="black" stroke-width="2" stroke-miterlimit="10" stroke-linecap="round" stroke-linejoin="round"/>
<path d="M120.696 42.9111C119.874 40.5384 117.975 38.9316 115.893 39.0651C113.718 39.2046 111.996 41.191 111.56 43.7917" stroke="black" stroke-width="2" stroke-miterlimit="10" stroke-linecap="round" stroke-linejoin="round"/>
<path d="M111.138 51.2019C111.138 51.2019 105.4 52.6284 104.02 51.7923" stroke="black" stroke-width="2" stroke-miterlimit="10" stroke-linecap="round" stroke-linejoin="round"/>
<path d="M116.939 49.7455C112.2 50.0499 108.113 46.4728 107.811 41.7559C107.509 37.039 111.106 32.9684 115.845 32.6641C120.584 32.3597 124.671 35.9367 124.973 40.6536C125.275 45.3705 121.678 49.4411 116.939 49.7455Z" stroke="#7FD0FF" stroke-width="2" stroke-miterlimit="10"/>
<path d="M96.8701 51.0316C92.1311 51.3355 88.0442 47.758 87.7418 43.0412C87.4393 38.3243 91.0358 34.2541 95.7748 33.9503C100.514 33.6464 104.601 37.2238 104.903 41.9407C105.206 46.6576 101.609 50.7277 96.8701 51.0316Z" stroke="#7FD0FF" stroke-width="2" stroke-miterlimit="10"/>
<path d="M74.8671 42.2453L87.7549 43.0403" stroke="#7FD0FF" stroke-width="2" stroke-miterlimit="10"/>
<path d="M107.812 41.7542L104.903 41.9407" stroke="#7FD0FF" stroke-width="2" stroke-miterlimit="10"/>
<mask id="path-22-inside-1_1526_6607" fill="white">
<path d="M77.6576 81.3011C88.8616 80.5117 103.8 82.8486 119.345 88.4222C148.555 98.8954 168.848 116.831 164.67 128.483C160.493 140.134 133.426 141.089 104.216 130.616C95.0748 127.338 86.8071 123.329 79.8891 119.011C75.4334 121.368 70.4086 123.429 64.9799 125.036C42.4363 131.712 21.4792 128.064 18.1703 116.889C14.8615 105.714 30.4539 91.2439 52.9975 84.5687C61.7738 81.9701 70.3098 80.9358 77.6576 81.3011Z"/>
</mask>
<path d="M77.6576 81.3011C88.8616 80.5117 103.8 82.8486 119.345 88.4222C148.555 98.8954 168.848 116.831 164.67 128.483C160.493 140.134 133.426 141.089 104.216 130.616C95.0748 127.338 86.8071 123.329 79.8891 119.011C75.4334 121.368 70.4086 123.429 64.9799 125.036C42.4363 131.712 21.4792 128.064 18.1703 116.889C14.8615 105.714 30.4539 91.2439 52.9975 84.5687C61.7738 81.9701 70.3098 80.9358 77.6576 81.3011Z" fill="white"/>
<path d="M77.6576 81.3011L77.5583 83.2987L77.6783 83.3046L77.7982 83.2962L77.6576 81.3011ZM119.345 88.4222L120.02 86.5396L120.02 86.5396L119.345 88.4222ZM164.67 128.483L166.553 129.158V129.158L164.67 128.483ZM104.216 130.616L103.541 132.498H103.541L104.216 130.616ZM79.8891 119.011L80.9481 117.314L79.9716 116.705L78.954 117.243L79.8891 119.011ZM64.9799 125.036L65.5477 126.954H65.5477L64.9799 125.036ZM18.1703 116.889L16.2526 117.457L16.2526 117.457L18.1703 116.889ZM52.9975 84.5687L52.4297 82.651V82.651L52.9975 84.5687ZM77.6576 81.3011L77.7982 83.2962C88.6532 82.5313 103.308 84.7968 118.67 90.3049L119.345 88.4222L120.02 86.5396C104.292 80.9003 89.0701 78.4921 77.5171 79.3061L77.6576 81.3011ZM119.345 88.4222L118.67 90.3049C133.097 95.4778 145.235 102.466 153.204 109.509C157.192 113.035 160.057 116.504 161.676 119.687C163.292 122.866 163.586 125.581 162.788 127.808L164.67 128.483L166.553 129.158C167.844 125.558 167.168 121.663 165.241 117.874C163.317 114.09 160.066 110.236 155.853 106.512C147.417 99.0562 134.803 91.8399 120.02 86.5396L119.345 88.4222ZM164.67 128.483L162.788 127.808C161.989 130.034 160.037 131.944 156.769 133.371C153.496 134.801 149.08 135.659 143.76 135.847C133.131 136.222 119.319 133.906 104.891 128.733L104.216 130.616L103.541 132.498C118.324 137.799 132.649 140.242 143.901 139.845C149.521 139.646 154.48 138.736 158.37 137.037C162.265 135.336 165.262 132.757 166.553 129.158L164.67 128.483ZM104.216 130.616L104.891 128.733C95.8727 125.499 87.7352 121.551 80.9481 117.314L79.8891 119.011L78.8301 120.708C85.8789 125.107 94.2769 129.177 103.541 132.498L104.216 130.616ZM79.8891 119.011L78.954 117.243C74.6197 119.536 69.7184 121.548 64.4121 123.119L64.9799 125.036L65.5477 126.954C71.0989 125.311 76.2471 123.2 80.8242 120.779L79.8891 119.011ZM64.9799 125.036L64.4121 123.119C53.3712 126.388 42.8122 127.097 34.7051 125.686C26.4609 124.251 21.4089 120.782 20.088 116.321L18.1703 116.889L16.2526 117.457C18.2406 124.171 25.3216 128.113 34.0191 129.627C42.8536 131.165 54.0451 130.36 65.5477 126.954L64.9799 125.036ZM18.1703 116.889L20.088 116.321C18.7671 111.86 21.1159 106.2 27.2497 100.508C33.2816 94.9098 42.5244 89.7556 53.5653 86.4864L52.9975 84.5687L52.4297 82.651C40.927 86.057 31.1018 91.4756 24.5288 97.5755C18.0577 103.581 14.2647 110.743 16.2526 117.457L18.1703 116.889ZM52.9975 84.5687L53.5653 86.4864C62.1514 83.9441 70.4615 82.9458 77.5583 83.2987L77.6576 81.3011L77.757 79.3036C70.1582 78.9258 61.3961 79.9961 52.4297 82.651L52.9975 84.5687Z" fill="black" mask="url(#path-22-inside-1_1526_6607)"/>
<path d="M82.1367 75.8439C81.6309 75.1849 80.6149 75.464 80.4707 76.1945L79.7959 79.672C79.22 82.6457 80.3574 85.688 82.7725 87.6183L84.8408 89.2687C88.7676 92.22 93.3711 93.689 98.0088 93.4884H98.0078L100.866 93.3556C102.716 93.2694 104.456 92.1936 105.53 90.3624L105.989 87.7169L104.619 80.8702L104.604 80.7941C104.599 80.7845 104.593 80.7723 104.585 80.7579C104.537 80.6734 104.453 80.5537 104.328 80.4054C104.078 80.1098 103.725 79.7731 103.344 79.4728C102.969 79.1777 102.614 78.9544 102.348 78.8361C101.904 79.4663 100.76 81.0544 98.418 81.506C95.6336 82.0428 91.1108 81.1905 83.1689 77.047L82.9697 76.9435L82.834 76.7648L82.1377 75.8429L82.1367 75.8439Z" fill="white" stroke="black" stroke-width="2"/>
<path fill-rule="evenodd" clip-rule="evenodd" d="M47.3021 133.284L14.7465 119.108C13.5421 118.585 13.5945 116.804 14.8512 116.333L49.4646 103.975L69.8347 116.281L73.0888 116.455L47.3021 133.284Z" fill="white"/>
<path d="M54.0728 136.232L98.3737 132.461L118.377 121.622C119.686 120.889 119.267 118.899 117.749 118.846L73.0888 116.455L47.3021 133.284L54.0728 136.232Z" fill="white"/>
<path d="M49.9814 103.119L70.1367 115.295L72.8154 115.439L73.1426 115.456L117.803 117.848H117.802C119.055 117.899 119.882 118.776 120.1 119.764C120.315 120.745 119.943 121.891 118.866 122.494L118.854 122.501L98.8506 133.341L98.667 133.441L98.458 133.458L54.1572 137.228L53.9053 137.249L53.6738 137.149L47.3975 134.415V134.416L46.9033 134.2L45.2021 133.46V133.459L14.3477 120.026C12.2904 119.131 12.431 116.173 14.5 115.397L14.5078 115.394L14.5146 115.391L49.1279 103.033L49.5752 102.873L49.9814 103.119Z" stroke="black" stroke-width="2"/>
<path d="M114.916 119.743L98.2256 127.993L96.9766 121.219L113.734 112.37L114.916 119.743Z" fill="white" stroke="black" stroke-width="2"/>
<mask id="path-28-inside-2_1526_6607" fill="white">
<path d="M97.4839 130C97.3792 130 97.3268 130 97.2745 129.948C97.1174 129.895 97.0126 129.738 97.0126 129.581L95.3893 120.784C95.337 120.574 95.4417 120.313 95.6511 120.208L114.346 110.363C114.503 110.258 114.66 110.258 114.817 110.363C114.974 110.416 115.079 110.573 115.079 110.73L116.597 120.208C116.65 120.417 116.492 120.679 116.335 120.784L97.7981 129.948C97.641 129.948 97.5363 130 97.4839 130ZM96.4366 120.941L97.8505 128.691L115.445 119.998L114.084 111.62L96.4366 120.941Z"/>
</mask>
<path d="M97.4839 130C97.3792 130 97.3268 130 97.2745 129.948C97.1174 129.895 97.0126 129.738 97.0126 129.581L95.3893 120.784C95.337 120.574 95.4417 120.313 95.6511 120.208L114.346 110.363C114.503 110.258 114.66 110.258 114.817 110.363C114.974 110.416 115.079 110.573 115.079 110.73L116.597 120.208C116.65 120.417 116.492 120.679 116.335 120.784L97.7981 129.948C97.641 129.948 97.5363 130 97.4839 130ZM96.4366 120.941L97.8505 128.691L115.445 119.998L114.084 111.62L96.4366 120.941Z" fill="black"/>
<path d="M97.2745 129.948L98.6887 128.534L98.3548 128.2L97.9069 128.05L97.2745 129.948ZM97.0126 129.581H99.0126V129.398L98.9794 129.218L97.0126 129.581ZM95.3893 120.784L97.3561 120.421L97.3448 120.359L97.3296 120.299L95.3893 120.784ZM95.6511 120.208L96.5456 121.997L96.5644 121.987L96.583 121.977L95.6511 120.208ZM114.346 110.363L115.277 112.133L115.369 112.085L115.455 112.027L114.346 110.363ZM114.817 110.363L113.707 112.027L113.93 112.176L114.184 112.261L114.817 110.363ZM115.079 110.73H113.079V110.889L113.104 111.046L115.079 110.73ZM116.597 120.208L114.622 120.524L114.636 120.609L114.657 120.693L116.597 120.208ZM116.335 120.784L117.222 122.577L117.337 122.52L117.445 122.448L116.335 120.784ZM97.7981 129.948V131.948H98.2655L98.6844 131.741L97.7981 129.948ZM96.4366 120.941L95.5025 119.173L94.2059 119.857L94.4691 121.3L96.4366 120.941ZM97.8505 128.691L95.883 129.05L96.3589 131.659L98.7364 130.484L97.8505 128.691ZM115.445 119.998L116.331 121.792L117.656 121.137L117.419 119.678L115.445 119.998ZM114.084 111.62L116.058 111.299L115.611 108.551L113.15 109.852L114.084 111.62ZM97.4839 130V128C97.4464 128 97.4667 128 97.4943 128.001C97.5255 128.002 97.6236 128.007 97.7518 128.032C97.8914 128.06 98.0655 128.113 98.2503 128.21C98.4352 128.308 98.5801 128.425 98.6887 128.534L97.2745 129.948L95.8602 131.362C96.1744 131.676 96.5598 131.873 96.9673 131.955C97.1282 131.987 97.2623 131.995 97.3344 131.998C97.4029 132 97.4691 132 97.4839 132V130ZM97.2745 129.948L97.9069 128.05C98.6091 128.284 99.0126 128.923 99.0126 129.581H97.0126H95.0126C95.0126 130.553 95.6256 131.506 96.642 131.845L97.2745 129.948ZM97.0126 129.581L98.9794 129.218L97.3561 120.421L95.3893 120.784L93.4225 121.147L95.0458 129.944L97.0126 129.581ZM95.3893 120.784L97.3296 120.299C97.4232 120.673 97.3639 121.008 97.2544 121.258C97.1419 121.515 96.9202 121.809 96.5456 121.997L95.6511 120.208L94.7567 118.419C93.6524 118.971 93.185 120.213 93.449 121.269L95.3893 120.784ZM95.6511 120.208L96.583 121.977L115.277 112.133L114.346 110.363L113.414 108.594L94.7192 118.438L95.6511 120.208ZM114.346 110.363L115.455 112.027C115.272 112.149 114.971 112.285 114.581 112.285C114.191 112.285 113.89 112.149 113.707 112.027L114.817 110.363L115.926 108.699C115.586 108.473 115.128 108.285 114.581 108.285C114.034 108.285 113.576 108.473 113.236 108.699L114.346 110.363ZM114.817 110.363L114.184 112.261C113.482 112.027 113.079 111.388 113.079 110.73H115.079H117.079C117.079 109.758 116.466 108.805 115.449 108.466L114.817 110.363ZM115.079 110.73L113.104 111.046L114.622 120.524L116.597 120.208L118.572 119.891L117.053 110.413L115.079 110.73ZM116.597 120.208L114.657 120.693C114.526 120.17 114.685 119.782 114.756 119.641C114.832 119.488 114.969 119.291 115.226 119.12L116.335 120.784L117.445 122.448C117.859 122.172 118.153 121.792 118.334 121.43C118.509 121.079 118.721 120.455 118.537 119.723L116.597 120.208ZM116.335 120.784L115.449 118.991L96.9118 128.155L97.7981 129.948L98.6844 131.741L117.222 122.577L116.335 120.784ZM97.7981 129.948V127.948C97.4927 127.948 97.2515 128 97.1166 128.034C97.0858 128.041 97.0592 128.049 97.0474 128.052C97.0293 128.057 97.0377 128.054 97.0479 128.052C97.0584 128.049 97.1017 128.038 97.1612 128.028C97.2172 128.018 97.3335 128 97.4839 128V130V132C97.6475 132 97.7785 131.981 97.8508 131.968C97.9267 131.955 97.988 131.94 98.0181 131.932C98.048 131.925 98.0776 131.917 98.0824 131.915C98.0935 131.913 98.0915 131.913 98.0869 131.914C98.0568 131.922 97.9464 131.948 97.7981 131.948V129.948ZM96.4366 120.941L94.4691 121.3L95.883 129.05L97.8505 128.691L99.818 128.332L98.4042 120.582L96.4366 120.941ZM97.8505 128.691L98.7364 130.484L116.331 121.792L115.445 119.998L114.559 118.205L96.9646 126.898L97.8505 128.691ZM115.445 119.998L117.419 119.678L116.058 111.299L114.084 111.62L112.11 111.941L113.471 120.319L115.445 119.998ZM114.084 111.62L113.15 109.852L95.5025 119.173L96.4366 120.941L97.3707 122.709L115.018 113.388L114.084 111.62Z" fill="black" mask="url(#path-28-inside-2_1526_6607)"/>
<mask id="path-30-outside-3_1526_6607" maskUnits="userSpaceOnUse" x="15.2598" y="99.1942" width="62" height="31" fill="black">
<rect fill="white" x="15.2598" y="99.1942" width="62" height="31"/>
<path d="M50.7211 102.194L72.8716 115.757L54.1248 126.963L17.2598 109.316L50.7211 102.194Z"/>
</mask>
<path d="M50.7211 102.194L72.8716 115.757L54.1248 126.963L17.2598 109.316L50.7211 102.194Z" fill="white"/>
<path d="M50.7211 102.194L51.7655 100.489L51.0851 100.072L50.3048 100.238L50.7211 102.194ZM72.8716 115.757L73.8977 117.473L76.7352 115.777L73.9159 114.051L72.8716 115.757ZM54.1248 126.963L53.2613 128.767L54.2296 129.23L55.151 128.68L54.1248 126.963ZM17.2598 109.316L16.8434 107.36C16.006 107.538 15.3749 108.229 15.2738 109.08C15.1726 109.93 15.6239 110.75 16.3962 111.12L17.2598 109.316ZM50.7211 102.194L49.6767 103.9L71.8272 117.462L72.8716 115.757L73.9159 114.051L51.7655 100.489L50.7211 102.194ZM72.8716 115.757L71.8454 114.04L53.0987 125.246L54.1248 126.963L55.151 128.68L73.8977 117.473L72.8716 115.757ZM54.1248 126.963L54.9884 125.159L18.1233 107.512L17.2598 109.316L16.3962 111.12L53.2613 128.767L54.1248 126.963ZM17.2598 109.316L17.6761 111.272L51.1374 104.15L50.7211 102.194L50.3048 100.238L16.8434 107.36L17.2598 109.316Z" fill="black" mask="url(#path-30-outside-3_1526_6607)"/>
<path d="M53.1689 127.614L53.4795 131.889L18.4521 116.87L18.3008 110.923L53.1689 127.614Z" fill="white" stroke="black" stroke-width="2"/>
<path d="M104.938 110.59C108.722 108.393 113.357 110.003 117.417 112.667C121.296 115.214 125.013 118.949 127.702 122.326L128.227 122.995L128.228 122.996C129.041 124.06 129.548 125.516 129.855 127.025C130.167 128.552 130.292 130.226 130.278 131.801C130.265 133.375 130.113 134.886 129.854 136.09C129.724 136.69 129.562 137.242 129.362 137.698C129.179 138.114 128.897 138.612 128.439 138.902L128.429 138.908C124.787 141.151 121.65 140.472 119.474 139.202C118.409 138.58 117.58 137.825 117.021 137.233C116.89 137.093 116.773 136.962 116.67 136.842L114.982 137.65L114.981 137.649C111.214 139.529 108.321 139.803 105.972 139.403C103.738 139.022 101.935 137.977 100.797 137.528L100.518 137.418C99.1385 136.849 97.9907 135.962 97.1895 135.226C96.7574 134.829 96.4144 134.464 96.1777 134.198C96.0639 134.069 95.974 133.963 95.9102 133.885C95.8094 133.809 95.7139 133.717 95.6328 133.603C95.4814 133.39 95.413 133.159 95.3936 132.949C95.358 132.564 95.4815 132.211 95.5918 131.965C95.8221 131.452 96.2492 130.866 96.7324 130.28C97.7211 129.081 99.202 127.582 100.671 126.125C101.904 124.902 103.129 123.704 104.113 122.689C103.81 122.885 103.499 123.09 103.185 123.297C102.831 123.531 102.471 123.768 102.122 123.99C101.442 124.422 100.733 124.844 100.124 125.078C99.7237 125.233 99.2599 125.292 98.8154 125.311C98.3576 125.33 97.8506 125.308 97.3291 125.262C96.2857 125.17 95.1126 124.972 94.0273 124.754C92.9382 124.536 91.9163 124.293 91.168 124.105C90.7933 124.011 90.4858 123.931 90.2715 123.873C90.1643 123.845 90.08 123.822 90.0225 123.806C89.9938 123.798 89.9712 123.793 89.9561 123.788C89.9489 123.786 89.9434 123.785 89.9395 123.784C89.9375 123.783 89.9357 123.782 89.9346 123.782H89.9326C89.5782 123.683 89.3064 123.396 89.2256 123.037C89.1449 122.679 89.2681 122.304 89.5459 122.063L89.5479 122.062C89.549 122.061 89.5505 122.059 89.5527 122.057C89.5572 122.053 89.5638 122.048 89.5723 122.04C89.5895 122.025 89.6151 122.003 89.6484 121.974C89.7151 121.917 89.8135 121.832 89.9404 121.724C90.1945 121.507 90.564 121.194 91.0273 120.806C91.954 120.031 93.2578 118.958 94.7656 117.766C97.7709 115.391 101.626 112.513 104.938 110.59Z" fill="white" stroke="black" stroke-width="2" stroke-linejoin="round"/>
<path d="M146.359 26.0518L134.488 29.7218L133.08 25.3021C129.018 24.2871 125.759 21.2119 124.498 17.2327C123.546 14.194 123.843 10.9256 125.304 8.08723C126.804 5.27097 129.314 3.14853 132.353 2.19661C135.391 1.24469 138.66 1.54121 141.498 3.00297C144.314 4.5024 146.437 7.01244 147.389 10.0511C148.65 14.0303 147.691 18.4289 144.936 21.5724L146.359 26.0518Z" fill="white" stroke="black" stroke-width="2"/>
<path d="M138.726 28.196C137.592 22.0718 132.414 8.5875 131.051 13.9648C129.726 19.1878 145.619 13.893 141.089 9.67295C135.513 4.47908 138.738 20.917 142.257 27.4239" stroke="black" stroke-width="2" stroke-linecap="round"/>
<path d="M139.478 36.4944L146.175 34.3971C147.354 34.0257 147.986 32.776 147.652 31.6185L145.833 25.7426L134.82 29.1567L136.639 35.0327C137.011 36.2123 138.298 36.8658 139.478 36.4944Z" fill="black"/>
<path d="M134.88 31.5216L135.219 32.6055L147.142 28.8841L146.803 27.8002L134.88 31.5216Z" fill="black"/>
<path d="M134.226 29.2331L134.564 30.317L146.487 26.5956L146.149 25.5117L134.226 29.2331Z" fill="black"/>
</g>
<defs>
<clipPath id="clip0_1526_6607">
<rect width="180" height="135" fill="white" transform="translate(0.75 0.58252)"/>
</clipPath>
</defs>
</svg>
