<svg width="185" height="123" viewBox="0 0 185 123" fill="none" xmlns="http://www.w3.org/2000/svg">
<g clip-path="url(#clip0_3074_56713)">
<path d="M42.8023 54.25C51.9979 54.25 59.4523 46.7955 59.4523 37.5999C59.4523 28.4044 51.9979 20.95 42.8023 20.95C33.6068 20.95 26.1523 28.4044 26.1523 37.5999C26.1523 46.7955 33.6068 54.25 42.8023 54.25Z" fill="#F7D471"/>
<path d="M42.6153 30.1831L42.5234 31.9807L43.5221 32.0317L43.614 30.2341L42.6153 30.1831Z" fill="#1C1B1A"/>
<path d="M42.6153 30.1831L42.5234 31.9807L43.5221 32.0317L43.614 30.2341L42.6153 30.1831Z" fill="#1C1B1A"/>
<path d="M37.645 32.7794L37.1016 33.6189L38.6127 34.597L39.1561 33.7575L37.645 32.7794Z" fill="#1C1B1A"/>
<path d="M38.4152 38.3808L36.8125 39.2L37.2676 40.0904L38.8703 39.2712L38.4152 38.3808Z" fill="#1C1B1A"/>
<path d="M42.0602 41.3437L41.9688 43.1414L42.9675 43.1922L43.0589 41.3945L42.0602 41.3437Z" fill="#1C1B1A"/>
<path d="M47.012 38.8452L46.4688 39.6848L47.98 40.6626L48.5232 39.823L47.012 38.8452Z" fill="#1C1B1A"/>
<path d="M48.3641 33.2917L46.7617 34.1118L47.2173 35.002L48.8197 34.1819L48.3641 33.2917Z" fill="#1C1B1A"/>
<path d="M53.0008 38.8999L82.1008 70.3999L46.3008 45.2499L53.0008 38.8999Z" fill="#F7D471"/>
<path d="M53.9508 119.2C53.5508 119.2 53.1508 119.15 52.7008 119.1C48.4008 118.4 43.1508 114.25 40.9508 106.55C40.8508 106.15 41.0508 105.6 41.5508 104.9C45.7508 99.4501 73.0508 82.4001 82.5508 82.5501C84.5508 82.6001 86.1508 85.8501 86.7008 91.0001C86.9508 93.3501 85.8008 98.1001 82.5008 101.25C79.5008 104.1 75.4508 105.15 70.5008 104.35C65.6008 103.55 62.1008 110.1 59.8008 114.4C59.2008 115.5 58.7008 116.45 58.3008 117.05C57.4008 118.45 55.8508 119.2 53.9508 119.2ZM82.4508 83.2C78.4508 83.2 70.2508 86.5001 60.5508 92.1001C51.9508 97.0501 44.2008 102.6 42.1008 105.3C41.5508 106 41.6008 106.3 41.6008 106.35C43.7008 113.8 48.7508 117.8 52.8508 118.45C55.0008 118.8 56.8508 118.15 57.8008 116.7C58.2008 116.1 58.7008 115.2 59.2508 114.1C61.6508 109.6 65.2008 102.85 70.6008 103.7C75.3508 104.45 79.2008 103.5 82.0508 100.8C85.2008 97.8001 86.3008 93.3001 86.0508 91.1001C85.4508 85.7001 83.9008 83.25 82.5508 83.2C82.5008 83.2 82.4508 83.2 82.4508 83.2Z" fill="#1C1B1A"/>
<path d="M90.6997 92.1C90.2997 96.45 84.3497 108.65 71.1997 103.75C64.6497 101.3 58.0497 112.9 55.1997 115.9C50.8497 120.6 40.7497 114.4 39.8997 100.75C39.6497 96.85 77.8497 79.85 88.4997 82.1C90.3497 82.45 91.2497 86.15 90.6997 92.1Z" fill="#1C1B1A"/>
<path d="M39.7793 118.758C47.0187 117.69 52.022 110.956 50.9543 103.717C49.8866 96.4773 43.1524 91.474 35.9129 92.5417C28.6734 93.6093 23.6702 100.344 24.7379 107.583C25.8055 114.823 32.5398 119.826 39.7793 118.758Z" fill="#1C1B1A"/>
<path d="M37.1 120.8C36.95 120.8 36.8 120.8 36.65 120.8C33 120.7 29.65 119.15 27.15 116.5C24.65 113.85 23.35 110.4 23.5 106.75C23.6 103.1 25.15 99.7501 27.8 97.2501C30.45 94.7501 33.9 93.4501 37.55 93.6001C45.05 93.8501 50.95 100.15 50.7 107.65C50.45 115 44.4 120.8 37.1 120.8ZM37.1 94.2501C33.8 94.2501 30.7 95.5001 28.25 97.7501C25.75 100.1 24.25 103.3 24.15 106.75C24.05 110.2 25.3 113.5 27.65 116C30 118.5 33.2 120 36.65 120.1C43.75 120.35 49.8 114.7 50 107.6C50.25 100.45 44.6 94.4501 37.5 94.2501C37.35 94.2501 37.25 94.2501 37.1 94.2501Z" fill="#1C1B1A"/>
<path d="M55.3273 111.762C58.6272 108.462 58.6272 103.112 55.3273 99.8121C52.0274 96.5122 46.6772 96.5122 43.3773 99.8121C40.0774 103.112 40.0774 108.462 43.3773 111.762C46.6772 115.062 52.0274 115.062 55.3273 111.762Z" fill="#1C1B1A"/>
<path d="M50.7517 110.2C44.4017 107.5 32.5017 103.3 31.0517 97.2C29.4517 90.55 31.7517 74.3 44.6017 77.6C47.4517 78.45 49.9517 80.8 52.2517 82.15C55.8517 84.2 58.4517 83.35 64.2517 79.25C70.0517 75.2 72.1517 71.6 79.9017 73.25C86.1517 74.55 90.6517 82.7 90.8517 86C91.5017 96.7 76.9517 103.3 72.3517 103.8C67.7517 104.3 65.9517 100.3 61.7017 102.6C59.0517 104.05 55.2017 107.55 50.7517 110.2Z" fill="#1C1B1A"/>
<path d="M87.9918 89.8354C89.4005 83.8693 85.7061 77.8909 79.74 76.4821C73.774 75.0734 67.7955 78.7678 66.3867 84.7339C64.978 90.6999 68.6724 96.6784 74.6385 98.0872C80.6045 99.4959 86.583 95.8015 87.9918 89.8354Z" fill="#1C1B1A"/>
<path d="M129.801 65.9998C129.651 65.5998 129.451 65.2498 129.251 64.8998C129.201 64.4998 129.151 64.1498 129.051 63.7498C128.451 61.6998 127.951 59.8998 127.851 59.8498L129.901 51.2498C129.901 50.4998 129.501 49.8998 128.901 49.8498C128.251 49.7498 127.951 50.1998 127.351 51.1998L124.951 56.3498V49.4498C124.701 48.6998 124.051 48.1998 123.301 48.1998C122.251 48.2498 121.551 49.1998 121.751 50.1498L121.551 57.9998L118.851 48.8998C118.601 48.0498 117.651 47.5498 116.751 47.7998C115.951 48.0498 115.501 48.9498 115.651 49.7998L118.351 59.2498L113.901 53.6498C112.451 52.1998 112.401 52.0998 111.651 52.1498C110.601 52.2498 109.951 53.2498 110.251 54.2498L115.401 62.4998L116.251 65.6498L112.851 62.9998C112.001 62.3498 110.901 62.0498 109.851 62.1998C109.101 62.2998 108.801 63.1998 109.301 63.7498L112.201 67.0498C113.501 68.4998 115.051 69.7498 116.751 70.6498C116.801 70.7998 116.851 70.9998 116.901 71.1498C118.001 73.9498 118.551 76.8498 118.551 79.8498C118.551 95.1498 103.701 107.55 85.4008 107.55C68.0508 107.55 53.5008 96.1998 52.3508 81.7498C52.3008 80.9498 52.1008 80.1998 51.7508 79.4998C51.9008 78.9998 51.9508 78.4498 51.9508 77.8498C51.9508 77.4498 51.9008 76.9998 51.9008 76.4498C51.7508 72.7498 51.5008 66.5998 50.3508 65.2498C49.4008 64.1498 47.6008 63.1998 46.3508 63.1998C45.8508 63.1998 45.5008 63.2998 45.2508 63.5998C44.9508 63.8998 44.6508 64.7998 44.4508 65.9998C43.1008 64.7498 37.8508 64.9998 36.1508 65.9498C34.6508 66.7498 33.8508 67.9498 33.8008 69.3498C33.8008 70.4998 34.2008 71.5498 34.2008 71.5998C34.2508 71.6498 34.3008 71.6998 34.3508 71.6998H34.4008C33.8508 72.4498 33.8508 73.1998 33.8508 73.6998C33.8508 74.7498 35.0008 75.5998 35.0508 75.5998C35.0508 75.5998 35.0508 75.5998 35.1008 75.5998C34.6508 76.0498 34.3508 76.5498 34.2008 77.0998C33.9008 78.2498 35.3008 79.4998 35.6008 79.7498C35.6508 80.0498 36.0008 81.3998 37.2508 81.9998C37.7008 82.2498 38.1008 82.3998 38.5008 82.4998C38.5008 82.6998 38.5008 82.8498 38.5008 83.0498C39.3508 93.6998 44.7508 103.55 53.7008 110.8C62.4008 117.85 73.7008 121.7 85.5008 121.7C111.501 121.7 132.651 103 132.651 79.9998C132.451 75.0998 131.551 70.4498 129.801 65.9998Z" fill="#FDF8F6"/>
<path d="M85.3023 122.1C73.3523 122.1 61.9523 118.2 53.1523 111.05C44.1023 103.75 38.6523 93.7499 37.7523 82.9499C37.7523 82.8999 37.7523 82.7999 37.7523 82.7499C37.4523 82.6499 37.1523 82.4999 36.8023 82.3499C35.5523 81.7499 35.1023 80.4999 34.9523 79.9499C34.4023 79.4499 33.2023 78.1999 33.5523 76.8999C33.6523 76.4499 33.9023 76.0499 34.2023 75.5999C33.8023 75.1999 33.2023 74.4999 33.2023 73.5999C33.2023 73.1499 33.2023 72.4499 33.6023 71.7499C33.6023 71.7499 33.6023 71.7499 33.6023 71.6999C33.5523 71.5999 33.1523 70.5499 33.1523 69.2999C33.1523 67.7499 34.1023 66.3999 35.7523 65.4999C37.4023 64.5999 41.8523 64.2499 43.9523 65.1999C44.1523 64.3999 44.4023 63.5999 44.7523 63.2499C45.1023 62.8999 45.6023 62.6999 46.2523 62.6999C47.6023 62.7499 49.5523 63.6999 50.6023 64.9499C51.7523 66.2999 52.1023 71.3499 52.3023 76.4499C52.3023 76.9999 52.3523 77.4499 52.3523 77.8499C52.4023 78.3999 52.3523 78.9999 52.2023 79.4999C52.5023 80.2499 52.7023 80.9999 52.7523 81.7499C53.9023 95.9499 68.2023 107.1 85.3023 107.1C103.302 107.1 117.952 94.8999 117.952 79.8999C117.952 76.9999 117.402 74.1499 116.302 71.3999C116.252 71.2999 116.202 71.1499 116.152 71.0499C114.452 70.0999 112.902 68.8999 111.602 67.3999L108.702 64.0999C108.352 63.6999 108.252 63.1499 108.452 62.6499C108.652 62.1499 109.052 61.7999 109.602 61.6999C110.802 61.4999 112.052 61.8499 113.002 62.5999L115.252 64.3499L114.802 62.6999L109.702 54.4999C109.652 54.4499 109.652 54.3999 109.652 54.3499C109.502 53.7499 109.602 53.0999 109.952 52.5999C110.302 52.0999 110.852 51.7499 111.502 51.6499C112.452 51.5499 112.702 51.7999 114.002 53.0999L114.202 53.2999C114.202 53.2999 114.202 53.3499 114.252 53.3499L117.152 56.9999L115.152 49.9499C114.952 48.8499 115.602 47.6499 116.602 47.3499C117.752 46.9999 118.952 47.6499 119.302 48.7499L121.102 54.8999L121.252 50.1999C121.152 49.5999 121.302 48.9999 121.702 48.4999C122.102 47.9999 122.702 47.6999 123.302 47.6999C124.252 47.6499 125.152 48.2999 125.452 49.2999C125.452 49.3499 125.452 49.3999 125.452 49.4499V54.1499L126.902 51.0499C127.402 50.1499 127.902 49.2999 128.952 49.3999C129.802 49.4999 130.402 50.3499 130.402 51.3499C130.402 51.3999 130.402 51.3999 130.402 51.4499L128.402 59.8999C128.552 60.2999 128.852 61.2499 129.552 63.6999C129.652 64.0499 129.702 64.4499 129.752 64.7999C129.952 65.1499 130.152 65.5499 130.302 65.8999C132.102 70.3999 133.002 75.1499 133.002 79.9499C132.952 103.15 111.552 122.1 85.3023 122.1ZM35.1523 75.0999C35.3023 75.1499 35.3523 75.2999 35.4023 75.4499C35.4523 75.5999 35.4023 75.7999 35.3023 75.8999C34.9023 76.2999 34.6523 76.7499 34.5023 77.1499C34.3023 77.8499 35.1523 78.7999 35.7023 79.2499C35.8023 79.2999 35.8523 79.3999 35.8523 79.5499C35.9023 79.7999 36.2023 80.9499 37.2023 81.4499C37.6523 81.6499 38.0023 81.7999 38.3523 81.8999C38.5523 81.9499 38.7023 82.1499 38.7023 82.3999C38.7023 82.5499 38.7023 82.7499 38.7023 82.8999C39.5523 93.4499 44.9023 103.15 53.7023 110.3C62.3023 117.25 73.5023 121.1 85.2023 121.1C110.902 121.1 131.852 102.6 131.852 79.8999C131.852 75.1999 130.952 70.5999 129.202 66.1999C129.052 65.8499 128.902 65.4999 128.652 65.1499C128.602 65.0999 128.602 64.9999 128.602 64.9499C128.552 64.5999 128.502 64.2499 128.402 63.8999C127.552 60.9499 127.352 60.2499 127.252 60.0999C127.202 59.9999 127.152 59.8499 127.202 59.6999L129.252 51.1499C129.252 50.6999 129.002 50.2999 128.702 50.2999C128.452 50.2499 128.252 50.3499 127.652 51.3999L125.252 56.4999C125.152 56.6999 124.902 56.8499 124.702 56.7499C124.452 56.6999 124.302 56.4999 124.302 56.2499V49.3999C124.102 48.8999 123.652 48.5499 123.152 48.5999C122.802 48.5999 122.502 48.7499 122.302 49.0499C122.102 49.2999 122.002 49.6499 122.052 49.9999C122.052 50.0499 122.052 50.0499 122.052 50.0999L121.852 57.9499C121.852 58.1999 121.652 58.3999 121.402 58.4499C121.152 58.4999 120.952 58.3499 120.852 58.0999L118.152 48.9999C117.952 48.3999 117.302 48.0499 116.702 48.2499C116.202 48.3999 115.802 49.0999 115.902 49.6499L118.552 59.0499C118.602 59.2999 118.502 59.4999 118.302 59.6499C118.102 59.7499 117.852 59.6999 117.702 59.4999L113.252 53.8999L113.102 53.7499C111.902 52.5499 111.902 52.5499 111.452 52.5999C111.102 52.6499 110.802 52.7999 110.602 53.0999C110.402 53.3499 110.352 53.6999 110.402 53.9999L115.502 62.1999C115.552 62.2499 115.552 62.2999 115.552 62.3499L116.402 65.4999C116.452 65.6999 116.352 65.9499 116.202 66.0499C116.002 66.1499 115.802 66.1499 115.602 66.0499L112.202 63.3999C111.452 62.7999 110.502 62.5499 109.552 62.6999C109.302 62.7499 109.252 62.8999 109.202 62.9999C109.152 63.0499 109.152 63.2499 109.302 63.4499L112.202 66.7499C113.452 68.1499 114.952 69.3499 116.652 70.2499C116.752 70.2999 116.852 70.3999 116.902 70.5499C116.952 70.6999 117.002 70.8499 117.052 70.9999C118.202 73.8499 118.752 76.8499 118.752 79.8999C118.752 95.4499 103.652 108.1 85.1023 108.1C67.5023 108.1 52.7523 96.5499 51.5523 81.8499C51.5023 81.1499 51.3023 80.4499 51.0023 79.7499C50.9523 79.6499 50.9523 79.4999 51.0023 79.3999C51.1523 78.8999 51.2023 78.3999 51.1523 77.8999C51.1523 77.4999 51.1023 77.0499 51.1023 76.4999C50.9523 73.3499 50.7023 66.7999 49.6523 65.5999C48.7523 64.5999 47.1023 63.7499 46.0023 63.6999C45.6523 63.6999 45.4023 63.7499 45.2523 63.8999C45.1523 63.9999 44.8523 64.6499 44.5523 66.0499C44.5023 66.2499 44.4023 66.3499 44.2023 66.4499C44.0523 66.4999 43.8523 66.4499 43.7023 66.3499C42.6023 65.2999 37.6523 65.4499 36.0023 66.3499C34.6523 67.0499 33.9523 68.0999 33.9523 69.2999C33.9523 70.0999 34.1523 70.7999 34.2523 71.1499C34.3523 71.1999 34.4023 71.2499 34.4523 71.2999C34.6023 71.4999 34.6023 71.7499 34.4523 71.8999C34.0023 72.4999 34.0023 73.1499 34.0023 73.5999C34.2023 74.3499 35.0023 74.9999 35.1523 75.0999Z" fill="#1C1B1A"/>
<path d="M123.551 68.5498C123.351 68.5498 123.151 68.3998 123.101 68.1998C123.101 68.1498 121.701 64.4998 117.951 63.5498C117.701 63.4998 117.501 63.1998 117.601 62.9498C117.651 62.6998 117.951 62.4998 118.201 62.5998C122.501 63.6498 124.001 67.6998 124.051 67.8498C124.151 68.0998 124.001 68.3998 123.751 68.4998C123.651 68.5498 123.601 68.5498 123.551 68.5498Z" fill="#1C1B1A"/>
<path d="M116.401 60.8999C116.251 60.8999 116.051 60.7999 115.951 60.6499C115.801 60.3999 115.901 60.0999 116.101 59.9499C116.351 59.7999 121.751 56.5999 125.651 58.0499C125.901 58.1499 126.051 58.4499 125.951 58.6999C125.851 58.9499 125.551 59.0999 125.301 58.9999C121.901 57.6999 116.701 60.7999 116.651 60.7999C116.601 60.8999 116.501 60.8999 116.401 60.8999Z" fill="#1C1B1A"/>
<path d="M157.951 22.95L161.301 31.85L167.651 24.75L167.601 34.2999L176.101 29.95L172.551 38.8499L182.101 37.9L175.601 44.9L184.801 47.4L176.201 51.5999L183.851 57.2999L174.351 58.0999L179.451 66.15L170.301 63.45L172.151 72.8499L164.551 67L162.901 76.4499L157.951 68.25L152.951 76.4499L151.301 67L143.751 72.8499L145.551 63.45L136.401 66.15L141.501 58.0999L132.001 57.2999L139.651 51.5999L131.051 47.4L140.251 44.9L133.801 37.9L143.301 38.8499L139.751 29.95L148.251 34.2999L148.201 24.75L154.551 31.85L157.951 22.95Z" fill="#F7D471"/>
<path d="M100.001 33.6501L105.301 35.7001L110.851 27.55L109.351 37.2001L115.801 38.05L108.751 40.35L108.151 46.6L105.001 41.55L99.8008 42.9501L102.601 38.9001L100.001 33.6501Z" fill="#F7D471"/>
<path d="M34.2008 72C34.0008 72 33.8008 71.9 33.7508 71.7C33.7508 71.65 33.3008 70.6 33.3008 69.35C33.3008 67.85 34.2008 66.55 35.8008 65.65C37.4508 64.75 43.1008 64.3 44.5508 65.85C44.7508 66.05 44.7508 66.35 44.5508 66.55C44.3508 66.75 44.0508 66.75 43.8508 66.55C42.9008 65.55 37.9008 65.7 36.3008 66.55C34.6508 67.45 34.3008 68.55 34.3008 69.35C34.3008 70.4 34.6508 71.35 34.6508 71.35C34.7508 71.6 34.6008 71.9 34.3508 72C34.3508 71.95 34.3008 72 34.2008 72Z" fill="#1C1B1A"/>
<path d="M34.7516 75.7C34.6516 75.7 34.5516 75.65 34.4516 75.6C34.4016 75.55 33.3516 74.85 33.3516 73.55C33.3516 72.65 33.4016 70.8 36.3516 69.8C38.6516 69 41.2016 68.85 43.9516 69.25C44.2016 69.3 44.4016 69.55 44.3516 69.8C44.3016 70.05 44.0516 70.25 43.8016 70.2C41.2016 69.8 38.8016 70 36.6516 70.7C34.3516 71.5 34.3516 72.65 34.3516 73.5C34.3516 74.2 35.0016 74.7 35.0016 74.7C35.2516 74.85 35.3016 75.15 35.1516 75.4C35.0516 75.65 34.9016 75.7 34.7516 75.7Z" fill="#1C1B1A"/>
<path d="M37.1002 82.2499C37.0502 82.2499 36.9502 82.2499 36.9002 82.1999C35.5002 81.4999 33.3002 78.4499 33.7002 76.9499C34.1002 75.4999 35.6502 74.2999 37.0502 73.8499C39.1502 73.0999 42.2002 72.2999 44.6502 72.7999C44.9002 72.8499 45.1002 73.0999 45.0502 73.3999C45.0002 73.6499 44.7502 73.8499 44.4502 73.7999C42.2002 73.3499 39.4002 74.0999 37.4002 74.8499C36.1002 75.2999 34.9502 76.3499 34.7002 77.2999C34.4502 78.1999 36.2002 80.8499 37.3502 81.3999C37.6002 81.4999 37.7002 81.7999 37.6002 82.0499C37.4502 82.1499 37.3002 82.2499 37.1002 82.2499Z" fill="#1C1B1A"/>
<path d="M45.5986 74.85C45.3486 74.85 45.0486 74.75 44.7486 74.45C43.9986 73.75 43.5986 72.4 43.5486 70.45C43.4486 67.7 44.1486 64.05 44.8486 63.3C45.0486 63.05 45.4986 62.8 46.1986 62.8C47.5486 62.85 49.3986 63.8 50.4486 65C50.6486 65.2 50.5986 65.5 50.3986 65.7C50.1986 65.9 49.8986 65.8501 49.6986 65.6501C48.8486 64.6501 47.2486 63.85 46.1986 63.8C45.9986 63.8 45.6986 63.8001 45.5986 63.9501C45.2486 64.3501 44.4486 67.4001 44.5486 70.4001C44.5986 72.0501 44.8986 73.2 45.3986 73.7C45.3986 73.7 45.5486 73.8501 45.5986 73.8001C46.2986 73.5501 47.0986 70.1001 47.4486 67.0501C47.4986 66.8001 47.6986 66.55 47.9986 66.6C48.2486 66.65 48.4486 66.8501 48.4486 67.1501C48.2986 68.8001 47.5986 74.15 45.9486 74.75C45.8486 74.85 45.7486 74.85 45.5986 74.85Z" fill="#1C1B1A"/>
<path d="M38.8515 78.8499C38.7015 78.8499 38.5515 78.7999 38.4515 78.6499C38.2515 78.4499 38.3015 78.1499 38.5015 77.9499C38.6015 77.8499 41.4515 75.4499 45.3515 75.9999C45.8515 76.0499 46.3515 75.8499 46.5515 75.4999C46.8515 74.9999 46.7515 74.6499 46.2515 74.3499C46.0015 74.1999 45.9515 73.8999 46.1015 73.6499C46.2515 73.3999 46.5515 73.3499 46.8015 73.4999C47.8015 74.1499 48.0015 75.0499 47.4015 76.0499C46.9515 76.7499 46.1015 77.1499 45.2015 77.0499C41.8015 76.5999 39.2015 78.7499 39.1515 78.7999C39.0515 78.7999 38.9515 78.8499 38.8515 78.8499Z" fill="#1C1B1A"/>
<path d="M119.801 46.5C119.651 46.5 119.551 46.45 119.451 46.35C119.251 46.15 119.251 45.85 119.451 45.65L137.101 25.55L126.601 24.8C125.451 24.75 124.501 23.9 124.351 22.75L122.201 9.05002C122.101 8.35002 122.301 7.60002 122.801 7.05002C123.301 6.50002 124.001 6.20002 124.701 6.25002L145.751 7.35002C146.901 7.40002 147.851 8.25002 148.051 9.35002L150.301 22.35C150.451 23.1 150.201 23.85 149.701 24.4C149.201 24.95 148.451 25.25 147.701 25.15H144.651L120.201 46.3C120.051 46.45 119.901 46.5 119.801 46.5ZM124.551 7.30002C124.151 7.30002 123.751 7.45002 123.501 7.80002C123.201 8.10002 123.101 8.55002 123.151 8.95002L125.301 22.65C125.401 23.3 125.951 23.8 126.651 23.85L137.301 24.6C137.651 24.6 138.001 24.75 138.301 24.95C138.401 25.05 138.501 25.15 138.501 25.3C138.501 25.45 138.451 25.6 138.401 25.7L125.001 40.85L144.051 24.35C144.151 24.25 144.251 24.25 144.401 24.25H147.651C148.151 24.3 148.551 24.15 148.851 23.8C149.151 23.45 149.301 23.05 149.201 22.6L146.951 9.60002C146.851 8.95002 146.251 8.45002 145.601 8.40002L124.551 7.30002Z" fill="#1C1B1A"/>
<path d="M45.3489 12.85C45.3489 12.85 45.1489 12.5 45.0489 12.35C44.1489 10.65 41.9989 9.99999 40.2989 10.9C39.7489 11.2 37.7489 12.25 37.1989 12.55C35.4989 13.45 34.8489 15.6 35.7489 17.3C35.8489 17.5 36.0489 17.8 36.0489 17.8L45.3489 12.85Z" fill="#1C1B1A"/>
<path d="M38.9006 7.04992C39.5006 8.19991 39.1006 9.59991 37.9506 10.1999C36.8006 10.7999 35.4006 10.3999 34.8006 9.24991C34.2006 8.09992 34.6006 6.69991 35.7506 6.09991C36.9006 5.49991 38.3006 5.89992 38.9006 7.04992Z" fill="#1C1B1A"/>
<path d="M95.6023 64.85C95.3523 64.85 95.1523 64.65 95.1023 64.45L90.0023 32.25H86.4023C83.2023 32.25 80.6523 29.65 80.6523 26.5V16C80.6523 12.8 83.2523 10.25 86.4023 10.25H122.952C126.152 10.25 128.702 12.85 128.702 16V26.5C128.702 29.7 126.102 32.25 122.952 32.25H96.6523L96.1523 64.4C96.1023 64.65 95.9023 64.85 95.6023 64.85ZM86.3523 11.2C83.7023 11.2 81.6023 13.35 81.6023 15.95V26.45C81.6023 29.1 83.7523 31.2 86.3523 31.2H90.4023C90.6523 31.2 90.8523 31.4 90.9023 31.6L95.2023 58.55L95.6523 31.65C95.6523 31.4 95.9023 31.15 96.1523 31.15H122.952C125.602 31.15 127.702 29 127.702 26.4V15.9C127.702 13.25 125.552 11.15 122.952 11.15H86.3523V11.2Z" fill="#1C1B1A"/>
<path d="M107.301 25.3499C105.651 25.3499 103.901 24.4499 102.501 23.2499C101.201 24.1499 99.0008 25.1999 96.3008 24.4499C95.1008 24.0999 94.1008 23.4999 93.3508 22.7499C93.1008 22.9499 92.8508 23.1499 92.6008 23.2999C90.4008 24.5999 89.4008 23.6999 89.3008 23.5999L90.0008 22.8499C90.0008 22.8499 90.6008 23.2999 92.1508 22.3999C92.3508 22.2999 92.5508 22.1499 92.7508 21.9499C92.3008 21.3499 92.0008 20.6999 91.9008 20.0499C91.7008 19.0499 91.9008 18.1999 92.4508 17.7499C92.8508 17.4499 93.5508 17.1499 94.7008 17.5999C95.2008 17.7999 95.5008 18.2499 95.5508 18.7999C95.6008 19.7499 95.0008 20.9999 94.1508 21.9999C94.7508 22.5999 95.6008 23.1499 96.6508 23.4499C98.8508 24.0499 100.701 23.2999 101.801 22.5499C101.451 22.1999 101.151 21.7999 100.901 21.3999C100.001 19.9999 99.8008 18.6999 100.451 17.7999C101.101 16.8499 102.051 16.3999 103.151 16.5999C104.301 16.8499 105.251 17.7999 105.451 18.9499C105.601 19.8499 104.801 21.2999 103.451 22.5499L103.401 22.5999C104.751 23.7499 106.501 24.5499 107.901 24.2999C109.451 24.0499 110.401 23.4999 110.801 22.6499C108.601 21.9999 108.201 20.9499 108.151 20.3499C108.101 19.4999 108.801 18.6999 109.701 18.5499C110.751 18.3999 111.751 19.6999 111.951 20.9499C112.001 21.1999 112.001 21.5499 112.001 21.8499C112.851 21.9999 113.901 22.0999 115.251 22.1499V23.1499C113.851 23.1499 112.701 22.9999 111.801 22.8499C111.401 23.8499 110.401 24.8499 108.101 25.2999C107.751 25.3499 107.551 25.3499 107.301 25.3499ZM102.551 17.5499C102.051 17.5499 101.601 17.7999 101.251 18.3499C100.901 18.8999 101.051 19.7999 101.701 20.8499C101.951 21.1999 102.251 21.5999 102.551 21.9499C102.601 21.8999 102.651 21.8499 102.701 21.8499C103.901 20.7499 104.451 19.5999 104.401 19.1999C104.251 18.4499 103.651 17.7999 102.901 17.6499C102.751 17.5999 102.651 17.5499 102.551 17.5499ZM109.801 19.5499C109.351 19.5999 109.051 19.9499 109.051 20.2999C109.101 20.6999 109.551 21.2499 110.901 21.6499C110.901 21.4999 110.901 21.2999 110.851 21.1499C110.751 20.2999 110.151 19.5499 109.801 19.5499ZM93.5508 18.3999C93.3508 18.3999 93.2008 18.4499 93.0508 18.5499C92.8008 18.7999 92.7008 19.2999 92.8508 19.8999C92.9508 20.3499 93.1508 20.7999 93.4508 21.2499C94.1508 20.4499 94.5508 19.4999 94.5008 18.8999C94.5008 18.6499 94.4008 18.5999 94.3008 18.5499C94.0508 18.4499 93.7508 18.3999 93.5508 18.3999Z" fill="#1C1B1A"/>
<path d="M84.25 44.3499L89.8 68.3499L88.7 44.4499L84.25 44.3499Z" fill="#1C1B1A"/>
<path d="M104.799 57.35L101.449 53L97.6992 69.1L104.799 57.35Z" fill="#1C1B1A"/>
<path d="M76.4508 71.5499L67.4508 64.3499L64.3008 65.3999L76.4508 71.5499Z" fill="#1C1B1A"/>
<path d="M136.75 20.6C136.75 20.6 142.6 14.15 140.8 12.3C138.5 10 135.05 14.05 135.7 16.15C136.35 18.25 137.1 12.2 134.15 12.25C131.85 12.35 130.3 15.65 136.75 20.6Z" fill="#1C1B1A"/>
<path d="M86.5014 69.2499C86.3514 69.2499 86.1514 69.1499 86.0514 68.9999L67.4015 37.4999C58.1015 38.4499 50.1015 34.3999 47.9015 27.5999C45.2015 19.1999 52.1014 9.39989 63.3514 5.79989C68.7514 4.04989 74.3514 3.99989 79.1014 5.59989C83.9015 7.24989 87.3014 10.3999 88.6014 14.4999C91.2014 22.5499 85.0515 31.8499 74.5515 35.8499L86.9515 68.5999C87.0514 68.8499 86.9515 69.0999 86.7015 69.2499C86.6515 69.2499 86.6014 69.2499 86.5014 69.2499ZM67.7015 36.4999C67.9015 36.4999 68.0515 36.5999 68.1515 36.7499L84.0014 63.5499L73.4515 35.6999C73.4015 35.5499 73.4015 35.4499 73.4515 35.2999C73.5015 35.1999 73.6015 35.0999 73.7515 35.0499C84.0515 31.3499 90.1515 22.4499 87.6515 14.7999C86.4515 10.9999 83.2514 8.09989 78.7515 6.54989C74.2015 4.99989 68.8014 5.09989 63.6014 6.74989C52.9015 10.1999 46.2515 19.4499 48.8015 27.2999C50.9515 33.7499 58.6515 37.4999 67.6515 36.4999H67.7015Z" fill="#1C1B1A"/>
<path d="M12.35 54.7C12.15 54.7 12 54.6 11.9 54.45L10.8 52.4L8.75 51.3C8.6 51.2 8.5 51.05 8.5 50.85C8.5 50.65 8.6 50.5 8.75 50.4L10.8 49.3L11.9 47.25C12 47.1 12.15 47 12.35 47C12.55 47 12.7 47.1 12.8 47.25L13.9 49.3L15.95 50.4C16.1 50.5 16.2 50.65 16.2 50.85C16.2 51.05 16.1 51.2 15.95 51.3L13.9 52.4L12.8 54.45C12.7 54.6 12.55 54.7 12.35 54.7ZM10 50.8L11.4 51.55C11.5 51.6 11.55 51.65 11.6 51.75L12.35 53.15L13.1 51.75C13.15 51.65 13.2 51.6 13.3 51.55L14.7 50.8L13.3 50.05C13.2 50 13.15 49.95 13.1 49.85L12.35 48.45L11.6 49.85C11.55 49.95 11.5 50 11.4 50.05L10 50.8Z" fill="#1C1B1A"/>
<path d="M68.4995 24.1L68.1495 24.2C66.8995 24.65 65.4995 23.95 65.0495 22.7L58.8495 4.05C58.3495 2.65 59.2995 1.1 60.7495 0.899999L64.5995 0.299999C65.9495 0.0999987 67.1995 0.999998 67.3995 2.35L70.0995 21.5C70.2495 22.6 69.5995 23.7 68.4995 24.1Z" fill="#1C1B1A"/>
<path d="M71.2989 31.7499L70.2489 32.0499C68.9989 32.3499 67.7489 31.6499 67.3489 30.4499C66.9489 29.2499 67.5989 27.8999 68.7489 27.4499L69.7489 27.0499C70.8989 26.5999 72.1989 27.0999 72.7989 28.1999L72.8489 28.2999C73.5489 29.6999 72.7989 31.3499 71.2989 31.7499Z" fill="#1C1B1A"/>
<path d="M169.049 13.7C168.849 13.7 168.699 13.6 168.599 13.45L167.499 11.4L165.449 10.3C165.299 10.2 165.199 10.05 165.199 9.85C165.199 9.65 165.299 9.5 165.449 9.4L167.499 8.3L168.599 6.25C168.699 6.1 168.849 6 169.049 6C169.249 6 169.399 6.1 169.499 6.25L170.599 8.3L172.649 9.4C172.799 9.5 172.899 9.65 172.899 9.85C172.899 10.05 172.799 10.2 172.649 10.3L170.599 11.4L169.499 13.45C169.399 13.6 169.249 13.7 169.049 13.7ZM166.749 9.85L168.149 10.6C168.249 10.65 168.299 10.7 168.349 10.8L169.099 12.2L169.849 10.8C169.899 10.7 169.949 10.65 170.049 10.6L171.449 9.85L170.049 9.1C169.949 9.05 169.899 9 169.849 8.9L169.099 7.5L168.349 8.9C168.299 9 168.249 9.05 168.149 9.1L166.749 9.85Z" fill="#1C1B1A"/>
<path d="M85.3016 123.1C76.2016 123.1 67.3016 120.85 59.6016 116.6L67.8516 101.7C73.0516 104.55 79.1016 106.1 85.3516 106.1C97.3516 106.1 108.552 100.3 113.852 91.25L128.502 99.85C120.052 114.2 103.502 123.1 85.3016 123.1Z" fill="#587BE1"/>
<path d="M170.602 53.2999C169.802 55.1499 168.652 57.7999 167.802 59.5999C154.002 60.1999 153.802 60.1499 144.402 49.9999C145.052 48.2999 146.002 45.7999 146.652 44.0999L170.602 53.2999Z" fill="#1C1B1A"/>
<path d="M161.35 40.8999L142.5 40.0999L156.5 52.7499L175.4 53.5499L161.35 40.8999Z" fill="#1C1B1A"/>
<path d="M147.053 56.3499C147.003 56.3499 146.903 56.3499 146.853 56.2999C146.603 56.1999 146.453 55.8999 146.603 55.6499L150.253 46.6999C150.353 46.4999 150.503 46.3999 150.753 46.3999L158.403 46.6999C158.703 46.6999 158.903 46.9499 158.903 47.1999C158.903 47.4999 158.653 47.6999 158.403 47.6999L151.103 47.3999L147.553 55.9999C147.453 56.2499 147.253 56.3499 147.053 56.3499Z" fill="#FDF8F6"/>
<path d="M148.352 56.85C148.052 57.55 147.252 57.9 146.502 57.65C145.802 57.35 145.452 56.55 145.702 55.8C146.002 55.1 146.802 54.75 147.552 55C148.302 55.3 148.652 56.1 148.352 56.85Z" fill="#FDF8F6"/>
<path d="M146.4 61.4998L147.25 59.4498C147.55 58.7498 147.2 57.8998 146.45 57.5998C145.75 57.2998 144.9 57.6498 144.6 58.3998L143.75 60.4498L146.4 61.4998Z" fill="#FDF8F6"/>
<path d="M85.992 98.3817C87.0471 94.9505 85.1208 91.3137 81.6897 90.2586C78.2585 89.2036 74.6217 91.1298 73.5666 94.561C72.5115 97.9922 74.4378 101.629 77.8689 102.684C81.3001 103.739 84.9369 101.813 85.992 98.3817Z" fill="#1C1B1A"/>
<path d="M105.157 89.6437C107.768 81.5493 103.323 72.8708 95.229 70.2597C87.1346 67.6486 78.4561 72.0937 75.845 80.1881C73.2339 88.2824 77.679 96.9609 85.7734 99.572C93.8678 102.183 102.546 97.738 105.157 89.6437Z" fill="#1C1B1A"/>
<path d="M91.2168 101.122C94.7728 98.7402 95.7246 93.9266 93.3426 90.3706C90.9607 86.8146 86.147 85.8628 82.591 88.2447C79.035 90.6267 78.0833 95.4403 80.4652 98.9963C82.8472 102.552 87.6608 103.504 91.2168 101.122Z" fill="#1C1B1A"/>
<path d="M79.6006 95.3656C83.0009 94.214 84.8239 90.5239 83.6722 87.1236C82.5206 83.7233 78.8305 81.9004 75.4302 83.052C72.0299 84.2036 70.207 87.8937 71.3586 91.294C72.5103 94.6943 76.2003 96.5172 79.6006 95.3656Z" fill="#1C1B1A"/>
<path d="M101.702 101.75C101.652 101.5 101.652 101.25 101.552 100.95L97.0516 81.3999L83.3516 84.5499L87.8516 104.1C87.9016 104.35 88.0016 104.6 88.0516 104.85L82.8516 106.05C85.9016 109.9 91.0016 111.85 96.1516 110.7C101.252 109.5 105.002 105.5 106.052 100.75L101.702 101.75Z" fill="#FDF8F6"/>
<path d="M93.2016 111.45C89.1016 111.45 85.1516 109.6 82.5516 106.35C82.4516 106.25 82.4516 106.1 82.5016 106C82.5516 105.9 82.6516 105.8 82.7516 105.75L87.5516 104.65C87.5016 104.5 87.5016 104.4 87.4516 104.25L82.9516 84.7C82.9516 84.6 82.9516 84.5 83.0016 84.4C83.0516 84.3 83.1516 84.25 83.2516 84.25L96.9516 81.1C97.1516 81.05 97.3516 81.2 97.4016 81.4L101.902 100.95C101.952 101.1 101.952 101.2 102.002 101.35L105.952 100.45C106.102 100.4 106.202 100.45 106.302 100.55C106.402 100.65 106.452 100.8 106.402 100.9C105.252 105.95 101.252 110 96.2016 111.15C95.2016 111.3 94.2016 111.45 93.2016 111.45ZM83.5516 106.3C86.6516 109.8 91.5016 111.4 96.0516 110.35C100.652 109.3 104.302 105.75 105.552 101.25L101.802 102.1C101.702 102.1 101.602 102.1 101.502 102.05C101.402 102 101.352 101.9 101.352 101.8C101.302 101.55 101.302 101.3 101.252 101.05L96.8516 81.85L83.8516 84.85L88.2516 104.05C88.3016 104.3 88.3516 104.5 88.4516 104.75C88.5016 104.85 88.5016 104.95 88.4016 105.05C88.3516 105.15 88.2516 105.2 88.1516 105.25L83.5516 106.3Z" fill="#1C1B1A"/>
<path d="M104.299 81.8499C103.749 81.9499 103.299 82.2499 102.949 82.5499C100.849 76.6999 94.6993 73.1999 88.4493 74.5999C82.3493 75.9999 78.3993 81.6499 78.8493 87.6999C78.7993 87.6999 78.7993 87.6999 78.7493 87.6999C77.1493 88.0499 76.0993 89.6999 76.4993 91.2999C76.8493 92.8999 78.4993 93.9499 80.0993 93.5499C80.2993 93.4999 80.5493 93.3999 80.7493 93.2999C83.4993 97.6499 88.7494 99.9999 94.0494 98.7499C99.5494 97.4999 103.349 92.7499 103.649 87.3999C104.249 87.6999 104.949 87.7999 105.649 87.6499C107.249 87.2999 108.299 85.6499 107.899 84.0499C107.549 82.4999 105.949 81.4999 104.299 81.8499Z" fill="#FDF8F6"/>
<path d="M91.2521 99.55C87.0521 99.55 83.0021 97.45 80.6021 93.85C80.4521 93.9 80.3521 93.95 80.2021 93.95C79.3021 94.15 78.4021 94 77.6521 93.5C76.9021 93 76.3521 92.25 76.1521 91.4C75.9521 90.5 76.1021 89.6 76.6021 88.85C77.0521 88.15 77.7021 87.65 78.5021 87.4C78.1521 81.25 82.3521 75.65 88.4021 74.25C94.5521 72.85 100.802 76.1 103.152 81.95C103.502 81.75 103.852 81.55 104.252 81.5C105.152 81.3 106.052 81.45 106.802 81.95C107.552 82.45 108.102 83.2 108.302 84.05C108.702 85.85 107.602 87.7 105.752 88.1C105.152 88.25 104.552 88.2 104.002 88.05C103.452 93.45 99.4521 98 94.1521 99.25C93.2021 99.45 92.2021 99.55 91.2521 99.55ZM80.7521 93C80.9021 93 81.0021 93.05 81.0521 93.2C83.8021 97.5 88.9521 99.65 93.9521 98.5C99.1021 97.3 102.952 92.8 103.252 87.5C103.252 87.35 103.352 87.25 103.452 87.2C103.552 87.15 103.702 87.15 103.802 87.2C104.352 87.45 104.952 87.55 105.552 87.4C106.952 87.1 107.852 85.65 107.502 84.25C107.352 83.55 106.952 83 106.352 82.6C105.752 82.25 105.052 82.1 104.352 82.25C103.902 82.35 103.502 82.55 103.152 82.9C103.052 83 102.902 83 102.802 83C102.702 82.95 102.602 82.9 102.552 82.75C100.502 77 94.4521 73.7 88.5021 75.05C82.7521 76.4 78.7521 81.85 79.2021 87.7C79.2021 87.9 79.1021 88.05 78.9021 88.1H78.8521C78.1521 88.25 77.5521 88.7 77.2021 89.25C76.8521 89.85 76.7021 90.55 76.8521 91.25C77.0021 91.95 77.4021 92.5 78.0021 92.9C78.6021 93.25 79.3021 93.4 80.0021 93.25C80.2021 93.2 80.3521 93.15 80.5521 93.05C80.6521 93 80.7021 93 80.7521 93Z" fill="#1C1B1A"/>
<path d="M87.0508 69.9C81.5008 71.2 77.3508 75.3 75.8008 80.4C77.7508 81.35 80.0008 81.65 82.3008 81.1C87.5508 79.9 90.8008 74.75 89.7508 69.5C88.8008 69.55 87.9508 69.7 87.0508 69.9Z" fill="#1C1B1A"/>
<path d="M85.6002 87.45C83.4002 87.45 81.4502 85.95 80.9502 83.75C80.6502 82.5 80.9002 81.2 81.5502 80.15C82.2502 79.05 83.3002 78.3 84.5502 78C85.8002 77.7 87.1002 77.95 88.1502 78.6C89.2502 79.3 90.0002 80.35 90.3002 81.6C90.6002 82.85 90.3502 84.15 89.7002 85.2C89.0002 86.3 87.9502 87.05 86.7002 87.35C86.3002 87.4 85.9502 87.45 85.6002 87.45ZM85.6002 78.6C85.3002 78.6 85.0002 78.65 84.7002 78.7C83.6502 78.95 82.7502 79.6 82.2002 80.5C81.6502 81.4 81.4502 82.5 81.7002 83.55C82.2002 85.7 84.3502 87.05 86.5502 86.55C87.6002 86.3 88.5002 85.65 89.0502 84.75C89.6002 83.85 89.8002 82.75 89.5502 81.7C89.3002 80.65 88.6502 79.75 87.7502 79.2C87.1002 78.85 86.3502 78.6 85.6002 78.6Z" fill="#F7D471"/>
<path d="M97.201 84.75C96.301 84.75 95.451 84.5 94.651 84C93.551 83.3 92.801 82.25 92.501 81C91.901 78.45 93.501 75.85 96.101 75.25C97.351 74.95 98.651 75.2 99.701 75.85C100.801 76.55 101.551 77.6 101.851 78.85C102.151 80.1 101.901 81.4 101.251 82.45C100.551 83.55 99.501 84.3 98.251 84.6C97.951 84.7 97.551 84.75 97.201 84.75ZM97.251 75.95C96.951 75.95 96.651 76 96.351 76.05C95.301 76.3 94.401 76.95 93.851 77.85C93.301 78.75 93.101 79.85 93.351 80.9C93.601 81.95 94.251 82.85 95.151 83.4C96.051 83.95 97.151 84.15 98.201 83.9C99.251 83.65 100.151 83 100.701 82.1C101.251 81.2 101.451 80.1 101.201 79.05C100.951 78 100.301 77.1 99.401 76.55C98.701 76.15 98.001 75.95 97.251 75.95Z" fill="#F7D471"/>
<path d="M79.1997 87.9001C79.1497 87.9001 79.0497 87.9001 78.9997 87.8501C78.7997 87.7501 78.7497 87.5001 78.8997 87.3501L81.0997 83.8501C81.1997 83.6501 81.4497 83.6001 81.5997 83.7501C81.7997 83.8501 81.8497 84.1001 81.6997 84.2501L79.4997 87.7501C79.4497 87.8501 79.3497 87.9001 79.1997 87.9001Z" fill="#F7D471"/>
<path d="M90.1019 82.0001C89.9519 82.0001 89.7519 81.9001 89.7519 81.7001C89.7019 81.5001 89.8519 81.3001 90.0519 81.2501L92.7019 80.6501C92.9019 80.6001 93.1019 80.7501 93.1519 80.9501C93.2019 81.1501 93.0519 81.3501 92.8519 81.4001L90.2019 82.0001C90.1519 82.0001 90.1019 82.0001 90.1019 82.0001Z" fill="#F7D471"/>
<path d="M86.8497 81.5C86.9997 82.2 86.6497 82.85 86.0997 83C85.4997 83.15 84.8997 82.7 84.7497 82C84.5997 81.3 84.9497 80.65 85.4997 80.5C86.0997 80.35 86.6997 80.8 86.8497 81.5Z" fill="#1C1B1A"/>
<path d="M97.1505 79.1499C97.3005 79.8499 96.9505 80.4999 96.4005 80.6499C95.8005 80.7999 95.2005 80.3499 95.0505 79.6499C94.9005 78.9499 95.2505 78.2999 95.8005 78.1499C96.4005 77.9999 97.0005 78.4499 97.1505 79.1499Z" fill="#1C1B1A"/>
<path d="M88.4492 90.65C88.4492 92.9 90.2992 94.75 92.5492 94.75C94.7992 94.75 96.6492 92.9 96.6492 90.65C96.6492 90.5 96.6492 90.4 96.6492 90.25H88.4992C88.4492 90.4 88.4492 90.5 88.4492 90.65Z" fill="#1C1B1A"/>
<path d="M92.5492 95.25C89.9992 95.25 87.9492 93.2 87.9492 90.65C87.9492 90.5 87.9492 90.35 87.9492 90.2L87.9992 89.75H97.0492L97.0992 90.2C97.0992 90.35 97.0992 90.5 97.0992 90.65C97.1492 93.2 95.0992 95.25 92.5492 95.25ZM88.9492 90.75C88.9992 92.7 90.5992 94.25 92.5492 94.25C94.4992 94.25 96.0992 92.7 96.1492 90.75H88.9492Z" fill="#1C1B1A"/>
<path d="M96.25 92.3499C95.75 92.1999 95.2 92.0999 94.65 92.0999C92.95 92.0999 91.45 92.9499 90.5 94.1999C91.1 94.5499 91.8 94.7499 92.55 94.7499C94.2 94.7499 95.6 93.7499 96.25 92.3499Z" fill="#FDF8F6"/>
<path d="M92.55 95.2499C91.75 95.2499 90.95 95.0499 90.25 94.6499L89.75 94.3499L90.1 93.8999C91.15 92.4499 92.85 91.5999 94.65 91.5999C95.25 91.5999 95.85 91.6999 96.4 91.8999L96.95 92.0499L96.7 92.5499C95.95 94.1999 94.35 95.2499 92.55 95.2499ZM91.3 93.9999C91.7 94.1499 92.1 94.1999 92.55 94.1999C93.75 94.1999 94.85 93.5999 95.5 92.6499C95.2 92.5999 94.95 92.5499 94.65 92.5499C93.4 92.5999 92.2 93.0999 91.3 93.9999Z" fill="#1C1B1A"/>
<path d="M152.651 100.5C151.701 100.5 150.701 100.3 149.801 99.8501C148.251 99.1001 147.051 97.7501 146.501 96.1501C145.951 94.5001 146.051 92.7501 146.801 91.2001C147.551 89.6501 148.901 88.4501 150.501 87.9001C152.151 87.3501 153.901 87.4501 155.451 88.2001C158.701 89.7501 160.051 93.6501 158.451 96.9001C157.701 98.4501 156.351 99.6501 154.751 100.2C154.101 100.4 153.401 100.5 152.651 100.5ZM152.651 88.5001C152.051 88.5001 151.451 88.6001 150.851 88.8001C149.451 89.3001 148.351 90.3001 147.701 91.6001C147.051 92.9001 146.951 94.4001 147.451 95.8001C147.951 97.2001 148.951 98.3001 150.251 98.9501C151.551 99.6001 153.051 99.7001 154.451 99.2001C155.851 98.7001 156.951 97.7001 157.601 96.4001C158.951 93.6501 157.801 90.3501 155.051 89.0501C154.301 88.7001 153.501 88.5001 152.651 88.5001Z" fill="#1C1B1A"/>
<path d="M153.199 96.75L152.199 93.95L153.999 90.25L154.899 90.65L153.299 94L154.099 96.45L153.199 96.75Z" fill="#1C1B1A"/>
<path d="M151.31 85.6225L148.664 86.5398L148.992 87.4846L151.637 86.5673L151.31 85.6225Z" fill="#1C1B1A"/>
<path d="M160.21 89.8963L159.266 90.2239L160.183 92.8693L161.128 92.5417L160.21 89.8963Z" fill="#1C1B1A"/>
<path d="M147.326 96.7853L145.578 97.3914L145.906 98.3362L147.654 97.7301L147.326 96.7853Z" fill="#1C1B1A"/>
<path d="M153.863 99.9307L152.918 100.258L153.524 102.006L154.469 101.679L153.863 99.9307Z" fill="#1C1B1A"/>
</g>
<defs>
<clipPath id="clip0_3074_56713">
<rect width="185" height="123" fill="white"/>
</clipPath>
</defs>
</svg>
