<svg width="378" height="280" viewBox="0 0 378 280" fill="none" xmlns="http://www.w3.org/2000/svg">
<path fill-rule="evenodd" clip-rule="evenodd" d="M184.382 0.862268C219.329 1.54119 257.548 3.93528 280.995 29.8577C303.798 55.0677 293.507 92.7756 297.998 126.471C303.811 170.081 337.488 217.89 310.71 252.798C283.673 288.045 228.522 279.579 184.382 274.584C146.067 270.248 111.356 254.024 83.7387 227.114C55.6947 199.789 32.3317 165.626 32.3711 126.471C32.4105 87.346 53.7809 50.9513 83.9412 26.0295C111.601 3.17391 148.508 0.165333 184.382 0.862268Z" fill="#7FD0FF"/>
<path d="M277.591 159.148C281.188 158.372 283.497 154.856 282.761 151.26L260.833 43.6199C260.342 41.2493 258.319 39.6552 256.276 40.0639L67.0528 79.2205C65.0296 79.6292 63.7625 81.8977 64.253 84.2684L86.1611 191.785C86.8968 195.444 90.4937 197.773 94.1314 196.997L277.591 159.148Z" stroke="#31302F" stroke-width="1.77752" stroke-miterlimit="10" stroke-linecap="round" stroke-linejoin="round"/>
<path d="M78.3541 87.0476C78.6197 88.3556 77.7818 89.6022 76.4739 89.8679C75.1864 90.1336 73.9193 89.2957 73.6536 87.9877C73.388 86.7002 74.2259 85.4331 75.5338 85.1675C76.8213 84.9018 78.0884 85.7601 78.3541 87.0476Z" fill="#31302F"/>
<path d="M85.2613 85.6376C85.527 86.9456 84.6891 88.1922 83.3811 88.4579C82.0732 88.7236 80.8265 87.8857 80.5609 86.5777C80.2952 85.2902 81.1331 84.0231 82.441 83.7575C83.7285 83.5122 84.9956 84.3501 85.2613 85.6376Z" fill="#31302F"/>
<path d="M92.149 84.2275C92.4147 85.5354 91.5767 86.782 90.2688 87.0477C88.9609 87.3134 87.6938 86.4755 87.4485 85.1676C87.1829 83.88 88.0208 82.613 89.3287 82.3473C90.6162 82.1021 91.8833 82.94 92.149 84.2275Z" fill="#31302F"/>
<path d="M235.491 51.6104L236.574 57.0056" stroke="#31302F" stroke-width="1.77752"/>
<path d="M238.721 53.7568L233.346 54.8604" stroke="#31302F" stroke-width="1.77752"/>
<path d="M245.342 49.4238L243.155 49.8734L243.605 52.0602L245.792 51.6105L245.342 49.4238Z" fill="#31302F"/>
<path d="M246.077 52.96L243.891 53.4096L244.34 55.5963L246.527 55.1671L246.077 52.96Z" fill="#31302F"/>
<path d="M248.918 48.6885L246.731 49.1381L247.181 51.3248L249.368 50.8752L248.918 48.6885Z" fill="#31302F"/>
<path d="M249.654 52.2441L247.467 52.6937L247.916 54.8805L250.103 54.4309L249.654 52.2441Z" fill="#31302F"/>
<path d="M276.765 236.895C297.329 235.227 313.663 229.716 313.247 224.586C312.831 219.457 295.823 216.65 275.258 218.318C254.694 219.987 238.361 225.497 238.777 230.627C239.193 235.757 256.201 238.563 276.765 236.895Z" fill="#31302F"/>
<path d="M244.279 138.446L292.857 226.528L288.422 228.306C275.997 233.272 257.134 234.947 244.381 230.86L219.449 138.057L198.808 112.062L213.134 94.5479L220.491 99.0235L240.601 112.716C241.214 113.145 241.663 113.758 241.868 114.494L244.279 138.446Z" fill="#FDF8F6" stroke="#31302F" stroke-width="1.68494" stroke-miterlimit="10" stroke-linecap="round" stroke-linejoin="round"/>
<path d="M164.574 237.707C185.8 236.44 202.778 231.577 202.496 226.846C202.214 222.114 184.778 219.304 163.551 220.571C142.325 221.838 125.347 226.7 125.629 231.432C125.912 236.164 143.348 238.973 164.574 237.707Z" fill="#31302F"/>
<path d="M115.508 175.436L132.389 231.167L141.544 233.333C150.884 235.54 160.612 235.643 169.91 233.292C174.386 232.168 178.453 230.574 181.314 228.592L148.043 174.517L120.249 121.259L97.8916 124.692L97.9938 133.296L98.7295 144.679C99.3222 153.753 103.062 162.357 109.336 168.958L115.508 175.436Z" fill="#FDF8F6" stroke="#31302F" stroke-width="1.68494" stroke-miterlimit="10" stroke-linecap="round" stroke-linejoin="round"/>
<path d="M226.622 135.196C226.622 165.892 201.73 190.784 171.034 190.784C140.338 190.784 115.446 165.892 115.446 135.196C115.446 104.5 140.338 79.6084 171.034 79.6084C201.73 79.6084 226.622 104.5 226.622 135.196Z" fill="#A3B4FF"/>
<path d="M209.7 145.987V124.406H181.825V96.5303H160.244V124.406H132.368V145.987H160.244V173.862L181.825 173.883V145.987H209.7Z" fill="#052273"/>
<path d="M238.046 114.923C234.122 109.528 220.675 100.332 220.103 99.9434L213.481 95.4269C213.072 95.1408 212.521 95.2226 212.214 95.5904L199.053 111.981C198.828 112.287 199.257 112.655 199.441 113.002C200.279 114.556 201.771 115.904 205.695 116.007L202.241 120.768C201.975 121.095 201.24 121.749 201.505 122.117C201.648 122.342 205.286 126.736 209.639 125.387C210.395 126.368 212.439 128.289 214.483 128.8C215.688 129.086 217.303 128.371 218.406 127.758C219.183 129.045 220.491 130.844 222.637 130.864C224.742 130.884 233.979 124.079 235.961 122.076" fill="#FDF8F6"/>
<path d="M219.694 99.8203L201.403 121.871C201.403 121.871 203.324 126.367 209.619 125.182" stroke="#31302F" stroke-width="1.68494" stroke-miterlimit="10" stroke-linecap="round" stroke-linejoin="round"/>
<path d="M206.369 115.782C202.16 117.172 198.89 112.124 198.89 112.124L212.807 94.6914" stroke="#31302F" stroke-width="1.68494" stroke-miterlimit="10" stroke-linecap="round" stroke-linejoin="round"/>
<path d="M227.337 104.398L209.741 125.142C209.741 125.142 213.706 130.639 218.325 127.533" stroke="#31302F" stroke-width="1.68494" stroke-miterlimit="10" stroke-linecap="round" stroke-linejoin="round"/>
<path d="M233.203 111.593L218.447 127.431C218.447 127.431 219.49 130.905 222.821 130.844C226.152 130.783 234.837 122.097 234.837 122.097" stroke="#31302F" stroke-width="1.68494" stroke-miterlimit="10" stroke-linecap="round" stroke-linejoin="round"/>
<path d="M102.735 157.268C100.079 151.137 99.0159 134.89 98.975 134.215L98.4437 126.225C98.4028 125.714 98.7502 125.284 99.2407 125.223L120.045 122.219C120.434 122.178 120.515 122.73 120.72 123.077C121.639 124.59 122.028 126.552 120.127 129.985L125.992 129.433C126.421 129.372 127.341 129.065 127.525 129.474C127.627 129.719 129.569 135.074 126.197 138.139C126.646 139.284 127.28 142.022 126.667 144.045C126.299 145.231 124.868 146.252 123.785 146.906C124.48 148.235 125.379 150.278 124.316 152.138C123.274 153.957 117.675 155.919 114.936 156.634C116.019 157.37 118.676 159.495 119.228 161.437C119.371 162.009 105.637 164.012 102.735 157.268Z" fill="#FDF8F6"/>
<path d="M99.0771 132.989L127.361 128.473C127.361 128.473 130.243 132.417 126.033 137.22" stroke="#31302F" stroke-width="1.68494" stroke-miterlimit="10" stroke-linecap="round" stroke-linejoin="round"/>
<path d="M99.1377 141.921L125.951 137.322C125.951 137.322 128.669 143.535 123.641 145.926" stroke="#31302F" stroke-width="1.68494" stroke-miterlimit="10" stroke-linecap="round" stroke-linejoin="round"/>
<path d="M104.084 149.972L123.458 145.967C123.458 145.967 125.91 148.624 124.173 151.464C122.436 154.305 112.974 156.042 112.974 156.042" stroke="#31302F" stroke-width="1.68494" stroke-miterlimit="10" stroke-linecap="round" stroke-linejoin="round"/>
</svg>
