<svg width="374" height="209" viewBox="0 0 374 209" fill="none" xmlns="http://www.w3.org/2000/svg">
<g clip-path="url(#clip0_2691_52756)">
<path d="M147.956 88.0686C148.423 88.0686 148.966 88.0185 149.576 87.9099C163.712 85.5135 221.779 51.9964 230.696 34.3946C232.609 30.6204 228.191 24.4747 219.165 18.3542C215.324 15.7489 205.663 12.8097 196.111 15.9994C188.044 18.6965 182.007 25.3097 178.634 35.1294C175.311 44.8071 160.022 44.8071 149.901 44.7904C147.338 44.7904 145.125 44.7904 143.564 44.9574C139.322 45.4166 135.932 48.4978 134.253 53.3992C131.331 61.9664 133.778 75.8024 145.843 87.3922C146.303 87.8348 146.996 88.0519 147.956 88.0519V88.0686ZM204.853 16.3C210.523 16.3 215.616 17.9701 218.23 19.7403C227.498 26.0195 230.421 31.2466 229.21 33.6431C225.494 40.9744 211.374 52.8314 191.434 65.3481C174.016 76.2783 156.298 85.0793 149.3 86.265C147.455 86.5823 147.046 86.2399 147.004 86.1982C135.473 75.1093 133.084 62.0081 135.84 53.942C137.293 49.6751 140.182 47.0031 143.747 46.619C145.217 46.4604 147.396 46.4604 149.91 46.4604C160.506 46.4687 176.513 46.4771 180.22 35.6638C183.46 26.2199 188.988 20.1327 196.645 17.5776C199.375 16.6674 202.181 16.2917 204.861 16.2917L204.853 16.3Z" fill="#1C1B1A"/>
<path d="M221.044 10.1461C212.627 6.65582 184.471 5.67052 180.63 34.5616C178.718 48.932 151.038 49.8088 142.746 52.0382C129.887 55.4868 131.432 80.0109 155.63 94.899C162.577 99.1742 231.014 45.6505 237.318 23.9404C238.387 20.2497 232.509 14.9057 221.053 10.1545L221.044 10.1461Z" fill="#1C1B1A"/>
<path d="M117.142 96.8733C115.465 81.7384 126.376 68.1102 141.511 66.4339C156.646 64.7577 170.274 75.6681 171.95 90.803C173.626 105.938 162.716 119.566 147.581 121.242C132.446 122.919 118.818 112.008 117.142 96.8733Z" fill="#1C1B1A"/>
<path d="M140.966 122.137C151.471 122.137 161.583 116.292 166.509 106.247C169.849 99.433 170.342 91.7259 167.887 84.5532C165.432 77.3722 160.33 71.5773 153.517 68.2373C139.455 61.3401 122.404 67.1601 115.499 81.2216C112.159 88.0352 111.666 95.7423 114.121 102.915C116.576 110.096 121.678 115.891 128.492 119.231C132.508 121.202 136.766 122.137 140.958 122.137H140.966ZM165.015 105.512C158.518 118.747 142.469 124.233 129.235 117.736C122.822 114.588 118.021 109.136 115.716 102.381C113.411 95.6254 113.871 88.3692 117.019 81.9564C123.515 68.7216 139.564 63.2356 152.798 69.7319C159.211 72.8799 164.013 78.3325 166.317 85.0876C168.622 91.8428 168.163 99.099 165.015 105.512Z" fill="#1C1B1A"/>
<path d="M138.969 78.3096C135.843 69.1583 140.728 59.2055 149.879 56.0795C159.03 52.9534 168.983 57.8378 172.109 66.9892C175.235 76.1405 170.351 86.0933 161.2 89.2193C152.048 92.3454 142.095 87.4609 138.969 78.3096Z" fill="#1C1B1A"/>
<path d="M141.426 104.176C142.888 124.692 143.155 162.376 158.861 172.404C176.037 183.368 224.025 192.711 227.348 153.299C227.766 144.498 223.474 135.096 221.979 127.305C219.649 115.198 224.626 108.727 241.752 96.3185C258.878 83.9104 271.01 81.5557 273.925 58.1004C276.271 39.1959 257.717 18.6215 248.641 14.8389C219.073 2.52259 186.416 37.2086 180.53 49.6251C174.643 62.0333 184.162 71.1014 173.507 80.7708C166.81 86.8496 153.2 94.3563 141.418 104.184L141.426 104.176Z" fill="#1C1B1A"/>
<path d="M285.231 138.444C285.457 138.444 285.674 138.411 285.874 138.353C305.605 132.591 316.143 118.93 317.83 107.95C318.79 101.704 316.87 96.4687 312.561 93.588C310.958 92.5192 308.536 91.2583 305.739 89.7971C294.617 83.9938 277.817 75.2263 279.737 62.6094C281.683 49.8255 278.952 39.4881 271.612 31.8729C263.496 23.4477 251.288 20.6337 245.218 21.3351C231.958 22.8549 223.675 26.9714 223.616 32.09C223.307 56.3969 267.604 126.12 281.674 136.808C283.127 137.91 284.279 138.444 285.231 138.444ZM247.205 22.8883C253.318 22.8883 263.429 25.7774 270.41 33.0252C277.366 40.248 279.954 50.1177 278.084 62.3505C275.98 76.1531 293.423 85.2463 304.962 91.275C307.718 92.7112 310.098 93.9554 311.626 94.9741C315.375 97.4791 317.028 102.113 316.168 107.691C314.557 118.145 304.42 131.188 285.39 136.741C285.215 136.791 284.497 136.85 282.668 135.463C275.679 130.153 261.308 110.388 248.5 88.4611C233.829 63.3442 225.145 42.277 225.27 32.0983C225.312 28.6999 231.549 24.5666 245.393 22.9801C245.944 22.9217 246.546 22.8883 247.189 22.8883H247.205Z" fill="#1C1B1A"/>
<path d="M247.84 11.073C259.037 12.0667 290.392 27.08 278.092 60.8726C271.971 77.6729 301.739 94.4564 309.538 101.629C321.629 112.751 305.931 138.687 270.961 141.141C260.916 141.851 216.661 44.2143 222.18 16.8596C223.115 12.217 232.601 9.72864 247.848 11.073H247.84Z" fill="#1C1B1A"/>
<path d="M250.015 151.2C247.325 132.606 260.219 115.353 278.813 112.663C297.407 109.974 314.661 122.867 317.35 141.461C320.04 160.055 307.146 177.309 288.552 179.998C269.958 182.688 252.704 169.795 250.015 151.2Z" fill="#1C1B1A"/>
<path d="M287.611 183.075C306.424 183.075 321.963 168.02 322.448 149.107C322.932 129.894 307.702 113.87 288.488 113.386C269.258 112.902 253.251 128.132 252.767 147.346C252.282 166.559 267.513 182.583 286.726 183.067C287.027 183.067 287.319 183.075 287.62 183.075H287.611ZM287.586 115.039C287.87 115.039 288.154 115.039 288.438 115.048C306.733 115.507 321.237 130.771 320.778 149.057C320.318 167.352 305.08 181.865 286.768 181.397C268.473 180.938 253.969 165.674 254.428 147.387C254.888 129.376 269.676 115.039 287.595 115.039H287.586Z" fill="#1C1B1A"/>
<path d="M263.348 123.925C259.444 112.652 265.419 100.348 276.692 96.4444C287.965 92.5406 300.269 98.5149 304.173 109.788C308.077 121.062 302.102 133.365 290.829 137.269C279.555 141.173 267.252 135.199 263.348 123.925Z" fill="#1C1B1A"/>
<path d="M295.026 113.102C288.204 129.418 277.633 160.054 262.085 163.904C245.076 168.12 203.41 162.551 211.526 129.526C213.605 122.245 219.684 115.757 223.041 109.82C228.259 100.594 225.988 93.9553 215.434 79.1424C204.879 64.3294 195.653 59.0773 199.719 39.1624C202.992 23.1137 223.767 11.4487 232.201 10.8558C259.681 8.94366 276.756 46.1765 278.143 57.8999C279.529 69.6317 269.283 74.3996 275.312 85.2045C279.103 91.9931 288.129 101.854 295.026 113.094V113.102Z" fill="#1C1B1A"/>
<path d="M215.876 23.5644L209.722 24.5664C202.224 25.7855 195.243 29.159 189.632 34.2775C186.092 37.5006 183.178 41.35 181.032 45.6252L178.786 50.0925C174.068 65.1309 184.839 77.7979 202.124 78.0317C210.081 78.1403 216.244 76.1362 216.244 76.1362L208.086 111.783H238.046L233.946 69.5147L240.918 62.1249L247.565 60.9392C250.395 60.4382 252.491 58.0334 252.608 55.161C252.725 52.2802 250.821 49.7084 248.032 48.9736L246.605 48.5978C244.592 48.0718 242.455 48.5978 240.918 50.009L238.455 52.2718L233.069 49.9923C223.291 45.859 216.695 36.5487 216.035 25.9525L215.885 23.5477L215.876 23.5644Z" fill="#FDF8F6"/>
<path d="M208.085 112.626H238.045C238.279 112.626 238.504 112.526 238.663 112.35C238.822 112.175 238.897 111.941 238.872 111.707L234.805 69.8152L241.335 62.9013L247.714 61.7657C250.954 61.1896 253.309 58.4925 253.442 55.2026C253.576 51.9544 251.388 48.9985 248.24 48.1802L246.813 47.8045C244.516 47.2033 242.103 47.8045 240.35 49.4077L238.279 51.3031L233.386 49.2323C223.842 45.1909 217.504 36.2564 216.861 25.9107L216.711 23.5059C216.694 23.2721 216.585 23.055 216.402 22.9047C216.218 22.7544 215.984 22.6959 215.75 22.7293L209.596 23.7313C201.923 24.9838 194.825 28.4157 189.072 33.6512C185.448 36.9578 182.492 40.8572 180.288 45.241L178.042 49.7083C178.042 49.7083 178.008 49.7918 177.992 49.8335C175.812 56.7891 176.756 63.5777 180.647 68.9635C185.106 75.1258 192.93 78.733 202.115 78.8582C207.977 78.9417 212.836 77.9063 215.116 77.3218L207.275 111.599C207.217 111.849 207.275 112.108 207.434 112.308C207.592 112.509 207.835 112.626 208.085 112.626ZM237.118 110.956H209.129L217.053 76.3282C217.12 76.0359 217.028 75.727 216.802 75.5266C216.577 75.3262 216.268 75.2594 215.984 75.3512C215.926 75.3679 209.864 77.3135 202.14 77.2049C193.489 77.088 186.15 73.7313 182 68.0032C178.434 63.0683 177.566 56.8309 179.561 50.4097L181.774 46.0009C183.887 41.8008 186.717 38.0683 190.191 34.8953C195.702 29.877 202.499 26.587 209.855 25.3846L215.099 24.5329L215.191 26.0192C215.876 36.9995 222.597 46.4935 232.734 50.7771L238.12 53.0566C238.421 53.1819 238.771 53.1234 239.014 52.9063L241.477 50.6435C242.804 49.4244 244.642 48.9651 246.387 49.4244L247.815 49.8001C250.211 50.4264 251.873 52.6725 251.764 55.1442C251.664 57.6408 249.869 59.6949 247.405 60.1375L240.759 61.3232C240.583 61.3566 240.425 61.4401 240.299 61.5737L233.327 68.9635C233.16 69.1388 233.077 69.381 233.102 69.6148L237.118 110.964V110.956Z" fill="#1C1B1A"/>
<path d="M241.319 57.2318C241.569 57.2318 241.811 57.1233 241.978 56.9145C242.713 55.9793 245.051 53.5411 247.063 53.5411C247.523 53.5411 247.898 53.1653 247.898 52.7061C247.898 52.2468 247.523 51.8711 247.063 51.8711C243.824 51.8711 240.784 55.7205 240.659 55.8875C240.375 56.2549 240.442 56.7726 240.809 57.0565C240.96 57.1734 241.143 57.2318 241.319 57.2318Z" fill="#1C1B1A"/>
<path d="M216.085 76.9797C216.16 76.9797 216.227 76.9714 216.302 76.9547C221.37 75.5936 226.414 72.0031 226.623 71.8528C226.998 71.5856 227.082 71.0596 226.815 70.6838C226.547 70.3081 226.021 70.2246 225.646 70.4918C225.596 70.5252 220.627 74.0656 215.859 75.3431C215.417 75.46 215.15 75.9193 215.267 76.3618C215.367 76.7376 215.701 76.9797 216.076 76.9797H216.085Z" fill="#1C1B1A"/>
<path d="M216.176 51.6372C216.126 53.0651 214.932 54.1923 213.504 54.1422C212.076 54.0921 210.949 52.8981 210.999 51.4702C211.049 50.0424 212.243 48.9151 213.671 48.9652C215.099 49.0153 216.226 50.2094 216.176 51.6372Z" fill="#1C1B1A"/>
<path d="M186.024 51.721C184.594 51.721 183.435 50.562 183.435 49.1325C183.435 47.7029 184.594 46.5439 186.024 46.5439C187.453 46.5439 188.612 47.7029 188.612 49.1325C188.612 50.562 187.453 51.721 186.024 51.721Z" fill="#1C1B1A"/>
<path d="M223.641 54.7771C223.29 54.7688 222.964 54.5266 222.864 54.1676C222.029 51.2033 219.315 49.1408 216.126 49.0406C213.095 48.9404 210.306 50.6939 209.187 53.4077C209.012 53.8336 208.527 54.034 208.093 53.8586C207.667 53.6833 207.467 53.1906 207.642 52.7647C209.02 49.4164 212.452 47.2454 216.176 47.3706C220.1 47.4959 223.432 50.0426 224.467 53.7167C224.593 54.1592 224.334 54.6185 223.891 54.7437C223.808 54.7688 223.724 54.7771 223.632 54.7771H223.641Z" fill="#1C1B1A"/>
<path d="M194.198 52.489C193.831 52.4806 193.497 52.2134 193.422 51.8293C192.754 48.4977 190.491 46.1179 187.928 46.0344C185.456 45.9509 183.143 47.9883 182.174 51.0862C182.041 51.512 181.582 51.7542 181.147 51.6206C180.713 51.487 180.479 51.0277 180.613 50.5935C181.807 46.7859 184.763 44.2893 187.978 44.3978C191.359 44.5064 194.19 47.3621 195.025 51.5037C195.117 51.9462 194.825 52.3804 194.382 52.4639C194.315 52.4806 194.257 52.4806 194.19 52.4806L194.198 52.489Z" fill="#1C1B1A"/>
<path d="M201.923 63.8284C199.15 63.7366 195.869 63.0686 194.967 62.8765C194.516 62.7763 194.232 62.3338 194.324 61.8829C194.424 61.432 194.867 61.1397 195.318 61.2399C198.541 61.933 203.568 62.5843 204.67 61.8662C205.054 61.6157 205.572 61.7242 205.822 62.1083C206.073 62.4924 205.964 63.0101 205.58 63.2606C204.837 63.7449 203.459 63.8702 201.923 63.8201V63.8284Z" fill="#1C1B1A"/>
<path d="M200.211 48.6564C200.437 41.5673 194.859 35.6053 187.77 35.3799C180.68 35.1544 174.719 40.7323 174.493 47.8214C174.268 54.9106 179.845 60.8725 186.935 61.098C194.024 61.3234 199.986 55.7456 200.211 48.6564ZM198.541 48.6063C198.341 54.777 193.155 59.6367 186.985 59.4363C180.814 59.2359 175.954 54.0506 176.155 47.8799C176.355 41.7092 181.54 36.8495 187.711 37.0499C193.882 37.2503 198.742 42.4357 198.541 48.6063Z" fill="#4559A9"/>
<path d="M228.334 49.5666C228.56 42.4774 222.982 36.5155 215.893 36.29C208.803 36.0646 202.842 41.6424 202.616 48.7316C202.391 55.8208 207.968 61.7827 215.058 62.0081C222.147 62.2336 228.109 56.6558 228.334 49.5666ZM226.664 49.5165C226.464 55.6872 221.278 60.5469 215.108 60.3465C208.937 60.1461 204.077 54.9607 204.278 48.79C204.478 42.6194 209.664 37.7597 215.834 37.9601C222.005 38.1605 226.865 43.3458 226.664 49.5165Z" fill="#4559A9"/>
<path d="M245.393 47.0238L245.549 48.6865L227.575 50.3698L227.419 48.707L245.393 47.0238Z" fill="#4559A9"/>
<path d="M199.402 47.802L203.475 47.9336L203.421 49.6027L199.348 49.4712L199.402 47.802Z" fill="#4559A9"/>
<path d="M122.94 113.611L90.2999 80.1028L103.493 75.0928L122.439 90.2898C129.286 95.7842 130.739 102.706 126.33 108.877L122.94 113.62V113.611Z" fill="#FDF8F6"/>
<path d="M122.939 114.446C122.939 114.446 122.981 114.446 123.006 114.446C123.257 114.43 123.482 114.304 123.624 114.096L127.014 109.353C131.699 102.798 130.187 95.425 122.964 89.63L104.018 74.433C103.784 74.2493 103.476 74.1992 103.2 74.3077L90.0069 79.3177C89.7397 79.4179 89.5476 79.6434 89.4892 79.9189C89.4307 80.1945 89.5059 80.4784 89.7063 80.6788L122.347 114.187C122.505 114.346 122.722 114.438 122.948 114.438L122.939 114.446ZM103.342 76.0445L121.912 90.941C128.459 96.1932 129.82 102.548 125.645 108.384L122.839 112.317L91.7854 80.4366L103.342 76.0445Z" fill="#1C1B1A"/>
<path d="M257.927 206.163L271.262 201.629L246.128 102.798L164.298 102.322C151.088 102.247 138.196 104.51 127.641 108.76L127.524 108.81L158.695 200.243L257.927 206.163Z" fill="#FDF8F6"/>
<path d="M257.927 206.998C258.019 206.998 258.11 206.981 258.194 206.956L271.529 202.422C271.938 202.28 272.18 201.846 272.072 201.429L246.938 102.598C246.846 102.23 246.512 101.971 246.137 101.971L164.306 101.495C151.046 101.412 137.928 103.725 127.332 107.992L127.215 108.042C126.806 108.209 126.597 108.668 126.739 109.086L157.91 200.518C158.019 200.836 158.311 201.061 158.653 201.086L257.885 207.006C257.885 207.006 257.918 207.006 257.935 207.006L257.927 206.998ZM270.26 201.086L257.81 205.32L159.305 199.441L128.568 109.294C138.855 105.261 151.506 103.09 164.289 103.165L245.469 103.641L270.26 201.095V201.086Z" fill="#1C1B1A"/>
<path d="M86.8088 74.8506L115.316 166.125L153.659 202.055L262.443 208.401L233.636 109.336L126.304 107.975L86.8088 74.8506Z" fill="#7FD0FF"/>
<path d="M153.659 202.89C153.734 202.89 153.818 202.881 153.893 202.856C154.336 202.731 154.586 202.264 154.461 201.821L127.098 107.741C126.973 107.299 126.505 107.04 126.062 107.173C125.62 107.299 125.369 107.766 125.495 108.209L152.858 202.289C152.966 202.656 153.3 202.89 153.659 202.89Z" fill="#1C1B1A"/>
<path d="M233.636 110.171C233.77 110.171 233.895 110.138 234.02 110.079L246.512 103.541C246.921 103.324 247.08 102.823 246.863 102.414C246.646 102.005 246.145 101.846 245.735 102.063L233.244 108.601C232.835 108.818 232.676 109.319 232.893 109.728C233.043 110.012 233.336 110.179 233.636 110.179V110.171Z" fill="#1C1B1A"/>
<path d="M265.976 169.289L268.088 182.324C268.088 182.324 281.114 178.9 282.417 165.699C283.72 152.497 281.716 132.165 270.702 129.66C259.688 127.155 242.971 118.588 244.708 126.696C246.011 132.775 265.475 140.699 265.475 140.699L238.947 144.281C238.947 144.281 238.245 149.149 240.116 153.015C241.986 156.881 242.212 168.713 265.976 169.281V169.289Z" fill="#FDF8F6"/>
<path d="M268.105 183.585C268.239 183.585 268.372 183.551 268.498 183.484C274.936 180.069 282.726 174.224 283.252 165.741C285.014 137.409 276.297 130.47 270.944 128.85L247.773 122.304C246.888 122.053 245.944 122.204 245.176 122.713C244.408 123.222 243.907 124.032 243.79 124.942C243.364 128.366 245.143 131.698 248.232 133.234L265.901 142.035C266.318 142.244 266.819 142.068 267.02 141.659C267.229 141.25 267.062 140.749 266.644 140.54L248.975 131.739C246.52 130.52 245.109 127.873 245.443 125.151C245.493 124.725 245.736 124.341 246.095 124.107C246.454 123.874 246.896 123.798 247.314 123.915L270.468 130.453C282.25 134.002 282.167 156.238 281.582 165.632C281.098 173.339 273.775 178.792 267.713 182.007C267.304 182.224 267.153 182.725 267.362 183.134C267.512 183.418 267.805 183.576 268.097 183.576L268.105 183.585Z" fill="#1C1B1A"/>
<path d="M240.875 152.514C241.201 152.514 241.51 152.322 241.643 152.005C241.827 151.579 241.627 151.086 241.201 150.911C238.287 149.667 238.988 146.168 239.364 144.874L273.198 141.509C273.657 141.467 273.991 141.058 273.95 140.599C273.908 140.139 273.507 139.805 273.039 139.847L238.662 143.262C238.345 143.296 238.078 143.496 237.969 143.797C237.109 146.043 236.55 150.735 240.549 152.447C240.658 152.489 240.767 152.514 240.875 152.514Z" fill="#1C1B1A"/>
<path d="M273.558 161.265C274.009 161.265 274.384 160.897 274.393 160.447C274.393 159.987 274.034 159.603 273.574 159.595C273.315 159.595 247.981 159.194 244.149 158.534C241.66 158.109 240.583 154.668 240.208 153.007L274.459 151.278C274.919 151.253 275.278 150.861 275.253 150.401C275.228 149.942 274.827 149.592 274.376 149.608L239.164 151.387C238.93 151.395 238.713 151.504 238.563 151.687C238.412 151.863 238.346 152.097 238.379 152.33C238.421 152.623 239.373 159.411 243.873 160.179C247.831 160.856 272.506 161.24 273.549 161.257C273.549 161.257 273.558 161.257 273.566 161.257L273.558 161.265Z" fill="#1C1B1A"/>
<path d="M269.342 169.748C270.553 169.748 271.337 169.715 271.504 169.707C271.964 169.69 272.323 169.298 272.306 168.838C272.289 168.379 271.905 168.012 271.438 168.037C271.379 168.037 265.175 168.287 258.812 167.277C253.143 166.375 246.17 164.271 245.177 159.369C245.085 158.918 244.651 158.626 244.192 158.718C243.741 158.81 243.448 159.252 243.54 159.703C245.402 168.922 263.071 169.748 269.342 169.748Z" fill="#1C1B1A"/>
<path d="M110.548 149.759C110.548 149.759 119.9 133.952 120.719 130.529C121.537 127.105 118.038 125.836 118.038 125.836C118.038 125.836 122.222 121.327 118.898 117.077C119.032 110.447 114.556 114.522 114.556 114.522C114.556 114.522 113.872 111.399 110.565 114.321C106.824 117.636 101.606 122.529 100.286 124.967C98.9669 127.406 102.056 130.328 102.056 130.328C102.056 130.328 98.5327 133.317 99.994 136.04C101.464 138.762 101.722 139.171 101.246 141.283C100.745 143.496 102.942 149.291 105.822 151.721C108.244 153.767 111.15 156.464 111.15 156.464L110.548 149.75V149.759Z" fill="#FDF8F6"/>
<path d="M111.149 157.307C111.275 157.307 111.4 157.282 111.517 157.224C111.826 157.073 112.009 156.748 111.984 156.397L111.408 149.951C112.619 147.905 120.743 134.036 121.537 130.721C122.155 128.124 120.693 126.412 119.341 125.552C120.76 123.548 122.063 120.024 119.741 116.801C119.741 114.522 119.19 113.161 118.063 112.643C116.953 112.142 115.7 112.701 114.882 113.236C114.623 112.877 114.247 112.526 113.704 112.342C112.661 112 111.416 112.459 110.022 113.695C106.74 116.592 101.029 121.87 99.5678 124.575C98.3654 126.796 99.9686 129.184 100.904 130.303C99.8433 131.431 97.9312 133.944 99.2755 136.441L99.3924 136.658C100.737 139.146 100.845 139.355 100.445 141.108C99.8767 143.622 102.215 149.759 105.296 152.372C107.676 154.385 110.565 157.065 110.59 157.09C110.748 157.24 110.949 157.316 111.158 157.316L111.149 157.307ZM117.111 114.113C117.203 114.113 117.295 114.129 117.362 114.163C117.537 114.246 118.105 114.689 118.055 117.052C118.055 117.244 118.113 117.436 118.23 117.586C121.086 121.235 117.57 125.101 117.42 125.26C117.228 125.469 117.153 125.752 117.22 126.028C117.287 126.304 117.487 126.521 117.746 126.621C118.03 126.729 120.518 127.74 119.9 130.337C119.257 133.042 112.402 144.974 109.822 149.341C109.73 149.492 109.696 149.667 109.705 149.842L110.114 154.418C109.053 153.458 107.634 152.189 106.348 151.103C103.651 148.824 101.639 143.288 102.048 141.484C102.582 139.121 102.215 138.428 100.837 135.873L100.72 135.656C99.5928 133.568 102.557 131.005 102.582 130.98C102.766 130.829 102.866 130.604 102.874 130.37C102.874 130.136 102.791 129.902 102.616 129.744C102.59 129.719 100.027 127.197 101.004 125.377C101.981 123.565 105.663 119.766 111.099 114.956C111.968 114.188 112.727 113.812 113.153 113.937C113.496 114.046 113.679 114.547 113.721 114.714C113.788 114.998 114.005 115.231 114.289 115.323C114.573 115.407 114.882 115.348 115.099 115.148C115.625 114.672 116.527 114.129 117.094 114.129L117.111 114.113Z" fill="#1C1B1A"/>
<path d="M106.381 142.561C106.64 142.561 106.89 142.444 107.057 142.219L119.023 125.786C119.299 125.41 119.215 124.892 118.839 124.617C118.463 124.341 117.946 124.425 117.67 124.801L105.705 141.234C105.429 141.609 105.513 142.127 105.888 142.403C106.039 142.511 106.206 142.561 106.381 142.561Z" fill="#1C1B1A"/>
<path d="M101.806 139.355C102.056 139.355 102.299 139.246 102.466 139.037L119.374 117.361C119.658 116.993 119.591 116.475 119.232 116.192C118.873 115.908 118.347 115.974 118.063 116.334L101.155 138.01C100.871 138.378 100.937 138.895 101.297 139.179C101.447 139.296 101.631 139.355 101.806 139.355Z" fill="#1C1B1A"/>
<path d="M102.081 131.046C102.323 131.046 102.565 130.938 102.732 130.737L115.09 115.432C115.382 115.073 115.324 114.547 114.965 114.254C114.606 113.962 114.08 114.021 113.787 114.38L101.429 129.685C101.137 130.044 101.195 130.57 101.555 130.863C101.713 130.988 101.897 131.046 102.081 131.046Z" fill="#1C1B1A"/>
<path d="M196.788 150.811C203.86 150.811 206.165 146.861 206.265 146.686C206.49 146.285 206.348 145.776 205.948 145.55C205.547 145.325 205.037 145.467 204.812 145.868C204.72 146.018 202.482 149.717 195.126 149.066C193.155 148.89 191.903 148.014 191.385 146.452C195.235 143.196 196.596 139.739 195.802 137.793C195.41 136.824 194.508 136.349 193.448 136.566C191.343 136.983 189.248 141.425 189.448 145.049C189.465 145.308 189.49 145.567 189.523 145.809C189.056 146.168 188.538 146.527 187.987 146.886C185.657 148.389 183.678 148.598 182.117 147.504C181.165 146.836 180.48 145.792 180.021 144.707C183.302 141.601 185.908 137.526 185.557 135.447C185.298 133.894 184.279 133.702 183.853 133.685C181.682 133.618 178.234 137.96 177.699 140.315C177.482 141.283 177.599 142.745 178.059 144.239C177.224 144.957 176.33 145.609 175.412 146.135C172.923 147.563 170.928 147.68 169.483 146.477C168.907 146.001 168.539 145.45 168.314 144.866C170.226 144.481 172.18 143.763 173.416 142.411C174.501 141.217 174.911 139.714 174.627 137.943C174.243 135.555 173.015 135.054 172.322 134.962C170.326 134.712 168.214 137.058 167.153 139.505C166.552 140.891 166.285 142.244 166.343 143.471C164.406 143.671 162.795 143.563 162.761 143.563C162.302 143.53 161.901 143.88 161.868 144.339C161.834 144.799 162.185 145.2 162.644 145.233C162.795 145.241 164.523 145.358 166.636 145.124C166.961 146.143 167.563 147.045 168.423 147.755C170.427 149.425 173.132 149.358 176.247 147.571C177.065 147.103 177.9 146.511 178.71 145.851C179.294 147.037 180.113 148.13 181.165 148.865C182.659 149.909 185.215 150.66 188.897 148.281C189.289 148.03 189.665 147.771 190.016 147.513C190.859 149.375 192.579 150.51 194.984 150.719C195.619 150.777 196.22 150.802 196.796 150.802L196.788 150.811ZM193.932 138.186C194.132 138.186 194.199 138.294 194.249 138.428C194.633 139.371 193.924 141.801 191.101 144.473C191.126 141.442 192.88 138.386 193.773 138.202C193.84 138.194 193.89 138.186 193.94 138.186H193.932ZM172.021 136.624C172.021 136.624 172.08 136.624 172.105 136.624C172.673 136.691 172.898 137.76 172.973 138.211C173.174 139.471 172.915 140.482 172.18 141.283C171.22 142.327 169.625 142.912 168.013 143.229C167.997 141.91 168.448 140.699 168.681 140.173C169.592 138.085 171.153 136.616 172.021 136.616V136.624ZM183.803 135.355C183.803 135.355 183.862 135.463 183.904 135.722C184.087 136.824 182.234 140.106 179.453 142.937C179.253 141.993 179.219 141.166 179.319 140.691C179.804 138.578 182.977 135.221 183.795 135.355H183.803Z" fill="#FDF8F6"/>
</g>
<path d="M39.1553 129.862V139.629" stroke="#1C1B1A" stroke-width="2"/>
<path d="M46.0099 134.745H32.2998" stroke="#1C1B1A" stroke-width="2"/>
<path d="M65.8682 148.386V153.88" stroke="#1C1B1A" stroke-width="2"/>
<path d="M69.7229 151.144H62.0146" stroke="#1C1B1A" stroke-width="2"/>
<path d="M228.626 25.4518V35.2192" stroke="#1C1B1A" stroke-width="2"/>
<path d="M235.481 30.3354H221.771" stroke="#1C1B1A" stroke-width="2"/>
<path d="M98.2189 10.7009H96.2189V5.90088H91.4189V3.90088H98.2189V10.7009Z" fill="#1C1B1A"/>
<path d="M109.019 47.9009C96.1186 47.9009 85.5186 37.4009 85.5186 24.4009C85.5186 16.2009 89.7186 8.70088 96.7186 4.40088L97.7186 6.10088C91.3186 10.0009 87.4185 16.9009 87.4185 24.4009C87.4185 36.2009 97.0185 45.9009 108.919 45.9009C110.919 45.9009 112.919 45.6009 114.819 45.1009L115.319 47.0009C113.319 47.6009 111.219 47.9009 109.019 47.9009Z" fill="#1C1B1A"/>
<path d="M121.119 44.5009L120.119 42.8009C126.619 38.9009 130.419 32.0009 130.419 24.4009C130.419 12.6009 120.819 2.90088 108.919 2.90088C106.919 2.90088 104.919 3.20088 103.019 3.70088L102.419 1.80088C104.519 1.20088 106.719 0.900879 108.919 0.900879C121.819 0.900879 132.419 11.4009 132.419 24.4009C132.419 32.7009 128.219 40.2009 121.119 44.5009Z" fill="#1C1B1A"/>
<path d="M126.619 44.9008H119.719V38.1008H121.719V42.9008H126.619V44.9008Z" fill="#1C1B1A"/>
<path d="M113.919 32.5009H104.119V30.2009C101.119 28.4009 99.2188 25.3009 99.2188 21.7009C99.2188 16.3009 103.619 11.9009 109.019 11.9009C114.419 11.9009 118.819 16.3009 118.819 21.7009C118.819 25.2009 116.919 28.4009 113.919 30.2009V32.5009ZM106.119 30.5009H111.919V29.0009L112.519 28.7009C115.219 27.4009 116.819 24.7009 116.819 21.7009C116.819 17.4009 113.319 13.9009 109.019 13.9009C104.719 13.9009 101.219 17.4009 101.219 21.7009C101.219 24.7009 102.919 27.3009 105.519 28.7009L106.119 29.0009V30.5009Z" fill="#1C1B1A"/>
<path d="M113.919 33.5009H104.119V35.5009H113.919V33.5009Z" fill="#1C1B1A"/>
<path d="M110.019 22.7009H108.019V30.5009H110.019V22.7009Z" fill="#1C1B1A"/>
<path d="M111.019 21.7009H107.119V23.7009H111.019V21.7009Z" fill="#1C1B1A"/>
<path d="M105.119 21.8009H103.119C103.119 18.6009 105.719 15.9009 109.019 15.9009V17.9009C106.919 17.9009 105.119 19.6009 105.119 21.8009Z" fill="#1C1B1A"/>
<path d="M325.544 65.3543C325.544 65.3543 333.444 50.1543 329.044 47.5543C323.544 44.3543 319.044 53.7543 321.344 57.4543C323.644 61.1543 322.044 49.2543 316.444 50.8543C312.044 52.1543 310.744 59.1543 325.544 65.3543Z" fill="#1C1B1A"/>
<path d="M322.813 33.9009H320.813V40.1009H322.813V33.9009Z" fill="#1C1B1A"/>
<path d="M322.813 33.9009H320.813V40.1009H322.813V33.9009Z" fill="#1C1B1A"/>
<path d="M302.481 44.4536L301.481 46.1858L306.851 49.2845L307.851 47.5523L302.481 44.4536Z" fill="#1C1B1A"/>
<path d="M306.903 64.1201L301.533 67.2195L302.533 68.9517L307.903 65.8523L306.903 64.1201Z" fill="#1C1B1A"/>
<path d="M322.813 73.2009H320.813V79.4009H322.813V73.2009Z" fill="#1C1B1A"/>
<path d="M336.612 64.0465L335.612 65.7791L340.983 68.8766L341.983 67.144L336.612 64.0465Z" fill="#1C1B1A"/>
<path d="M340.999 44.445L335.545 47.5981L336.546 49.3295L342 46.1764L340.999 44.445Z" fill="#1C1B1A"/>
<path d="M56.0775 110.022L59.5693 116.547L61.3326 115.603L57.8408 109.079L56.0775 110.022Z" fill="#1C1B1A"/>
<path d="M48.4648 119.285L47.8857 121.199L54.9687 123.342L55.5478 121.428L48.4648 119.285Z" fill="#1C1B1A"/>
<path d="M69.7392 107.918L67.5957 115.001L69.51 115.581L71.6535 108.498L69.7392 107.918Z" fill="#1C1B1A"/>
<path d="M61.6894 117.636C61.7769 117.587 61.8643 117.539 61.9517 117.49C62.0391 117.442 62.1265 117.393 62.214 117.345C65.2445 116.005 69.994 117.142 73.5197 117.929C74.423 118.113 75.2388 118.346 75.8701 118.453C75.5884 119.182 75.3066 119.91 75.0734 120.726C73.9658 124.087 72.421 128.719 69.5944 130.633C69.507 130.681 69.4196 130.73 69.4196 130.73C69.3321 130.778 69.2447 130.827 69.1573 130.875L69.0699 130.924L68.9824 130.973C68.895 131.021 68.8076 131.07 68.7202 131.118C68.6328 131.167 68.5453 131.215 68.4579 131.264C65.4274 132.604 60.6779 131.467 57.1522 130.68C56.2489 130.495 55.4816 130.35 54.8018 130.155C55.0835 129.427 55.3653 128.698 55.5984 127.882C56.706 124.522 58.2509 119.889 61.0775 117.976C61.1649 117.927 61.2523 117.879 61.2523 117.879C61.3398 117.83 61.4272 117.782 61.5146 117.733L61.602 117.685L61.6894 117.636ZM60.6698 115.8C60.5824 115.849 60.5824 115.849 60.4949 115.897C60.4075 115.946 60.4075 115.946 60.3201 115.994C60.2327 116.043 60.0578 116.14 59.9704 116.189C59.883 116.237 59.7956 116.286 59.7081 116.334C55.0554 119.49 53.6753 127.921 52.0626 130.99C51.7323 131.631 51.8295 131.806 52.5482 131.864C56.006 132.117 63.8925 135.401 69.0308 133.119C69.1182 133.07 69.2056 133.022 69.2931 132.973C69.3805 132.925 69.5553 132.828 69.6427 132.779C69.7302 132.731 69.7302 132.731 69.8176 132.682C69.905 132.633 69.905 132.633 69.9924 132.585C70.0798 132.536 70.2547 132.439 70.3421 132.391C70.4295 132.342 70.5169 132.294 70.6044 132.245C75.1697 129.137 76.5206 121.066 78.1236 117.774C78.4928 116.997 78.2985 116.647 77.4438 116.55C73.8015 116.171 66.2841 113.139 61.3206 115.324C61.2332 115.373 61.1457 115.421 61.0583 115.47C60.9806 115.742 60.8446 115.703 60.6698 115.8Z" fill="#1C1B1A"/>
<path d="M68.4685 123.251C67.2446 123.931 65.7488 123.503 65.069 122.279C64.4864 121.23 64.7487 120.055 65.5647 119.259C64.6226 119.21 63.6027 119.433 62.7285 119.919C60.1933 121.327 59.2994 124.454 60.7075 126.989C62.1156 129.525 65.2431 130.419 67.7783 129.01C70.3135 127.602 71.2074 124.475 69.7992 121.94C69.7507 121.852 69.7507 121.852 69.7021 121.765C69.4593 122.357 69.0804 122.911 68.4685 123.251Z" fill="#1C1B1A"/>
<defs>
<clipPath id="clip0_2691_52756">
<rect width="235.646" height="200" fill="white" transform="matrix(-1 0 0 1 322.455 8.401)"/>
</clipPath>
</defs>
</svg>
