<svg width="150" height="63" viewBox="0 0 150 63" fill="none" xmlns="http://www.w3.org/2000/svg">
<path d="M92.5752 0.539551V20.0048H96.0443V23.7915C93.6092 23.7915 91.1742 23.7915 88.7725 23.7915V0.539551H92.5752Z" fill="#1E6586"/>
<path d="M79.7828 23.7915H75.8467C77.2477 12.232 77.0809 13.6603 78.7154 0.539551H84.1192C85.7203 13.6603 85.5535 12.232 86.9879 23.7915H83.0184C82.7516 21.2006 82.5848 19.274 82.418 17.447H80.3832C80.2164 19.274 80.0497 21.2006 79.7828 23.7915ZM80.7168 13.926H82.1178C81.9176 11.6673 81.7175 9.04312 81.4173 5.09029C81.1171 9.04312 80.8836 11.6673 80.7168 13.926Z" fill="#1E6586"/>
<path d="M74.0532 23.7915H70.2505V0.539551H74.0532V23.7915Z" fill="#1E6586"/>
<path d="M64.6668 3.92734H62.3652V20.4362H64.6668V18.3436H68.4695V20.4362C68.4695 23.0604 66.0011 24.1566 63.4993 24.1566C61.0309 24.1566 58.5625 23.0604 58.5625 20.4362V3.92734C58.5625 1.30319 61.0309 0.207031 63.4993 0.207031C66.0011 0.207031 68.4695 1.30319 68.4695 3.92734V6.02002H64.6668V3.92734Z" fill="#1E6586"/>
<path d="M52.9788 3.92734H50.6772V20.4362H52.9788V3.92734ZM51.8113 24.1566C49.3429 24.1566 46.8745 23.0604 46.8745 20.4362V3.92734C46.8745 1.30319 49.3429 0.207031 51.8113 0.207031C54.3131 0.207031 56.7815 1.30319 56.7815 3.92734V20.4362C56.7815 23.0604 54.3131 24.1566 51.8113 24.1566Z" fill="#1E6586"/>
<path d="M40.7733 20.0048C42.6413 13.0624 31.867 10.5379 37.6377 0.539551H44.4759V4.35952H40.2396C38.3716 11.3019 49.1459 13.8264 43.3418 23.7915H36.537V20.0048H40.7733Z" fill="#1E6586"/>
<path d="M22.7563 0.539551H30.0282V4.35952H26.559V10.2722H30.0282V14.0921H26.559V20.0048H30.0282V23.7915H22.7563V0.539551Z" fill="#1E6586"/>
<path d="M14.2524 0.539551V10.2722H17.1544V0.539551H20.9571V23.7915H17.1544V14.0921H14.2524V23.7915H10.4497V0.539551H14.2524Z" fill="#1E6586"/>
<path d="M0 0.539551H8.67279V4.35952H6.23774V23.7915H2.4017V4.35952H0V0.539551Z" fill="#1E6586"/>
<path d="M149.869 62.2406H144.288V56.6597H149.869V62.2406Z" fill="#1E6586"/>
<path d="M128.645 27.9229H141.373V33.5528H137.799V62.1919H132.169V33.5528H128.645V27.9229Z" fill="#1E6586"/>
<path d="M120.254 55.5339L120.107 27.9229H125.737V62.1919H117.561L114.232 34.6298V62.1919H108.651V27.9229H116.778L120.254 55.5339Z" fill="#1E6586"/>
<path d="M105.713 62.1919H100.132V27.9229H105.713V62.1919Z" fill="#1E6586"/>
<path d="M90.8661 33.5528H87.4882V43.4908H90.8661V33.5528ZM93.5587 48.3864L97.2304 62.1919H91.1599L87.9288 49.1207H87.4882V62.1919H81.9072V27.9229H90.8661C93.9503 27.9229 96.4471 30.4686 96.4471 33.5528V43.4908C96.4471 45.5959 95.2722 47.4562 93.5587 48.3864Z" fill="#1E6586"/>
<path d="M73.4067 33.5528H70.0287V43.4908H73.4067V33.5528ZM70.0287 49.1207V62.1919H64.4478V27.9229H73.4067C76.4909 27.9229 78.9876 30.4686 78.9876 33.5528V43.4908C78.9876 46.575 76.4909 49.1207 73.4067 49.1207H70.0287Z" fill="#1E6586"/>
<path d="M50.8604 27.9229H61.5327V33.5528H56.4413V42.2669H61.5327V47.8968H56.4413V56.6109H61.5327V62.1919H50.8604V27.9229Z" fill="#1E6586"/>
<path d="M42.3598 33.4059V27.9229H47.9407V57.2474C47.9407 61.1149 44.318 62.7304 40.6463 62.7304C37.0236 62.7304 33.4009 61.1149 33.4009 57.2474V27.9229H38.9818V57.2474H42.3598V33.4059Z" fill="#1E6586"/>
<path d="M25.3944 27.9229V56.6109H30.4858V62.1919C26.9121 62.1919 23.3383 62.1919 19.8135 62.1919V27.9229H25.3944Z" fill="#1E6586"/>
<path d="M16.8939 49.4144V56.6109C16.8939 59.6952 14.3971 62.1919 11.3129 62.1919H2.354V27.9229H11.3129C14.3971 27.9229 16.8939 30.4686 16.8939 33.5528V40.7493C16.8939 42.5117 16.1106 44.0293 14.8377 45.0574C16.1106 46.1344 16.8939 47.652 16.8939 49.4144ZM7.93496 42.5117H11.3129V33.5528H7.93496V42.5117ZM7.93496 47.652V56.6109H11.3129V47.652H7.93496Z" fill="#1E6586"/>
</svg>
