<svg width="194" height="81" viewBox="0 0 194 81" fill="none" xmlns="http://www.w3.org/2000/svg">
<path d="M119.315 0.428223V25.5157H123.786V30.3963C120.648 30.3963 117.509 30.3963 114.414 30.3963V0.428223H119.315Z" fill="white"/>
<path d="M102.827 30.3963H97.7539C99.5596 15.4979 99.3446 17.3388 101.451 0.428223H108.416C110.479 17.3388 110.264 15.4979 112.113 30.3963H106.997C106.653 27.057 106.438 24.5739 106.223 22.2193H103.601C103.386 24.5739 103.171 27.057 102.827 30.3963ZM104.031 17.6812H105.836C105.578 14.7701 105.32 11.388 104.934 6.29339C104.547 11.388 104.246 14.7701 104.031 17.6812Z" fill="white"/>
<path d="M95.4421 30.3963H90.541V0.428223H95.4421V30.3963Z" fill="white"/>
<path d="M83.346 4.79488H80.3796V26.0722H83.346V23.3751H88.247V26.0722C88.247 29.4543 85.0657 30.8671 81.8413 30.8671C78.6599 30.8671 75.4785 29.4543 75.4785 26.0722V4.79488C75.4785 1.41278 78.6599 0 81.8413 0C85.0657 0 88.247 1.41278 88.247 4.79488V7.49201H83.346V4.79488Z" fill="white"/>
<path d="M68.2815 4.79488H65.3151V26.0722H68.2815V4.79488ZM66.7768 30.8671C63.5954 30.8671 60.4141 29.4543 60.4141 26.0722V4.79488C60.4141 1.41278 63.5954 0 66.7768 0C70.0012 0 73.1826 1.41278 73.1826 4.79488V26.0722C73.1826 29.4543 70.0012 30.8671 66.7768 30.8671Z" fill="white"/>
<path d="M52.5501 25.5157C54.9577 16.5681 41.0714 13.3145 48.5089 0.428223H57.3222V5.35154H51.8623C49.4547 14.2991 63.341 17.5528 55.8605 30.3963H47.0902V25.5157H52.5501Z" fill="white"/>
<path d="M29.3301 0.428223H38.7023V5.35154H34.2311V12.972H38.7023V17.8953H34.2311V25.5157H38.7023V30.3963H29.3301V0.428223Z" fill="white"/>
<path d="M18.3698 0.428223V12.972H22.1101V0.428223H27.0111V30.3963H22.1101V17.8953H18.3698V30.3963H13.4688V0.428223H18.3698Z" fill="white"/>
<path d="M0 0.428223H11.1778V5.35154H8.03944V30.3963H3.0954V5.35154H0V0.428223Z" fill="white"/>
<path d="M193.156 79.9508H185.963V72.7578H193.156V79.9508Z" fill="white"/>
<path d="M165.801 35.7212H182.206V42.9772H177.6V79.8885H170.344V42.9772H165.801V35.7212Z" fill="white"/>
<path d="M154.987 71.3074L154.798 35.7212H162.054V79.8885H151.517L147.226 44.3654V79.8885H140.033V35.7212H150.507L154.987 71.3074Z" fill="white"/>
<path d="M136.246 79.8885H129.053V35.7212H136.246V79.8885Z" fill="white"/>
<path d="M117.111 42.9772H112.757V55.7858H117.111V42.9772ZM120.581 62.0954L125.314 79.8885H117.49L113.325 63.0418H112.757V79.8885H105.564V35.7212H117.111C121.086 35.7212 124.304 39.0022 124.304 42.9772V55.7858C124.304 58.4989 122.79 60.8965 120.581 62.0954Z" fill="white"/>
<path d="M94.6091 42.9772H90.2555V55.7858H94.6091V42.9772ZM90.2555 63.0418V79.8885H83.0625V35.7212H94.6091C98.5841 35.7212 101.802 39.0022 101.802 42.9772V55.7858C101.802 59.7608 98.5841 63.0418 94.6091 63.0418H90.2555Z" fill="white"/>
<path d="M65.5508 35.7212H79.3057V42.9772H72.7437V54.2084H79.3057V61.4644H72.7437V72.6955H79.3057V79.8885H65.5508V35.7212Z" fill="white"/>
<path d="M54.5935 42.788V35.7212H61.7864V73.5158C61.7864 78.5004 57.1173 80.5825 52.3851 80.5825C47.716 80.5825 43.0469 78.5004 43.0469 73.5158V35.7212H50.2398V73.5158H54.5935V42.788Z" fill="white"/>
<path d="M32.7281 35.7212V72.6955H39.2901V79.8885C34.6841 79.8885 30.0781 79.8885 25.5352 79.8885V35.7212H32.7281Z" fill="white"/>
<path d="M21.7727 63.4204V72.6955C21.7727 76.6706 18.5548 79.8885 14.5798 79.8885H3.0332V35.7212H14.5798C18.5548 35.7212 21.7727 39.0022 21.7727 42.9772V52.2524C21.7727 54.5238 20.7632 56.4798 19.1227 57.8048C20.7632 59.1929 21.7727 61.1489 21.7727 63.4204ZM10.2262 54.5238H14.5798V42.9772H10.2262V54.5238ZM10.2262 61.1489V72.6955H14.5798V61.1489H10.2262Z" fill="white"/>
</svg>
