<svg width="202" height="206" viewBox="0 0 202 206" fill="none" xmlns="http://www.w3.org/2000/svg">
<path d="M91.2808 117.356C91.2808 117.356 80.8175 124.703 80.3398 125.499C81.5226 128.842 83.6153 131.936 86.4358 134.461L95.6026 127.842L102.586 122.36C104.246 121.063 105.065 118.948 104.496 117.424C102.904 113.239 97.8772 114.353 91.2808 117.356Z" fill="white" stroke="black" stroke-width="2.02478" stroke-miterlimit="10" stroke-linecap="round" stroke-linejoin="round"/>
<path d="M61.6197 204.064L80.0896 164.486L92.3043 157.775L89.5521 142.24L87.8006 140.306L88.7104 137.486L86.2539 123.611C85.2758 124.52 84.5706 125.226 84.4569 125.43C83.9565 126.431 84.1385 128.023 84.4796 129.547L82.4097 129.001L81.9776 128.114L80.9085 128.615L71.3323 126.044L67.147 133.164C66.6466 132.777 66.3509 132.573 66.3509 132.573L68.8303 124.589C69.7628 121.609 69.1032 118.379 67.0788 115.991L64.8497 113.352L52.6122 135.848L53.5221 156.183L53.4083 156.456L1.77441 204.087" fill="white"/>
<path d="M61.6197 204.064L80.0896 164.486L92.3043 157.775L89.5521 142.24L87.8006 140.306L88.7104 137.486L86.2539 123.611C85.2758 124.52 84.5706 125.226 84.4569 125.43C83.9565 126.431 84.1385 128.023 84.4796 129.547L82.4097 129.001L81.9776 128.114L80.9085 128.615L71.3323 126.044L67.147 133.164C66.6466 132.777 66.3509 132.573 66.3509 132.573L68.8303 124.589C69.7628 121.609 69.1032 118.379 67.0788 115.991L64.8497 113.352L52.6122 135.848L53.5221 156.183L53.4083 156.456L1.77441 204.087" stroke="black" stroke-width="2.02478" stroke-miterlimit="10" stroke-linecap="round" stroke-linejoin="round"/>
<path d="M87.1634 111.191L102.335 155.114L87.0497 160.96L58.4805 120.426" fill="black"/>
<path d="M43.8779 88.832L40.4887 90.0603C35.1206 91.9938 32.3456 97.9078 34.3018 103.253L39.1695 116.605C41.1256 121.951 47.0624 124.703 52.4305 122.769L55.8197 121.541" fill="black"/>
<path d="M97.1266 111.055L167.503 114.922L133.111 20.7754L81.6592 68.6789" fill="white"/>
<path d="M97.1266 111.055L167.503 114.922L133.111 20.7754L81.6592 68.6789" stroke="black" stroke-width="2.02478" stroke-miterlimit="10" stroke-linecap="round" stroke-linejoin="round"/>
<path d="M100.403 114.058L71.1282 124.635C60.7787 128.365 49.3374 123.065 45.5842 112.761L41.035 100.273C37.2819 89.9693 42.6272 78.5962 52.954 74.8658L82.2284 64.2888L100.403 114.058Z" fill="black"/>
<path d="M64.2363 84.1235L76.4965 79.688" stroke="white" stroke-width="2.02478"/>
<path d="M102.382 151.93L100.38 136.03C100.334 135.234 100.221 134.347 100.062 133.574L99.9705 132.846H99.925C99.7203 131.868 99.5156 131.185 99.5156 131.185C99.3564 129.593 97.6959 128.524 96.2629 129.047L94.4887 129.707L89.0978 132.095C87.824 132.664 87.1872 134.12 87.6421 135.53C88.1652 137.122 89.1206 138.146 90.4399 138.76L88.2107 139.738C86.9369 140.307 86.3 141.762 86.755 143.15C87.6648 145.97 89.9849 147.017 93.1922 147.176L91.0767 148.109C89.803 148.677 89.1661 150.133 89.621 151.543C90.8493 155.387 94.7161 155.933 99.8113 155.456C99.8113 155.456 101.586 154.955 101.949 154.455C102.336 153.954 102.404 152.999 102.336 151.93H102.382Z" fill="white" stroke="black" stroke-width="2.02478" stroke-miterlimit="10" stroke-linecap="round" stroke-linejoin="round"/>
<path d="M90.166 138.896L99.8787 135.211" stroke="black" stroke-width="2.02478" stroke-miterlimit="10" stroke-linecap="round" stroke-linejoin="round"/>
<path d="M91.7578 147.677L100.902 144.151" stroke="black" stroke-width="2.02478" stroke-miterlimit="10" stroke-linecap="round" stroke-linejoin="round"/>
<path d="M68.7627 135.257L67.2387 132.573L69.718 124.589C70.6506 121.609 69.991 118.379 67.9666 115.991L65.7375 113.352L53.5 135.848L54.4098 156.183L54.2961 156.456" fill="white"/>
<path d="M179.399 121.473C178.922 121.473 178.421 121.45 177.944 121.404C162.271 119.88 146.395 94.7004 137.615 70.4075C132.201 55.4177 129.244 40.4735 129.267 28.327C129.335 10.2892 135.84 4.1705 141.277 2.21433C142.755 1.69117 144.325 1.41821 145.962 1.41821C146.44 1.41821 146.941 1.44096 147.418 1.48645C163.09 3.01045 178.967 28.1905 187.747 52.4835C193.161 67.4732 196.118 82.4175 196.095 94.564C196.05 112.624 189.544 118.72 184.108 120.677C182.584 121.2 181.014 121.473 179.399 121.473Z" fill="white"/>
<path d="M145.963 2.44189C146.418 2.44189 146.873 2.46464 147.327 2.51013C158.314 3.57921 174.759 19.547 186.792 52.8475C192.16 67.7235 195.117 82.5541 195.072 94.5868C195.026 112.056 188.885 117.902 183.744 119.744C182.357 120.245 180.924 120.495 179.422 120.495C178.967 120.495 178.513 120.472 178.058 120.427C167.071 119.357 150.626 103.39 138.593 70.0891C133.225 55.2131 130.268 40.3826 130.313 28.3498C130.359 10.858 136.478 5.01222 141.618 3.16977C143.006 2.66936 144.461 2.44189 145.963 2.44189ZM145.963 0.41748C144.234 0.41748 142.528 0.713182 140.936 1.28184C135.181 3.329 128.334 9.69794 128.266 28.3271C128.221 40.5873 131.2 55.6453 136.659 70.7488C142.278 86.2844 149.352 99.3863 157.131 108.621C164.114 116.901 171.461 121.791 177.83 122.405C178.353 122.451 178.876 122.474 179.377 122.474C181.106 122.474 182.812 122.178 184.404 121.609C190.159 119.562 197.005 113.193 197.073 94.5641C197.119 82.3038 194.139 67.2459 188.68 52.1424C183.062 36.6067 175.988 23.5049 168.208 14.2699C161.225 5.9903 153.878 1.09987 147.509 0.48572C146.986 0.440227 146.463 0.41748 145.963 0.41748Z" fill="black"/>
<path d="M184.726 114.374C194.141 110.969 193.056 84.1037 182.302 54.3687C171.549 24.6337 155.198 3.28912 145.783 6.69428C136.367 10.0994 137.452 36.9648 148.206 66.6999C158.96 96.4349 175.31 117.779 184.726 114.374Z" fill="black"/>
<path d="M164.115 81.6897L167.504 80.4614C172.872 78.528 175.647 72.614 173.691 67.2686L168.823 53.9166C166.867 48.5712 160.93 45.819 155.562 47.7524L152.173 48.9807L152.105 49.3219C149.989 61.4684 154.561 73.8195 164.115 81.6897Z" fill="white" stroke="black" stroke-width="2.02478" stroke-miterlimit="10" stroke-linecap="round" stroke-linejoin="round"/>
</svg>
