<svg xmlns="http://www.w3.org/2000/svg" width="107" height="101" viewBox="0 0 107 101" fill="none">
  <path d="M66.6876 117.493L73.295 117.481C74.8472 117.478 76.386 117.767 77.8313 118.333C92.4557 124.152 99.9464 117.896 100.935 107.557C101.348 103.232 98.6051 99.3873 94.9292 97.0713C93.1371 95.9421 91.1234 95.211 89.0243 94.9273L70.9237 92.4812C58.3519 90.7456 45.6369 90.2818 33.003 91.0804C24.0796 91.6444 16.3253 98.6464 17.3415 107.53C18.4096 116.867 28.3502 120.8 37.6577 119.497C47.2496 118.154 56.9342 117.473 66.6876 117.493Z" fill="#B7C4FF"/>
  <path d="M97.1664 64.726L88.0914 59.026C85.4664 57.376 82.0164 57.526 79.5414 59.476L46.6914 85.576L77.5164 97.951L97.1664 64.726Z" fill="#B7C4FF"/>
  <path d="M77.8914 98.1757L47.0664 85.8007L69.5664 67.9507L90.7164 76.4257L77.8914 98.1757Z" fill="white" stroke="#1C1B1A"/>
  <path d="M114.868 83.8523L110.068 66.4523C108.868 62.1773 104.443 59.7023 100.243 60.9773L94.018 62.8523L92.818 59.8523H92.743C88.843 58.2773 84.343 59.7023 82.018 63.2273L61.918 94.2023L107.818 112.652L114.868 83.8523Z" fill="#B7C4FF"/>
  <path d="M67.4424 77.5508C67.4426 76.9466 68.1167 76.4942 68.7002 76.7373L68.707 76.7402L76.2119 79.7305L70.1523 80.6357L69.1562 80.2383H69.1572C68.0664 79.7889 67.3783 78.777 67.4414 77.5771L67.4424 77.5645V77.5508Z" fill="white" stroke="#1C1B1A"/>
  <path d="M114.868 83.8504L119.518 101.025C121.918 109.725 112.243 116.7 104.743 111.675L76.1676 92.5504L71.3676 93.6754C69.7926 94.0504 68.1426 93.5254 67.0926 92.4004L66.2676 91.5004C64.6926 91.8004 63.0426 91.2004 62.0676 89.9254L61.3926 89.0254L62.8926 88.2004L62.5926 88.0504C61.4676 87.4504 60.7926 86.1754 60.9426 84.9004L72.1926 80.1004C74.4426 79.1254 76.9926 79.2754 79.1676 80.4754L100.543 92.6254L97.2426 83.7004C97.0926 83.6254 103.243 79.2004 114.868 83.8504Z" fill="white" stroke="#1C1B1A"/>
  <path d="M74.1414 88.6519L66.1914 91.4269" stroke="#1C1B1A"/>
  <path d="M73.4672 84.3018L63.1172 88.2018" stroke="#1C1B1A"/>
  <path d="M31.4197 92.5859L78.9584 96.3382L78.9984 95.4613C79.1232 93.8506 77.9147 92.4998 76.3756 92.3526L31.7272 88.7962L31.4197 92.5859Z" fill="#1C1B1A"/>
  <path d="M108.791 97.576L100.391 92.626" stroke="#1C1B1A"/>
  <path d="M69.9743 95.5272L26.771 92.0688L19.5361 62.6626C18.806 59.8262 21.1093 57.141 24.0712 57.3146L58.2499 60.06C60.0978 60.1891 61.6149 61.522 62.1032 63.3338L69.9743 95.5272Z" fill="#1C1B1A"/>
  <path d="M44.0728 79.0097C45.3616 77.9038 45.5098 75.9626 44.4039 74.6738C43.298 73.385 41.3568 73.2367 40.068 74.3426C38.7792 75.4485 38.6309 77.3898 39.7368 78.6786C40.8427 79.9674 42.7839 80.1156 44.0728 79.0097Z" fill="white"/>
  <path d="M43.2405 80.3939C42.7394 80.5507 42.2876 80.6135 41.7909 80.5331C39.6836 80.3279 38.0812 78.4717 38.2148 76.3867C38.2816 75.3442 38.7734 74.4045 39.592 73.7555C40.4106 73.1065 41.3903 72.7214 42.4552 72.8598C43.4977 72.9265 44.4374 73.4184 45.0864 74.237C45.7354 75.0555 46.1205 76.0352 45.9821 77.1001C45.9153 78.1426 45.4235 79.0823 44.6049 79.7313C44.1978 79.9373 43.7416 80.2372 43.2405 80.3939ZM41.4043 74.5245C40.5453 74.7932 39.9147 75.5405 39.8255 76.5115C39.732 77.7195 40.6361 78.8512 41.9157 78.9224C43.1237 79.0159 44.2554 78.1118 44.3266 76.8322C44.4202 75.6242 43.5161 74.4925 42.2364 74.4213C41.9993 74.4169 41.6906 74.4349 41.4043 74.5245Z" fill="#1C1B1A"/>
  <path d="M96.3525 40.2176C98.471 33.8509 95.0271 26.9723 88.6604 24.8539C82.2937 22.7355 75.4151 26.1794 73.2967 32.5461C71.1783 38.9128 74.6222 45.7913 80.9889 47.9097C87.3556 50.0282 94.2341 46.5843 96.3525 40.2176Z" fill="#1C1B1A"/>
  <path d="M68.8163 35.5535C69.3413 39.5285 73.0163 42.3785 76.9913 41.8535C80.9663 41.3285 83.8163 37.6535 83.2913 33.6785C82.7663 29.7035 79.0913 26.8535 75.1163 27.3785C71.1413 27.9035 68.2913 31.5785 68.8163 35.5535Z" fill="#1C1B1A"/>
  <path d="M80.367 58.5028C74.067 58.0528 69.342 51.1528 69.942 42.9778C70.542 34.8778 76.092 28.6528 82.467 29.1028C87.717 29.4778 91.842 34.3528 92.742 40.7278C93.417 39.0778 94.842 37.8778 96.717 37.6528C99.267 37.3528 101.742 39.1528 102.192 41.7028C102.642 44.4778 100.767 47.0278 97.992 47.4028C97.392 47.4778 96.792 47.4778 96.267 47.3278L99.942 60.0778C101.517 59.9278 84.042 74.3278 83.067 62.7028V58.2778C82.167 58.5028 81.267 58.5778 80.367 58.5028Z" fill="white" stroke="#1C1B1A"/>
  <path d="M95.0365 44.1107C94.784 44.1107 94.5315 43.9592 94.481 43.6562C94.2285 42.6462 94.38 41.7372 94.8345 41.0303C95.491 40.0203 96.6525 39.8183 96.703 39.8183C97.006 39.7678 97.309 39.9698 97.3595 40.2728C97.41 40.5758 97.208 40.8788 96.905 40.9293C96.905 40.9293 96.1475 41.0808 95.7435 41.6867C95.4405 42.1412 95.39 42.6967 95.5415 43.4542C95.592 43.7572 95.4405 44.0602 95.1375 44.1107C95.1375 44.1107 95.087 44.1107 95.0365 44.1107Z" fill="#1C1B1A"/>
  <path d="M83.9084 58.8582C83.6735 58.8582 83.4856 58.7071 83.3916 58.4555C83.2977 58.1534 83.4856 57.8514 83.7675 57.8011C85.6936 57.2474 87.3848 55.5863 88.4184 53.1701C88.5123 52.9184 88.8412 52.7674 89.0761 52.9184C89.311 53.0191 89.4519 53.3714 89.311 53.6231C88.1835 56.3413 86.2104 58.2541 83.9554 58.8582C84.0024 58.8582 83.9554 58.8582 83.9084 58.8582Z" fill="#1C1B1A"/>
  <path d="M71.4416 42.2819C72.3301 41.6026 72.8463 40.7852 72.5947 40.4561C72.3431 40.1271 71.419 40.411 70.5305 41.0903C69.6421 41.7696 69.1258 42.5871 69.3774 42.9161C69.629 43.2452 70.5532 42.9612 71.4416 42.2819Z" fill="#1C1B1A"/>
  <path d="M82.768 40.8028C82.693 41.3278 81.568 41.6278 80.143 41.4778C78.718 41.3278 77.668 40.8778 77.668 40.3528C77.743 39.8278 78.868 39.5278 80.293 39.6778C81.718 39.7528 82.768 40.2778 82.768 40.8028Z" fill="#1C1B1A"/>
  <path d="M75.554 47.7674C75.4716 47.7821 75.3811 47.751 75.2905 47.72C74.8215 47.4733 74.5259 47.007 74.4693 46.451L74.2347 44.4172C74.1858 44.1429 74.3924 43.8702 74.6477 43.8719C74.895 43.8279 75.1499 44.0655 75.1575 44.3472L75.3922 46.381C75.4247 46.5639 75.5397 46.7322 75.6796 46.8016C75.9101 46.9021 76.0083 47.2148 75.9254 47.4654C75.8262 47.6246 75.7188 47.7381 75.554 47.7674Z" fill="#1C1B1A"/>
  <path d="M79.3579 53.1372C79.0433 53.1907 78.6969 53.0572 78.5941 52.8339C78.4833 52.5638 78.6871 52.2402 79.0566 52.1291C81.2026 51.4264 81.8052 50.0235 81.8601 49.966C81.9461 49.7106 82.3625 49.4952 82.701 49.582C83.0315 49.622 83.276 49.9174 83.1272 50.1835C83.0802 50.2878 82.3058 52.2015 79.4837 53.1157C79.4208 53.1264 79.3579 53.1372 79.3579 53.1372Z" fill="#1C1B1A"/>
  <path d="M76.2398 31.728C77.5898 34.053 80.5898 34.803 82.9148 33.453C85.2398 32.103 85.9898 29.103 84.6398 26.778C83.2898 24.453 80.2898 23.703 77.9648 25.053C75.6398 26.403 74.8898 29.403 76.2398 31.728Z" fill="#1C1B1A"/>
  <path d="M83.6656 33.6782C85.0156 36.0032 88.0156 36.7532 90.3406 35.4032C92.6656 34.0532 93.4156 31.0532 92.0656 28.7282C90.7156 26.4032 87.7156 25.6532 85.3906 27.0032C83.0656 28.3532 82.3156 31.3532 83.6656 33.6782Z" fill="#1C1B1A"/>
  <path d="M88.843 42.1544C89.518 43.2044 90.868 43.5794 91.993 42.9794C93.043 42.3044 93.418 40.9544 92.818 39.8294C92.143 38.7794 91.543 30.3794 88.468 32.1794C84.793 34.4294 88.168 41.1044 88.843 42.1544Z" fill="#1C1B1A"/>
  <path d="M92.7421 27.9036C92.5921 27.9036 92.4421 27.8286 92.2921 27.7536C91.9171 27.4536 91.8421 27.0036 92.1421 26.6286C92.7421 25.8036 93.8672 25.5786 94.0922 25.5786C94.5422 25.5036 94.9921 25.8036 94.9921 26.2536C95.0671 26.7036 94.7671 27.1536 94.3171 27.1536C94.0171 27.2286 93.5671 27.3786 93.4171 27.5286C93.1921 27.7536 92.9671 27.9036 92.7421 27.9036Z" fill="#1C1B1A"/>
  <path d="M92.1425 27.5271C91.9175 27.5271 91.7675 27.4521 91.6175 27.3021C91.3175 27.0021 91.2425 26.4771 91.5425 26.1771C91.5425 26.1771 91.8425 25.8021 91.6925 25.4271C91.5425 24.9771 91.7675 24.5271 92.2175 24.3771C92.6675 24.2271 93.1175 24.4521 93.2675 24.9021C93.6425 25.9521 93.1925 26.9271 92.8175 27.3021C92.5925 27.3771 92.3675 27.5271 92.1425 27.5271Z" fill="#1C1B1A"/>
  <path d="M79.0908 45.004C79.3158 45.829 79.9158 46.354 80.4408 46.204C80.9658 46.054 81.1908 45.304 80.9658 44.479C80.7408 43.654 80.1408 43.129 79.6158 43.279C79.0908 43.429 78.8658 44.179 79.0908 45.004Z" fill="#1C1B1A"/>
  <path d="M71.4423 46.5772C71.6673 47.4022 72.2673 47.9272 72.7923 47.7772C73.3173 47.6272 73.5423 46.8772 73.3173 46.0522C73.0923 45.2272 72.4924 44.7022 71.9674 44.8522C71.4424 45.0022 71.2173 45.7522 71.4423 46.5772Z" fill="#1C1B1A"/>
  <path d="M43.3901 3.82757L46.6151 22.5776C46.9151 24.3776 45.4151 25.9526 43.6151 25.8026H38.8901L42.4151 39.0776L29.5901 26.6276C29.2901 26.4026 28.9151 26.3276 28.5401 26.2526L5.66512 25.2026C4.31512 25.1276 3.26512 24.1526 3.04012 22.8776L0.0401218 3.22758C-0.259878 1.50257 1.16512 -0.0724253 2.89012 0.00257471L40.7651 1.57757C42.0401 1.65257 43.1651 2.55257 43.3901 3.82757Z" fill="#FCCC42"/>
  <path d="M29.5133 21.677C27.4883 21.677 25.3133 20.327 23.7383 18.677C21.4133 20.627 18.7133 21.152 16.1633 20.327C14.7383 19.802 13.5383 18.977 12.6383 17.927C12.4133 18.152 12.1133 18.377 11.8883 18.602C8.96328 20.627 7.68828 19.052 7.61328 19.052L8.21328 18.602L8.73828 18.077C8.73828 18.077 9.33828 18.602 11.0633 17.402C11.2883 17.252 11.5883 17.027 11.8133 16.802C11.2133 15.827 10.8383 14.777 10.6883 13.877C10.4633 12.302 10.7633 11.102 11.5883 10.502C12.1133 10.127 12.9383 9.82696 14.2883 10.502C14.8883 10.802 15.2633 11.402 15.3383 12.227C15.4133 13.577 14.6633 15.452 13.6133 16.952C14.3633 17.852 15.3383 18.602 16.6133 19.052C19.1633 19.952 21.3383 18.827 22.6883 17.702C22.6133 17.627 22.5383 17.552 22.4633 17.477C20.5883 14.927 20.0633 12.452 20.9633 10.802C21.7133 9.37696 22.9133 8.70196 24.2633 9.00196C25.7633 9.30196 27.1133 10.802 27.3383 12.527C27.5633 13.877 26.4383 16.127 24.7883 17.852C26.3633 19.427 28.3883 20.702 30.1133 20.327C31.9883 19.952 33.1133 19.127 33.5633 17.852C30.7883 16.877 30.4133 15.227 30.3383 14.552C30.2633 13.277 31.0883 12.077 32.3633 11.852C32.6633 11.777 33.1133 11.777 33.6383 12.152C34.4633 12.752 35.1383 14.102 35.2883 15.377C35.3633 15.827 35.3633 16.277 35.3633 16.727C36.3383 16.952 37.6133 17.102 39.1883 17.102V18.602C37.5383 18.602 36.2633 18.452 35.1383 18.152C34.5383 19.952 32.9633 21.152 30.5633 21.677C30.1133 21.677 29.8133 21.677 29.5133 21.677ZM23.7383 10.277C23.0633 10.277 22.6133 10.877 22.3133 11.402C21.7133 12.527 22.2383 14.477 23.7383 16.427C23.7383 16.502 23.8133 16.502 23.8133 16.577C25.2383 15.077 25.9883 13.277 25.8383 12.602C25.6883 11.477 24.8633 10.502 23.9633 10.352C23.8883 10.277 23.8133 10.277 23.7383 10.277ZM32.5883 13.202C32.2133 13.277 31.7633 13.727 31.8383 14.327C31.9133 15.002 32.4383 15.677 33.7883 16.202C33.7883 15.977 33.7883 15.752 33.7133 15.527C33.5633 14.177 32.8133 13.202 32.5883 13.202ZM12.8633 11.477C12.7133 11.477 12.5633 11.477 12.4883 11.552C12.1883 11.777 11.9633 12.452 12.1133 13.502C12.1883 14.102 12.4133 14.777 12.7133 15.377C13.4633 14.252 13.9133 12.902 13.8383 12.077C13.8383 11.777 13.7633 11.627 13.6133 11.552C13.4633 11.552 13.0883 11.477 12.8633 11.477Z" fill="#1C1B1A"/>
</svg>