<svg width="262" height="200" viewBox="0 0 262 200" fill="none" xmlns="http://www.w3.org/2000/svg">
<path d="M211.069 94.5876C206.769 93.0043 204.228 94.6267 202.859 96.2686C202.664 96.5032 202.488 96.7378 202.332 96.9919C202.957 88.0003 200.905 81.4716 196.194 77.5622C192.089 74.161 185.873 72.7731 178.23 73.555C172.483 74.1414 167.89 75.7443 167.831 75.7638C167.694 75.8225 167.577 75.9202 167.538 76.057C167.186 77.1126 159.015 101.859 161.244 114.037C163.472 126.234 164.156 130.085 164.156 130.085C164.176 130.222 164.254 130.339 164.371 130.417C164.45 130.456 169.336 133.291 177.409 132.548L177.37 143.201C177.37 143.338 177.429 143.475 177.546 143.572C177.702 143.69 179.892 145.351 186.557 144.53C191.268 143.963 198.207 142.145 208.215 137.708C208.391 137.63 208.508 137.435 208.489 137.239L206.749 113.372C210.033 113.235 213.376 110.421 214.822 106.238C216.601 101.136 214.959 96.0145 211.069 94.5876Z" fill="#FDF8F6"/>
<path d="M201.94 66.5181C197.835 67.0263 194.238 68.9419 191.6 71.7176C203.152 73.4768 212.652 83.0158 214.176 95.5454C214.235 96.0927 214.294 96.64 214.333 97.1874C219.044 93.6298 221.8 87.7266 221.037 81.452C219.884 72.0695 211.342 65.3648 201.94 66.5181Z" fill="#31302F"/>
<path d="M203.817 107.098L214.157 105.3L218.614 93.1022C220.823 87.0622 219.513 80.2989 215.193 75.549C210.384 70.2518 204.618 64.2704 203.211 64.4463C201.608 64.6418 182.51 64.2313 170.724 65.0327C164.097 65.4823 159.093 71.2291 159.543 77.8555L163.022 91.4993L167.909 75.5685C167.909 75.5685 179.793 85.6352 197.268 82.2145L203.817 107.098Z" fill="#31302F"/>
<path d="M174.867 96.4055C175.317 100.178 178.757 102.856 182.53 102.406C186.302 101.957 188.98 98.5166 188.531 94.744C188.081 90.9715 184.641 88.2935 180.868 88.7431C177.096 89.1927 174.398 92.633 174.867 96.4055Z" stroke="#A3B4FF" stroke-width="2" stroke-miterlimit="10"/>
<path d="M178.972 112.629L172.131 114.252" stroke="#31302F" stroke-width="2" stroke-miterlimit="10" stroke-linecap="round" stroke-linejoin="round"/>
<path d="M204.795 112.63C208.391 113.881 212.692 110.948 214.373 106.101C216.054 101.234 214.49 96.2882 210.893 95.0372C207.297 93.7862 202.996 96.7183 201.315 101.566" fill="#FDF8F6"/>
<path d="M204.795 112.63C208.391 113.881 212.692 110.948 214.373 106.101C216.054 101.234 214.49 96.2882 210.893 95.0372C207.297 93.7862 202.996 96.7183 201.315 101.566" stroke="#31302F" stroke-width="2" stroke-miterlimit="10" stroke-linecap="round" stroke-linejoin="round"/>
<path d="M174.555 94.1772L169.219 94.2554" stroke="#A3B4FF" stroke-width="2" stroke-miterlimit="10"/>
<path d="M180.028 94.6071C180.185 95.9754 180.908 97.0114 181.651 96.9137C182.374 96.8159 182.823 95.6431 182.667 94.2944C182.511 92.9261 181.787 91.8901 181.045 91.9878C180.321 92.066 179.852 93.2388 180.028 94.6071Z" fill="#31302F"/>
<path d="M164.684 94.5485C164.84 95.9168 165.563 96.9528 166.306 96.8551C167.029 96.7573 167.479 95.5845 167.322 94.2358C167.166 92.8675 166.443 91.8315 165.7 91.9292C164.957 92.0074 164.508 93.1802 164.684 94.5485Z" fill="#31302F"/>
<path d="M202.937 98.1453L188.512 94.7441" stroke="#A3B4FF" stroke-width="2" stroke-miterlimit="10"/>
<path d="M167.988 76.1938C167.988 76.1938 159.485 101.742 161.713 113.939C163.941 126.136 164.626 129.987 164.626 129.987C164.626 129.987 176.94 137.435 195.373 125.179" stroke="#31302F" stroke-width="2" stroke-miterlimit="10" stroke-linecap="round" stroke-linejoin="round"/>
<path d="M206.261 113.196L208.02 137.278" stroke="#31302F" stroke-width="2" stroke-miterlimit="10" stroke-linecap="round" stroke-linejoin="round"/>
<path d="M177.898 132.216L177.839 143.181" stroke="#31302F" stroke-width="2" stroke-miterlimit="10" stroke-linecap="round" stroke-linejoin="round"/>
<path d="M169.727 93.3954C168.711 90.3656 165.681 88.3523 162.377 88.7627C158.605 89.2123 155.927 92.6526 156.376 96.4252C156.826 100.198 160.266 102.876 164.039 102.426C164.977 102.309 165.857 102.016 166.639 101.566" stroke="#A3B4FF" stroke-width="2" stroke-miterlimit="10"/>
<path d="M171.154 89.1343C171.154 89.1343 166.854 103.716 166.072 105.104C165.29 106.472 171.408 109.561 171.408 109.561" stroke="#31302F" stroke-width="2" stroke-miterlimit="10" stroke-linecap="round" stroke-linejoin="round"/>
<path d="M242.774 164.898C241.758 158.35 237.575 152.72 231.554 149.945C228.955 148.733 226.12 147.795 223.13 147.169L212.535 144.902L211.636 137.454C211.401 135.558 209.681 134.229 207.805 134.464L179.716 137.884L171.858 136.203C158.116 133.252 143.397 137.122 135.129 145.859L112.044 188.824L242.774 164.898Z" fill="#FDF8F6" stroke="#31302F" stroke-width="2"/>
<path d="M196.155 136.497L185.697 127.192C184.544 126.176 182.785 126.274 181.749 127.407L181.612 127.564C180.341 128.952 179.853 130.887 180.283 132.724L181.084 136.145" fill="#FDF8F6"/>
<path d="M196.155 136.497L185.697 127.192C184.544 126.176 182.785 126.274 181.749 127.407L181.612 127.564C180.341 128.952 179.853 130.887 180.283 132.724L181.084 136.145" stroke="#31302F" stroke-width="2" stroke-miterlimit="10" stroke-linecap="round" stroke-linejoin="round"/>
<path d="M202.488 172.229L196.154 136.477L169.668 129.167L163.354 127.466C160.95 126.821 158.761 129.069 159.484 131.454C159.777 132.392 160.481 133.154 161.419 133.506L167.987 135.969L164.43 150.356C163.98 152.154 164.136 154.03 164.84 155.731L166.462 159.64C167.42 161.927 169.316 163.706 171.681 164.488L178.953 166.912L177.233 176.92" fill="#FDF8F6"/>
<path d="M202.488 172.229L196.154 136.477L169.668 129.167L163.354 127.466C160.95 126.821 158.761 129.069 159.484 131.454C159.777 132.392 160.481 133.154 161.419 133.506L167.987 135.969L164.43 150.356C163.98 152.154 164.136 154.03 164.84 155.731L166.462 159.64C167.42 161.927 169.316 163.706 171.681 164.488L178.953 166.912L177.233 176.92" stroke="#31302F" stroke-width="2" stroke-miterlimit="10" stroke-linecap="round" stroke-linejoin="round"/>
<path d="M171.35 157.92C171.35 157.92 178.406 160.461 176.139 165.817" stroke="#31302F" stroke-width="2" stroke-miterlimit="10" stroke-linecap="round" stroke-linejoin="round"/>
<path d="M173.089 148.889C173.089 148.889 166.6 146.348 165.192 148.616" stroke="#31302F" stroke-width="2" stroke-miterlimit="10" stroke-linecap="round" stroke-linejoin="round"/>
<path d="M173.93 142.967C173.93 142.967 167.734 140.582 166.326 142.83" stroke="#31302F" stroke-width="2" stroke-miterlimit="10" stroke-linecap="round" stroke-linejoin="round"/>
<path d="M175.728 137.259C175.728 137.259 169.238 134.718 167.831 136.985" stroke="#31302F" stroke-width="2" stroke-miterlimit="10" stroke-linecap="round" stroke-linejoin="round"/>
<path d="M63.6258 87.0426C63.8213 88.1176 63.0981 89.1341 62.023 89.31C60.9479 89.5055 59.9315 88.7822 59.7555 87.7072C59.5601 86.6321 60.2833 85.6156 61.3584 85.4397C62.4139 85.2638 63.4304 85.987 63.6258 87.0426Z" fill="#31302F"/>
<path d="M69.3143 86.0652C69.5098 87.1403 68.7866 88.1567 67.7115 88.3326C66.6364 88.5281 65.6199 87.8049 65.444 86.7298C65.2485 85.6547 65.9718 84.6383 67.0469 84.4623C68.1024 84.2669 69.1189 84.9901 69.3143 86.0652Z" fill="#31302F"/>
<path d="M75.0018 85.0685C75.1973 86.1436 74.4741 87.16 73.399 87.3359C72.3239 87.5314 71.3074 86.8082 71.1315 85.7331C70.936 84.658 71.6593 83.6416 72.7344 83.4656C73.7899 83.2897 74.8064 83.9934 75.0018 85.0685Z" fill="#31302F"/>
<path d="M212.848 57.1554L213.63 61.5926" stroke="#31302F" stroke-width="2"/>
<path d="M215.447 58.9733L211.01 59.7551" stroke="#31302F" stroke-width="2"/>
<path d="M220.979 55.5917L219.181 55.9044L219.493 57.7028L221.292 57.39L220.979 55.5917Z" fill="#31302F"/>
<path d="M221.487 58.5042L219.688 58.8169L220.001 60.6348L221.8 60.3025L221.487 58.5042Z" fill="#31302F"/>
<path d="M223.931 55.0638L222.133 55.3766L222.446 57.1945L224.244 56.8817L223.931 55.0638Z" fill="#31302F"/>
<path d="M224.439 57.9958L222.641 58.3086L222.953 60.1069L224.752 59.7942L224.439 57.9958Z" fill="#31302F"/>
<path d="M247.876 163.96C250.847 163.413 252.821 160.579 252.293 157.607L233.802 51.1935C233.47 49.2388 231.828 47.8705 230.166 48.1637L54.5559 80.3772C52.8749 80.6704 51.7998 82.4883 52.1517 84.4625L70.6236 190.779C71.1513 193.789 74.0247 195.802 77.035 195.255L247.876 163.96Z" stroke="#31302F" stroke-width="2"/>
<path d="M178.523 27.5222V31.1775C178.523 46.385 166.208 58.6996 151.001 58.6996V78.8917L130.808 58.6996H107.567C92.3595 58.6996 80.0449 46.385 80.0449 31.1775V27.5222C80.0449 12.3146 92.3791 0 107.567 0H150.981C166.189 0 178.523 12.3146 178.523 27.5222Z" fill="#FDF8F6"/>
<path d="M121.51 17.0225L125.078 16.4857L125.005 15.9992C124.583 13.1982 121.969 11.2548 119.153 11.6785L115.586 12.2153L115.659 12.7018C116.098 15.5153 118.709 17.444 121.51 17.0225Z" fill="#007DAB"/>
<path d="M128.429 8.29298C126.969 8.51258 125.953 9.87162 126.175 11.3458L127.834 22.3728" stroke="#007DAB" stroke-width="2"/>
<path d="M123.999 19.0302C128.665 20.1824 129.642 19.764 133.122 17.6423C141.302 12.4918 150.973 13.9462 152.222 31.0651C152.624 39.7485 149.364 47.8373 139.283 49.3693C137.233 49.6776 135.214 49.68 133.301 49.3949C131.56 50.2449 129.629 50.837 127.582 51.1601C117.515 52.6899 111.979 45.9549 109.779 37.5421C105.846 20.8269 114.657 16.5613 123.999 19.0302Z" fill="#A3B4FF"/>
<path d="M127.234 15.3774L127.879 19.6673L137.255 18.2565C139.894 17.8595 141.724 15.398 141.325 12.7445L140.68 8.45458L131.304 9.86538C128.665 10.2624 126.834 12.7239 127.234 15.3774Z" fill="#007DAB"/>
<path d="M120.214 95.7288L56.8623 94.1455L65.5021 63.7499L120.214 95.7288Z" fill="#007DAB"/>
<path d="M74.6304 143.775H6.64598C2.97114 143.775 0 140.804 0 137.129V60.5051C0 56.8303 2.97114 53.8591 6.64598 53.8591H74.6304C78.3053 53.8591 81.2764 56.8303 81.2764 60.5051V137.129C81.2764 140.804 78.2857 143.775 74.6304 143.775Z" fill="#007DAB"/>
<path d="M1.17285 141.215C1.87654 139.612 2.63888 137.95 3.40121 136.269C9.28486 123.446 20.1921 113.595 33.5427 109.001L47.8511 104.075C47.8511 104.075 71.2879 98.8563 80.9051 109.04" stroke="#31302F" stroke-width="2" stroke-miterlimit="10" stroke-linecap="round" stroke-linejoin="round"/>
<path d="M42.8669 143.795L33.4844 143.912C33.4844 143.912 33.7971 134.803 42.3001 131.988C50.803 129.154 64.5055 127.434 67.8089 134.334C71.1123 141.214 79.2439 150.968 73.6535 151.027C69.4509 151.086 61.3193 139.436 61.3193 139.436L62.9222 157.458C62.9222 157.458 59.8142 158.65 56.9799 157.986C55.7875 157.712 53.7351 157.126 51.4481 156.207C48.2815 154.956 45.1344 152.864 42.8669 143.795Z" fill="#FDF8F6"/>
<path d="M33.1914 143.99C34.4229 139.416 37.0226 133.552 42.3003 132.008C51.2724 129.369 63.9193 127.473 67.8091 134.353L75.5888 148.642C76.0384 149.483 75.6475 150.538 74.7483 150.851C72.7741 151.574 70.5848 150.949 69.2556 149.326L60.7918 138.986" stroke="#31302F" stroke-width="2" stroke-miterlimit="10" stroke-linecap="round" stroke-linejoin="round"/>
<path d="M60.1856 134.393L63.059 157.556C63.059 157.556 59.5992 159.862 57.7422 157.282" stroke="#31302F" stroke-width="2" stroke-miterlimit="10" stroke-linecap="round" stroke-linejoin="round"/>
<path d="M53.5589 134.999L57.6442 158.474C57.6442 158.474 53.2462 158.865 52.2297 156.383C51.1937 153.881 47.1084 137.071 47.1084 137.071" stroke="#31302F" stroke-width="2" stroke-miterlimit="10" stroke-linecap="round" stroke-linejoin="round"/>
<path d="M41.8506 139.69C41.8506 139.69 44.8804 156.344 52.0541 156.168" stroke="#31302F" stroke-width="2" stroke-miterlimit="10" stroke-linecap="round" stroke-linejoin="round"/>
<path d="M42.9057 44.1637C42.9057 44.1637 64.0556 62.7529 69.8611 75.2435C75.6665 87.7145 73.2622 98.3871 55.9631 96.2369C55.9631 96.2369 53.7348 93.7936 53.3829 100.342C53.0311 107.144 52.0147 113.516 52.0147 113.516C52.0147 113.516 50.9982 121.609 44.7823 121.374C34.7937 120.983 26.3299 114.611 25.4307 113.614C25.4307 113.614 28.3628 103.763 27.3072 98.0353C26.2517 92.2885 24.2188 86.3657 24.2188 86.3657L18.7848 84.7433C18.7848 84.7433 11.3373 83.0036 12.8425 72.0378C14.2303 61.8733 19.7035 40.4303 42.9057 44.1637Z" fill="#FDF8F6"/>
<path d="M53.7157 57.9054C54.1458 58.7068 54.9667 59.0977 55.5336 58.785C56.1005 58.4722 56.2177 57.5731 55.7877 56.7716C55.3577 55.9702 54.5367 55.5793 53.9698 55.892C53.403 56.2048 53.2857 57.1039 53.7157 57.9054Z" fill="#31302F"/>
<path d="M41.7914 63.1634C42.2215 63.9648 43.0424 64.3558 43.6093 64.043C44.1762 63.7303 44.2934 62.8311 43.8634 62.0297C43.4334 61.2283 42.6124 60.8373 42.0455 61.1501C41.4591 61.4628 41.3419 62.362 41.7914 63.1634Z" fill="#31302F"/>
<path d="M42.9061 56.4393C42.9061 56.4393 37.6871 54.6019 35.791 59.1563" stroke="#31302F" stroke-width="2" stroke-miterlimit="10" stroke-linecap="round" stroke-linejoin="round"/>
<path d="M57.41 52.4517C57.41 52.4517 52.191 50.6143 50.2949 55.1688" stroke="#31302F" stroke-width="2" stroke-miterlimit="10" stroke-linecap="round" stroke-linejoin="round"/>
<path d="M50.5875 49.5001C50.5875 49.5001 69.2745 71.3928 71.7178 79.9543C74.1612 88.5159 73.7507 106.441 36.4941 89.7474" stroke="#31302F" stroke-width="2" stroke-miterlimit="10" stroke-linecap="round" stroke-linejoin="round"/>
<path d="M53.5781 62.1471C55.2983 64.7078 57.0184 67.2684 58.7385 69.8291C58.7385 69.8291 60.0873 72.292 56.9988 73.1911" stroke="#31302F" stroke-width="2" stroke-miterlimit="10" stroke-linecap="round" stroke-linejoin="round"/>
<path d="M61.9251 78.2146C61.9251 78.2146 57.8006 82.0849 50.7051 78.5078" stroke="#31302F" stroke-width="2" stroke-miterlimit="10" stroke-linecap="round" stroke-linejoin="round"/>
<path d="M33.7972 72.6046C33.7972 72.6046 24.3755 60.4659 27.7376 55.9115C31.0997 51.357 45.6231 51.6111 47.4996 52.5885C49.3761 53.5658 48.0665 50.0083 48.0665 50.0083L55.4748 52.4712C55.4748 52.4712 54.5561 43.0887 48.2815 40.9189C41.9873 38.7492 44.2548 40.4303 44.2548 40.4303C44.2548 40.4303 44.978 34.2143 35.5564 34.4098C26.1347 34.6053 13.1164 41.5249 11.494 44.887C9.87163 48.2491 3.67523 60.2118 5.25854 68.4607C6.8223 76.7095 14.0742 76.6509 14.0742 76.6509C14.0742 76.6509 13.7419 70.8649 21.3457 70.7868C28.9495 70.7086 29.2818 76.1231 29.2818 76.1231L33.7972 72.6046Z" fill="#31302F"/>
<path d="M27.6979 79.8565C27.6979 79.8565 26.3101 75.9862 23.5539 75.0284C20.5828 73.9924 17.8267 76.4358 17.9244 78.0191" stroke="#31302F" stroke-width="2" stroke-miterlimit="10" stroke-linecap="round" stroke-linejoin="round"/>
<path d="M12.9404 75.6541C12.9404 75.6541 14.0937 83.4142 18.785 84.7434C24.4341 86.3463 24.1995 86.3658 24.1995 86.3658C24.1995 86.3658 30.4545 98.094 25.8805 111.171L25.4114 113.614C25.4114 113.614 48.7896 132.243 52.2885 112.051C53.5395 104.857 53.7546 95.7679 53.7546 95.7679" stroke="#31302F" stroke-width="2" stroke-miterlimit="10" stroke-linecap="round" stroke-linejoin="round"/>
<path d="M236.44 57.7028C250.539 57.7028 261.969 46.2733 261.969 32.1744C261.969 18.0754 250.539 6.646 236.44 6.646C222.342 6.646 210.912 18.0754 210.912 32.1744C210.912 46.2733 222.342 57.7028 236.44 57.7028Z" fill="#007DAB"/>
<path d="M239.959 18.0223H231.026V46.0136H239.959V18.0223Z" fill="#FDF8F6"/>
<path d="M249.479 27.5417H221.487V36.4747H249.479V27.5417Z" fill="#FDF8F6"/>
<path d="M39.8544 199.064C29.3577 202.387 18.1377 196.582 14.8147 186.065C11.4917 175.569 17.2972 164.349 27.8135 161.026C38.3102 157.703 49.5302 163.508 52.8532 174.024C56.1762 184.521 50.3512 195.741 39.8544 199.064Z" fill="#A3B4FF"/>
<path d="M41.6525 169.705C39.3264 168.356 38.7009 168.297 35.4366 169.158C34.9479 169.294 34.5179 169.353 34.1269 169.412C33.736 169.373 33.3059 169.294 32.8173 169.158C29.5529 168.297 28.947 168.356 26.6013 169.705C24.5489 170.78 23.3761 173.907 23.9625 177.406C24.6466 181.453 26.2104 181.746 26.2104 186.144C26.2104 190.503 27.7937 192.692 29.0642 192.692C30.3348 192.692 30.9798 191.187 32.3677 187.454C33.3255 184.893 34.7524 184.482 35.8666 187.454C37.274 191.187 37.8995 192.692 39.1896 192.692C40.4601 192.692 42.0434 190.503 42.0434 186.144C42.0434 181.765 43.6072 181.511 44.2914 177.406C44.8582 173.907 43.6854 170.78 41.6525 169.705Z" fill="#FDF8F6"/>
<path d="M95.5165 181.797C91.9589 185.355 86.173 185.355 82.6154 181.797C79.0579 178.239 79.0579 172.453 82.6154 168.896L100.481 151.03C104.039 147.472 109.825 147.472 113.382 151.03C116.94 154.588 116.94 160.373 113.382 163.931L95.5165 181.797Z" fill="#A3B4FF"/>
<path d="M91.6461 159.865L82.6154 168.896C79.0579 172.454 79.0579 178.239 82.6154 181.797C86.173 185.355 91.9589 185.355 95.5164 181.797L104.547 172.766L91.6461 159.865Z" fill="#007DAB"/>
</svg>
